%TF.GenerationSoftware,KiCad,Pcbnew,(6.0.2)*%
%TF.CreationDate,2022-03-20T11:28:52+00:00*%
%TF.ProjectId,Gameboy MBC5 Cart + FRAM,47616d65-626f-4792-904d-424335204361,rev?*%
%TF.SameCoordinates,Original*%
%TF.FileFunction,Soldermask,Top*%
%TF.FilePolarity,Negative*%
%FSLAX46Y46*%
G04 Gerber Fmt 4.6, Leading zero omitted, Abs format (unit mm)*
G04 Created by KiCad (PCBNEW (6.0.2)) date 2022-03-20 11:28:52*
%MOMM*%
%LPD*%
G01*
G04 APERTURE LIST*
G04 Aperture macros list*
%AMRoundRect*
0 Rectangle with rounded corners*
0 $1 Rounding radius*
0 $2 $3 $4 $5 $6 $7 $8 $9 X,Y pos of 4 corners*
0 Add a 4 corners polygon primitive as box body*
4,1,4,$2,$3,$4,$5,$6,$7,$8,$9,$2,$3,0*
0 Add four circle primitives for the rounded corners*
1,1,$1+$1,$2,$3*
1,1,$1+$1,$4,$5*
1,1,$1+$1,$6,$7*
1,1,$1+$1,$8,$9*
0 Add four rect primitives between the rounded corners*
20,1,$1+$1,$2,$3,$4,$5,0*
20,1,$1+$1,$4,$5,$6,$7,0*
20,1,$1+$1,$6,$7,$8,$9,0*
20,1,$1+$1,$8,$9,$2,$3,0*%
G04 Aperture macros list end*
%ADD10C,0.150000*%
%ADD11C,0.100000*%
%ADD12RoundRect,0.237500X0.300000X0.237500X-0.300000X0.237500X-0.300000X-0.237500X0.300000X-0.237500X0*%
%ADD13RoundRect,0.150000X-0.875000X-0.150000X0.875000X-0.150000X0.875000X0.150000X-0.875000X0.150000X0*%
%ADD14RoundRect,0.237500X0.237500X-0.300000X0.237500X0.300000X-0.237500X0.300000X-0.237500X-0.300000X0*%
%ADD15RoundRect,0.237500X-0.300000X-0.237500X0.300000X-0.237500X0.300000X0.237500X-0.300000X0.237500X0*%
%ADD16R,0.750000X1.100000*%
%ADD17R,0.250000X1.100000*%
%ADD18RoundRect,0.237500X0.250000X0.237500X-0.250000X0.237500X-0.250000X-0.237500X0.250000X-0.237500X0*%
%ADD19R,0.450000X1.500000*%
%ADD20R,1.500000X0.450000*%
G04 APERTURE END LIST*
D10*
X148038095Y-100495238D02*
X148000000Y-100457142D01*
X147961904Y-100380952D01*
X147961904Y-100190476D01*
X148000000Y-100114285D01*
X148038095Y-100076190D01*
X148114285Y-100038095D01*
X148190476Y-100038095D01*
X148304761Y-100076190D01*
X148761904Y-100533333D01*
X148761904Y-100038095D01*
X148761904Y-99657142D02*
X148761904Y-99504761D01*
X148723809Y-99428571D01*
X148685714Y-99390476D01*
X148571428Y-99314285D01*
X148419047Y-99276190D01*
X148114285Y-99276190D01*
X148038095Y-99314285D01*
X148000000Y-99352380D01*
X147961904Y-99428571D01*
X147961904Y-99580952D01*
X148000000Y-99657142D01*
X148038095Y-99695238D01*
X148114285Y-99733333D01*
X148304761Y-99733333D01*
X148380952Y-99695238D01*
X148419047Y-99657142D01*
X148457142Y-99580952D01*
X148457142Y-99428571D01*
X148419047Y-99352380D01*
X148380952Y-99314285D01*
X148304761Y-99276190D01*
X148342857Y-98666666D02*
X148342857Y-98933333D01*
X148761904Y-98933333D02*
X147961904Y-98933333D01*
X147961904Y-98552380D01*
X147961904Y-98095238D02*
X147961904Y-98019047D01*
X148000000Y-97942857D01*
X148038095Y-97904761D01*
X148114285Y-97866666D01*
X148266666Y-97828571D01*
X148457142Y-97828571D01*
X148609523Y-97866666D01*
X148685714Y-97904761D01*
X148723809Y-97942857D01*
X148761904Y-98019047D01*
X148761904Y-98095238D01*
X148723809Y-98171428D01*
X148685714Y-98209523D01*
X148609523Y-98247619D01*
X148457142Y-98285714D01*
X148266666Y-98285714D01*
X148114285Y-98247619D01*
X148038095Y-98209523D01*
X148000000Y-98171428D01*
X147961904Y-98095238D01*
X148761904Y-97066666D02*
X148761904Y-97523809D01*
X148761904Y-97295238D02*
X147961904Y-97295238D01*
X148076190Y-97371428D01*
X148152380Y-97447619D01*
X148190476Y-97523809D01*
X147961904Y-96380952D02*
X147961904Y-96533333D01*
X148000000Y-96609523D01*
X148038095Y-96647619D01*
X148152380Y-96723809D01*
X148304761Y-96761904D01*
X148609523Y-96761904D01*
X148685714Y-96723809D01*
X148723809Y-96685714D01*
X148761904Y-96609523D01*
X148761904Y-96457142D01*
X148723809Y-96380952D01*
X148685714Y-96342857D01*
X148609523Y-96304761D01*
X148419047Y-96304761D01*
X148342857Y-96342857D01*
X148304761Y-96380952D01*
X148266666Y-96457142D01*
X148266666Y-96609523D01*
X148304761Y-96685714D01*
X148342857Y-96723809D01*
X148419047Y-96761904D01*
X122552380Y-79661904D02*
X122552380Y-78861904D01*
X122819047Y-79433333D01*
X123085714Y-78861904D01*
X123085714Y-79661904D01*
X123733333Y-79242857D02*
X123847619Y-79280952D01*
X123885714Y-79319047D01*
X123923809Y-79395238D01*
X123923809Y-79509523D01*
X123885714Y-79585714D01*
X123847619Y-79623809D01*
X123771428Y-79661904D01*
X123466666Y-79661904D01*
X123466666Y-78861904D01*
X123733333Y-78861904D01*
X123809523Y-78900000D01*
X123847619Y-78938095D01*
X123885714Y-79014285D01*
X123885714Y-79090476D01*
X123847619Y-79166666D01*
X123809523Y-79204761D01*
X123733333Y-79242857D01*
X123466666Y-79242857D01*
X124723809Y-79585714D02*
X124685714Y-79623809D01*
X124571428Y-79661904D01*
X124495238Y-79661904D01*
X124380952Y-79623809D01*
X124304761Y-79547619D01*
X124266666Y-79471428D01*
X124228571Y-79319047D01*
X124228571Y-79204761D01*
X124266666Y-79052380D01*
X124304761Y-78976190D01*
X124380952Y-78900000D01*
X124495238Y-78861904D01*
X124571428Y-78861904D01*
X124685714Y-78900000D01*
X124723809Y-78938095D01*
X125447619Y-78861904D02*
X125066666Y-78861904D01*
X125028571Y-79242857D01*
X125066666Y-79204761D01*
X125142857Y-79166666D01*
X125333333Y-79166666D01*
X125409523Y-79204761D01*
X125447619Y-79242857D01*
X125485714Y-79319047D01*
X125485714Y-79509523D01*
X125447619Y-79585714D01*
X125409523Y-79623809D01*
X125333333Y-79661904D01*
X125142857Y-79661904D01*
X125066666Y-79623809D01*
X125028571Y-79585714D01*
D11*
%TO.C,C3*%
X158400000Y-116114285D02*
X158371428Y-116142857D01*
X158285714Y-116171428D01*
X158228571Y-116171428D01*
X158142857Y-116142857D01*
X158085714Y-116085714D01*
X158057142Y-116028571D01*
X158028571Y-115914285D01*
X158028571Y-115828571D01*
X158057142Y-115714285D01*
X158085714Y-115657142D01*
X158142857Y-115600000D01*
X158228571Y-115571428D01*
X158285714Y-115571428D01*
X158371428Y-115600000D01*
X158400000Y-115628571D01*
X158600000Y-115571428D02*
X158971428Y-115571428D01*
X158771428Y-115800000D01*
X158857142Y-115800000D01*
X158914285Y-115828571D01*
X158942857Y-115857142D01*
X158971428Y-115914285D01*
X158971428Y-116057142D01*
X158942857Y-116114285D01*
X158914285Y-116142857D01*
X158857142Y-116171428D01*
X158685714Y-116171428D01*
X158628571Y-116142857D01*
X158600000Y-116114285D01*
X157226190Y-117826190D02*
X156940476Y-117826190D01*
X157083333Y-117826190D02*
X157083333Y-117326190D01*
X157035714Y-117397619D01*
X156988095Y-117445238D01*
X156940476Y-117469047D01*
X157535714Y-117326190D02*
X157583333Y-117326190D01*
X157630952Y-117350000D01*
X157654761Y-117373809D01*
X157678571Y-117421428D01*
X157702380Y-117516666D01*
X157702380Y-117635714D01*
X157678571Y-117730952D01*
X157654761Y-117778571D01*
X157630952Y-117802380D01*
X157583333Y-117826190D01*
X157535714Y-117826190D01*
X157488095Y-117802380D01*
X157464285Y-117778571D01*
X157440476Y-117730952D01*
X157416666Y-117635714D01*
X157416666Y-117516666D01*
X157440476Y-117421428D01*
X157464285Y-117373809D01*
X157488095Y-117350000D01*
X157535714Y-117326190D01*
X158011904Y-117326190D02*
X158059523Y-117326190D01*
X158107142Y-117350000D01*
X158130952Y-117373809D01*
X158154761Y-117421428D01*
X158178571Y-117516666D01*
X158178571Y-117635714D01*
X158154761Y-117730952D01*
X158130952Y-117778571D01*
X158107142Y-117802380D01*
X158059523Y-117826190D01*
X158011904Y-117826190D01*
X157964285Y-117802380D01*
X157940476Y-117778571D01*
X157916666Y-117730952D01*
X157892857Y-117635714D01*
X157892857Y-117516666D01*
X157916666Y-117421428D01*
X157940476Y-117373809D01*
X157964285Y-117350000D01*
X158011904Y-117326190D01*
X158392857Y-117492857D02*
X158392857Y-117826190D01*
X158392857Y-117540476D02*
X158416666Y-117516666D01*
X158464285Y-117492857D01*
X158535714Y-117492857D01*
X158583333Y-117516666D01*
X158607142Y-117564285D01*
X158607142Y-117826190D01*
X159011904Y-117564285D02*
X158845238Y-117564285D01*
X158845238Y-117826190D02*
X158845238Y-117326190D01*
X159083333Y-117326190D01*
D10*
%TO.C,U1*%
X132890476Y-89361904D02*
X132890476Y-90009523D01*
X132928571Y-90085714D01*
X132966666Y-90123809D01*
X133042857Y-90161904D01*
X133195238Y-90161904D01*
X133271428Y-90123809D01*
X133309523Y-90085714D01*
X133347619Y-90009523D01*
X133347619Y-89361904D01*
X134147619Y-90161904D02*
X133690476Y-90161904D01*
X133919047Y-90161904D02*
X133919047Y-89361904D01*
X133842857Y-89476190D01*
X133766666Y-89552380D01*
X133690476Y-89590476D01*
X133133333Y-91142857D02*
X132866666Y-91142857D01*
X132866666Y-91561904D02*
X132866666Y-90761904D01*
X133247619Y-90761904D01*
X133552380Y-91561904D02*
X133552380Y-90761904D01*
X133819047Y-91333333D01*
X134085714Y-90761904D01*
X134085714Y-91561904D01*
X134885714Y-91561904D02*
X134428571Y-91561904D01*
X134657142Y-91561904D02*
X134657142Y-90761904D01*
X134580952Y-90876190D01*
X134504761Y-90952380D01*
X134428571Y-90990476D01*
X135342857Y-91104761D02*
X135266666Y-91066666D01*
X135228571Y-91028571D01*
X135190476Y-90952380D01*
X135190476Y-90914285D01*
X135228571Y-90838095D01*
X135266666Y-90800000D01*
X135342857Y-90761904D01*
X135495238Y-90761904D01*
X135571428Y-90800000D01*
X135609523Y-90838095D01*
X135647619Y-90914285D01*
X135647619Y-90952380D01*
X135609523Y-91028571D01*
X135571428Y-91066666D01*
X135495238Y-91104761D01*
X135342857Y-91104761D01*
X135266666Y-91142857D01*
X135228571Y-91180952D01*
X135190476Y-91257142D01*
X135190476Y-91409523D01*
X135228571Y-91485714D01*
X135266666Y-91523809D01*
X135342857Y-91561904D01*
X135495238Y-91561904D01*
X135571428Y-91523809D01*
X135609523Y-91485714D01*
X135647619Y-91409523D01*
X135647619Y-91257142D01*
X135609523Y-91180952D01*
X135571428Y-91142857D01*
X135495238Y-91104761D01*
X136142857Y-90761904D02*
X136219047Y-90761904D01*
X136295238Y-90800000D01*
X136333333Y-90838095D01*
X136371428Y-90914285D01*
X136409523Y-91066666D01*
X136409523Y-91257142D01*
X136371428Y-91409523D01*
X136333333Y-91485714D01*
X136295238Y-91523809D01*
X136219047Y-91561904D01*
X136142857Y-91561904D01*
X136066666Y-91523809D01*
X136028571Y-91485714D01*
X135990476Y-91409523D01*
X135952380Y-91257142D01*
X135952380Y-91066666D01*
X135990476Y-90914285D01*
X136028571Y-90838095D01*
X136066666Y-90800000D01*
X136142857Y-90761904D01*
X136866666Y-91104761D02*
X136790476Y-91066666D01*
X136752380Y-91028571D01*
X136714285Y-90952380D01*
X136714285Y-90914285D01*
X136752380Y-90838095D01*
X136790476Y-90800000D01*
X136866666Y-90761904D01*
X137019047Y-90761904D01*
X137095238Y-90800000D01*
X137133333Y-90838095D01*
X137171428Y-90914285D01*
X137171428Y-90952380D01*
X137133333Y-91028571D01*
X137095238Y-91066666D01*
X137019047Y-91104761D01*
X136866666Y-91104761D01*
X136790476Y-91142857D01*
X136752380Y-91180952D01*
X136714285Y-91257142D01*
X136714285Y-91409523D01*
X136752380Y-91485714D01*
X136790476Y-91523809D01*
X136866666Y-91561904D01*
X137019047Y-91561904D01*
X137095238Y-91523809D01*
X137133333Y-91485714D01*
X137171428Y-91409523D01*
X137171428Y-91257142D01*
X137133333Y-91180952D01*
X137095238Y-91142857D01*
X137019047Y-91104761D01*
%TO.C,C2*%
X144166666Y-92085714D02*
X144128571Y-92123809D01*
X144014285Y-92161904D01*
X143938095Y-92161904D01*
X143823809Y-92123809D01*
X143747619Y-92047619D01*
X143709523Y-91971428D01*
X143671428Y-91819047D01*
X143671428Y-91704761D01*
X143709523Y-91552380D01*
X143747619Y-91476190D01*
X143823809Y-91400000D01*
X143938095Y-91361904D01*
X144014285Y-91361904D01*
X144128571Y-91400000D01*
X144166666Y-91438095D01*
X144471428Y-91438095D02*
X144509523Y-91400000D01*
X144585714Y-91361904D01*
X144776190Y-91361904D01*
X144852380Y-91400000D01*
X144890476Y-91438095D01*
X144928571Y-91514285D01*
X144928571Y-91590476D01*
X144890476Y-91704761D01*
X144433333Y-92161904D01*
X144928571Y-92161904D01*
X144161904Y-93361904D02*
X143704761Y-93361904D01*
X143933333Y-93361904D02*
X143933333Y-92561904D01*
X143857142Y-92676190D01*
X143780952Y-92752380D01*
X143704761Y-92790476D01*
X144657142Y-92561904D02*
X144733333Y-92561904D01*
X144809523Y-92600000D01*
X144847619Y-92638095D01*
X144885714Y-92714285D01*
X144923809Y-92866666D01*
X144923809Y-93057142D01*
X144885714Y-93209523D01*
X144847619Y-93285714D01*
X144809523Y-93323809D01*
X144733333Y-93361904D01*
X144657142Y-93361904D01*
X144580952Y-93323809D01*
X144542857Y-93285714D01*
X144504761Y-93209523D01*
X144466666Y-93057142D01*
X144466666Y-92866666D01*
X144504761Y-92714285D01*
X144542857Y-92638095D01*
X144580952Y-92600000D01*
X144657142Y-92561904D01*
X145419047Y-92561904D02*
X145495238Y-92561904D01*
X145571428Y-92600000D01*
X145609523Y-92638095D01*
X145647619Y-92714285D01*
X145685714Y-92866666D01*
X145685714Y-93057142D01*
X145647619Y-93209523D01*
X145609523Y-93285714D01*
X145571428Y-93323809D01*
X145495238Y-93361904D01*
X145419047Y-93361904D01*
X145342857Y-93323809D01*
X145304761Y-93285714D01*
X145266666Y-93209523D01*
X145228571Y-93057142D01*
X145228571Y-92866666D01*
X145266666Y-92714285D01*
X145304761Y-92638095D01*
X145342857Y-92600000D01*
X145419047Y-92561904D01*
X146028571Y-92828571D02*
X146028571Y-93361904D01*
X146028571Y-92904761D02*
X146066666Y-92866666D01*
X146142857Y-92828571D01*
X146257142Y-92828571D01*
X146333333Y-92866666D01*
X146371428Y-92942857D01*
X146371428Y-93361904D01*
X147019047Y-92942857D02*
X146752380Y-92942857D01*
X146752380Y-93361904D02*
X146752380Y-92561904D01*
X147133333Y-92561904D01*
%TO.C,C1*%
X128866666Y-71585714D02*
X128828571Y-71623809D01*
X128714285Y-71661904D01*
X128638095Y-71661904D01*
X128523809Y-71623809D01*
X128447619Y-71547619D01*
X128409523Y-71471428D01*
X128371428Y-71319047D01*
X128371428Y-71204761D01*
X128409523Y-71052380D01*
X128447619Y-70976190D01*
X128523809Y-70900000D01*
X128638095Y-70861904D01*
X128714285Y-70861904D01*
X128828571Y-70900000D01*
X128866666Y-70938095D01*
X129628571Y-71661904D02*
X129171428Y-71661904D01*
X129400000Y-71661904D02*
X129400000Y-70861904D01*
X129323809Y-70976190D01*
X129247619Y-71052380D01*
X129171428Y-71090476D01*
X127861904Y-72961904D02*
X127404761Y-72961904D01*
X127633333Y-72961904D02*
X127633333Y-72161904D01*
X127557142Y-72276190D01*
X127480952Y-72352380D01*
X127404761Y-72390476D01*
X128357142Y-72161904D02*
X128433333Y-72161904D01*
X128509523Y-72200000D01*
X128547619Y-72238095D01*
X128585714Y-72314285D01*
X128623809Y-72466666D01*
X128623809Y-72657142D01*
X128585714Y-72809523D01*
X128547619Y-72885714D01*
X128509523Y-72923809D01*
X128433333Y-72961904D01*
X128357142Y-72961904D01*
X128280952Y-72923809D01*
X128242857Y-72885714D01*
X128204761Y-72809523D01*
X128166666Y-72657142D01*
X128166666Y-72466666D01*
X128204761Y-72314285D01*
X128242857Y-72238095D01*
X128280952Y-72200000D01*
X128357142Y-72161904D01*
X129119047Y-72161904D02*
X129195238Y-72161904D01*
X129271428Y-72200000D01*
X129309523Y-72238095D01*
X129347619Y-72314285D01*
X129385714Y-72466666D01*
X129385714Y-72657142D01*
X129347619Y-72809523D01*
X129309523Y-72885714D01*
X129271428Y-72923809D01*
X129195238Y-72961904D01*
X129119047Y-72961904D01*
X129042857Y-72923809D01*
X129004761Y-72885714D01*
X128966666Y-72809523D01*
X128928571Y-72657142D01*
X128928571Y-72466666D01*
X128966666Y-72314285D01*
X129004761Y-72238095D01*
X129042857Y-72200000D01*
X129119047Y-72161904D01*
X129728571Y-72428571D02*
X129728571Y-72961904D01*
X129728571Y-72504761D02*
X129766666Y-72466666D01*
X129842857Y-72428571D01*
X129957142Y-72428571D01*
X130033333Y-72466666D01*
X130071428Y-72542857D01*
X130071428Y-72961904D01*
X130719047Y-72542857D02*
X130452380Y-72542857D01*
X130452380Y-72961904D02*
X130452380Y-72161904D01*
X130833333Y-72161904D01*
%TO.C,U3*%
X148061904Y-103109523D02*
X148709523Y-103109523D01*
X148785714Y-103071428D01*
X148823809Y-103033333D01*
X148861904Y-102957142D01*
X148861904Y-102804761D01*
X148823809Y-102728571D01*
X148785714Y-102690476D01*
X148709523Y-102652380D01*
X148061904Y-102652380D01*
X148061904Y-102347619D02*
X148061904Y-101852380D01*
X148366666Y-102119047D01*
X148366666Y-102004761D01*
X148404761Y-101928571D01*
X148442857Y-101890476D01*
X148519047Y-101852380D01*
X148709523Y-101852380D01*
X148785714Y-101890476D01*
X148823809Y-101928571D01*
X148861904Y-102004761D01*
X148861904Y-102233333D01*
X148823809Y-102309523D01*
X148785714Y-102347619D01*
%TO.C,U?1*%
X167233333Y-120816666D02*
X167666666Y-120816666D01*
X167433333Y-121083333D01*
X167533333Y-121083333D01*
X167600000Y-121116666D01*
X167633333Y-121150000D01*
X167666666Y-121216666D01*
X167666666Y-121383333D01*
X167633333Y-121450000D01*
X167600000Y-121483333D01*
X167533333Y-121516666D01*
X167333333Y-121516666D01*
X167266666Y-121483333D01*
X167233333Y-121450000D01*
X167933333Y-120883333D02*
X167966666Y-120850000D01*
X168033333Y-120816666D01*
X168200000Y-120816666D01*
X168266666Y-120850000D01*
X168300000Y-120883333D01*
X168333333Y-120950000D01*
X168333333Y-121016666D01*
X168300000Y-121116666D01*
X167900000Y-121516666D01*
X168333333Y-121516666D01*
X121200000Y-121516666D02*
X120800000Y-121516666D01*
X121000000Y-121516666D02*
X121000000Y-120816666D01*
X120933333Y-120916666D01*
X120866666Y-120983333D01*
X120800000Y-121016666D01*
D11*
%TO.C,R2*%
X163800000Y-113371428D02*
X163600000Y-113085714D01*
X163457142Y-113371428D02*
X163457142Y-112771428D01*
X163685714Y-112771428D01*
X163742857Y-112800000D01*
X163771428Y-112828571D01*
X163800000Y-112885714D01*
X163800000Y-112971428D01*
X163771428Y-113028571D01*
X163742857Y-113057142D01*
X163685714Y-113085714D01*
X163457142Y-113085714D01*
X164028571Y-112828571D02*
X164057142Y-112800000D01*
X164114285Y-112771428D01*
X164257142Y-112771428D01*
X164314285Y-112800000D01*
X164342857Y-112828571D01*
X164371428Y-112885714D01*
X164371428Y-112942857D01*
X164342857Y-113028571D01*
X164000000Y-113371428D01*
X164371428Y-113371428D01*
X163554761Y-114226190D02*
X163269047Y-114226190D01*
X163411904Y-114226190D02*
X163411904Y-113726190D01*
X163364285Y-113797619D01*
X163316666Y-113845238D01*
X163269047Y-113869047D01*
X163864285Y-113726190D02*
X163911904Y-113726190D01*
X163959523Y-113750000D01*
X163983333Y-113773809D01*
X164007142Y-113821428D01*
X164030952Y-113916666D01*
X164030952Y-114035714D01*
X164007142Y-114130952D01*
X163983333Y-114178571D01*
X163959523Y-114202380D01*
X163911904Y-114226190D01*
X163864285Y-114226190D01*
X163816666Y-114202380D01*
X163792857Y-114178571D01*
X163769047Y-114130952D01*
X163745238Y-114035714D01*
X163745238Y-113916666D01*
X163769047Y-113821428D01*
X163792857Y-113773809D01*
X163816666Y-113750000D01*
X163864285Y-113726190D01*
X164245238Y-114226190D02*
X164245238Y-113726190D01*
X164530952Y-114226190D02*
X164316666Y-113940476D01*
X164530952Y-113726190D02*
X164245238Y-114011904D01*
D10*
%TO.C,C4*%
X157666666Y-84285714D02*
X157628571Y-84323809D01*
X157514285Y-84361904D01*
X157438095Y-84361904D01*
X157323809Y-84323809D01*
X157247619Y-84247619D01*
X157209523Y-84171428D01*
X157171428Y-84019047D01*
X157171428Y-83904761D01*
X157209523Y-83752380D01*
X157247619Y-83676190D01*
X157323809Y-83600000D01*
X157438095Y-83561904D01*
X157514285Y-83561904D01*
X157628571Y-83600000D01*
X157666666Y-83638095D01*
X158352380Y-83828571D02*
X158352380Y-84361904D01*
X158161904Y-83523809D02*
X157971428Y-84095238D01*
X158466666Y-84095238D01*
%TO.C,R1*%
X144166666Y-95261904D02*
X143900000Y-94880952D01*
X143709523Y-95261904D02*
X143709523Y-94461904D01*
X144014285Y-94461904D01*
X144090476Y-94500000D01*
X144128571Y-94538095D01*
X144166666Y-94614285D01*
X144166666Y-94728571D01*
X144128571Y-94804761D01*
X144090476Y-94842857D01*
X144014285Y-94880952D01*
X143709523Y-94880952D01*
X144928571Y-95261904D02*
X144471428Y-95261904D01*
X144700000Y-95261904D02*
X144700000Y-94461904D01*
X144623809Y-94576190D01*
X144547619Y-94652380D01*
X144471428Y-94690476D01*
X144147619Y-96561904D02*
X143690476Y-96561904D01*
X143919047Y-96561904D02*
X143919047Y-95761904D01*
X143842857Y-95876190D01*
X143766666Y-95952380D01*
X143690476Y-95990476D01*
X144642857Y-95761904D02*
X144719047Y-95761904D01*
X144795238Y-95800000D01*
X144833333Y-95838095D01*
X144871428Y-95914285D01*
X144909523Y-96066666D01*
X144909523Y-96257142D01*
X144871428Y-96409523D01*
X144833333Y-96485714D01*
X144795238Y-96523809D01*
X144719047Y-96561904D01*
X144642857Y-96561904D01*
X144566666Y-96523809D01*
X144528571Y-96485714D01*
X144490476Y-96409523D01*
X144452380Y-96257142D01*
X144452380Y-96066666D01*
X144490476Y-95914285D01*
X144528571Y-95838095D01*
X144566666Y-95800000D01*
X144642857Y-95761904D01*
X145252380Y-96561904D02*
X145252380Y-95761904D01*
X145709523Y-96561904D02*
X145366666Y-96104761D01*
X145709523Y-95761904D02*
X145252380Y-96219047D01*
%TO.C,U2*%
X126190476Y-76461904D02*
X126190476Y-77109523D01*
X126228571Y-77185714D01*
X126266666Y-77223809D01*
X126342857Y-77261904D01*
X126495238Y-77261904D01*
X126571428Y-77223809D01*
X126609523Y-77185714D01*
X126647619Y-77109523D01*
X126647619Y-76461904D01*
X126990476Y-76538095D02*
X127028571Y-76500000D01*
X127104761Y-76461904D01*
X127295238Y-76461904D01*
X127371428Y-76500000D01*
X127409523Y-76538095D01*
X127447619Y-76614285D01*
X127447619Y-76690476D01*
X127409523Y-76804761D01*
X126952380Y-77261904D01*
X127447619Y-77261904D01*
%TO.C,U?1*%
G36*
X169150000Y-129787500D02*
G01*
X119850000Y-129787500D01*
X119850000Y-123487500D01*
X169150000Y-123487500D01*
X169150000Y-129787500D01*
G37*
%TO.C,LOGO*%
G36*
X153725819Y-70787346D02*
G01*
X153900428Y-70792886D01*
X154014093Y-70800269D01*
X154080560Y-70812892D01*
X154113576Y-70834151D01*
X154126885Y-70867444D01*
X154130106Y-70887246D01*
X154127062Y-70958907D01*
X154086207Y-71004895D01*
X153996506Y-71030189D01*
X153846923Y-71039763D01*
X153790662Y-71040311D01*
X153538529Y-71040883D01*
X153538529Y-71489118D01*
X153782496Y-71489118D01*
X153922735Y-71493384D01*
X154004622Y-71508620D01*
X154044152Y-71538480D01*
X154049911Y-71550224D01*
X154057338Y-71637445D01*
X154000194Y-71697825D01*
X153875880Y-71733141D01*
X153768101Y-71743033D01*
X153538529Y-71754153D01*
X153538529Y-72053650D01*
X153533848Y-72204797D01*
X153521456Y-72333650D01*
X153503826Y-72416417D01*
X153499862Y-72425397D01*
X153431641Y-72487098D01*
X153343234Y-72489323D01*
X153284529Y-72452824D01*
X153267864Y-72399379D01*
X153254784Y-72285299D01*
X153245269Y-72124567D01*
X153239299Y-71931164D01*
X153236853Y-71719075D01*
X153237909Y-71502283D01*
X153242448Y-71294770D01*
X153250448Y-71110519D01*
X153261888Y-70963514D01*
X153276749Y-70867738D01*
X153286922Y-70841177D01*
X153318247Y-70811966D01*
X153370171Y-70793973D01*
X153457313Y-70785406D01*
X153594293Y-70784470D01*
X153725819Y-70787346D01*
G37*
G36*
X145101411Y-72049149D02*
G01*
X145097836Y-71862283D01*
X145096767Y-71612192D01*
X145096764Y-71595533D01*
X145097050Y-71451765D01*
X145358235Y-71451765D01*
X145488109Y-71451765D01*
X145599209Y-71433084D01*
X145673173Y-71367308D01*
X145678386Y-71359579D01*
X145715790Y-71245025D01*
X145692768Y-71132411D01*
X145617132Y-71046792D01*
X145574333Y-71025871D01*
X145467071Y-71002807D01*
X145400230Y-71030451D01*
X145366452Y-71116269D01*
X145358235Y-71245151D01*
X145358235Y-71451765D01*
X145097050Y-71451765D01*
X145097294Y-71328929D01*
X145101419Y-71127803D01*
X145112942Y-70982930D01*
X145135666Y-70885082D01*
X145173396Y-70825033D01*
X145229934Y-70793556D01*
X145309083Y-70781424D01*
X145414648Y-70779411D01*
X145433177Y-70779412D01*
X145624312Y-70789901D01*
X145760177Y-70825943D01*
X145857832Y-70894400D01*
X145918372Y-70974584D01*
X145983224Y-71139291D01*
X145982375Y-71299785D01*
X145918650Y-71440991D01*
X145812970Y-71537224D01*
X145754292Y-71581044D01*
X145762811Y-71599272D01*
X145775135Y-71600183D01*
X145837481Y-71627673D01*
X145914776Y-71694667D01*
X145933885Y-71716101D01*
X146016002Y-71867553D01*
X146036361Y-72038181D01*
X145995400Y-72205776D01*
X145921981Y-72319198D01*
X145862461Y-72380459D01*
X145804644Y-72417854D01*
X145727067Y-72438521D01*
X145608270Y-72449595D01*
X145515836Y-72454262D01*
X145365557Y-72459381D01*
X145271174Y-72455448D01*
X145214063Y-72438656D01*
X145175599Y-72405198D01*
X145157531Y-72381017D01*
X145135552Y-72338721D01*
X145119431Y-72276534D01*
X145110146Y-72198824D01*
X145358235Y-72198824D01*
X145506786Y-72198824D01*
X145618647Y-72186782D01*
X145689214Y-72141528D01*
X145716345Y-72105713D01*
X145759565Y-71983101D01*
X145739206Y-71866219D01*
X145665472Y-71772481D01*
X145548571Y-71719300D01*
X145486302Y-71713235D01*
X145358235Y-71713235D01*
X145358235Y-72198824D01*
X145110146Y-72198824D01*
X145108330Y-72183621D01*
X145101411Y-72049149D01*
G37*
G36*
X147188529Y-71713235D02*
G01*
X146254706Y-71713235D01*
X146254706Y-71526471D01*
X147188529Y-71526471D01*
X147188529Y-71713235D01*
G37*
G36*
X158009749Y-70748740D02*
G01*
X158042072Y-70764294D01*
X158063277Y-70805507D01*
X158076445Y-70886532D01*
X158084657Y-71021522D01*
X158087651Y-71106677D01*
X158098391Y-71451765D01*
X158503667Y-71451765D01*
X158514407Y-71106677D01*
X158521363Y-70941757D01*
X158531843Y-70837388D01*
X158548926Y-70779415D01*
X158575693Y-70753685D01*
X158592309Y-70748740D01*
X158647262Y-70742841D01*
X158689436Y-70754369D01*
X158720506Y-70791636D01*
X158742147Y-70862950D01*
X158756035Y-70976622D01*
X158763845Y-71140961D01*
X158767253Y-71364277D01*
X158767941Y-71619853D01*
X158767045Y-71902759D01*
X158763240Y-72119280D01*
X158754851Y-72277723D01*
X158740202Y-72386399D01*
X158717619Y-72453617D01*
X158685425Y-72487686D01*
X158641946Y-72496916D01*
X158592309Y-72490955D01*
X158561426Y-72476462D01*
X158540724Y-72438101D01*
X158527547Y-72362381D01*
X158519239Y-72235809D01*
X158514502Y-72095665D01*
X158503857Y-71713235D01*
X158098201Y-71713235D01*
X158087556Y-72096103D01*
X158081574Y-72269319D01*
X158073216Y-72381545D01*
X158059495Y-72446493D01*
X158037421Y-72477876D01*
X158004007Y-72489408D01*
X158001769Y-72489740D01*
X157917585Y-72477622D01*
X157880372Y-72454255D01*
X157863545Y-72414096D01*
X157850879Y-72327357D01*
X157842016Y-72187565D01*
X157836599Y-71988250D01*
X157834269Y-71722939D01*
X157834117Y-71616956D01*
X157835021Y-71334554D01*
X157838854Y-71118528D01*
X157847299Y-70960555D01*
X157862039Y-70852317D01*
X157884759Y-70785492D01*
X157917140Y-70751760D01*
X157960866Y-70742800D01*
X158009749Y-70748740D01*
G37*
G36*
X160325702Y-71382410D02*
G01*
X160375811Y-71184839D01*
X160421333Y-71013550D01*
X160458981Y-70882110D01*
X160485471Y-70804086D01*
X160492788Y-70790122D01*
X160568711Y-70748659D01*
X160665428Y-70749240D01*
X160742205Y-70791536D01*
X160742709Y-70792139D01*
X160763568Y-70842255D01*
X160798027Y-70953565D01*
X160842885Y-71114468D01*
X160894943Y-71313364D01*
X160950998Y-71538655D01*
X160966897Y-71604565D01*
X161032420Y-71883771D01*
X161078861Y-72098923D01*
X161106629Y-72258085D01*
X161116135Y-72369320D01*
X161107791Y-72440693D01*
X161082006Y-72480268D01*
X161039191Y-72496107D01*
X161012377Y-72497647D01*
X160945221Y-72481676D01*
X160894359Y-72425235D01*
X160851443Y-72315528D01*
X160823519Y-72208162D01*
X160777549Y-72012059D01*
X160456274Y-72012059D01*
X160410304Y-72208162D01*
X160377657Y-72327668D01*
X160344162Y-72419959D01*
X160327299Y-72450956D01*
X160259724Y-72490852D01*
X160177292Y-72493246D01*
X160137549Y-72472745D01*
X160117946Y-72419341D01*
X160112647Y-72360064D01*
X160121302Y-72289689D01*
X160145079Y-72164198D01*
X160180693Y-71997159D01*
X160224857Y-71802137D01*
X160237024Y-71750588D01*
X160495298Y-71750588D01*
X160735228Y-71750588D01*
X160676538Y-71442649D01*
X160649046Y-71313559D01*
X160625169Y-71228840D01*
X160608595Y-71200437D01*
X160604504Y-71209194D01*
X160590087Y-71284445D01*
X160566185Y-71404301D01*
X160543229Y-71517133D01*
X160495298Y-71750588D01*
X160237024Y-71750588D01*
X160274289Y-71592699D01*
X160325702Y-71382410D01*
G37*
G36*
X152978235Y-71713235D02*
G01*
X152044412Y-71713235D01*
X152044412Y-71526471D01*
X152978235Y-71526471D01*
X152978235Y-71713235D01*
G37*
G36*
X147624472Y-70758720D02*
G01*
X147674793Y-70814167D01*
X147717908Y-70916597D01*
X147756894Y-71074208D01*
X147794831Y-71295195D01*
X147809367Y-71395735D01*
X147877056Y-71881324D01*
X147944997Y-71414412D01*
X147974805Y-71227202D01*
X148006177Y-71059663D01*
X148035444Y-70929742D01*
X148058936Y-70855387D01*
X148059556Y-70854118D01*
X148132550Y-70772357D01*
X148226309Y-70750672D01*
X148318036Y-70793850D01*
X148323138Y-70798769D01*
X148346003Y-70858517D01*
X148364225Y-70978166D01*
X148377790Y-71143867D01*
X148386687Y-71341775D01*
X148390902Y-71558042D01*
X148390423Y-71778822D01*
X148385237Y-71990266D01*
X148375331Y-72178528D01*
X148360693Y-72329761D01*
X148341310Y-72430118D01*
X148324663Y-72462893D01*
X148254066Y-72491926D01*
X148203266Y-72471982D01*
X148177339Y-72445725D01*
X148160085Y-72398027D01*
X148150149Y-72316257D01*
X148146176Y-72187785D01*
X148146812Y-71999981D01*
X148147412Y-71951206D01*
X148153796Y-71470441D01*
X148079659Y-71918677D01*
X148038303Y-72143102D01*
X147998093Y-72299969D01*
X147955539Y-72396280D01*
X147907149Y-72439039D01*
X147849433Y-72435249D01*
X147827385Y-72424779D01*
X147793387Y-72378287D01*
X147757569Y-72272308D01*
X147718370Y-72101369D01*
X147686483Y-71931064D01*
X147605466Y-71470441D01*
X147626360Y-71927207D01*
X147633653Y-72140783D01*
X147632403Y-72290311D01*
X147622087Y-72386016D01*
X147602181Y-72438125D01*
X147600082Y-72440810D01*
X147522708Y-72493699D01*
X147442581Y-72472262D01*
X147420117Y-72452824D01*
X147403332Y-72409132D01*
X147390749Y-72312462D01*
X147382078Y-72157470D01*
X147377025Y-71938809D01*
X147375298Y-71651134D01*
X147375294Y-71633727D01*
X147376301Y-71352496D01*
X147380552Y-71137230D01*
X147389892Y-70979203D01*
X147406168Y-70869686D01*
X147431226Y-70799952D01*
X147466910Y-70761275D01*
X147515066Y-70744926D01*
X147563866Y-70742059D01*
X147624472Y-70758720D01*
G37*
G36*
X155693937Y-71382410D02*
G01*
X155744046Y-71184839D01*
X155789568Y-71013550D01*
X155827216Y-70882110D01*
X155853706Y-70804086D01*
X155861023Y-70790122D01*
X155936946Y-70748659D01*
X156033663Y-70749240D01*
X156110440Y-70791536D01*
X156110944Y-70792139D01*
X156131803Y-70842255D01*
X156166262Y-70953565D01*
X156211121Y-71114468D01*
X156263178Y-71313364D01*
X156319233Y-71538655D01*
X156335132Y-71604565D01*
X156400655Y-71883771D01*
X156447096Y-72098923D01*
X156474864Y-72258085D01*
X156484371Y-72369320D01*
X156476026Y-72440693D01*
X156450241Y-72480268D01*
X156407427Y-72496107D01*
X156380612Y-72497647D01*
X156313456Y-72481676D01*
X156262594Y-72425235D01*
X156219678Y-72315528D01*
X156191754Y-72208162D01*
X156145784Y-72012059D01*
X155824510Y-72012059D01*
X155778540Y-72208162D01*
X155745893Y-72327668D01*
X155712397Y-72419959D01*
X155695534Y-72450956D01*
X155627959Y-72490852D01*
X155545528Y-72493246D01*
X155505784Y-72472745D01*
X155486182Y-72419341D01*
X155480882Y-72360064D01*
X155489538Y-72289689D01*
X155513315Y-72164198D01*
X155548928Y-71997159D01*
X155593093Y-71802137D01*
X155605259Y-71750588D01*
X155863534Y-71750588D01*
X156103464Y-71750588D01*
X156044774Y-71442649D01*
X156017281Y-71313559D01*
X155993405Y-71228840D01*
X155976831Y-71200437D01*
X155972739Y-71209194D01*
X155958322Y-71284445D01*
X155934421Y-71404301D01*
X155911464Y-71517133D01*
X155863534Y-71750588D01*
X155605259Y-71750588D01*
X155642524Y-71592699D01*
X155693937Y-71382410D01*
G37*
G36*
X150371678Y-70765679D02*
G01*
X150498242Y-70828109D01*
X150590661Y-70916707D01*
X150635883Y-71018829D01*
X150620854Y-71121832D01*
X150619272Y-71124927D01*
X150556893Y-71182179D01*
X150476310Y-71177621D01*
X150397506Y-71113651D01*
X150385640Y-71096912D01*
X150299682Y-71018644D01*
X150200707Y-71008025D01*
X150106436Y-71064617D01*
X150074905Y-71104607D01*
X150043513Y-71168208D01*
X150023451Y-71254504D01*
X150012584Y-71379656D01*
X150008778Y-71559825D01*
X150008676Y-71606133D01*
X150010463Y-71790944D01*
X150017593Y-71918202D01*
X150032717Y-72005015D01*
X150058490Y-72068486D01*
X150087130Y-72112040D01*
X150183192Y-72206240D01*
X150274446Y-72227825D01*
X150356608Y-72176604D01*
X150391773Y-72125720D01*
X150454512Y-72043269D01*
X150526702Y-72019016D01*
X150549974Y-72020371D01*
X150631699Y-72057268D01*
X150657451Y-72141537D01*
X150626361Y-72270099D01*
X150623046Y-72278246D01*
X150535091Y-72397278D01*
X150393365Y-72472213D01*
X150212237Y-72497647D01*
X150096254Y-72485228D01*
X150003594Y-72437033D01*
X149933582Y-72373994D01*
X149830144Y-72237283D01*
X149761918Y-72063607D01*
X149725501Y-71841115D01*
X149716981Y-71619853D01*
X149730389Y-71349742D01*
X149772879Y-71137935D01*
X149847858Y-70972579D01*
X149933582Y-70865712D01*
X150029118Y-70784399D01*
X150122304Y-70748785D01*
X150224021Y-70742059D01*
X150371678Y-70765679D01*
G37*
G36*
X154611343Y-70758951D02*
G01*
X154647083Y-70802905D01*
X154671324Y-70886210D01*
X154686200Y-71017156D01*
X154693842Y-71204033D01*
X154696382Y-71455130D01*
X154696470Y-71532039D01*
X154696470Y-72195681D01*
X154985956Y-72206591D01*
X155275441Y-72217500D01*
X155275441Y-72441618D01*
X154896505Y-72452219D01*
X154714640Y-72455056D01*
X154592374Y-72450331D01*
X154514832Y-72436371D01*
X154467139Y-72411503D01*
X154457608Y-72402860D01*
X154437172Y-72373100D01*
X154421862Y-72323741D01*
X154410980Y-72244970D01*
X154403826Y-72126973D01*
X154399699Y-71959936D01*
X154397900Y-71734045D01*
X154397647Y-71561867D01*
X154397647Y-70780835D01*
X154496841Y-70755939D01*
X154561973Y-70746059D01*
X154611343Y-70758951D01*
G37*
G36*
X161316170Y-71121062D02*
G01*
X161325676Y-70973873D01*
X161338491Y-70877402D01*
X161346608Y-70851662D01*
X161377295Y-70814000D01*
X161430912Y-70792031D01*
X161524970Y-70781816D01*
X161667843Y-70779412D01*
X161814177Y-70781341D01*
X161909145Y-70791951D01*
X161976073Y-70818474D01*
X162038288Y-70868144D01*
X162077412Y-70906412D01*
X162151471Y-70988561D01*
X162189431Y-71063923D01*
X162203043Y-71163949D01*
X162204412Y-71246324D01*
X162199716Y-71374778D01*
X162177437Y-71460638D01*
X162125284Y-71535828D01*
X162071148Y-71592498D01*
X161937885Y-71725761D01*
X162031413Y-71896925D01*
X162107175Y-72035349D01*
X162185695Y-72178482D01*
X162210016Y-72222727D01*
X162259648Y-72322291D01*
X162271702Y-72383816D01*
X162249938Y-72431487D01*
X162243681Y-72439309D01*
X162180046Y-72492034D01*
X162114960Y-72491331D01*
X162043019Y-72432795D01*
X161958817Y-72312024D01*
X161856948Y-72124616D01*
X161856696Y-72124118D01*
X161757456Y-71935503D01*
X161683330Y-71815640D01*
X161630919Y-71764227D01*
X161596827Y-71780963D01*
X161577655Y-71865549D01*
X161570006Y-72017683D01*
X161569412Y-72098706D01*
X161567180Y-72269937D01*
X161559059Y-72380176D01*
X161542911Y-72443042D01*
X161516597Y-72472156D01*
X161510327Y-72474974D01*
X161430173Y-72495716D01*
X161374717Y-72473061D01*
X161352764Y-72452824D01*
X161337738Y-72401371D01*
X161325591Y-72289196D01*
X161316377Y-72130229D01*
X161310148Y-71938400D01*
X161306960Y-71727638D01*
X161306865Y-71511875D01*
X161307201Y-71489118D01*
X161569412Y-71489118D01*
X161699286Y-71489118D01*
X161809105Y-71470989D01*
X161883389Y-71405790D01*
X161892243Y-71392841D01*
X161931680Y-71273961D01*
X161903943Y-71158809D01*
X161815049Y-71066085D01*
X161781053Y-71047182D01*
X161679765Y-71011435D01*
X161615469Y-71026095D01*
X161581103Y-71098394D01*
X161569602Y-71235561D01*
X161569412Y-71263828D01*
X161569412Y-71489118D01*
X161307201Y-71489118D01*
X161309917Y-71305039D01*
X161316170Y-71121062D01*
G37*
G36*
X157305031Y-70765377D02*
G01*
X157431595Y-70827270D01*
X157513276Y-70916893D01*
X157535294Y-71000463D01*
X157509837Y-71098297D01*
X157444441Y-71141542D01*
X157355564Y-71124601D01*
X157296253Y-71081761D01*
X157191865Y-71016696D01*
X157093419Y-71012202D01*
X157018503Y-71068281D01*
X157010491Y-71081715D01*
X156982464Y-71194293D01*
X157023329Y-71304173D01*
X157135292Y-71415632D01*
X157209442Y-71467433D01*
X157331212Y-71552109D01*
X157439730Y-71638248D01*
X157492821Y-71688015D01*
X157583849Y-71836466D01*
X157618292Y-72009589D01*
X157596455Y-72184832D01*
X157518639Y-72339641D01*
X157483526Y-72379629D01*
X157362509Y-72454196D01*
X157203221Y-72491151D01*
X157032909Y-72488772D01*
X156878825Y-72445331D01*
X156834678Y-72420705D01*
X156730702Y-72321592D01*
X156680875Y-72206160D01*
X156689652Y-72105525D01*
X156740349Y-72055360D01*
X156825156Y-72065900D01*
X156936277Y-72136006D01*
X156944459Y-72142794D01*
X157071343Y-72219356D01*
X157184556Y-72228475D01*
X157276025Y-72170060D01*
X157293343Y-72146750D01*
X157334468Y-72026125D01*
X157302989Y-71906144D01*
X157200858Y-71792162D01*
X157150781Y-71755984D01*
X157028617Y-71666994D01*
X156899597Y-71560312D01*
X156856996Y-71521527D01*
X156771971Y-71433956D01*
X156729546Y-71358824D01*
X156715342Y-71262245D01*
X156714360Y-71185350D01*
X156741271Y-70994252D01*
X156820230Y-70856745D01*
X156951277Y-70772784D01*
X157134455Y-70742328D01*
X157149971Y-70742199D01*
X157305031Y-70765377D01*
G37*
G36*
X148575234Y-72049149D02*
G01*
X148571660Y-71862283D01*
X148570591Y-71612192D01*
X148570588Y-71595533D01*
X148570874Y-71451765D01*
X148832059Y-71451765D01*
X148961933Y-71451765D01*
X149073033Y-71433084D01*
X149146997Y-71367308D01*
X149152209Y-71359579D01*
X149189613Y-71245025D01*
X149166591Y-71132411D01*
X149090955Y-71046792D01*
X149048156Y-71025871D01*
X148940894Y-71002807D01*
X148874053Y-71030451D01*
X148840275Y-71116269D01*
X148832059Y-71245151D01*
X148832059Y-71451765D01*
X148570874Y-71451765D01*
X148571118Y-71328929D01*
X148575242Y-71127803D01*
X148586765Y-70982930D01*
X148609490Y-70885082D01*
X148647219Y-70825033D01*
X148703757Y-70793556D01*
X148782907Y-70781424D01*
X148888471Y-70779411D01*
X148907001Y-70779412D01*
X149098136Y-70789901D01*
X149234001Y-70825943D01*
X149331656Y-70894400D01*
X149392196Y-70974584D01*
X149457047Y-71139291D01*
X149456199Y-71299785D01*
X149392473Y-71440991D01*
X149286794Y-71537224D01*
X149228115Y-71581044D01*
X149236634Y-71599272D01*
X149248959Y-71600183D01*
X149311304Y-71627673D01*
X149388599Y-71694667D01*
X149407709Y-71716101D01*
X149489826Y-71867553D01*
X149510184Y-72038181D01*
X149469223Y-72205776D01*
X149395804Y-72319198D01*
X149336284Y-72380459D01*
X149278467Y-72417854D01*
X149200891Y-72438521D01*
X149082094Y-72449595D01*
X148989659Y-72454262D01*
X148839380Y-72459381D01*
X148744998Y-72455448D01*
X148687887Y-72438656D01*
X148649423Y-72405198D01*
X148631355Y-72381017D01*
X148609375Y-72338721D01*
X148593254Y-72276534D01*
X148583969Y-72198824D01*
X148832059Y-72198824D01*
X148980609Y-72198824D01*
X149092470Y-72186782D01*
X149163038Y-72141528D01*
X149190168Y-72105713D01*
X149233389Y-71983101D01*
X149213029Y-71866219D01*
X149139296Y-71772481D01*
X149022394Y-71719300D01*
X148960126Y-71713235D01*
X148832059Y-71713235D01*
X148832059Y-72198824D01*
X148583969Y-72198824D01*
X148582153Y-72183621D01*
X148575234Y-72049149D01*
G37*
G36*
X159635208Y-70765679D02*
G01*
X159761772Y-70828109D01*
X159854191Y-70916707D01*
X159899412Y-71018829D01*
X159884384Y-71121832D01*
X159882801Y-71124927D01*
X159820423Y-71182179D01*
X159739839Y-71177621D01*
X159661036Y-71113651D01*
X159649170Y-71096912D01*
X159563212Y-71018644D01*
X159464236Y-71008025D01*
X159369965Y-71064617D01*
X159338434Y-71104607D01*
X159307043Y-71168208D01*
X159286981Y-71254504D01*
X159276114Y-71379656D01*
X159272308Y-71559825D01*
X159272206Y-71606133D01*
X159273993Y-71790944D01*
X159281122Y-71918202D01*
X159296247Y-72005015D01*
X159322019Y-72068486D01*
X159350659Y-72112040D01*
X159446721Y-72206240D01*
X159537975Y-72227825D01*
X159620137Y-72176604D01*
X159655302Y-72125720D01*
X159718042Y-72043269D01*
X159790231Y-72019016D01*
X159813504Y-72020371D01*
X159895228Y-72057268D01*
X159920981Y-72141537D01*
X159889891Y-72270099D01*
X159886576Y-72278246D01*
X159798620Y-72397278D01*
X159656894Y-72472213D01*
X159475766Y-72497647D01*
X159359783Y-72485228D01*
X159267124Y-72437033D01*
X159197111Y-72373994D01*
X159093673Y-72237283D01*
X159025447Y-72063607D01*
X158989030Y-71841115D01*
X158980511Y-71619853D01*
X158993918Y-71349742D01*
X159036409Y-71137935D01*
X159111387Y-70972579D01*
X159197111Y-70865712D01*
X159292647Y-70784399D01*
X159385833Y-70748785D01*
X159487551Y-70742059D01*
X159635208Y-70765679D01*
G37*
G36*
X163418382Y-70910147D02*
G01*
X163413319Y-70978091D01*
X163384991Y-71012818D01*
X163313691Y-71028042D01*
X163240956Y-71033591D01*
X163063529Y-71044976D01*
X163063529Y-71748639D01*
X163062800Y-71998202D01*
X163060076Y-72182924D01*
X163054558Y-72312656D01*
X163045443Y-72397254D01*
X163031930Y-72446572D01*
X163013216Y-72470463D01*
X163004445Y-72474974D01*
X162928725Y-72493653D01*
X162853803Y-72474930D01*
X162848750Y-72472909D01*
X162831305Y-72445815D01*
X162818400Y-72375660D01*
X162809559Y-72255075D01*
X162804305Y-72076692D01*
X162802165Y-71833143D01*
X162802059Y-71749522D01*
X162802059Y-71044976D01*
X162624632Y-71033591D01*
X162517569Y-71023523D01*
X162465462Y-71002288D01*
X162448601Y-70956175D01*
X162447206Y-70910147D01*
X162447206Y-70798088D01*
X163418382Y-70798088D01*
X163418382Y-70910147D01*
G37*
G36*
X151549817Y-70781310D02*
G01*
X151664071Y-70788403D01*
X151730930Y-70802788D01*
X151764019Y-70826564D01*
X151771381Y-70840518D01*
X151781191Y-70923887D01*
X151732775Y-70981835D01*
X151621140Y-71017412D01*
X151455826Y-71033107D01*
X151192568Y-71044009D01*
X151176835Y-71219872D01*
X151168495Y-71324633D01*
X151165102Y-71391849D01*
X151165760Y-71403860D01*
X151200442Y-71399392D01*
X151280428Y-71378081D01*
X151303211Y-71371229D01*
X151459643Y-71356900D01*
X151600159Y-71415194D01*
X151725525Y-71546448D01*
X151734855Y-71560009D01*
X151796931Y-71707466D01*
X151821125Y-71891304D01*
X151806053Y-72082719D01*
X151766512Y-72217882D01*
X151671882Y-72355229D01*
X151532327Y-72448511D01*
X151366791Y-72492413D01*
X151194219Y-72481622D01*
X151046913Y-72419716D01*
X150939878Y-72327169D01*
X150898209Y-72232985D01*
X150925174Y-72145965D01*
X150939362Y-72129924D01*
X150998603Y-72090354D01*
X151058673Y-72111525D01*
X151064598Y-72115684D01*
X151224954Y-72203519D01*
X151360086Y-72223535D01*
X151464449Y-72178287D01*
X151532502Y-72070330D01*
X151558700Y-71902219D01*
X151558823Y-71887877D01*
X151532015Y-71739361D01*
X151459645Y-71643311D01*
X151353795Y-71606002D01*
X151226546Y-71633707D01*
X151153727Y-71677511D01*
X151058879Y-71726693D01*
X150987151Y-71729544D01*
X150958279Y-71708374D01*
X150939596Y-71662404D01*
X150929030Y-71578049D01*
X150924506Y-71441719D01*
X150923823Y-71314578D01*
X150925039Y-71105130D01*
X150935082Y-70958993D01*
X150963546Y-70864775D01*
X151020026Y-70811084D01*
X151114116Y-70786529D01*
X151255408Y-70779719D01*
X151374545Y-70779412D01*
X151549817Y-70781310D01*
G37*
G36*
X144593242Y-70767705D02*
G01*
X144723176Y-70836648D01*
X144809010Y-70936899D01*
X144835294Y-71040207D01*
X144812350Y-71137021D01*
X144753534Y-71177317D01*
X144673865Y-71159265D01*
X144588365Y-71081035D01*
X144581043Y-71071183D01*
X144499431Y-71011265D01*
X144401543Y-71012540D01*
X144310050Y-71072452D01*
X144285199Y-71104543D01*
X144253518Y-71168906D01*
X144233384Y-71256399D01*
X144222615Y-71383344D01*
X144219025Y-71566066D01*
X144218970Y-71599470D01*
X144226628Y-71844953D01*
X144251032Y-72024041D01*
X144294333Y-72143605D01*
X144358681Y-72210517D01*
X144416050Y-72229518D01*
X144475644Y-72223211D01*
X144524781Y-72174088D01*
X144573629Y-72080107D01*
X144627305Y-71950718D01*
X144642274Y-71873556D01*
X144616892Y-71835983D01*
X144549513Y-71825361D01*
X144540467Y-71825294D01*
X144442840Y-71799841D01*
X144400226Y-71731579D01*
X144410904Y-71657206D01*
X144451910Y-71621085D01*
X144547198Y-71603777D01*
X144634774Y-71601177D01*
X144754145Y-71604808D01*
X144821021Y-71621612D01*
X144857488Y-71660448D01*
X144873571Y-71696991D01*
X144892370Y-71787937D01*
X144904296Y-71927176D01*
X144908899Y-72088574D01*
X144905730Y-72245993D01*
X144894338Y-72373299D01*
X144885944Y-72415563D01*
X144841016Y-72479424D01*
X144774265Y-72491189D01*
X144714813Y-72453399D01*
X144693120Y-72398725D01*
X144682592Y-72347242D01*
X144660078Y-72344846D01*
X144606916Y-72393263D01*
X144592097Y-72408063D01*
X144466799Y-72486017D01*
X144325447Y-72500806D01*
X144190253Y-72453430D01*
X144113442Y-72386537D01*
X144023281Y-72251652D01*
X143964497Y-72091189D01*
X143932931Y-71889103D01*
X143924354Y-71657206D01*
X143933994Y-71397775D01*
X143966087Y-71195704D01*
X144024791Y-71035924D01*
X144114265Y-70903363D01*
X144140349Y-70874380D01*
X144230510Y-70790535D01*
X144314149Y-70751835D01*
X144427381Y-70742078D01*
X144435294Y-70742059D01*
X144593242Y-70767705D01*
G37*
%TD*%
D12*
%TO.C,C3*%
X158462500Y-114400000D03*
X156737500Y-114400000D03*
%TD*%
D13*
%TO.C,U1*%
X126550000Y-93145000D03*
X126550000Y-94415000D03*
X126550000Y-95685000D03*
X126550000Y-96955000D03*
X126550000Y-98225000D03*
X126550000Y-99495000D03*
X126550000Y-100765000D03*
X126550000Y-102035000D03*
X126550000Y-103305000D03*
X126550000Y-104575000D03*
X126550000Y-105845000D03*
X126550000Y-107115000D03*
X126550000Y-108385000D03*
X126550000Y-109655000D03*
X135850000Y-109655000D03*
X135850000Y-108385000D03*
X135850000Y-107115000D03*
X135850000Y-105845000D03*
X135850000Y-104575000D03*
X135850000Y-103305000D03*
X135850000Y-102035000D03*
X135850000Y-100765000D03*
X135850000Y-99495000D03*
X135850000Y-98225000D03*
X135850000Y-96955000D03*
X135850000Y-95685000D03*
X135850000Y-94415000D03*
X135850000Y-93145000D03*
%TD*%
D14*
%TO.C,C2*%
X141500000Y-93162500D03*
X141500000Y-91437500D03*
%TD*%
D15*
%TO.C,C1*%
X128137500Y-74300000D03*
X129862500Y-74300000D03*
%TD*%
D16*
%TO.C,U3*%
X164200000Y-89550000D03*
D17*
X163450000Y-89550000D03*
X162950000Y-89550000D03*
X162450000Y-89550000D03*
X161950000Y-89550000D03*
X161450000Y-89550000D03*
X160950000Y-89550000D03*
X160450000Y-89550000D03*
X159950000Y-89550000D03*
X159450000Y-89550000D03*
X158950000Y-89550000D03*
X158450000Y-89550000D03*
X157950000Y-89550000D03*
X157450000Y-89550000D03*
X156950000Y-89550000D03*
X156450000Y-89550000D03*
X155950000Y-89550000D03*
X155450000Y-89550000D03*
X154950000Y-89550000D03*
X154450000Y-89550000D03*
X153950000Y-89550000D03*
D16*
X153200000Y-89550000D03*
X153200000Y-109050000D03*
D17*
X153950000Y-109050000D03*
X154450000Y-109050000D03*
X154950000Y-109050000D03*
X155450000Y-109050000D03*
X155950000Y-109050000D03*
X156450000Y-109050000D03*
X156950000Y-109050000D03*
X157450000Y-109050000D03*
X157950000Y-109050000D03*
X158450000Y-109050000D03*
X158950000Y-109050000D03*
X159450000Y-109050000D03*
X159950000Y-109050000D03*
X160450000Y-109050000D03*
X160950000Y-109050000D03*
X161450000Y-109050000D03*
X161950000Y-109050000D03*
X162450000Y-109050000D03*
X162950000Y-109050000D03*
X163450000Y-109050000D03*
D16*
X164200000Y-109050000D03*
%TD*%
D18*
%TO.C,R2*%
X164212500Y-116500000D03*
X162387500Y-116500000D03*
%TD*%
D12*
%TO.C,C4*%
X158862500Y-85700000D03*
X157137500Y-85700000D03*
%TD*%
D18*
%TO.C,R1*%
X141512500Y-95500000D03*
X139687500Y-95500000D03*
%TD*%
D19*
%TO.C,U2*%
X128725000Y-85570000D03*
X129525000Y-85570000D03*
X130325000Y-85570000D03*
X131125000Y-85570000D03*
X131925000Y-85570000D03*
X132725000Y-85570000D03*
X133525000Y-85570000D03*
X134325000Y-85570000D03*
D20*
X135770000Y-84125000D03*
X135770000Y-83325000D03*
X135770000Y-82525000D03*
X135770000Y-81725000D03*
X135770000Y-80925000D03*
X135770000Y-80125000D03*
X135770000Y-79325000D03*
X135770000Y-78525000D03*
D19*
X134325000Y-77080000D03*
X133525000Y-77080000D03*
X132725000Y-77080000D03*
X131925000Y-77080000D03*
X131125000Y-77080000D03*
X130325000Y-77080000D03*
X129525000Y-77080000D03*
X128725000Y-77080000D03*
D20*
X127280000Y-78525000D03*
X127280000Y-79325000D03*
X127280000Y-80125000D03*
X127280000Y-80925000D03*
X127280000Y-81725000D03*
X127280000Y-82525000D03*
X127280000Y-83325000D03*
X127280000Y-84125000D03*
%TD*%
M02*
