%TF.GenerationSoftware,KiCad,Pcbnew,(6.0.2)*%
%TF.CreationDate,2022-04-24T17:27:09+01:00*%
%TF.ProjectId,Gameboy MBC5 Cart + FRAM,47616d65-626f-4792-904d-424335204361,rev?*%
%TF.SameCoordinates,Original*%
%TF.FileFunction,Copper,L2,Bot*%
%TF.FilePolarity,Positive*%
%FSLAX46Y46*%
G04 Gerber Fmt 4.6, Leading zero omitted, Abs format (unit mm)*
G04 Created by KiCad (PCBNEW (6.0.2)) date 2022-04-24 17:27:09*
%MOMM*%
%LPD*%
G01*
G04 APERTURE LIST*
%TA.AperFunction,ViaPad*%
%ADD10C,0.800000*%
%TD*%
%TA.AperFunction,Conductor*%
%ADD11C,0.250000*%
%TD*%
G04 APERTURE END LIST*
D10*
%TO.N,+5V*%
X155600000Y-80000000D03*
X148400000Y-118000000D03*
X163800000Y-114900000D03*
X140200000Y-72900000D03*
X140200000Y-78400000D03*
X157700000Y-82300000D03*
X158700000Y-116800000D03*
%TO.N,GND*%
X126900000Y-111700000D03*
X156900000Y-115700000D03*
X155800000Y-85000000D03*
X168700000Y-112700000D03*
X141800000Y-79100000D03*
X165000000Y-84000000D03*
X130250000Y-79250000D03*
X166300000Y-78300000D03*
%TO.N,RAM_CS*%
X137775000Y-80125000D03*
X138295000Y-103305000D03*
X142700000Y-80400000D03*
X138100000Y-95500000D03*
%TO.N,A12*%
X159600000Y-87700000D03*
X148300000Y-87500000D03*
X129000000Y-90600000D03*
X129100000Y-93100000D03*
%TO.N,A7*%
X155200000Y-91900000D03*
X128615000Y-95685000D03*
%TO.N,A6*%
X155200000Y-93300000D03*
X128645000Y-96955000D03*
%TO.N,A5*%
X128725000Y-98225000D03*
X155200000Y-94599040D03*
%TO.N,A4*%
X153300000Y-94400000D03*
X128295000Y-99495000D03*
%TO.N,A3*%
X152300000Y-120100000D03*
X133250000Y-121150000D03*
%TO.N,A2*%
X131750000Y-120850000D03*
X153000000Y-119100000D03*
%TO.N,A1*%
X153500000Y-118000000D03*
X130250000Y-120150000D03*
%TO.N,A0*%
X129100000Y-119300000D03*
X153900000Y-116900000D03*
%TO.N,D0*%
X124100000Y-96200000D03*
X128645000Y-105845000D03*
X153600000Y-103600000D03*
X127400000Y-89900000D03*
%TO.N,D1*%
X128800000Y-89000000D03*
X123600000Y-95300000D03*
X154700000Y-104300000D03*
X128685000Y-107115000D03*
%TO.N,D2*%
X128785000Y-108385000D03*
X123200000Y-94200000D03*
X130900000Y-89300000D03*
X155800000Y-105100000D03*
%TO.N,D3*%
X157250000Y-121650000D03*
X135700000Y-85800000D03*
X138300000Y-109700000D03*
X157900000Y-107400000D03*
X165600000Y-87300000D03*
X165300000Y-115200000D03*
%TO.N,D4*%
X158600000Y-106600000D03*
X158750000Y-121650000D03*
X165900000Y-116300000D03*
X138300000Y-108400000D03*
X166399040Y-85700960D03*
X137200000Y-85800000D03*
%TO.N,D5*%
X166400000Y-84500000D03*
X160250000Y-121750000D03*
X138300000Y-107100000D03*
X137900000Y-84900000D03*
X159600000Y-106500000D03*
X166500000Y-117200000D03*
%TO.N,D6*%
X138300000Y-105900000D03*
X166800000Y-118300000D03*
X166300000Y-83100000D03*
X140300000Y-81900000D03*
X161750000Y-121650000D03*
X159500000Y-105100000D03*
%TO.N,D7*%
X139800000Y-109600000D03*
X139200000Y-81400000D03*
X163200000Y-121500000D03*
X161300000Y-107100000D03*
X167300000Y-119300000D03*
X166300000Y-81800000D03*
%TO.N,A10*%
X140435000Y-102035000D03*
X157700000Y-102200000D03*
%TO.N,RD*%
X138265000Y-100765000D03*
X133600000Y-100800000D03*
X160500000Y-104200000D03*
X121400000Y-101400000D03*
%TO.N,A11*%
X158250000Y-101050000D03*
X141250000Y-100550000D03*
%TO.N,A9*%
X138475000Y-98225000D03*
X156374031Y-102425969D03*
%TO.N,A8*%
X138455000Y-96955000D03*
X155200000Y-101600000D03*
%TO.N,WR*%
X124675000Y-82525000D03*
X122200000Y-82900000D03*
%TO.N,CS*%
X122300000Y-84400000D03*
X125325000Y-83325000D03*
%TO.N,RST*%
X161700000Y-111500000D03*
X164600000Y-91600000D03*
X163700000Y-105200000D03*
X158400000Y-91600000D03*
%TO.N,A15*%
X130325000Y-87125000D03*
X151700000Y-86700000D03*
X159400000Y-100100000D03*
X151700000Y-99900000D03*
%TO.N,A14*%
X131000000Y-82700000D03*
X150200000Y-83000000D03*
%TO.N,A13*%
X149100000Y-84000000D03*
X129100000Y-82900000D03*
X160000000Y-84000000D03*
%TD*%
D11*
%TO.N,+5V*%
X157700000Y-82100000D02*
X157700000Y-82300000D01*
X155600000Y-80000000D02*
X157700000Y-82100000D01*
X140200000Y-72900000D02*
X140200000Y-78400000D01*
X162100000Y-114900000D02*
X163800000Y-114900000D01*
X158700000Y-116800000D02*
X160200000Y-116800000D01*
X156200000Y-116800000D02*
X158700000Y-116800000D01*
X155549520Y-116149520D02*
X156200000Y-116800000D01*
X160200000Y-116800000D02*
X162100000Y-114900000D01*
X148400000Y-118000000D02*
X150250480Y-116149520D01*
X150250480Y-116149520D02*
X155549520Y-116149520D01*
%TO.N,GND*%
X130250000Y-79250000D02*
X130300000Y-79200000D01*
X155800000Y-85000000D02*
X164000000Y-85000000D01*
X164000000Y-85000000D02*
X165000000Y-84000000D01*
%TO.N,RAM_CS*%
X137400000Y-96200000D02*
X138100000Y-95500000D01*
X137775000Y-80125000D02*
X137800000Y-80100000D01*
X138295000Y-103305000D02*
X138295000Y-103295000D01*
X137800000Y-80100000D02*
X142400000Y-80100000D01*
X138295000Y-103295000D02*
X137400000Y-102400000D01*
X137400000Y-102400000D02*
X137400000Y-96200000D01*
X142400000Y-80100000D02*
X142700000Y-80400000D01*
%TO.N,A12*%
X129000000Y-90600000D02*
X129100000Y-90700000D01*
X136300000Y-87500000D02*
X148300000Y-87500000D01*
X133350480Y-88049520D02*
X135750480Y-88049520D01*
X130800000Y-90600000D02*
X133350480Y-88049520D01*
X148300000Y-87500000D02*
X159400000Y-87500000D01*
X135750480Y-88049520D02*
X136300000Y-87500000D01*
X129100000Y-90700000D02*
X129100000Y-93100000D01*
X159400000Y-87500000D02*
X159600000Y-87700000D01*
X129000000Y-90600000D02*
X130800000Y-90600000D01*
%TO.N,A7*%
X132400000Y-91900000D02*
X155200000Y-91900000D01*
X128615000Y-95685000D02*
X132400000Y-91900000D01*
%TO.N,A6*%
X133250480Y-92349520D02*
X154249520Y-92349520D01*
X128645000Y-96955000D02*
X133250480Y-92349520D01*
X155200000Y-93300000D02*
X155300000Y-93400000D01*
X154249520Y-92349520D02*
X155200000Y-93300000D01*
%TO.N,A5*%
X153400000Y-92799040D02*
X155200000Y-94599040D01*
X134150960Y-92799040D02*
X153400000Y-92799040D01*
X128725000Y-98225000D02*
X134150960Y-92799040D01*
%TO.N,A4*%
X152148560Y-93248560D02*
X153300000Y-94400000D01*
X134726054Y-93248560D02*
X152148560Y-93248560D01*
X128479614Y-99495000D02*
X134726054Y-93248560D01*
X128295000Y-99495000D02*
X128479614Y-99495000D01*
%TO.N,A3*%
X133250000Y-121150000D02*
X151450000Y-121150000D01*
X151450000Y-121150000D02*
X152300000Y-120300000D01*
%TO.N,A2*%
X150299520Y-120700480D02*
X151900000Y-119100000D01*
X132174511Y-120425489D02*
X134325009Y-120425489D01*
X151900000Y-119100000D02*
X153000000Y-119100000D01*
X131750000Y-120850000D02*
X132174511Y-120425489D01*
X134600000Y-120700480D02*
X150299520Y-120700480D01*
X134325009Y-120425489D02*
X134600000Y-120700480D01*
%TO.N,A1*%
X152300000Y-118000000D02*
X153500000Y-118000000D01*
X130424031Y-119975969D02*
X134511207Y-119975969D01*
X150049040Y-120250960D02*
X152300000Y-118000000D01*
X130250000Y-120150000D02*
X130424031Y-119975969D01*
X134511207Y-119975969D02*
X134786198Y-120250960D01*
X134786198Y-120250960D02*
X150049040Y-120250960D01*
%TO.N,A0*%
X149862842Y-119801440D02*
X152764282Y-116900000D01*
X134972396Y-119801440D02*
X149862842Y-119801440D01*
X129100000Y-119300000D02*
X134470956Y-119300000D01*
X152764282Y-116900000D02*
X153900000Y-116900000D01*
X134470956Y-119300000D02*
X134972396Y-119801440D01*
%TO.N,D0*%
X128655000Y-105845000D02*
X130300000Y-104200000D01*
X152800000Y-103600000D02*
X153600000Y-103600000D01*
X124100000Y-96200000D02*
X127400000Y-92900000D01*
X127400000Y-92900000D02*
X127400000Y-89900000D01*
X130300000Y-104200000D02*
X152200000Y-104200000D01*
X152200000Y-104200000D02*
X152800000Y-103600000D01*
X128645000Y-105845000D02*
X128655000Y-105845000D01*
X153500000Y-103500000D02*
X153600000Y-103600000D01*
%TO.N,D1*%
X127275386Y-89000000D02*
X128800000Y-89000000D01*
X152724511Y-104324511D02*
X154475489Y-104324511D01*
X152399502Y-104649520D02*
X152724511Y-104324511D01*
X126300000Y-92600000D02*
X126300000Y-89975386D01*
X126300000Y-89975386D02*
X127275386Y-89000000D01*
X123600000Y-95300000D02*
X126300000Y-92600000D01*
X128685000Y-107115000D02*
X131150480Y-104649520D01*
X131150480Y-104649520D02*
X152399502Y-104649520D01*
%TO.N,D2*%
X132100960Y-105099040D02*
X152799040Y-105099040D01*
X152800000Y-105100000D02*
X155800000Y-105100000D01*
X129875489Y-88275489D02*
X130900000Y-89300000D01*
X125200000Y-92200000D02*
X125200000Y-89700000D01*
X123200000Y-94200000D02*
X125200000Y-92200000D01*
X128815000Y-108385000D02*
X132100960Y-105099040D01*
X125200000Y-89700000D02*
X126624511Y-88275489D01*
X152799040Y-105099040D02*
X152800000Y-105100000D01*
X128785000Y-108385000D02*
X128815000Y-108385000D01*
X128785000Y-108385000D02*
X129015000Y-108385000D01*
X126624511Y-88275489D02*
X129875489Y-88275489D01*
%TO.N,D3*%
X152197120Y-106897120D02*
X152198080Y-106898080D01*
X152075489Y-85975489D02*
X147788793Y-85975489D01*
X138300000Y-109700000D02*
X141102880Y-106897120D01*
X152775489Y-86675489D02*
X152075489Y-85975489D01*
X154290926Y-106898080D02*
X154565917Y-107173071D01*
X157673071Y-107173071D02*
X157900000Y-107400000D01*
X165000000Y-117157128D02*
X165000000Y-115500000D01*
X136500960Y-86600960D02*
X135700000Y-85800000D01*
X158967379Y-119932621D02*
X160795943Y-119932621D01*
X165600000Y-87300000D02*
X164975489Y-86675489D01*
X154565917Y-107173071D02*
X157673071Y-107173071D01*
X160795943Y-119932621D02*
X161628565Y-119100000D01*
X152054252Y-106897120D02*
X152055212Y-106898080D01*
X147163322Y-86600960D02*
X136500960Y-86600960D01*
X157250000Y-121650000D02*
X158967379Y-119932621D01*
X152055212Y-106898080D02*
X152198080Y-106898080D01*
X165000000Y-115500000D02*
X165300000Y-115200000D01*
X163057128Y-119100000D02*
X165000000Y-117157128D01*
X147788793Y-85975489D02*
X147163322Y-86600960D01*
X152198080Y-106898080D02*
X154290926Y-106898080D01*
X161628565Y-119100000D02*
X163057128Y-119100000D01*
X141102880Y-106897120D02*
X152197120Y-106897120D01*
X164975489Y-86675489D02*
X152775489Y-86675489D01*
%TO.N,D4*%
X152241409Y-106448560D02*
X152240449Y-106447600D01*
X158750000Y-121650000D02*
X160017859Y-120382141D01*
X160017859Y-120382141D02*
X160982141Y-120382141D01*
X147602595Y-85525969D02*
X146977124Y-86151440D01*
X137551440Y-86151440D02*
X137200000Y-85800000D01*
X163209745Y-119583101D02*
X165449520Y-117343325D01*
X146977124Y-86151440D02*
X137551440Y-86151440D01*
X152261686Y-85525969D02*
X147602595Y-85525969D01*
X165874031Y-86225969D02*
X152961687Y-86225969D01*
X158600000Y-106600000D02*
X158135718Y-106135718D01*
X140252400Y-106447600D02*
X152350480Y-106447600D01*
X165449520Y-117343325D02*
X165449520Y-116600000D01*
X152351440Y-106448560D02*
X152241409Y-106448560D01*
X165749520Y-116300000D02*
X165900000Y-116300000D01*
X152350480Y-106447600D02*
X152351440Y-106448560D01*
X160982141Y-120382141D02*
X161781181Y-119583101D01*
X152961687Y-86225969D02*
X152261686Y-85525969D01*
X154477124Y-106448560D02*
X152351440Y-106448560D01*
X166399040Y-85700960D02*
X165874031Y-86225969D01*
X161781181Y-119583101D02*
X163209745Y-119583101D01*
X165449520Y-116600000D02*
X165749520Y-116300000D01*
X138300000Y-108400000D02*
X140252400Y-106447600D01*
X156747885Y-106723551D02*
X154752115Y-106723551D01*
X154752115Y-106723551D02*
X154477124Y-106448560D01*
X158135718Y-106135718D02*
X157335718Y-106135718D01*
X157335718Y-106135718D02*
X156747885Y-106723551D01*
%TO.N,D5*%
X139701920Y-105998080D02*
X152426645Y-105998080D01*
X147416397Y-85076449D02*
X146796423Y-85696423D01*
X163395943Y-120032621D02*
X165428565Y-118000000D01*
X166230485Y-117200000D02*
X166500000Y-117200000D01*
X138696423Y-85696423D02*
X137900000Y-84900000D01*
X165123551Y-85776449D02*
X153147884Y-85776449D01*
X152427606Y-105999040D02*
X154663322Y-105999040D01*
X166400000Y-84500000D02*
X165123551Y-85776449D01*
X152427606Y-105999040D02*
X152600960Y-105999040D01*
X156561687Y-106274031D02*
X157217859Y-105617859D01*
X153147884Y-85776449D02*
X152447883Y-85076449D01*
X152447883Y-85076449D02*
X147416397Y-85076449D01*
X158717859Y-105617859D02*
X159600000Y-106500000D01*
X154663322Y-105999040D02*
X154938313Y-106274031D01*
X157217859Y-105617859D02*
X158717859Y-105617859D01*
X152426645Y-105998080D02*
X152427606Y-105999040D01*
X146796423Y-85696423D02*
X138696423Y-85696423D01*
X152426646Y-105998080D02*
X152427606Y-105999040D01*
X165429525Y-118000960D02*
X166230485Y-117200000D01*
X138600000Y-107100000D02*
X139701920Y-105998080D01*
X160250000Y-121750000D02*
X161967379Y-120032621D01*
X165428565Y-118000000D02*
X165429525Y-118000960D01*
X138300000Y-107100000D02*
X138600000Y-107100000D01*
X154938313Y-106274031D02*
X156561687Y-106274031D01*
X161967379Y-120032621D02*
X163395943Y-120032621D01*
%TO.N,D6*%
X165613802Y-118450480D02*
X166649520Y-118450480D01*
X152748560Y-105548560D02*
X152749520Y-105549520D01*
X166649520Y-118450480D02*
X166800000Y-118300000D01*
X152749520Y-105549520D02*
X152850480Y-105549520D01*
X166300000Y-83100000D02*
X159350480Y-83100000D01*
X138300000Y-105900000D02*
X138651440Y-105548560D01*
X140600000Y-82200000D02*
X140300000Y-81900000D01*
X152613803Y-105549520D02*
X152612843Y-105548560D01*
X162917859Y-120482141D02*
X163582141Y-120482141D01*
X155124511Y-105824511D02*
X154849520Y-105549520D01*
X159500000Y-105100000D02*
X157100000Y-105100000D01*
X138651440Y-105548560D02*
X152748560Y-105548560D01*
X154849520Y-105549520D02*
X152850480Y-105549520D01*
X152050480Y-83550480D02*
X150700000Y-82200000D01*
X159350480Y-83149520D02*
X158949520Y-83550480D01*
X156375489Y-105824511D02*
X155124511Y-105824511D01*
X158949520Y-83550480D02*
X152050480Y-83550480D01*
X161750000Y-121650000D02*
X162917859Y-120482141D01*
X152850480Y-105549520D02*
X152613803Y-105549520D01*
X150700000Y-82200000D02*
X140600000Y-82200000D01*
X163582141Y-120482141D02*
X165613802Y-118450480D01*
X159350480Y-83100000D02*
X159350480Y-83149520D01*
X157100000Y-105100000D02*
X156375489Y-105824511D01*
%TO.N,D7*%
X160275489Y-108124511D02*
X161300000Y-107100000D01*
X156724511Y-108124511D02*
X160275489Y-108124511D01*
X163200000Y-121500000D02*
X165400000Y-119300000D01*
X142500000Y-81750480D02*
X141849520Y-81100000D01*
X150100000Y-107346640D02*
X150100960Y-107347600D01*
X154379720Y-107622591D02*
X156222591Y-107622591D01*
X154104728Y-107347600D02*
X154379720Y-107622591D01*
X158713803Y-83100960D02*
X152236678Y-83100960D01*
X165400000Y-119300000D02*
X167300000Y-119300000D01*
X150886198Y-81750480D02*
X142500000Y-81750480D01*
X166300000Y-81800000D02*
X165449520Y-82650480D01*
X159164283Y-82650480D02*
X158713803Y-83100960D01*
X165449520Y-82650480D02*
X159164283Y-82650480D01*
X150100960Y-107347600D02*
X154104728Y-107347600D01*
X152236678Y-83100960D02*
X150886198Y-81750480D01*
X142053360Y-107346640D02*
X150100000Y-107346640D01*
X156222591Y-107622591D02*
X156724511Y-108124511D01*
X139800000Y-109600000D02*
X142053360Y-107346640D01*
X141849520Y-81100000D02*
X139500000Y-81100000D01*
X139500000Y-81100000D02*
X139200000Y-81400000D01*
%TO.N,A10*%
X157700000Y-102200000D02*
X156375489Y-100875489D01*
X153499040Y-101500960D02*
X152356172Y-101500960D01*
X140801920Y-102401920D02*
X140435000Y-102035000D01*
X152356172Y-101500960D02*
X151455212Y-102401920D01*
X151455212Y-102401920D02*
X140801920Y-102401920D01*
X154124511Y-100875489D02*
X153499040Y-101500960D01*
X156375489Y-100875489D02*
X154124511Y-100875489D01*
%TO.N,RD*%
X138265000Y-102161048D02*
X138265000Y-100765000D01*
X160500000Y-104200000D02*
X160400000Y-104100000D01*
X155275489Y-102875489D02*
X152888794Y-102875489D01*
X152013802Y-103750480D02*
X139854431Y-103750480D01*
X152888794Y-102875489D02*
X152013802Y-103750480D01*
X122000000Y-100800000D02*
X133600000Y-100800000D01*
X139854431Y-103750480D02*
X138265000Y-102161048D01*
X156500000Y-104100000D02*
X155275489Y-102875489D01*
X121400000Y-101400000D02*
X122000000Y-100800000D01*
X160400000Y-104100000D02*
X156500000Y-104100000D01*
%TO.N,A11*%
X141250000Y-100550000D02*
X142652400Y-101952400D01*
X153312842Y-101051440D02*
X153964283Y-100400000D01*
X152169975Y-101051440D02*
X153312842Y-101051440D01*
X157600000Y-100400000D02*
X158250000Y-101050000D01*
X153964283Y-100400000D02*
X157600000Y-100400000D01*
X142652400Y-101952400D02*
X151269014Y-101952400D01*
X151269014Y-101952400D02*
X152169975Y-101051440D01*
%TO.N,A9*%
X151827605Y-103300960D02*
X140040628Y-103300960D01*
X140040628Y-103300960D02*
X139260969Y-102521300D01*
X138585969Y-98225000D02*
X138475000Y-98225000D01*
X156374031Y-102425969D02*
X152702597Y-102425969D01*
X152702597Y-102425969D02*
X151827605Y-103300960D01*
X139260969Y-98900000D02*
X138585969Y-98225000D01*
X139260969Y-102521300D02*
X139260969Y-98900000D01*
%TO.N,A8*%
X139710489Y-97310489D02*
X139710489Y-102335103D01*
X154849520Y-101950480D02*
X155200000Y-101600000D01*
X139710489Y-102335103D02*
X140226826Y-102851440D01*
X152542369Y-101950480D02*
X154849520Y-101950480D01*
X151641408Y-102851440D02*
X152542369Y-101950480D01*
X140226826Y-102851440D02*
X151641408Y-102851440D01*
X139355000Y-96955000D02*
X139710489Y-97310489D01*
X138455000Y-96955000D02*
X139355000Y-96955000D01*
%TO.N,WR*%
X122575000Y-82525000D02*
X124675000Y-82525000D01*
X122200000Y-82900000D02*
X122575000Y-82525000D01*
%TO.N,CS*%
X125325000Y-83325000D02*
X123375000Y-83325000D01*
X123375000Y-83325000D02*
X122300000Y-84400000D01*
%TO.N,RST*%
X163300000Y-109900000D02*
X163300000Y-105600000D01*
X161700000Y-111500000D02*
X163300000Y-109900000D01*
X163300000Y-105600000D02*
X163700000Y-105200000D01*
X158400000Y-91600000D02*
X164600000Y-91600000D01*
%TO.N,A15*%
X147349520Y-87050480D02*
X147800000Y-86600000D01*
X135564282Y-87600000D02*
X136113803Y-87050480D01*
X136113803Y-87050480D02*
X147349520Y-87050480D01*
X130800000Y-87600000D02*
X135564282Y-87600000D01*
X159200000Y-99900000D02*
X159400000Y-100100000D01*
X147800000Y-86600000D02*
X148600000Y-86600000D01*
X130325000Y-87125000D02*
X130800000Y-87600000D01*
X151349520Y-87050480D02*
X151700000Y-86700000D01*
X149050480Y-87050480D02*
X151349520Y-87050480D01*
X151700000Y-99900000D02*
X159200000Y-99900000D01*
X148600000Y-86600000D02*
X149050480Y-87050480D01*
%TO.N,A14*%
X149900000Y-82700000D02*
X150200000Y-83000000D01*
X131000000Y-82700000D02*
X149900000Y-82700000D01*
%TO.N,A13*%
X132150480Y-83149520D02*
X148249520Y-83149520D01*
X148249520Y-83149520D02*
X149100000Y-84000000D01*
X149100000Y-84000000D02*
X160000000Y-84000000D01*
X131600000Y-83700000D02*
X132150480Y-83149520D01*
X129100000Y-82900000D02*
X129900000Y-83700000D01*
X129900000Y-83700000D02*
X131600000Y-83700000D01*
%TD*%
%TA.AperFunction,Conductor*%
%TO.N,GND*%
G36*
X164962950Y-70016607D02*
G01*
X164977751Y-70018912D01*
X164977755Y-70018912D01*
X164986624Y-70020293D01*
X164995526Y-70019129D01*
X164995530Y-70019129D01*
X164995626Y-70019116D01*
X165026063Y-70018845D01*
X165088268Y-70025853D01*
X165115775Y-70032131D01*
X165192964Y-70059141D01*
X165218384Y-70071383D01*
X165287631Y-70114894D01*
X165309690Y-70132486D01*
X165367514Y-70190310D01*
X165385106Y-70212369D01*
X165428617Y-70281616D01*
X165440859Y-70307037D01*
X165467868Y-70384224D01*
X165474147Y-70411731D01*
X165480415Y-70467358D01*
X165481198Y-70483004D01*
X165481089Y-70491962D01*
X165479707Y-70500836D01*
X165498575Y-70645123D01*
X165500566Y-70649648D01*
X165503910Y-70668917D01*
X165507090Y-70713382D01*
X165552942Y-70924161D01*
X165554509Y-70928363D01*
X165554511Y-70928369D01*
X165577726Y-70990610D01*
X165628325Y-71126269D01*
X165731703Y-71315592D01*
X165860972Y-71488276D01*
X166013501Y-71640805D01*
X166186185Y-71770074D01*
X166375508Y-71873452D01*
X166379720Y-71875023D01*
X166573408Y-71947266D01*
X166573414Y-71947268D01*
X166577616Y-71948835D01*
X166582002Y-71949789D01*
X166582005Y-71949790D01*
X166706175Y-71976801D01*
X166788395Y-71994687D01*
X166792883Y-71995008D01*
X166963151Y-72007186D01*
X166975060Y-72008610D01*
X166991016Y-72011294D01*
X166997371Y-72011372D01*
X166998696Y-72011388D01*
X166998700Y-72011388D01*
X167003555Y-72011447D01*
X167008364Y-72010758D01*
X167008367Y-72010758D01*
X167016992Y-72009522D01*
X167030577Y-72007577D01*
X167048660Y-72006304D01*
X168056982Y-72008102D01*
X168961910Y-72009716D01*
X168981068Y-72011216D01*
X168984854Y-72011806D01*
X168984861Y-72011806D01*
X168993730Y-72013187D01*
X169002632Y-72012023D01*
X169002636Y-72012023D01*
X169002732Y-72012010D01*
X169033169Y-72011739D01*
X169095374Y-72018747D01*
X169122881Y-72025025D01*
X169148218Y-72033891D01*
X169200070Y-72052035D01*
X169225490Y-72064277D01*
X169294737Y-72107788D01*
X169316796Y-72125380D01*
X169374620Y-72183204D01*
X169392212Y-72205263D01*
X169435723Y-72274510D01*
X169447965Y-72299931D01*
X169474974Y-72377118D01*
X169481253Y-72404625D01*
X169487521Y-72460252D01*
X169488304Y-72475898D01*
X169488195Y-72484856D01*
X169486813Y-72493730D01*
X169489273Y-72512541D01*
X169490935Y-72525251D01*
X169491999Y-72541589D01*
X169492000Y-96771635D01*
X169492000Y-120964360D01*
X169471998Y-121032481D01*
X169418342Y-121078974D01*
X169383863Y-121089087D01*
X169363519Y-121092000D01*
X169362548Y-121092139D01*
X169357042Y-121092804D01*
X169283978Y-121100001D01*
X169261206Y-121102244D01*
X169127748Y-121142729D01*
X169122296Y-121145643D01*
X169122294Y-121145644D01*
X169082245Y-121167051D01*
X169004753Y-121208472D01*
X168999970Y-121212398D01*
X168999966Y-121212400D01*
X168922826Y-121275707D01*
X168896946Y-121296946D01*
X168893024Y-121301725D01*
X168812400Y-121399966D01*
X168812398Y-121399970D01*
X168808472Y-121404753D01*
X168805554Y-121410213D01*
X168746039Y-121521556D01*
X168742729Y-121527748D01*
X168733749Y-121557349D01*
X168704266Y-121654542D01*
X168702244Y-121661206D01*
X168701637Y-121667369D01*
X168694299Y-121741873D01*
X168693162Y-121750412D01*
X168686929Y-121787458D01*
X168686776Y-121799997D01*
X168688572Y-121812536D01*
X168690728Y-121827595D01*
X168692000Y-121845456D01*
X168692000Y-122374000D01*
X168671998Y-122442121D01*
X168618342Y-122488614D01*
X168566000Y-122500000D01*
X163757038Y-122500000D01*
X163688917Y-122479998D01*
X163642424Y-122426342D01*
X163632320Y-122356068D01*
X163661814Y-122291488D01*
X163682977Y-122272064D01*
X163725011Y-122241525D01*
X163775349Y-122204952D01*
X163805909Y-122182749D01*
X163805911Y-122182747D01*
X163811253Y-122178866D01*
X163880683Y-122101756D01*
X163934621Y-122041852D01*
X163934622Y-122041851D01*
X163939040Y-122036944D01*
X164034527Y-121871556D01*
X164093542Y-121689928D01*
X164110907Y-121524706D01*
X164137920Y-121459050D01*
X164147122Y-121448782D01*
X165625500Y-119970405D01*
X165687812Y-119936379D01*
X165714595Y-119933500D01*
X166591800Y-119933500D01*
X166659921Y-119953502D01*
X166679147Y-119969843D01*
X166679420Y-119969540D01*
X166684332Y-119973963D01*
X166688747Y-119978866D01*
X166698514Y-119985962D01*
X166837345Y-120086829D01*
X166843248Y-120091118D01*
X166849276Y-120093802D01*
X166849278Y-120093803D01*
X167011681Y-120166109D01*
X167017712Y-120168794D01*
X167111112Y-120188647D01*
X167198056Y-120207128D01*
X167198061Y-120207128D01*
X167204513Y-120208500D01*
X167395487Y-120208500D01*
X167401939Y-120207128D01*
X167401944Y-120207128D01*
X167488888Y-120188647D01*
X167582288Y-120168794D01*
X167588319Y-120166109D01*
X167750722Y-120093803D01*
X167750724Y-120093802D01*
X167756752Y-120091118D01*
X167762656Y-120086829D01*
X167901486Y-119985962D01*
X167911253Y-119978866D01*
X167934091Y-119953502D01*
X168034621Y-119841852D01*
X168034622Y-119841851D01*
X168039040Y-119836944D01*
X168134527Y-119671556D01*
X168193542Y-119489928D01*
X168194872Y-119477279D01*
X168212814Y-119306565D01*
X168213504Y-119300000D01*
X168193542Y-119110072D01*
X168134527Y-118928444D01*
X168125585Y-118912955D01*
X168056792Y-118793803D01*
X168039040Y-118763056D01*
X168024798Y-118747238D01*
X167915675Y-118626045D01*
X167915674Y-118626044D01*
X167911253Y-118621134D01*
X167756752Y-118508882D01*
X167758232Y-118506844D01*
X167717065Y-118463662D01*
X167703754Y-118392766D01*
X167712814Y-118306565D01*
X167713504Y-118300000D01*
X167712258Y-118288148D01*
X167694232Y-118116635D01*
X167694232Y-118116633D01*
X167693542Y-118110072D01*
X167634527Y-117928444D01*
X167539040Y-117763056D01*
X167468964Y-117685228D01*
X167415675Y-117626045D01*
X167415674Y-117626044D01*
X167411253Y-117621134D01*
X167405909Y-117617251D01*
X167401002Y-117612833D01*
X167402824Y-117610809D01*
X167366841Y-117564117D01*
X167360787Y-117493379D01*
X167364437Y-117479502D01*
X167367576Y-117469843D01*
X167393542Y-117389928D01*
X167400773Y-117321134D01*
X167412814Y-117206565D01*
X167413504Y-117200000D01*
X167401245Y-117083365D01*
X167394232Y-117016635D01*
X167394232Y-117016633D01*
X167393542Y-117010072D01*
X167334527Y-116828444D01*
X167239040Y-116663056D01*
X167111253Y-116521134D01*
X166956752Y-116408882D01*
X166884934Y-116376907D01*
X166830838Y-116330927D01*
X166810873Y-116274970D01*
X166794232Y-116116635D01*
X166794232Y-116116633D01*
X166793542Y-116110072D01*
X166734527Y-115928444D01*
X166713990Y-115892872D01*
X166654040Y-115789037D01*
X166639040Y-115763056D01*
X166625920Y-115748484D01*
X166515675Y-115626045D01*
X166515674Y-115626044D01*
X166511253Y-115621134D01*
X166385891Y-115530053D01*
X166362094Y-115512763D01*
X166362093Y-115512762D01*
X166356752Y-115508882D01*
X166350726Y-115506199D01*
X166350719Y-115506195D01*
X166272525Y-115471382D01*
X166218429Y-115425402D01*
X166197779Y-115357475D01*
X166198463Y-115343104D01*
X166210067Y-115232706D01*
X166213504Y-115200000D01*
X166193542Y-115010072D01*
X166134527Y-114828444D01*
X166039040Y-114663056D01*
X165911253Y-114521134D01*
X165756752Y-114408882D01*
X165750724Y-114406198D01*
X165750722Y-114406197D01*
X165588319Y-114333891D01*
X165588318Y-114333891D01*
X165582288Y-114331206D01*
X165488888Y-114311353D01*
X165401944Y-114292872D01*
X165401939Y-114292872D01*
X165395487Y-114291500D01*
X165204513Y-114291500D01*
X165198061Y-114292872D01*
X165198056Y-114292872D01*
X165111112Y-114311353D01*
X165017712Y-114331206D01*
X165011682Y-114333891D01*
X165011681Y-114333891D01*
X164849278Y-114406197D01*
X164849276Y-114406198D01*
X164843248Y-114408882D01*
X164837907Y-114412762D01*
X164837906Y-114412763D01*
X164760788Y-114468793D01*
X164693920Y-114492651D01*
X164624769Y-114476571D01*
X164577608Y-114429858D01*
X164567738Y-114412763D01*
X164539040Y-114363056D01*
X164522882Y-114345110D01*
X164415675Y-114226045D01*
X164415674Y-114226044D01*
X164411253Y-114221134D01*
X164256752Y-114108882D01*
X164250724Y-114106198D01*
X164250722Y-114106197D01*
X164088319Y-114033891D01*
X164088318Y-114033891D01*
X164082288Y-114031206D01*
X163988888Y-114011353D01*
X163901944Y-113992872D01*
X163901939Y-113992872D01*
X163895487Y-113991500D01*
X163704513Y-113991500D01*
X163698061Y-113992872D01*
X163698056Y-113992872D01*
X163611112Y-114011353D01*
X163517712Y-114031206D01*
X163511682Y-114033891D01*
X163511681Y-114033891D01*
X163349278Y-114106197D01*
X163349276Y-114106198D01*
X163343248Y-114108882D01*
X163188747Y-114221134D01*
X163184332Y-114226037D01*
X163179420Y-114230460D01*
X163178295Y-114229211D01*
X163124986Y-114262051D01*
X163091800Y-114266500D01*
X162178768Y-114266500D01*
X162167585Y-114265973D01*
X162160092Y-114264298D01*
X162152166Y-114264547D01*
X162152165Y-114264547D01*
X162092002Y-114266438D01*
X162088044Y-114266500D01*
X162060144Y-114266500D01*
X162056154Y-114267004D01*
X162044320Y-114267936D01*
X162000111Y-114269326D01*
X161992497Y-114271538D01*
X161992492Y-114271539D01*
X161980659Y-114274977D01*
X161961296Y-114278988D01*
X161941203Y-114281526D01*
X161933836Y-114284443D01*
X161933831Y-114284444D01*
X161900092Y-114297802D01*
X161888865Y-114301646D01*
X161846407Y-114313982D01*
X161839581Y-114318019D01*
X161828972Y-114324293D01*
X161811224Y-114332988D01*
X161792383Y-114340448D01*
X161785967Y-114345110D01*
X161785966Y-114345110D01*
X161756613Y-114366436D01*
X161746693Y-114372952D01*
X161715465Y-114391420D01*
X161715462Y-114391422D01*
X161708638Y-114395458D01*
X161694317Y-114409779D01*
X161679284Y-114422619D01*
X161662893Y-114434528D01*
X161647865Y-114452694D01*
X161634702Y-114468605D01*
X161626712Y-114477384D01*
X159974500Y-116129595D01*
X159912188Y-116163621D01*
X159885405Y-116166500D01*
X159408200Y-116166500D01*
X159340079Y-116146498D01*
X159320853Y-116130157D01*
X159320580Y-116130460D01*
X159315668Y-116126037D01*
X159311253Y-116121134D01*
X159156752Y-116008882D01*
X159150724Y-116006198D01*
X159150722Y-116006197D01*
X158988319Y-115933891D01*
X158988318Y-115933891D01*
X158982288Y-115931206D01*
X158888887Y-115911353D01*
X158801944Y-115892872D01*
X158801939Y-115892872D01*
X158795487Y-115891500D01*
X158604513Y-115891500D01*
X158598061Y-115892872D01*
X158598056Y-115892872D01*
X158511113Y-115911353D01*
X158417712Y-115931206D01*
X158411682Y-115933891D01*
X158411681Y-115933891D01*
X158249278Y-116006197D01*
X158249276Y-116006198D01*
X158243248Y-116008882D01*
X158088747Y-116121134D01*
X158084332Y-116126037D01*
X158079420Y-116130460D01*
X158078295Y-116129211D01*
X158024986Y-116162051D01*
X157991800Y-116166500D01*
X156514595Y-116166500D01*
X156446474Y-116146498D01*
X156425499Y-116129595D01*
X156053167Y-115757262D01*
X156045633Y-115748983D01*
X156041520Y-115742502D01*
X155991868Y-115695876D01*
X155989027Y-115693122D01*
X155969290Y-115673385D01*
X155966093Y-115670905D01*
X155957071Y-115663200D01*
X155943642Y-115650589D01*
X155924841Y-115632934D01*
X155917895Y-115629115D01*
X155917892Y-115629113D01*
X155907086Y-115623172D01*
X155890567Y-115612321D01*
X155889355Y-115611381D01*
X155874561Y-115599906D01*
X155867292Y-115596761D01*
X155867288Y-115596758D01*
X155833983Y-115582346D01*
X155823333Y-115577129D01*
X155784580Y-115555825D01*
X155764957Y-115550787D01*
X155746254Y-115544383D01*
X155734940Y-115539487D01*
X155734939Y-115539487D01*
X155727665Y-115536339D01*
X155719842Y-115535100D01*
X155719832Y-115535097D01*
X155683996Y-115529421D01*
X155672376Y-115527015D01*
X155637231Y-115517992D01*
X155637230Y-115517992D01*
X155629550Y-115516020D01*
X155609296Y-115516020D01*
X155589585Y-115514469D01*
X155577406Y-115512540D01*
X155569577Y-115511300D01*
X155540306Y-115514067D01*
X155525559Y-115515461D01*
X155513701Y-115516020D01*
X150329247Y-115516020D01*
X150318064Y-115515493D01*
X150310571Y-115513818D01*
X150302645Y-115514067D01*
X150302644Y-115514067D01*
X150242481Y-115515958D01*
X150238523Y-115516020D01*
X150210624Y-115516020D01*
X150206634Y-115516524D01*
X150194800Y-115517456D01*
X150150591Y-115518846D01*
X150142977Y-115521058D01*
X150142972Y-115521059D01*
X150131139Y-115524497D01*
X150111776Y-115528508D01*
X150091683Y-115531046D01*
X150084316Y-115533963D01*
X150084311Y-115533964D01*
X150050572Y-115547322D01*
X150039345Y-115551166D01*
X149996887Y-115563502D01*
X149990061Y-115567539D01*
X149979452Y-115573813D01*
X149961704Y-115582508D01*
X149942863Y-115589968D01*
X149936447Y-115594630D01*
X149936446Y-115594630D01*
X149907093Y-115615956D01*
X149897173Y-115622472D01*
X149865945Y-115640940D01*
X149865942Y-115640942D01*
X149859118Y-115644978D01*
X149844797Y-115659299D01*
X149829764Y-115672139D01*
X149813373Y-115684048D01*
X149805303Y-115693803D01*
X149785182Y-115718125D01*
X149777192Y-115726904D01*
X148449500Y-117054595D01*
X148387188Y-117088621D01*
X148360405Y-117091500D01*
X148304513Y-117091500D01*
X148298061Y-117092872D01*
X148298056Y-117092872D01*
X148211112Y-117111353D01*
X148117712Y-117131206D01*
X148111682Y-117133891D01*
X148111681Y-117133891D01*
X148099413Y-117139353D01*
X148029046Y-117148786D01*
X147964749Y-117118678D01*
X147926937Y-117058589D01*
X147927614Y-116987595D01*
X147941781Y-116956731D01*
X147987486Y-116884712D01*
X147987488Y-116884709D01*
X147989139Y-116882107D01*
X148013072Y-116834729D01*
X148099789Y-116663056D01*
X148165906Y-116532167D01*
X148170186Y-116521134D01*
X148306568Y-116169518D01*
X148307682Y-116166647D01*
X148413112Y-115789037D01*
X148476449Y-115429838D01*
X148480660Y-115405959D01*
X148480660Y-115405956D01*
X148481192Y-115402941D01*
X148511269Y-115012045D01*
X148511385Y-115003794D01*
X148512806Y-114901974D01*
X148512834Y-114900000D01*
X148509055Y-114822721D01*
X148496563Y-114567322D01*
X148493682Y-114508416D01*
X148436410Y-114120570D01*
X148434464Y-114112763D01*
X148378049Y-113886496D01*
X148341564Y-113740163D01*
X148322506Y-113686640D01*
X148211082Y-113373727D01*
X148210050Y-113370828D01*
X148043122Y-113016089D01*
X148015393Y-112969572D01*
X147843955Y-112681983D01*
X147842375Y-112679332D01*
X147642701Y-112408500D01*
X147611546Y-112366242D01*
X147611544Y-112366239D01*
X147609724Y-112363771D01*
X147607673Y-112361493D01*
X147607668Y-112361487D01*
X147349451Y-112074709D01*
X147347390Y-112072420D01*
X147057877Y-111808058D01*
X146743948Y-111573210D01*
X146741313Y-111571614D01*
X146623065Y-111500000D01*
X160786496Y-111500000D01*
X160806458Y-111689928D01*
X160865473Y-111871556D01*
X160960960Y-112036944D01*
X161088747Y-112178866D01*
X161187843Y-112250864D01*
X161225317Y-112278090D01*
X161243248Y-112291118D01*
X161249276Y-112293802D01*
X161249278Y-112293803D01*
X161401300Y-112361487D01*
X161417712Y-112368794D01*
X161511112Y-112388647D01*
X161598056Y-112407128D01*
X161598061Y-112407128D01*
X161604513Y-112408500D01*
X161795487Y-112408500D01*
X161801939Y-112407128D01*
X161801944Y-112407128D01*
X161888888Y-112388647D01*
X161982288Y-112368794D01*
X161998700Y-112361487D01*
X162150722Y-112293803D01*
X162150724Y-112293802D01*
X162156752Y-112291118D01*
X162174684Y-112278090D01*
X162212157Y-112250864D01*
X162311253Y-112178866D01*
X162439040Y-112036944D01*
X162534527Y-111871556D01*
X162593542Y-111689928D01*
X162610907Y-111524706D01*
X162637920Y-111459050D01*
X162647122Y-111448782D01*
X163692247Y-110403657D01*
X163700537Y-110396113D01*
X163707018Y-110392000D01*
X163753659Y-110342332D01*
X163756413Y-110339491D01*
X163776135Y-110319769D01*
X163778619Y-110316567D01*
X163786317Y-110307555D01*
X163811161Y-110281098D01*
X163816586Y-110275321D01*
X163826347Y-110257566D01*
X163837198Y-110241047D01*
X163849614Y-110225041D01*
X163867174Y-110184463D01*
X163872391Y-110173813D01*
X163893695Y-110135060D01*
X163898733Y-110115437D01*
X163905137Y-110096734D01*
X163910033Y-110085420D01*
X163910033Y-110085419D01*
X163913181Y-110078145D01*
X163914420Y-110070322D01*
X163914423Y-110070312D01*
X163920099Y-110034476D01*
X163922505Y-110022856D01*
X163931528Y-109987711D01*
X163931528Y-109987710D01*
X163933500Y-109980030D01*
X163933500Y-109959776D01*
X163935051Y-109940065D01*
X163936980Y-109927886D01*
X163938220Y-109920057D01*
X163934059Y-109876038D01*
X163933500Y-109864181D01*
X163933500Y-106172342D01*
X163953502Y-106104221D01*
X164008251Y-106057235D01*
X164150722Y-105993803D01*
X164150724Y-105993802D01*
X164156752Y-105991118D01*
X164311253Y-105878866D01*
X164363235Y-105821134D01*
X164434621Y-105741852D01*
X164434622Y-105741851D01*
X164439040Y-105736944D01*
X164534527Y-105571556D01*
X164593542Y-105389928D01*
X164596169Y-105364940D01*
X164612814Y-105206565D01*
X164613504Y-105200000D01*
X164609945Y-105166134D01*
X164594232Y-105016635D01*
X164594232Y-105016633D01*
X164593542Y-105010072D01*
X164534527Y-104828444D01*
X164439040Y-104663056D01*
X164311253Y-104521134D01*
X164156752Y-104408882D01*
X164150724Y-104406198D01*
X164150722Y-104406197D01*
X163988319Y-104333891D01*
X163988318Y-104333891D01*
X163982288Y-104331206D01*
X163888888Y-104311353D01*
X163801944Y-104292872D01*
X163801939Y-104292872D01*
X163795487Y-104291500D01*
X163604513Y-104291500D01*
X163598061Y-104292872D01*
X163598056Y-104292872D01*
X163511112Y-104311353D01*
X163417712Y-104331206D01*
X163411682Y-104333891D01*
X163411681Y-104333891D01*
X163249278Y-104406197D01*
X163249276Y-104406198D01*
X163243248Y-104408882D01*
X163088747Y-104521134D01*
X162960960Y-104663056D01*
X162865473Y-104828444D01*
X162806458Y-105010072D01*
X162805769Y-105016631D01*
X162805768Y-105016634D01*
X162786794Y-105197164D01*
X162761046Y-105261216D01*
X162750386Y-105274959D01*
X162747241Y-105282228D01*
X162747238Y-105282232D01*
X162732826Y-105315537D01*
X162727609Y-105326187D01*
X162706305Y-105364940D01*
X162704334Y-105372615D01*
X162704334Y-105372616D01*
X162701267Y-105384562D01*
X162694863Y-105403266D01*
X162686819Y-105421855D01*
X162685580Y-105429678D01*
X162685577Y-105429688D01*
X162679901Y-105465524D01*
X162677495Y-105477144D01*
X162668472Y-105512289D01*
X162666500Y-105519970D01*
X162666500Y-105540224D01*
X162664949Y-105559934D01*
X162661780Y-105579943D01*
X162662526Y-105587835D01*
X162665941Y-105623961D01*
X162666500Y-105635819D01*
X162666500Y-109585405D01*
X162646498Y-109653526D01*
X162629595Y-109674501D01*
X161749499Y-110554596D01*
X161687187Y-110588621D01*
X161660404Y-110591500D01*
X161604513Y-110591500D01*
X161598061Y-110592872D01*
X161598056Y-110592872D01*
X161511113Y-110611353D01*
X161417712Y-110631206D01*
X161411682Y-110633891D01*
X161411681Y-110633891D01*
X161249278Y-110706197D01*
X161249276Y-110706198D01*
X161243248Y-110708882D01*
X161088747Y-110821134D01*
X161084326Y-110826044D01*
X161084325Y-110826045D01*
X161014538Y-110903552D01*
X160960960Y-110963056D01*
X160865473Y-111128444D01*
X160806458Y-111310072D01*
X160805768Y-111316633D01*
X160805768Y-111316635D01*
X160791879Y-111448782D01*
X160786496Y-111500000D01*
X146623065Y-111500000D01*
X146411235Y-111371711D01*
X146411232Y-111371709D01*
X146408601Y-111370116D01*
X146405831Y-111368789D01*
X146405822Y-111368784D01*
X146057808Y-111202044D01*
X146057806Y-111202043D01*
X146055036Y-111200716D01*
X146052147Y-111199664D01*
X146052141Y-111199662D01*
X145689526Y-111067682D01*
X145689523Y-111067681D01*
X145686627Y-111066627D01*
X145410598Y-110995754D01*
X145309876Y-110969893D01*
X145309873Y-110969892D01*
X145306892Y-110969127D01*
X144919455Y-110909149D01*
X144916398Y-110908978D01*
X144916397Y-110908978D01*
X144886332Y-110907297D01*
X144528015Y-110887264D01*
X144524936Y-110887393D01*
X144524933Y-110887393D01*
X144269423Y-110898102D01*
X144136307Y-110903681D01*
X144133263Y-110904109D01*
X144133261Y-110904109D01*
X143922350Y-110933751D01*
X143748070Y-110958244D01*
X143367011Y-111050432D01*
X142996766Y-111179365D01*
X142993968Y-111180658D01*
X142643667Y-111342519D01*
X142643657Y-111342524D01*
X142640870Y-111343812D01*
X142302720Y-111542204D01*
X142262241Y-111571614D01*
X141988024Y-111770843D01*
X141988018Y-111770848D01*
X141985543Y-111772646D01*
X141983257Y-111774675D01*
X141983254Y-111774678D01*
X141943318Y-111810135D01*
X141692367Y-112032940D01*
X141690288Y-112035185D01*
X141690281Y-112035192D01*
X141450805Y-112293803D01*
X141425991Y-112320600D01*
X141188957Y-112632881D01*
X141187346Y-112635499D01*
X141187343Y-112635504D01*
X141086242Y-112799841D01*
X140983527Y-112966802D01*
X140811662Y-113319177D01*
X140675004Y-113686640D01*
X140574856Y-114065685D01*
X140512174Y-114452694D01*
X140511981Y-114455767D01*
X140511980Y-114455773D01*
X140489945Y-114806019D01*
X140488139Y-114834729D01*
X140487557Y-114843972D01*
X140487665Y-114847061D01*
X140500220Y-115206564D01*
X140501240Y-115235785D01*
X140553091Y-115624393D01*
X140553791Y-115627377D01*
X140553792Y-115627383D01*
X140600044Y-115824579D01*
X140642616Y-116006087D01*
X140768961Y-116377223D01*
X140770235Y-116380031D01*
X140929643Y-116731444D01*
X140929647Y-116731452D01*
X140930920Y-116734258D01*
X141126946Y-117073785D01*
X141128735Y-117076283D01*
X141128737Y-117076287D01*
X141353282Y-117389928D01*
X141355168Y-117392563D01*
X141357195Y-117394878D01*
X141357197Y-117394881D01*
X141594640Y-117666109D01*
X141613409Y-117687549D01*
X141899202Y-117955927D01*
X141964957Y-118006565D01*
X142203060Y-118189928D01*
X142209821Y-118195135D01*
X142212424Y-118196762D01*
X142212429Y-118196765D01*
X142332130Y-118271562D01*
X142542300Y-118402891D01*
X142893466Y-118577212D01*
X143259966Y-118716432D01*
X143638303Y-118819224D01*
X143915504Y-118866109D01*
X144021843Y-118884095D01*
X144021846Y-118884095D01*
X144024865Y-118884606D01*
X144178918Y-118895378D01*
X144412896Y-118911740D01*
X144412904Y-118911740D01*
X144415962Y-118911954D01*
X144668875Y-118904889D01*
X144804787Y-118901093D01*
X144804790Y-118901093D01*
X144807861Y-118901007D01*
X144810914Y-118900621D01*
X144810918Y-118900621D01*
X144951291Y-118882888D01*
X145196821Y-118851870D01*
X145199825Y-118851188D01*
X145199828Y-118851187D01*
X145576135Y-118765692D01*
X145576141Y-118765690D01*
X145579131Y-118765011D01*
X145725166Y-118716432D01*
X145948215Y-118642234D01*
X145948221Y-118642232D01*
X145951139Y-118641261D01*
X145966262Y-118634528D01*
X146306497Y-118483046D01*
X146306503Y-118483043D01*
X146309297Y-118481799D01*
X146311966Y-118480283D01*
X146647516Y-118289664D01*
X146647521Y-118289661D01*
X146650184Y-118288148D01*
X146807428Y-118177224D01*
X146968024Y-118063936D01*
X146968027Y-118063934D01*
X146970547Y-118062156D01*
X147267329Y-117805981D01*
X147269451Y-117803753D01*
X147269457Y-117803747D01*
X147281365Y-117791242D01*
X147342828Y-117755705D01*
X147413746Y-117759039D01*
X147471604Y-117800185D01*
X147498032Y-117866079D01*
X147497920Y-117891305D01*
X147486496Y-118000000D01*
X147506458Y-118189928D01*
X147565473Y-118371556D01*
X147568776Y-118377278D01*
X147568777Y-118377279D01*
X147577780Y-118392872D01*
X147660960Y-118536944D01*
X147665378Y-118541851D01*
X147665379Y-118541852D01*
X147779388Y-118668472D01*
X147788747Y-118678866D01*
X147943248Y-118791118D01*
X147949276Y-118793802D01*
X147949278Y-118793803D01*
X148080569Y-118852257D01*
X148117712Y-118868794D01*
X148211112Y-118888647D01*
X148298056Y-118907128D01*
X148298061Y-118907128D01*
X148304513Y-118908500D01*
X148495487Y-118908500D01*
X148501939Y-118907128D01*
X148501944Y-118907128D01*
X148588888Y-118888647D01*
X148682288Y-118868794D01*
X148719431Y-118852257D01*
X148850722Y-118793803D01*
X148850724Y-118793802D01*
X148856752Y-118791118D01*
X149011253Y-118678866D01*
X149020612Y-118668472D01*
X149134621Y-118541852D01*
X149134622Y-118541851D01*
X149139040Y-118536944D01*
X149222220Y-118392872D01*
X149231223Y-118377279D01*
X149231224Y-118377278D01*
X149234527Y-118371556D01*
X149293542Y-118189928D01*
X149310907Y-118024706D01*
X149337920Y-117959050D01*
X149347122Y-117948782D01*
X150475980Y-116819925D01*
X150538292Y-116785899D01*
X150565075Y-116783020D01*
X151681168Y-116783020D01*
X151749289Y-116803022D01*
X151795782Y-116856678D01*
X151805886Y-116926952D01*
X151776392Y-116991532D01*
X151770264Y-116998114D01*
X150664583Y-118103794D01*
X149637342Y-119131035D01*
X149575030Y-119165061D01*
X149548247Y-119167940D01*
X135286991Y-119167940D01*
X135218870Y-119147938D01*
X135197896Y-119131035D01*
X134974608Y-118907747D01*
X134967068Y-118899461D01*
X134962956Y-118892982D01*
X134913304Y-118846356D01*
X134910463Y-118843602D01*
X134890726Y-118823865D01*
X134887529Y-118821385D01*
X134878507Y-118813680D01*
X134852056Y-118788841D01*
X134846277Y-118783414D01*
X134839331Y-118779595D01*
X134839328Y-118779593D01*
X134828522Y-118773652D01*
X134812003Y-118762801D01*
X134806004Y-118758148D01*
X134795997Y-118750386D01*
X134788728Y-118747241D01*
X134788724Y-118747238D01*
X134755419Y-118732826D01*
X134744769Y-118727609D01*
X134706016Y-118706305D01*
X134686393Y-118701267D01*
X134667690Y-118694863D01*
X134656376Y-118689967D01*
X134656375Y-118689967D01*
X134649101Y-118686819D01*
X134641278Y-118685580D01*
X134641268Y-118685577D01*
X134605432Y-118679901D01*
X134593812Y-118677495D01*
X134558667Y-118668472D01*
X134558666Y-118668472D01*
X134550986Y-118666500D01*
X134530732Y-118666500D01*
X134511021Y-118664949D01*
X134498842Y-118663020D01*
X134491013Y-118661780D01*
X134483121Y-118662526D01*
X134446995Y-118665941D01*
X134435137Y-118666500D01*
X129808200Y-118666500D01*
X129740079Y-118646498D01*
X129720853Y-118630157D01*
X129720580Y-118630460D01*
X129715668Y-118626037D01*
X129711253Y-118621134D01*
X129595376Y-118536944D01*
X129562094Y-118512763D01*
X129562093Y-118512762D01*
X129556752Y-118508882D01*
X129550724Y-118506198D01*
X129550722Y-118506197D01*
X129388319Y-118433891D01*
X129388318Y-118433891D01*
X129382288Y-118431206D01*
X129288887Y-118411353D01*
X129201944Y-118392872D01*
X129201939Y-118392872D01*
X129195487Y-118391500D01*
X129004513Y-118391500D01*
X128998061Y-118392872D01*
X128998056Y-118392872D01*
X128911113Y-118411353D01*
X128817712Y-118431206D01*
X128811682Y-118433891D01*
X128811681Y-118433891D01*
X128649278Y-118506197D01*
X128649276Y-118506198D01*
X128643248Y-118508882D01*
X128637907Y-118512762D01*
X128637906Y-118512763D01*
X128604624Y-118536944D01*
X128488747Y-118621134D01*
X128484326Y-118626044D01*
X128484325Y-118626045D01*
X128375203Y-118747238D01*
X128360960Y-118763056D01*
X128343208Y-118793803D01*
X128274416Y-118912955D01*
X128265473Y-118928444D01*
X128206458Y-119110072D01*
X128186496Y-119300000D01*
X128187186Y-119306565D01*
X128205129Y-119477279D01*
X128206458Y-119489928D01*
X128265473Y-119671556D01*
X128360960Y-119836944D01*
X128365378Y-119841851D01*
X128365379Y-119841852D01*
X128465909Y-119953502D01*
X128488747Y-119978866D01*
X128498514Y-119985962D01*
X128637345Y-120086829D01*
X128643248Y-120091118D01*
X128649276Y-120093802D01*
X128649278Y-120093803D01*
X128811681Y-120166109D01*
X128817712Y-120168794D01*
X128911112Y-120188647D01*
X128998056Y-120207128D01*
X128998061Y-120207128D01*
X129004513Y-120208500D01*
X129195487Y-120208500D01*
X129202086Y-120207097D01*
X129202550Y-120206999D01*
X129202907Y-120207026D01*
X129208515Y-120206437D01*
X129208623Y-120207462D01*
X129273341Y-120212402D01*
X129329973Y-120255219D01*
X129354056Y-120317075D01*
X129356458Y-120339928D01*
X129415473Y-120521556D01*
X129510960Y-120686944D01*
X129638747Y-120828866D01*
X129793248Y-120941118D01*
X129799276Y-120943802D01*
X129799278Y-120943803D01*
X129888862Y-120983688D01*
X129967712Y-121018794D01*
X130061113Y-121038647D01*
X130148056Y-121057128D01*
X130148061Y-121057128D01*
X130154513Y-121058500D01*
X130345487Y-121058500D01*
X130351939Y-121057128D01*
X130351944Y-121057128D01*
X130438887Y-121038647D01*
X130532288Y-121018794D01*
X130538315Y-121016111D01*
X130538323Y-121016108D01*
X130682829Y-120951770D01*
X130753196Y-120942336D01*
X130817493Y-120972443D01*
X130855306Y-121032532D01*
X130855957Y-121035162D01*
X130856458Y-121039928D01*
X130915473Y-121221556D01*
X131010960Y-121386944D01*
X131015378Y-121391851D01*
X131015379Y-121391852D01*
X131134325Y-121523955D01*
X131138747Y-121528866D01*
X131293248Y-121641118D01*
X131299276Y-121643802D01*
X131299278Y-121643803D01*
X131461681Y-121716109D01*
X131467712Y-121718794D01*
X131548744Y-121736018D01*
X131648056Y-121757128D01*
X131648061Y-121757128D01*
X131654513Y-121758500D01*
X131845487Y-121758500D01*
X131851939Y-121757128D01*
X131851944Y-121757128D01*
X131951256Y-121736018D01*
X132032288Y-121718794D01*
X132038319Y-121716109D01*
X132200722Y-121643803D01*
X132200724Y-121643802D01*
X132206752Y-121641118D01*
X132289212Y-121581207D01*
X132356080Y-121557349D01*
X132425231Y-121573429D01*
X132472391Y-121620141D01*
X132510960Y-121686944D01*
X132515378Y-121691851D01*
X132515379Y-121691852D01*
X132617129Y-121804857D01*
X132638747Y-121828866D01*
X132793248Y-121941118D01*
X132799276Y-121943802D01*
X132799278Y-121943803D01*
X132832576Y-121958628D01*
X132967712Y-122018794D01*
X133053101Y-122036944D01*
X133148056Y-122057128D01*
X133148061Y-122057128D01*
X133154513Y-122058500D01*
X133345487Y-122058500D01*
X133351939Y-122057128D01*
X133351944Y-122057128D01*
X133446899Y-122036944D01*
X133532288Y-122018794D01*
X133667424Y-121958628D01*
X133700722Y-121943803D01*
X133700724Y-121943802D01*
X133706752Y-121941118D01*
X133794619Y-121877279D01*
X133855061Y-121833365D01*
X133861253Y-121828866D01*
X133865668Y-121823963D01*
X133870580Y-121819540D01*
X133871705Y-121820789D01*
X133925014Y-121787949D01*
X133958200Y-121783500D01*
X151371233Y-121783500D01*
X151382416Y-121784027D01*
X151389909Y-121785702D01*
X151397835Y-121785453D01*
X151397836Y-121785453D01*
X151457986Y-121783562D01*
X151461945Y-121783500D01*
X151489856Y-121783500D01*
X151493791Y-121783003D01*
X151493856Y-121782995D01*
X151505693Y-121782062D01*
X151537951Y-121781048D01*
X151541970Y-121780922D01*
X151549889Y-121780673D01*
X151569343Y-121775021D01*
X151588700Y-121771013D01*
X151600930Y-121769468D01*
X151600931Y-121769468D01*
X151608797Y-121768474D01*
X151616168Y-121765555D01*
X151616170Y-121765555D01*
X151649912Y-121752196D01*
X151661142Y-121748351D01*
X151695983Y-121738229D01*
X151695984Y-121738229D01*
X151703593Y-121736018D01*
X151710412Y-121731985D01*
X151710417Y-121731983D01*
X151721028Y-121725707D01*
X151738776Y-121717012D01*
X151757617Y-121709552D01*
X151775987Y-121696206D01*
X151793387Y-121683564D01*
X151803307Y-121677048D01*
X151834535Y-121658580D01*
X151834538Y-121658578D01*
X151841362Y-121654542D01*
X151855683Y-121640221D01*
X151870717Y-121627380D01*
X151880694Y-121620131D01*
X151887107Y-121615472D01*
X151915298Y-121581395D01*
X151923288Y-121572616D01*
X152485824Y-121010080D01*
X152548724Y-120975928D01*
X152565121Y-120972443D01*
X152575834Y-120970166D01*
X152575836Y-120970165D01*
X152582288Y-120968794D01*
X152653167Y-120937237D01*
X152750722Y-120893803D01*
X152750724Y-120893802D01*
X152756752Y-120891118D01*
X152911253Y-120778866D01*
X152943662Y-120742872D01*
X153034621Y-120641852D01*
X153034622Y-120641851D01*
X153039040Y-120636944D01*
X153134527Y-120471556D01*
X153193542Y-120289928D01*
X153202210Y-120207462D01*
X153212814Y-120106565D01*
X153213504Y-120100000D01*
X153212814Y-120093435D01*
X153212814Y-120086829D01*
X153214461Y-120086829D01*
X153225745Y-120025121D01*
X153274247Y-119973273D01*
X153287036Y-119966680D01*
X153450719Y-119893805D01*
X153450726Y-119893801D01*
X153456752Y-119891118D01*
X153611253Y-119778866D01*
X153739040Y-119636944D01*
X153834527Y-119471556D01*
X153893542Y-119289928D01*
X153913504Y-119100000D01*
X153893845Y-118912955D01*
X153906617Y-118843117D01*
X153954983Y-118791905D01*
X153956752Y-118791118D01*
X154111253Y-118678866D01*
X154120612Y-118668472D01*
X154234621Y-118541852D01*
X154234622Y-118541851D01*
X154239040Y-118536944D01*
X154322220Y-118392872D01*
X154331223Y-118377279D01*
X154331224Y-118377278D01*
X154334527Y-118371556D01*
X154393542Y-118189928D01*
X154413504Y-118000000D01*
X154408872Y-117955927D01*
X154394233Y-117816642D01*
X154394232Y-117816638D01*
X154393542Y-117810072D01*
X154391500Y-117803789D01*
X154391499Y-117803782D01*
X154383536Y-117779274D01*
X154381509Y-117708307D01*
X154418172Y-117647509D01*
X154429308Y-117638403D01*
X154490694Y-117593803D01*
X154511253Y-117578866D01*
X154609418Y-117469843D01*
X154634621Y-117441852D01*
X154634622Y-117441851D01*
X154639040Y-117436944D01*
X154713151Y-117308580D01*
X154731223Y-117277279D01*
X154731224Y-117277278D01*
X154734527Y-117271556D01*
X154793542Y-117089928D01*
X154813504Y-116900000D01*
X154815404Y-116900200D01*
X154832816Y-116840899D01*
X154886472Y-116794406D01*
X154938814Y-116783020D01*
X155234926Y-116783020D01*
X155303047Y-116803022D01*
X155324021Y-116819925D01*
X155696343Y-117192247D01*
X155703887Y-117200537D01*
X155708000Y-117207018D01*
X155713777Y-117212443D01*
X155757667Y-117253658D01*
X155760509Y-117256413D01*
X155780231Y-117276135D01*
X155783355Y-117278558D01*
X155783359Y-117278562D01*
X155783424Y-117278612D01*
X155792445Y-117286317D01*
X155824679Y-117316586D01*
X155831627Y-117320405D01*
X155831629Y-117320407D01*
X155842432Y-117326346D01*
X155858959Y-117337202D01*
X155868698Y-117344757D01*
X155868700Y-117344758D01*
X155874960Y-117349614D01*
X155915540Y-117367174D01*
X155926188Y-117372391D01*
X155950976Y-117386018D01*
X155964940Y-117393695D01*
X155972616Y-117395666D01*
X155972619Y-117395667D01*
X155984562Y-117398733D01*
X156003267Y-117405137D01*
X156021855Y-117413181D01*
X156029678Y-117414420D01*
X156029688Y-117414423D01*
X156065524Y-117420099D01*
X156077144Y-117422505D01*
X156108959Y-117430673D01*
X156119970Y-117433500D01*
X156140224Y-117433500D01*
X156159934Y-117435051D01*
X156179943Y-117438220D01*
X156187835Y-117437474D01*
X156206580Y-117435702D01*
X156223962Y-117434059D01*
X156235819Y-117433500D01*
X157991800Y-117433500D01*
X158059921Y-117453502D01*
X158079147Y-117469843D01*
X158079420Y-117469540D01*
X158084332Y-117473963D01*
X158088747Y-117478866D01*
X158094086Y-117482745D01*
X158226385Y-117578866D01*
X158243248Y-117591118D01*
X158249276Y-117593802D01*
X158249278Y-117593803D01*
X158411681Y-117666109D01*
X158417712Y-117668794D01*
X158505947Y-117687549D01*
X158598056Y-117707128D01*
X158598061Y-117707128D01*
X158604513Y-117708500D01*
X158795487Y-117708500D01*
X158801939Y-117707128D01*
X158801944Y-117707128D01*
X158894053Y-117687549D01*
X158982288Y-117668794D01*
X158988319Y-117666109D01*
X159150722Y-117593803D01*
X159150724Y-117593802D01*
X159156752Y-117591118D01*
X159173616Y-117578866D01*
X159305914Y-117482745D01*
X159311253Y-117478866D01*
X159315668Y-117473963D01*
X159320580Y-117469540D01*
X159321705Y-117470789D01*
X159375014Y-117437949D01*
X159408200Y-117433500D01*
X160121233Y-117433500D01*
X160132416Y-117434027D01*
X160139909Y-117435702D01*
X160147835Y-117435453D01*
X160147836Y-117435453D01*
X160207986Y-117433562D01*
X160211945Y-117433500D01*
X160239856Y-117433500D01*
X160243791Y-117433003D01*
X160243856Y-117432995D01*
X160255693Y-117432062D01*
X160287951Y-117431048D01*
X160291970Y-117430922D01*
X160299889Y-117430673D01*
X160319343Y-117425021D01*
X160338700Y-117421013D01*
X160350930Y-117419468D01*
X160350931Y-117419468D01*
X160358797Y-117418474D01*
X160366168Y-117415555D01*
X160366170Y-117415555D01*
X160399912Y-117402196D01*
X160411142Y-117398351D01*
X160445983Y-117388229D01*
X160445984Y-117388229D01*
X160453593Y-117386018D01*
X160460412Y-117381985D01*
X160460417Y-117381983D01*
X160471028Y-117375707D01*
X160488776Y-117367012D01*
X160507617Y-117359552D01*
X160543387Y-117333564D01*
X160553307Y-117327048D01*
X160584535Y-117308580D01*
X160584538Y-117308578D01*
X160591362Y-117304542D01*
X160605683Y-117290221D01*
X160620717Y-117277380D01*
X160622431Y-117276135D01*
X160637107Y-117265472D01*
X160665298Y-117231395D01*
X160673288Y-117222616D01*
X162325500Y-115570405D01*
X162387812Y-115536379D01*
X162414595Y-115533500D01*
X163091800Y-115533500D01*
X163159921Y-115553502D01*
X163179147Y-115569843D01*
X163179420Y-115569540D01*
X163184332Y-115573963D01*
X163188747Y-115578866D01*
X163194086Y-115582745D01*
X163318841Y-115673385D01*
X163343248Y-115691118D01*
X163349276Y-115693802D01*
X163349278Y-115693803D01*
X163504824Y-115763056D01*
X163517712Y-115768794D01*
X163611113Y-115788647D01*
X163698056Y-115807128D01*
X163698061Y-115807128D01*
X163704513Y-115808500D01*
X163895487Y-115808500D01*
X163901939Y-115807128D01*
X163901944Y-115807128D01*
X163988887Y-115788647D01*
X164082288Y-115768794D01*
X164106200Y-115758148D01*
X164142821Y-115741843D01*
X164189252Y-115721171D01*
X164259618Y-115711737D01*
X164323915Y-115741843D01*
X164361729Y-115801932D01*
X164366500Y-115836278D01*
X164366500Y-116842534D01*
X164346498Y-116910655D01*
X164329595Y-116931629D01*
X162831628Y-118429595D01*
X162769316Y-118463621D01*
X162742533Y-118466500D01*
X161707333Y-118466500D01*
X161696150Y-118465973D01*
X161688657Y-118464298D01*
X161680731Y-118464547D01*
X161680730Y-118464547D01*
X161620567Y-118466438D01*
X161616609Y-118466500D01*
X161588709Y-118466500D01*
X161584719Y-118467004D01*
X161572885Y-118467936D01*
X161528676Y-118469326D01*
X161521060Y-118471539D01*
X161521058Y-118471539D01*
X161509217Y-118474979D01*
X161489858Y-118478988D01*
X161488548Y-118479154D01*
X161469768Y-118481526D01*
X161462402Y-118484442D01*
X161462396Y-118484444D01*
X161428663Y-118497800D01*
X161417433Y-118501645D01*
X161401765Y-118506197D01*
X161374972Y-118513981D01*
X161368149Y-118518016D01*
X161357531Y-118524295D01*
X161339778Y-118532992D01*
X161332133Y-118536019D01*
X161320948Y-118540448D01*
X161314533Y-118545109D01*
X161285177Y-118566437D01*
X161275260Y-118572951D01*
X161237203Y-118595458D01*
X161222882Y-118609779D01*
X161207849Y-118622619D01*
X161191458Y-118634528D01*
X161186407Y-118640633D01*
X161186402Y-118640638D01*
X161163266Y-118668604D01*
X161155278Y-118677382D01*
X160570444Y-119262216D01*
X160508132Y-119296242D01*
X160481349Y-119299121D01*
X159046147Y-119299121D01*
X159034964Y-119298594D01*
X159027471Y-119296919D01*
X159019545Y-119297168D01*
X159019544Y-119297168D01*
X158959381Y-119299059D01*
X158955423Y-119299121D01*
X158927523Y-119299121D01*
X158923533Y-119299625D01*
X158911699Y-119300557D01*
X158867490Y-119301947D01*
X158859874Y-119304160D01*
X158859872Y-119304160D01*
X158848031Y-119307600D01*
X158828672Y-119311609D01*
X158827362Y-119311775D01*
X158808582Y-119314147D01*
X158801216Y-119317063D01*
X158801210Y-119317065D01*
X158767477Y-119330421D01*
X158756247Y-119334266D01*
X158721396Y-119344391D01*
X158713786Y-119346602D01*
X158706963Y-119350637D01*
X158696345Y-119356916D01*
X158678592Y-119365613D01*
X158670947Y-119368640D01*
X158659762Y-119373069D01*
X158653347Y-119377730D01*
X158623991Y-119399058D01*
X158614074Y-119405572D01*
X158576017Y-119428079D01*
X158561696Y-119442400D01*
X158546663Y-119455240D01*
X158530272Y-119467149D01*
X158525221Y-119473255D01*
X158502081Y-119501226D01*
X158494091Y-119510005D01*
X157299500Y-120704595D01*
X157237188Y-120738621D01*
X157210405Y-120741500D01*
X157154513Y-120741500D01*
X157148061Y-120742872D01*
X157148056Y-120742872D01*
X157061113Y-120761353D01*
X156967712Y-120781206D01*
X156961682Y-120783891D01*
X156961681Y-120783891D01*
X156799278Y-120856197D01*
X156799276Y-120856198D01*
X156793248Y-120858882D01*
X156638747Y-120971134D01*
X156634326Y-120976044D01*
X156634325Y-120976045D01*
X156534397Y-121087027D01*
X156510960Y-121113056D01*
X156415473Y-121278444D01*
X156356458Y-121460072D01*
X156355768Y-121466633D01*
X156355768Y-121466635D01*
X156348819Y-121532749D01*
X156336496Y-121650000D01*
X156337186Y-121656565D01*
X156350733Y-121785453D01*
X156356458Y-121839928D01*
X156415473Y-122021556D01*
X156418776Y-122027278D01*
X156418777Y-122027279D01*
X156436803Y-122058500D01*
X156510960Y-122186944D01*
X156515378Y-122191851D01*
X156515379Y-122191852D01*
X156603473Y-122289690D01*
X156634190Y-122353697D01*
X156625426Y-122424151D01*
X156579964Y-122478682D01*
X156509837Y-122500000D01*
X120434000Y-122500000D01*
X120365879Y-122479998D01*
X120319386Y-122426342D01*
X120308000Y-122374000D01*
X120308000Y-121853203D01*
X120309746Y-121832299D01*
X120313071Y-121812536D01*
X120313224Y-121799997D01*
X120307859Y-121762533D01*
X120307196Y-121757042D01*
X120298363Y-121667369D01*
X120297756Y-121661206D01*
X120257271Y-121527748D01*
X120253962Y-121521556D01*
X120194446Y-121410213D01*
X120191528Y-121404753D01*
X120187602Y-121399970D01*
X120187600Y-121399966D01*
X120106976Y-121301725D01*
X120103054Y-121296946D01*
X120077174Y-121275707D01*
X120000034Y-121212400D01*
X120000030Y-121212398D01*
X119995247Y-121208472D01*
X119917755Y-121167051D01*
X119877706Y-121145644D01*
X119877704Y-121145643D01*
X119872252Y-121142729D01*
X119772735Y-121112540D01*
X119744719Y-121104041D01*
X119744715Y-121104040D01*
X119738794Y-121102244D01*
X119716020Y-121100001D01*
X119658127Y-121094299D01*
X119649570Y-121093159D01*
X119613126Y-121087027D01*
X119549269Y-121056000D01*
X119512323Y-120995373D01*
X119508033Y-120962756D01*
X119508053Y-120823955D01*
X119509848Y-108017045D01*
X119510153Y-105845000D01*
X127731496Y-105845000D01*
X127732186Y-105851565D01*
X127747136Y-105993803D01*
X127751458Y-106034928D01*
X127810473Y-106216556D01*
X127813776Y-106222278D01*
X127813777Y-106222279D01*
X127864465Y-106310072D01*
X127905960Y-106381944D01*
X127910378Y-106386851D01*
X127910379Y-106386852D01*
X127939151Y-106418806D01*
X127969868Y-106482814D01*
X127961105Y-106553267D01*
X127948666Y-106575050D01*
X127945960Y-106578056D01*
X127942657Y-106583777D01*
X127855505Y-106734729D01*
X127850473Y-106743444D01*
X127791458Y-106925072D01*
X127771496Y-107115000D01*
X127772186Y-107121565D01*
X127790007Y-107291118D01*
X127791458Y-107304928D01*
X127850473Y-107486556D01*
X127945960Y-107651944D01*
X128014625Y-107728204D01*
X128045342Y-107792212D01*
X128036577Y-107862665D01*
X128030107Y-107875514D01*
X127954120Y-108007128D01*
X127950473Y-108013444D01*
X127891458Y-108195072D01*
X127890768Y-108201633D01*
X127890768Y-108201635D01*
X127882942Y-108276093D01*
X127871496Y-108385000D01*
X127872186Y-108391565D01*
X127888979Y-108551338D01*
X127891458Y-108574928D01*
X127950473Y-108756556D01*
X127953776Y-108762278D01*
X127953777Y-108762279D01*
X127959133Y-108771556D01*
X128045960Y-108921944D01*
X128050378Y-108926851D01*
X128050379Y-108926852D01*
X128059466Y-108936944D01*
X128173747Y-109063866D01*
X128223689Y-109100151D01*
X128303515Y-109158148D01*
X128328248Y-109176118D01*
X128334276Y-109178802D01*
X128334278Y-109178803D01*
X128496681Y-109251109D01*
X128502712Y-109253794D01*
X128596112Y-109273647D01*
X128683056Y-109292128D01*
X128683061Y-109292128D01*
X128689513Y-109293500D01*
X128880487Y-109293500D01*
X128886939Y-109292128D01*
X128886944Y-109292128D01*
X128973888Y-109273647D01*
X129067288Y-109253794D01*
X129073319Y-109251109D01*
X129235722Y-109178803D01*
X129235724Y-109178802D01*
X129241752Y-109176118D01*
X129266486Y-109158148D01*
X129346311Y-109100151D01*
X129396253Y-109063866D01*
X129510534Y-108936944D01*
X129519621Y-108926852D01*
X129519622Y-108926851D01*
X129524040Y-108921944D01*
X129610867Y-108771556D01*
X129616223Y-108762279D01*
X129616224Y-108762278D01*
X129619527Y-108756556D01*
X129646311Y-108674125D01*
X129676502Y-108581207D01*
X129676502Y-108581205D01*
X129678542Y-108574928D01*
X129692384Y-108443230D01*
X129719397Y-108377573D01*
X129728599Y-108367305D01*
X132326459Y-105769445D01*
X132388771Y-105735419D01*
X132415554Y-105732540D01*
X137264159Y-105732540D01*
X137332280Y-105752542D01*
X137378773Y-105806198D01*
X137389469Y-105871709D01*
X137389233Y-105873955D01*
X137386496Y-105900000D01*
X137387186Y-105906565D01*
X137405327Y-106079164D01*
X137406458Y-106089928D01*
X137465473Y-106271556D01*
X137468776Y-106277278D01*
X137468777Y-106277279D01*
X137560960Y-106436944D01*
X137558223Y-106438524D01*
X137577649Y-106492347D01*
X137561822Y-106561557D01*
X137560886Y-106563013D01*
X137560960Y-106563056D01*
X137465473Y-106728444D01*
X137406458Y-106910072D01*
X137405768Y-106916633D01*
X137405768Y-106916635D01*
X137393123Y-107036944D01*
X137386496Y-107100000D01*
X137406458Y-107289928D01*
X137465473Y-107471556D01*
X137468776Y-107477278D01*
X137468777Y-107477279D01*
X137473420Y-107485321D01*
X137560960Y-107636944D01*
X137565378Y-107641851D01*
X137565379Y-107641852D01*
X137586843Y-107665690D01*
X137617561Y-107729697D01*
X137608796Y-107800151D01*
X137586843Y-107834310D01*
X137560960Y-107863056D01*
X137543208Y-107893803D01*
X137470505Y-108019729D01*
X137465473Y-108028444D01*
X137406458Y-108210072D01*
X137405768Y-108216633D01*
X137405768Y-108216635D01*
X137401125Y-108260811D01*
X137386496Y-108400000D01*
X137387186Y-108406565D01*
X137405221Y-108578154D01*
X137406458Y-108589928D01*
X137465473Y-108771556D01*
X137560960Y-108936944D01*
X137565378Y-108941851D01*
X137565379Y-108941852D01*
X137586843Y-108965690D01*
X137617561Y-109029697D01*
X137608796Y-109100151D01*
X137586843Y-109134310D01*
X137560960Y-109163056D01*
X137465473Y-109328444D01*
X137406458Y-109510072D01*
X137405768Y-109516633D01*
X137405768Y-109516635D01*
X137393055Y-109637596D01*
X137386496Y-109700000D01*
X137387186Y-109706565D01*
X137404377Y-109870125D01*
X137406458Y-109889928D01*
X137465473Y-110071556D01*
X137468776Y-110077278D01*
X137468777Y-110077279D01*
X137485263Y-110105834D01*
X137560960Y-110236944D01*
X137565378Y-110241851D01*
X137565379Y-110241852D01*
X137684325Y-110373955D01*
X137688747Y-110378866D01*
X137843248Y-110491118D01*
X137849276Y-110493802D01*
X137849278Y-110493803D01*
X138011681Y-110566109D01*
X138017712Y-110568794D01*
X138110990Y-110588621D01*
X138198056Y-110607128D01*
X138198061Y-110607128D01*
X138204513Y-110608500D01*
X138395487Y-110608500D01*
X138401939Y-110607128D01*
X138401944Y-110607128D01*
X138489010Y-110588621D01*
X138582288Y-110568794D01*
X138588319Y-110566109D01*
X138750722Y-110493803D01*
X138750724Y-110493802D01*
X138756752Y-110491118D01*
X138911253Y-110378866D01*
X139001385Y-110278765D01*
X139061830Y-110241525D01*
X139132813Y-110242877D01*
X139177553Y-110271618D01*
X139179423Y-110269541D01*
X139184325Y-110273954D01*
X139188747Y-110278866D01*
X139287843Y-110350864D01*
X139336511Y-110386223D01*
X139343248Y-110391118D01*
X139349276Y-110393802D01*
X139349278Y-110393803D01*
X139371411Y-110403657D01*
X139517712Y-110468794D01*
X139604479Y-110487237D01*
X139698056Y-110507128D01*
X139698061Y-110507128D01*
X139704513Y-110508500D01*
X139895487Y-110508500D01*
X139901939Y-110507128D01*
X139901944Y-110507128D01*
X139995521Y-110487237D01*
X140082288Y-110468794D01*
X140228589Y-110403657D01*
X140250722Y-110393803D01*
X140250724Y-110393802D01*
X140256752Y-110391118D01*
X140263490Y-110386223D01*
X140312157Y-110350864D01*
X140411253Y-110278866D01*
X140419649Y-110269541D01*
X140534621Y-110141852D01*
X140534622Y-110141851D01*
X140539040Y-110136944D01*
X140634527Y-109971556D01*
X140693542Y-109789928D01*
X140710907Y-109624706D01*
X140737920Y-109559050D01*
X140747122Y-109548782D01*
X142278859Y-108017045D01*
X142341171Y-107983019D01*
X142367954Y-107980140D01*
X150013330Y-107980140D01*
X150018443Y-107980462D01*
X150020930Y-107981100D01*
X150041184Y-107981100D01*
X150060894Y-107982651D01*
X150080903Y-107985820D01*
X150088795Y-107985074D01*
X150124921Y-107981659D01*
X150136779Y-107981100D01*
X153789588Y-107981100D01*
X153857709Y-108001102D01*
X153884969Y-108025274D01*
X153887720Y-108029609D01*
X153893497Y-108035034D01*
X153937371Y-108076234D01*
X153940213Y-108078989D01*
X153959951Y-108098727D01*
X153963148Y-108101207D01*
X153972168Y-108108910D01*
X154004399Y-108139177D01*
X154011343Y-108142994D01*
X154011345Y-108142996D01*
X154022150Y-108148936D01*
X154038676Y-108159792D01*
X154048410Y-108167343D01*
X154048418Y-108167348D01*
X154054680Y-108172205D01*
X154095257Y-108189764D01*
X154105905Y-108194980D01*
X154144660Y-108216286D01*
X154152341Y-108218258D01*
X154164280Y-108221324D01*
X154182984Y-108227728D01*
X154194292Y-108232621D01*
X154194294Y-108232621D01*
X154201576Y-108235773D01*
X154209410Y-108237014D01*
X154209411Y-108237014D01*
X154218724Y-108238489D01*
X154245256Y-108242691D01*
X154256864Y-108245095D01*
X154299690Y-108256091D01*
X154319945Y-108256091D01*
X154339655Y-108257642D01*
X154359664Y-108260811D01*
X154367556Y-108260065D01*
X154403682Y-108256650D01*
X154415540Y-108256091D01*
X155907996Y-108256091D01*
X155976117Y-108276093D01*
X155997091Y-108292995D01*
X156110660Y-108406565D01*
X156220864Y-108516769D01*
X156228398Y-108525048D01*
X156232511Y-108531529D01*
X156253606Y-108551338D01*
X156282162Y-108578154D01*
X156285004Y-108580909D01*
X156304741Y-108600646D01*
X156307938Y-108603126D01*
X156316958Y-108610829D01*
X156349190Y-108641097D01*
X156356136Y-108644916D01*
X156356139Y-108644918D01*
X156366945Y-108650859D01*
X156383464Y-108661710D01*
X156399470Y-108674125D01*
X156406739Y-108677270D01*
X156406743Y-108677273D01*
X156440048Y-108691685D01*
X156450698Y-108696902D01*
X156489451Y-108718206D01*
X156497126Y-108720177D01*
X156497127Y-108720177D01*
X156509073Y-108723244D01*
X156527778Y-108729648D01*
X156546366Y-108737692D01*
X156554189Y-108738931D01*
X156554199Y-108738934D01*
X156590035Y-108744610D01*
X156601655Y-108747016D01*
X156633470Y-108755184D01*
X156644481Y-108758011D01*
X156664735Y-108758011D01*
X156684445Y-108759562D01*
X156704454Y-108762731D01*
X156712346Y-108761985D01*
X156731091Y-108760213D01*
X156748473Y-108758570D01*
X156760330Y-108758011D01*
X160196722Y-108758011D01*
X160207905Y-108758538D01*
X160215398Y-108760213D01*
X160223324Y-108759964D01*
X160223325Y-108759964D01*
X160283475Y-108758073D01*
X160287434Y-108758011D01*
X160315345Y-108758011D01*
X160319280Y-108757514D01*
X160319345Y-108757506D01*
X160331182Y-108756573D01*
X160363440Y-108755559D01*
X160367459Y-108755433D01*
X160375378Y-108755184D01*
X160394832Y-108749532D01*
X160414189Y-108745524D01*
X160426419Y-108743979D01*
X160426420Y-108743979D01*
X160434286Y-108742985D01*
X160441657Y-108740066D01*
X160441659Y-108740066D01*
X160475401Y-108726707D01*
X160486631Y-108722862D01*
X160521472Y-108712740D01*
X160521473Y-108712740D01*
X160529082Y-108710529D01*
X160535901Y-108706496D01*
X160535906Y-108706494D01*
X160546517Y-108700218D01*
X160564265Y-108691523D01*
X160583106Y-108684063D01*
X160618876Y-108658075D01*
X160628796Y-108651559D01*
X160660024Y-108633091D01*
X160660027Y-108633089D01*
X160666851Y-108629053D01*
X160681172Y-108614732D01*
X160696206Y-108601891D01*
X160701779Y-108597842D01*
X160712596Y-108589983D01*
X160740787Y-108555906D01*
X160748777Y-108547127D01*
X161250499Y-108045405D01*
X161312811Y-108011379D01*
X161339594Y-108008500D01*
X161395487Y-108008500D01*
X161401939Y-108007128D01*
X161401944Y-108007128D01*
X161508021Y-107984580D01*
X161582288Y-107968794D01*
X161588319Y-107966109D01*
X161750722Y-107893803D01*
X161750724Y-107893802D01*
X161756752Y-107891118D01*
X161911253Y-107778866D01*
X162025534Y-107651944D01*
X162034621Y-107641852D01*
X162034622Y-107641851D01*
X162039040Y-107636944D01*
X162126580Y-107485321D01*
X162131223Y-107477279D01*
X162131224Y-107477278D01*
X162134527Y-107471556D01*
X162193542Y-107289928D01*
X162213504Y-107100000D01*
X162206877Y-107036944D01*
X162194232Y-106916635D01*
X162194232Y-106916633D01*
X162193542Y-106910072D01*
X162134527Y-106728444D01*
X162039040Y-106563056D01*
X161975374Y-106492347D01*
X161915675Y-106426045D01*
X161915674Y-106426044D01*
X161911253Y-106421134D01*
X161756752Y-106308882D01*
X161750724Y-106306198D01*
X161750722Y-106306197D01*
X161588319Y-106233891D01*
X161588318Y-106233891D01*
X161582288Y-106231206D01*
X161483797Y-106210271D01*
X161401944Y-106192872D01*
X161401939Y-106192872D01*
X161395487Y-106191500D01*
X161204513Y-106191500D01*
X161198061Y-106192872D01*
X161198056Y-106192872D01*
X161116203Y-106210271D01*
X161017712Y-106231206D01*
X161011682Y-106233891D01*
X161011681Y-106233891D01*
X160849278Y-106306197D01*
X160849276Y-106306198D01*
X160843248Y-106308882D01*
X160837907Y-106312762D01*
X160837906Y-106312763D01*
X160694795Y-106416740D01*
X160627928Y-106440598D01*
X160558776Y-106424518D01*
X160509296Y-106373604D01*
X160495425Y-106327978D01*
X160494233Y-106316642D01*
X160494232Y-106316638D01*
X160493542Y-106310072D01*
X160434527Y-106128444D01*
X160339040Y-105963056D01*
X160218135Y-105828778D01*
X160187420Y-105764773D01*
X160196184Y-105694319D01*
X160218137Y-105660159D01*
X160234621Y-105641852D01*
X160234622Y-105641851D01*
X160239040Y-105636944D01*
X160289155Y-105550142D01*
X160331223Y-105477279D01*
X160331224Y-105477278D01*
X160334527Y-105471556D01*
X160393542Y-105289928D01*
X160400752Y-105221329D01*
X160427765Y-105155673D01*
X160485987Y-105115043D01*
X160526062Y-105108500D01*
X160595487Y-105108500D01*
X160601939Y-105107128D01*
X160601944Y-105107128D01*
X160688888Y-105088647D01*
X160782288Y-105068794D01*
X160788319Y-105066109D01*
X160950722Y-104993803D01*
X160950724Y-104993802D01*
X160956752Y-104991118D01*
X161111253Y-104878866D01*
X161239040Y-104736944D01*
X161334527Y-104571556D01*
X161393542Y-104389928D01*
X161413504Y-104200000D01*
X161393542Y-104010072D01*
X161334527Y-103828444D01*
X161239040Y-103663056D01*
X161222881Y-103645109D01*
X161115675Y-103526045D01*
X161115674Y-103526044D01*
X161111253Y-103521134D01*
X161002935Y-103442436D01*
X160962094Y-103412763D01*
X160962093Y-103412762D01*
X160956752Y-103408882D01*
X160950724Y-103406198D01*
X160950722Y-103406197D01*
X160788319Y-103333891D01*
X160788318Y-103333891D01*
X160782288Y-103331206D01*
X160688888Y-103311353D01*
X160601944Y-103292872D01*
X160601939Y-103292872D01*
X160595487Y-103291500D01*
X160404513Y-103291500D01*
X160398061Y-103292872D01*
X160398056Y-103292872D01*
X160311112Y-103311353D01*
X160217712Y-103331206D01*
X160211682Y-103333891D01*
X160211681Y-103333891D01*
X160049278Y-103406197D01*
X160049276Y-103406198D01*
X160043248Y-103408882D01*
X160037907Y-103412762D01*
X160037906Y-103412763D01*
X159997065Y-103442436D01*
X159930197Y-103466294D01*
X159923004Y-103466500D01*
X156863376Y-103466500D01*
X156795255Y-103446498D01*
X156748762Y-103392842D01*
X156738658Y-103322568D01*
X156768152Y-103257988D01*
X156812128Y-103225393D01*
X156824750Y-103219773D01*
X156830783Y-103217087D01*
X156985284Y-103104835D01*
X157073288Y-103007097D01*
X157133732Y-102969859D01*
X157204716Y-102971211D01*
X157231694Y-102984793D01*
X157232189Y-102983936D01*
X157237907Y-102987237D01*
X157243248Y-102991118D01*
X157249276Y-102993802D01*
X157249278Y-102993803D01*
X157411681Y-103066109D01*
X157417712Y-103068794D01*
X157511112Y-103088647D01*
X157598056Y-103107128D01*
X157598061Y-103107128D01*
X157604513Y-103108500D01*
X157795487Y-103108500D01*
X157801939Y-103107128D01*
X157801944Y-103107128D01*
X157888888Y-103088647D01*
X157982288Y-103068794D01*
X157988319Y-103066109D01*
X158150722Y-102993803D01*
X158150724Y-102993802D01*
X158156752Y-102991118D01*
X158186013Y-102969859D01*
X158259932Y-102916153D01*
X158311253Y-102878866D01*
X158315675Y-102873955D01*
X158434621Y-102741852D01*
X158434622Y-102741851D01*
X158439040Y-102736944D01*
X158534527Y-102571556D01*
X158593542Y-102389928D01*
X158613504Y-102200000D01*
X158601181Y-102082749D01*
X158594233Y-102016642D01*
X158594232Y-102016638D01*
X158593542Y-102010072D01*
X158591501Y-102003790D01*
X158591091Y-102001862D01*
X158596493Y-101931071D01*
X158639310Y-101874438D01*
X158663089Y-101860558D01*
X158700722Y-101843803D01*
X158700724Y-101843802D01*
X158706752Y-101841118D01*
X158861253Y-101728866D01*
X158920159Y-101663444D01*
X158984621Y-101591852D01*
X158984622Y-101591851D01*
X158989040Y-101586944D01*
X159084527Y-101421556D01*
X159143542Y-101239928D01*
X159156261Y-101118918D01*
X159183273Y-101053262D01*
X159241494Y-101012632D01*
X159294738Y-101006779D01*
X159298058Y-101007128D01*
X159304513Y-101008500D01*
X159495487Y-101008500D01*
X159501939Y-101007128D01*
X159501944Y-101007128D01*
X159613737Y-100983365D01*
X159682288Y-100968794D01*
X159793535Y-100919264D01*
X159850722Y-100893803D01*
X159850724Y-100893802D01*
X159856752Y-100891118D01*
X160011253Y-100778866D01*
X160139040Y-100636944D01*
X160223012Y-100491500D01*
X160231223Y-100477279D01*
X160231224Y-100477278D01*
X160234527Y-100471556D01*
X160293542Y-100289928D01*
X160294872Y-100277279D01*
X160312814Y-100106565D01*
X160313504Y-100100000D01*
X160311756Y-100083365D01*
X160294232Y-99916635D01*
X160294232Y-99916633D01*
X160293542Y-99910072D01*
X160234527Y-99728444D01*
X160139040Y-99563056D01*
X160011253Y-99421134D01*
X159856752Y-99308882D01*
X159850724Y-99306198D01*
X159850722Y-99306197D01*
X159688319Y-99233891D01*
X159688318Y-99233891D01*
X159682288Y-99231206D01*
X159569152Y-99207158D01*
X159501944Y-99192872D01*
X159501939Y-99192872D01*
X159495487Y-99191500D01*
X159304513Y-99191500D01*
X159298061Y-99192872D01*
X159298056Y-99192872D01*
X159230848Y-99207158D01*
X159117712Y-99231206D01*
X159111685Y-99233889D01*
X159111677Y-99233892D01*
X159062905Y-99255607D01*
X159011657Y-99266500D01*
X152408200Y-99266500D01*
X152340079Y-99246498D01*
X152320853Y-99230157D01*
X152320580Y-99230460D01*
X152315668Y-99226037D01*
X152311253Y-99221134D01*
X152272354Y-99192872D01*
X152162094Y-99112763D01*
X152162093Y-99112762D01*
X152156752Y-99108882D01*
X152150724Y-99106198D01*
X152150722Y-99106197D01*
X151988319Y-99033891D01*
X151988318Y-99033891D01*
X151982288Y-99031206D01*
X151888888Y-99011353D01*
X151801944Y-98992872D01*
X151801939Y-98992872D01*
X151795487Y-98991500D01*
X151604513Y-98991500D01*
X151598061Y-98992872D01*
X151598056Y-98992872D01*
X151511113Y-99011353D01*
X151417712Y-99031206D01*
X151411682Y-99033891D01*
X151411681Y-99033891D01*
X151249278Y-99106197D01*
X151249276Y-99106198D01*
X151243248Y-99108882D01*
X151088747Y-99221134D01*
X151084326Y-99226044D01*
X151084325Y-99226045D01*
X151007260Y-99311635D01*
X150960960Y-99363056D01*
X150865473Y-99528444D01*
X150806458Y-99710072D01*
X150805768Y-99716633D01*
X150805768Y-99716635D01*
X150804527Y-99728444D01*
X150786496Y-99900000D01*
X150787186Y-99906565D01*
X150798980Y-100018774D01*
X150806458Y-100089928D01*
X150865473Y-100271556D01*
X150868776Y-100277278D01*
X150868777Y-100277279D01*
X150901830Y-100334528D01*
X150960960Y-100436944D01*
X151088747Y-100578866D01*
X151243248Y-100691118D01*
X151249274Y-100693801D01*
X151249281Y-100693805D01*
X151346411Y-100737049D01*
X151400507Y-100783029D01*
X151421157Y-100850956D01*
X151401805Y-100919264D01*
X151384258Y-100941251D01*
X151043514Y-101281995D01*
X150981202Y-101316021D01*
X150954419Y-101318900D01*
X142966994Y-101318900D01*
X142898873Y-101298898D01*
X142877899Y-101281995D01*
X142197122Y-100601218D01*
X142163096Y-100538906D01*
X142160907Y-100525293D01*
X142144232Y-100366635D01*
X142144232Y-100366633D01*
X142143542Y-100360072D01*
X142084527Y-100178444D01*
X142078462Y-100167938D01*
X142035447Y-100093435D01*
X141989040Y-100013056D01*
X141969907Y-99991806D01*
X141865675Y-99876045D01*
X141865674Y-99876044D01*
X141861253Y-99871134D01*
X141706752Y-99758882D01*
X141700724Y-99756198D01*
X141700722Y-99756197D01*
X141538319Y-99683891D01*
X141538318Y-99683891D01*
X141532288Y-99681206D01*
X141428594Y-99659165D01*
X141351944Y-99642872D01*
X141351939Y-99642872D01*
X141345487Y-99641500D01*
X141154513Y-99641500D01*
X141148061Y-99642872D01*
X141148056Y-99642872D01*
X141071406Y-99659165D01*
X140967712Y-99681206D01*
X140961682Y-99683891D01*
X140961681Y-99683891D01*
X140799278Y-99756197D01*
X140799276Y-99756198D01*
X140793248Y-99758882D01*
X140638747Y-99871134D01*
X140563623Y-99954568D01*
X140503180Y-99991806D01*
X140432196Y-99990454D01*
X140373211Y-99950941D01*
X140344953Y-99885810D01*
X140343989Y-99870256D01*
X140343989Y-97389252D01*
X140344516Y-97378068D01*
X140346190Y-97370580D01*
X140344051Y-97302521D01*
X140343989Y-97298564D01*
X140343989Y-97270633D01*
X140343483Y-97266627D01*
X140342550Y-97254781D01*
X140341411Y-97218526D01*
X140341162Y-97210599D01*
X140335511Y-97191147D01*
X140331503Y-97171795D01*
X140329956Y-97159552D01*
X140328963Y-97151692D01*
X140323687Y-97138365D01*
X140312689Y-97110586D01*
X140308844Y-97099359D01*
X140300362Y-97070166D01*
X140296507Y-97056896D01*
X140292473Y-97050074D01*
X140292470Y-97050068D01*
X140286195Y-97039457D01*
X140277499Y-97021707D01*
X140272961Y-97010245D01*
X140272958Y-97010240D01*
X140270041Y-97002872D01*
X140244062Y-96967114D01*
X140237546Y-96957196D01*
X140219064Y-96925946D01*
X140215031Y-96919126D01*
X140200707Y-96904802D01*
X140187865Y-96889767D01*
X140175961Y-96873382D01*
X140141895Y-96845200D01*
X140133116Y-96837211D01*
X139858652Y-96562747D01*
X139851112Y-96554461D01*
X139847000Y-96547982D01*
X139797348Y-96501356D01*
X139794507Y-96498602D01*
X139774770Y-96478865D01*
X139771573Y-96476385D01*
X139762551Y-96468680D01*
X139736100Y-96443841D01*
X139730321Y-96438414D01*
X139723375Y-96434595D01*
X139723372Y-96434593D01*
X139712566Y-96428652D01*
X139696047Y-96417801D01*
X139695583Y-96417441D01*
X139680041Y-96405386D01*
X139672772Y-96402241D01*
X139672768Y-96402238D01*
X139639463Y-96387826D01*
X139628813Y-96382609D01*
X139590060Y-96361305D01*
X139570437Y-96356267D01*
X139551734Y-96349863D01*
X139540420Y-96344967D01*
X139540419Y-96344967D01*
X139533145Y-96341819D01*
X139525322Y-96340580D01*
X139525312Y-96340577D01*
X139489476Y-96334901D01*
X139477856Y-96332495D01*
X139442711Y-96323472D01*
X139442710Y-96323472D01*
X139435030Y-96321500D01*
X139414776Y-96321500D01*
X139395065Y-96319949D01*
X139382886Y-96318020D01*
X139375057Y-96316780D01*
X139367165Y-96317526D01*
X139331039Y-96320941D01*
X139319181Y-96321500D01*
X139163200Y-96321500D01*
X139095079Y-96301498D01*
X139075853Y-96285157D01*
X139075580Y-96285460D01*
X139070668Y-96281037D01*
X139066253Y-96276134D01*
X138911752Y-96163882D01*
X138909866Y-96163042D01*
X138862034Y-96112879D01*
X138848596Y-96043166D01*
X138864907Y-95992141D01*
X138931223Y-95877279D01*
X138931224Y-95877278D01*
X138934527Y-95871556D01*
X138993542Y-95689928D01*
X138994872Y-95677279D01*
X139012814Y-95506565D01*
X139013504Y-95500000D01*
X139009841Y-95465149D01*
X138994232Y-95316635D01*
X138994232Y-95316633D01*
X138993542Y-95310072D01*
X138934527Y-95128444D01*
X138839040Y-94963056D01*
X138816843Y-94938403D01*
X138715675Y-94826045D01*
X138715674Y-94826044D01*
X138711253Y-94821134D01*
X138556752Y-94708882D01*
X138550724Y-94706198D01*
X138550722Y-94706197D01*
X138388319Y-94633891D01*
X138388318Y-94633891D01*
X138382288Y-94631206D01*
X138288888Y-94611353D01*
X138201944Y-94592872D01*
X138201939Y-94592872D01*
X138195487Y-94591500D01*
X138004513Y-94591500D01*
X137998061Y-94592872D01*
X137998056Y-94592872D01*
X137911113Y-94611353D01*
X137817712Y-94631206D01*
X137811682Y-94633891D01*
X137811681Y-94633891D01*
X137649278Y-94706197D01*
X137649276Y-94706198D01*
X137643248Y-94708882D01*
X137488747Y-94821134D01*
X137484326Y-94826044D01*
X137484325Y-94826045D01*
X137383158Y-94938403D01*
X137360960Y-94963056D01*
X137265473Y-95128444D01*
X137206458Y-95310072D01*
X137205768Y-95316633D01*
X137205768Y-95316635D01*
X137189093Y-95475292D01*
X137162080Y-95540949D01*
X137152878Y-95551217D01*
X137007747Y-95696348D01*
X136999461Y-95703888D01*
X136992982Y-95708000D01*
X136987557Y-95713777D01*
X136946357Y-95757651D01*
X136943602Y-95760493D01*
X136923865Y-95780230D01*
X136921385Y-95783427D01*
X136913682Y-95792447D01*
X136883414Y-95824679D01*
X136879595Y-95831625D01*
X136879593Y-95831628D01*
X136873652Y-95842434D01*
X136862801Y-95858953D01*
X136850386Y-95874959D01*
X136847241Y-95882228D01*
X136847238Y-95882232D01*
X136832826Y-95915537D01*
X136827609Y-95926187D01*
X136806305Y-95964940D01*
X136804334Y-95972615D01*
X136804334Y-95972616D01*
X136801267Y-95984562D01*
X136794863Y-96003266D01*
X136786819Y-96021855D01*
X136785580Y-96029678D01*
X136785577Y-96029688D01*
X136779901Y-96065524D01*
X136777495Y-96077144D01*
X136770485Y-96104448D01*
X136766500Y-96119970D01*
X136766500Y-96140224D01*
X136764949Y-96159934D01*
X136761780Y-96179943D01*
X136765210Y-96216223D01*
X136765941Y-96223961D01*
X136766500Y-96235819D01*
X136766500Y-102321233D01*
X136765973Y-102332416D01*
X136764298Y-102339909D01*
X136764547Y-102347835D01*
X136764547Y-102347836D01*
X136766438Y-102407986D01*
X136766500Y-102411945D01*
X136766500Y-102439856D01*
X136766997Y-102443790D01*
X136766997Y-102443791D01*
X136767005Y-102443856D01*
X136767938Y-102455693D01*
X136769327Y-102499889D01*
X136774978Y-102519339D01*
X136778987Y-102538700D01*
X136781526Y-102558797D01*
X136784445Y-102566168D01*
X136784445Y-102566170D01*
X136797804Y-102599912D01*
X136801649Y-102611142D01*
X136813982Y-102653593D01*
X136818015Y-102660412D01*
X136818017Y-102660417D01*
X136824293Y-102671028D01*
X136832988Y-102688776D01*
X136840448Y-102707617D01*
X136845110Y-102714033D01*
X136845110Y-102714034D01*
X136866436Y-102743387D01*
X136872952Y-102753307D01*
X136895458Y-102791362D01*
X136909779Y-102805683D01*
X136922619Y-102820716D01*
X136934528Y-102837107D01*
X136940634Y-102842158D01*
X136968605Y-102865298D01*
X136977384Y-102873288D01*
X137346703Y-103242607D01*
X137380729Y-103304919D01*
X137382918Y-103318532D01*
X137394353Y-103427330D01*
X137381581Y-103497168D01*
X137333079Y-103549015D01*
X137269043Y-103566500D01*
X130378767Y-103566500D01*
X130367584Y-103565973D01*
X130360091Y-103564298D01*
X130352165Y-103564547D01*
X130352164Y-103564547D01*
X130292014Y-103566438D01*
X130288055Y-103566500D01*
X130260144Y-103566500D01*
X130256210Y-103566997D01*
X130256209Y-103566997D01*
X130256144Y-103567005D01*
X130244307Y-103567938D01*
X130212490Y-103568938D01*
X130208029Y-103569078D01*
X130200110Y-103569327D01*
X130182454Y-103574456D01*
X130180658Y-103574978D01*
X130161306Y-103578986D01*
X130154235Y-103579880D01*
X130141203Y-103581526D01*
X130133834Y-103584443D01*
X130133832Y-103584444D01*
X130100097Y-103597800D01*
X130088869Y-103601645D01*
X130046407Y-103613982D01*
X130039585Y-103618016D01*
X130039579Y-103618019D01*
X130028968Y-103624294D01*
X130011218Y-103632990D01*
X129999756Y-103637528D01*
X129999751Y-103637531D01*
X129992383Y-103640448D01*
X129985968Y-103645109D01*
X129956625Y-103666427D01*
X129946707Y-103672943D01*
X129928019Y-103683995D01*
X129908637Y-103695458D01*
X129894313Y-103709782D01*
X129879281Y-103722621D01*
X129862893Y-103734528D01*
X129834712Y-103768593D01*
X129826722Y-103777373D01*
X128704500Y-104899595D01*
X128642188Y-104933621D01*
X128615405Y-104936500D01*
X128549513Y-104936500D01*
X128543061Y-104937872D01*
X128543056Y-104937872D01*
X128456112Y-104956353D01*
X128362712Y-104976206D01*
X128356682Y-104978891D01*
X128356681Y-104978891D01*
X128194278Y-105051197D01*
X128194276Y-105051198D01*
X128188248Y-105053882D01*
X128033747Y-105166134D01*
X128029326Y-105171044D01*
X128029325Y-105171045D01*
X127922283Y-105289928D01*
X127905960Y-105308056D01*
X127850990Y-105403266D01*
X127815046Y-105465524D01*
X127810473Y-105473444D01*
X127751458Y-105655072D01*
X127731496Y-105845000D01*
X119510153Y-105845000D01*
X119510776Y-101400000D01*
X120486496Y-101400000D01*
X120487186Y-101406565D01*
X120501735Y-101544987D01*
X120506458Y-101589928D01*
X120565473Y-101771556D01*
X120660960Y-101936944D01*
X120788747Y-102078866D01*
X120943248Y-102191118D01*
X120949276Y-102193802D01*
X120949278Y-102193803D01*
X121111681Y-102266109D01*
X121117712Y-102268794D01*
X121211112Y-102288647D01*
X121298056Y-102307128D01*
X121298061Y-102307128D01*
X121304513Y-102308500D01*
X121495487Y-102308500D01*
X121501939Y-102307128D01*
X121501944Y-102307128D01*
X121588888Y-102288647D01*
X121682288Y-102268794D01*
X121688319Y-102266109D01*
X121850722Y-102193803D01*
X121850724Y-102193802D01*
X121856752Y-102191118D01*
X122011253Y-102078866D01*
X122139040Y-101936944D01*
X122234527Y-101771556D01*
X122293542Y-101589928D01*
X122298124Y-101546329D01*
X122325137Y-101480673D01*
X122383358Y-101440043D01*
X122423434Y-101433500D01*
X132891800Y-101433500D01*
X132959921Y-101453502D01*
X132979147Y-101469843D01*
X132979420Y-101469540D01*
X132984332Y-101473963D01*
X132988747Y-101478866D01*
X133143248Y-101591118D01*
X133149276Y-101593802D01*
X133149278Y-101593803D01*
X133311681Y-101666109D01*
X133317712Y-101668794D01*
X133411112Y-101688647D01*
X133498056Y-101707128D01*
X133498061Y-101707128D01*
X133504513Y-101708500D01*
X133695487Y-101708500D01*
X133701939Y-101707128D01*
X133701944Y-101707128D01*
X133788888Y-101688647D01*
X133882288Y-101668794D01*
X133888319Y-101666109D01*
X134050722Y-101593803D01*
X134050724Y-101593802D01*
X134056752Y-101591118D01*
X134211253Y-101478866D01*
X134229591Y-101458500D01*
X134334621Y-101341852D01*
X134334622Y-101341851D01*
X134339040Y-101336944D01*
X134434527Y-101171556D01*
X134493542Y-100989928D01*
X134496046Y-100966109D01*
X134512814Y-100806565D01*
X134513504Y-100800000D01*
X134496882Y-100641852D01*
X134494232Y-100616635D01*
X134494232Y-100616633D01*
X134493542Y-100610072D01*
X134434527Y-100428444D01*
X134339040Y-100263056D01*
X134322882Y-100245110D01*
X134215675Y-100126045D01*
X134215674Y-100126044D01*
X134211253Y-100121134D01*
X134056752Y-100008882D01*
X134050724Y-100006198D01*
X134050722Y-100006197D01*
X133888319Y-99933891D01*
X133888318Y-99933891D01*
X133882288Y-99931206D01*
X133766362Y-99906565D01*
X133701944Y-99892872D01*
X133701939Y-99892872D01*
X133695487Y-99891500D01*
X133504513Y-99891500D01*
X133498061Y-99892872D01*
X133498056Y-99892872D01*
X133433638Y-99906565D01*
X133317712Y-99931206D01*
X133311682Y-99933891D01*
X133311681Y-99933891D01*
X133149278Y-100006197D01*
X133149276Y-100006198D01*
X133143248Y-100008882D01*
X132988747Y-100121134D01*
X132984332Y-100126037D01*
X132979420Y-100130460D01*
X132978295Y-100129211D01*
X132924986Y-100162051D01*
X132891800Y-100166500D01*
X129174592Y-100166500D01*
X129106471Y-100146498D01*
X129059978Y-100092842D01*
X129049874Y-100022568D01*
X129065473Y-99977500D01*
X129126223Y-99872279D01*
X129126224Y-99872278D01*
X129129527Y-99866556D01*
X129180615Y-99709323D01*
X129211353Y-99659165D01*
X134951553Y-93918965D01*
X135013865Y-93884939D01*
X135040648Y-93882060D01*
X151833966Y-93882060D01*
X151902087Y-93902062D01*
X151923061Y-93918965D01*
X152352878Y-94348782D01*
X152386904Y-94411094D01*
X152389093Y-94424707D01*
X152405129Y-94577279D01*
X152406458Y-94589928D01*
X152465473Y-94771556D01*
X152468776Y-94777278D01*
X152468777Y-94777279D01*
X152471737Y-94782405D01*
X152560960Y-94936944D01*
X152565378Y-94941851D01*
X152565379Y-94941852D01*
X152623259Y-95006134D01*
X152688747Y-95078866D01*
X152843248Y-95191118D01*
X152849276Y-95193802D01*
X152849278Y-95193803D01*
X153011681Y-95266109D01*
X153017712Y-95268794D01*
X153111113Y-95288647D01*
X153198056Y-95307128D01*
X153198061Y-95307128D01*
X153204513Y-95308500D01*
X153395487Y-95308500D01*
X153401939Y-95307128D01*
X153401944Y-95307128D01*
X153488887Y-95288647D01*
X153582288Y-95268794D01*
X153588319Y-95266109D01*
X153750722Y-95193803D01*
X153750724Y-95193802D01*
X153756752Y-95191118D01*
X153911253Y-95078866D01*
X153976741Y-95006134D01*
X154034621Y-94941852D01*
X154034622Y-94941851D01*
X154039040Y-94936944D01*
X154099423Y-94832358D01*
X154150806Y-94783365D01*
X154220519Y-94769929D01*
X154286430Y-94796315D01*
X154328375Y-94856421D01*
X154365473Y-94970596D01*
X154460960Y-95135984D01*
X154465378Y-95140891D01*
X154465379Y-95140892D01*
X154581778Y-95270166D01*
X154588747Y-95277906D01*
X154743248Y-95390158D01*
X154749276Y-95392842D01*
X154749278Y-95392843D01*
X154911681Y-95465149D01*
X154917712Y-95467834D01*
X155011112Y-95487687D01*
X155098056Y-95506168D01*
X155098061Y-95506168D01*
X155104513Y-95507540D01*
X155295487Y-95507540D01*
X155301939Y-95506168D01*
X155301944Y-95506168D01*
X155388888Y-95487687D01*
X155482288Y-95467834D01*
X155488319Y-95465149D01*
X155650722Y-95392843D01*
X155650724Y-95392842D01*
X155656752Y-95390158D01*
X155811253Y-95277906D01*
X155818222Y-95270166D01*
X155934621Y-95140892D01*
X155934622Y-95140891D01*
X155939040Y-95135984D01*
X156034527Y-94970596D01*
X156093542Y-94788968D01*
X156094853Y-94776500D01*
X156112814Y-94605605D01*
X156113504Y-94599040D01*
X156109955Y-94565271D01*
X156094232Y-94415675D01*
X156094232Y-94415673D01*
X156093542Y-94409112D01*
X156034527Y-94227484D01*
X156022450Y-94206565D01*
X155942343Y-94067817D01*
X155939040Y-94062096D01*
X155913590Y-94033831D01*
X155882873Y-93969823D01*
X155891637Y-93899369D01*
X155913590Y-93865209D01*
X155934621Y-93841852D01*
X155934622Y-93841851D01*
X155939040Y-93836944D01*
X156034527Y-93671556D01*
X156093542Y-93489928D01*
X156094872Y-93477279D01*
X156112814Y-93306565D01*
X156113504Y-93300000D01*
X156108732Y-93254595D01*
X156094232Y-93116635D01*
X156094232Y-93116633D01*
X156093542Y-93110072D01*
X156034527Y-92928444D01*
X155939040Y-92763056D01*
X155868137Y-92684310D01*
X155837419Y-92620303D01*
X155846184Y-92549849D01*
X155868137Y-92515690D01*
X155934621Y-92441852D01*
X155934622Y-92441851D01*
X155939040Y-92436944D01*
X156034527Y-92271556D01*
X156093542Y-92089928D01*
X156113504Y-91900000D01*
X156093542Y-91710072D01*
X156057777Y-91600000D01*
X157486496Y-91600000D01*
X157506458Y-91789928D01*
X157565473Y-91971556D01*
X157660960Y-92136944D01*
X157788747Y-92278866D01*
X157943248Y-92391118D01*
X157949276Y-92393802D01*
X157949278Y-92393803D01*
X158110531Y-92465597D01*
X158117712Y-92468794D01*
X158211113Y-92488647D01*
X158298056Y-92507128D01*
X158298061Y-92507128D01*
X158304513Y-92508500D01*
X158495487Y-92508500D01*
X158501939Y-92507128D01*
X158501944Y-92507128D01*
X158588888Y-92488647D01*
X158682288Y-92468794D01*
X158689469Y-92465597D01*
X158850722Y-92393803D01*
X158850724Y-92393802D01*
X158856752Y-92391118D01*
X159011253Y-92278866D01*
X159015668Y-92273963D01*
X159020580Y-92269540D01*
X159021705Y-92270789D01*
X159075014Y-92237949D01*
X159108200Y-92233500D01*
X163891800Y-92233500D01*
X163959921Y-92253502D01*
X163979147Y-92269843D01*
X163979420Y-92269540D01*
X163984332Y-92273963D01*
X163988747Y-92278866D01*
X164143248Y-92391118D01*
X164149276Y-92393802D01*
X164149278Y-92393803D01*
X164310531Y-92465597D01*
X164317712Y-92468794D01*
X164411113Y-92488647D01*
X164498056Y-92507128D01*
X164498061Y-92507128D01*
X164504513Y-92508500D01*
X164695487Y-92508500D01*
X164701939Y-92507128D01*
X164701944Y-92507128D01*
X164788888Y-92488647D01*
X164882288Y-92468794D01*
X164889469Y-92465597D01*
X165050722Y-92393803D01*
X165050724Y-92393802D01*
X165056752Y-92391118D01*
X165211253Y-92278866D01*
X165339040Y-92136944D01*
X165434527Y-91971556D01*
X165493542Y-91789928D01*
X165513504Y-91600000D01*
X165500616Y-91477373D01*
X165494232Y-91416635D01*
X165494232Y-91416633D01*
X165493542Y-91410072D01*
X165434527Y-91228444D01*
X165430955Y-91222256D01*
X165375986Y-91127048D01*
X165339040Y-91063056D01*
X165310533Y-91031395D01*
X165215675Y-90926045D01*
X165215674Y-90926044D01*
X165211253Y-90921134D01*
X165056752Y-90808882D01*
X165050724Y-90806198D01*
X165050722Y-90806197D01*
X164888319Y-90733891D01*
X164888318Y-90733891D01*
X164882288Y-90731206D01*
X164788887Y-90711353D01*
X164701944Y-90692872D01*
X164701939Y-90692872D01*
X164695487Y-90691500D01*
X164504513Y-90691500D01*
X164498061Y-90692872D01*
X164498056Y-90692872D01*
X164411113Y-90711353D01*
X164317712Y-90731206D01*
X164311682Y-90733891D01*
X164311681Y-90733891D01*
X164149278Y-90806197D01*
X164149276Y-90806198D01*
X164143248Y-90808882D01*
X163988747Y-90921134D01*
X163984332Y-90926037D01*
X163979420Y-90930460D01*
X163978295Y-90929211D01*
X163924986Y-90962051D01*
X163891800Y-90966500D01*
X159108200Y-90966500D01*
X159040079Y-90946498D01*
X159020853Y-90930157D01*
X159020580Y-90930460D01*
X159015668Y-90926037D01*
X159011253Y-90921134D01*
X158856752Y-90808882D01*
X158850724Y-90806198D01*
X158850722Y-90806197D01*
X158688319Y-90733891D01*
X158688318Y-90733891D01*
X158682288Y-90731206D01*
X158588887Y-90711353D01*
X158501944Y-90692872D01*
X158501939Y-90692872D01*
X158495487Y-90691500D01*
X158304513Y-90691500D01*
X158298061Y-90692872D01*
X158298056Y-90692872D01*
X158211113Y-90711353D01*
X158117712Y-90731206D01*
X158111682Y-90733891D01*
X158111681Y-90733891D01*
X157949278Y-90806197D01*
X157949276Y-90806198D01*
X157943248Y-90808882D01*
X157788747Y-90921134D01*
X157784326Y-90926044D01*
X157784325Y-90926045D01*
X157689468Y-91031395D01*
X157660960Y-91063056D01*
X157624014Y-91127048D01*
X157569046Y-91222256D01*
X157565473Y-91228444D01*
X157506458Y-91410072D01*
X157505768Y-91416633D01*
X157505768Y-91416635D01*
X157499384Y-91477373D01*
X157486496Y-91600000D01*
X156057777Y-91600000D01*
X156034527Y-91528444D01*
X155939040Y-91363056D01*
X155922881Y-91345109D01*
X155815675Y-91226045D01*
X155815674Y-91226044D01*
X155811253Y-91221134D01*
X155656752Y-91108882D01*
X155650724Y-91106198D01*
X155650722Y-91106197D01*
X155488319Y-91033891D01*
X155488318Y-91033891D01*
X155482288Y-91031206D01*
X155388888Y-91011353D01*
X155301944Y-90992872D01*
X155301939Y-90992872D01*
X155295487Y-90991500D01*
X155104513Y-90991500D01*
X155098061Y-90992872D01*
X155098056Y-90992872D01*
X155011113Y-91011353D01*
X154917712Y-91031206D01*
X154911682Y-91033891D01*
X154911681Y-91033891D01*
X154749278Y-91106197D01*
X154749276Y-91106198D01*
X154743248Y-91108882D01*
X154737907Y-91112762D01*
X154737906Y-91112763D01*
X154637080Y-91186018D01*
X154588747Y-91221134D01*
X154584332Y-91226037D01*
X154579420Y-91230460D01*
X154578295Y-91229211D01*
X154524986Y-91262051D01*
X154491800Y-91266500D01*
X132478763Y-91266500D01*
X132467579Y-91265973D01*
X132460091Y-91264299D01*
X132452168Y-91264548D01*
X132392033Y-91266438D01*
X132388075Y-91266500D01*
X132360144Y-91266500D01*
X132356229Y-91266995D01*
X132356225Y-91266995D01*
X132356167Y-91267003D01*
X132356138Y-91267006D01*
X132344296Y-91267939D01*
X132300110Y-91269327D01*
X132282744Y-91274372D01*
X132280658Y-91274978D01*
X132261306Y-91278986D01*
X132254235Y-91279880D01*
X132241203Y-91281526D01*
X132233834Y-91284443D01*
X132233832Y-91284444D01*
X132200097Y-91297800D01*
X132188869Y-91301645D01*
X132146407Y-91313982D01*
X132139585Y-91318016D01*
X132139579Y-91318019D01*
X132128968Y-91324294D01*
X132111218Y-91332990D01*
X132099756Y-91337528D01*
X132099751Y-91337531D01*
X132092383Y-91340448D01*
X132085968Y-91345109D01*
X132056625Y-91366427D01*
X132046707Y-91372943D01*
X132028019Y-91383995D01*
X132008637Y-91395458D01*
X131994313Y-91409782D01*
X131979281Y-91422621D01*
X131962893Y-91434528D01*
X131934712Y-91468593D01*
X131926722Y-91477373D01*
X130227909Y-93176186D01*
X130165597Y-93210212D01*
X130094782Y-93205147D01*
X130037946Y-93162600D01*
X130014556Y-93099889D01*
X130013504Y-93100000D01*
X129994232Y-92916635D01*
X129994232Y-92916633D01*
X129993542Y-92910072D01*
X129934527Y-92728444D01*
X129839040Y-92563056D01*
X129765863Y-92481785D01*
X129735147Y-92417779D01*
X129733500Y-92397476D01*
X129733500Y-91359500D01*
X129753502Y-91291379D01*
X129807158Y-91244886D01*
X129859500Y-91233500D01*
X130721233Y-91233500D01*
X130732416Y-91234027D01*
X130739909Y-91235702D01*
X130747835Y-91235453D01*
X130747836Y-91235453D01*
X130807986Y-91233562D01*
X130811945Y-91233500D01*
X130839856Y-91233500D01*
X130843791Y-91233003D01*
X130843856Y-91232995D01*
X130855693Y-91232062D01*
X130887951Y-91231048D01*
X130891970Y-91230922D01*
X130899889Y-91230673D01*
X130919343Y-91225021D01*
X130938700Y-91221013D01*
X130950930Y-91219468D01*
X130950931Y-91219468D01*
X130958797Y-91218474D01*
X130966168Y-91215555D01*
X130966170Y-91215555D01*
X130999912Y-91202196D01*
X131011142Y-91198351D01*
X131045983Y-91188229D01*
X131045984Y-91188229D01*
X131053593Y-91186018D01*
X131060412Y-91181985D01*
X131060417Y-91181983D01*
X131071028Y-91175707D01*
X131088776Y-91167012D01*
X131107617Y-91159552D01*
X131143387Y-91133564D01*
X131153307Y-91127048D01*
X131184535Y-91108580D01*
X131184538Y-91108578D01*
X131191362Y-91104542D01*
X131205683Y-91090221D01*
X131220717Y-91077380D01*
X131230694Y-91070131D01*
X131237107Y-91065472D01*
X131265298Y-91031395D01*
X131273288Y-91022616D01*
X133575979Y-88719925D01*
X133638291Y-88685899D01*
X133665074Y-88683020D01*
X135671713Y-88683020D01*
X135682896Y-88683547D01*
X135690389Y-88685222D01*
X135698315Y-88684973D01*
X135698316Y-88684973D01*
X135758466Y-88683082D01*
X135762425Y-88683020D01*
X135790336Y-88683020D01*
X135794271Y-88682523D01*
X135794336Y-88682515D01*
X135806173Y-88681582D01*
X135838431Y-88680568D01*
X135842450Y-88680442D01*
X135850369Y-88680193D01*
X135869823Y-88674541D01*
X135889180Y-88670533D01*
X135901410Y-88668988D01*
X135901411Y-88668988D01*
X135909277Y-88667994D01*
X135916648Y-88665075D01*
X135916650Y-88665075D01*
X135950392Y-88651716D01*
X135961622Y-88647871D01*
X135996463Y-88637749D01*
X135996464Y-88637749D01*
X136004073Y-88635538D01*
X136010892Y-88631505D01*
X136010897Y-88631503D01*
X136021508Y-88625227D01*
X136039256Y-88616532D01*
X136058097Y-88609072D01*
X136093867Y-88583084D01*
X136103787Y-88576568D01*
X136135015Y-88558100D01*
X136135018Y-88558098D01*
X136141842Y-88554062D01*
X136156163Y-88539741D01*
X136171197Y-88526900D01*
X136181174Y-88519651D01*
X136187587Y-88514992D01*
X136215778Y-88480915D01*
X136223768Y-88472136D01*
X136525499Y-88170405D01*
X136587811Y-88136379D01*
X136614594Y-88133500D01*
X143436456Y-88133500D01*
X143504577Y-88153502D01*
X143551070Y-88207158D01*
X143561174Y-88277432D01*
X143531680Y-88342012D01*
X143518287Y-88355311D01*
X143456011Y-88408500D01*
X143430386Y-88430386D01*
X143427178Y-88434142D01*
X143378516Y-88491118D01*
X143276230Y-88610879D01*
X143152207Y-88813265D01*
X143061372Y-89032561D01*
X143041902Y-89113660D01*
X143007115Y-89258554D01*
X143007114Y-89258560D01*
X143005960Y-89263367D01*
X142987810Y-89493989D01*
X142987337Y-89500000D01*
X143005960Y-89736633D01*
X143007114Y-89741440D01*
X143007115Y-89741446D01*
X143030043Y-89836944D01*
X143061372Y-89967439D01*
X143063265Y-89972010D01*
X143063266Y-89972012D01*
X143069983Y-89988227D01*
X143152207Y-90186735D01*
X143276230Y-90389121D01*
X143430386Y-90569614D01*
X143610879Y-90723770D01*
X143813265Y-90847793D01*
X143817835Y-90849686D01*
X143817837Y-90849687D01*
X144027988Y-90936734D01*
X144032561Y-90938628D01*
X144065342Y-90946498D01*
X144258554Y-90992885D01*
X144258560Y-90992886D01*
X144263367Y-90994040D01*
X144500000Y-91012663D01*
X144736633Y-90994040D01*
X144741440Y-90992886D01*
X144741446Y-90992885D01*
X144934658Y-90946498D01*
X144967439Y-90938628D01*
X144972012Y-90936734D01*
X145182163Y-90849687D01*
X145182165Y-90849686D01*
X145186735Y-90847793D01*
X145389121Y-90723770D01*
X145569614Y-90569614D01*
X145723770Y-90389121D01*
X145847793Y-90186735D01*
X145930018Y-89988227D01*
X145936734Y-89972012D01*
X145936735Y-89972010D01*
X145938628Y-89967439D01*
X145969957Y-89836944D01*
X145992885Y-89741446D01*
X145992886Y-89741440D01*
X145994040Y-89736633D01*
X146012663Y-89500000D01*
X145994040Y-89263367D01*
X145992886Y-89258560D01*
X145992885Y-89258554D01*
X145958098Y-89113660D01*
X145938628Y-89032561D01*
X145847793Y-88813265D01*
X145723770Y-88610879D01*
X145621484Y-88491118D01*
X145572822Y-88434142D01*
X145569614Y-88430386D01*
X145543989Y-88408500D01*
X145481713Y-88355311D01*
X145442904Y-88295860D01*
X145442398Y-88224865D01*
X145480354Y-88164867D01*
X145544723Y-88134914D01*
X145563544Y-88133500D01*
X147591800Y-88133500D01*
X147659921Y-88153502D01*
X147679147Y-88169843D01*
X147679420Y-88169540D01*
X147684332Y-88173963D01*
X147688747Y-88178866D01*
X147694086Y-88182745D01*
X147822757Y-88276230D01*
X147843248Y-88291118D01*
X147849276Y-88293802D01*
X147849278Y-88293803D01*
X147999532Y-88360700D01*
X148017712Y-88368794D01*
X148083365Y-88382749D01*
X148198056Y-88407128D01*
X148198061Y-88407128D01*
X148204513Y-88408500D01*
X148395487Y-88408500D01*
X148401939Y-88407128D01*
X148401944Y-88407128D01*
X148516635Y-88382749D01*
X148582288Y-88368794D01*
X148600468Y-88360700D01*
X148750722Y-88293803D01*
X148750724Y-88293802D01*
X148756752Y-88291118D01*
X148777244Y-88276230D01*
X148905914Y-88182745D01*
X148911253Y-88178866D01*
X148915668Y-88173963D01*
X148920580Y-88169540D01*
X148921705Y-88170789D01*
X148975014Y-88137949D01*
X149008200Y-88133500D01*
X158728490Y-88133500D01*
X158796611Y-88153502D01*
X158837608Y-88196499D01*
X158853986Y-88224865D01*
X158860960Y-88236944D01*
X158865378Y-88241851D01*
X158865379Y-88241852D01*
X158979678Y-88368794D01*
X158988747Y-88378866D01*
X159057237Y-88428627D01*
X159122918Y-88476347D01*
X159143248Y-88491118D01*
X159149276Y-88493802D01*
X159149278Y-88493803D01*
X159311681Y-88566109D01*
X159317712Y-88568794D01*
X159384941Y-88583084D01*
X159498056Y-88607128D01*
X159498061Y-88607128D01*
X159504513Y-88608500D01*
X159695487Y-88608500D01*
X159701939Y-88607128D01*
X159701944Y-88607128D01*
X159815059Y-88583084D01*
X159882288Y-88568794D01*
X159888319Y-88566109D01*
X160050722Y-88493803D01*
X160050724Y-88493802D01*
X160056752Y-88491118D01*
X160077083Y-88476347D01*
X160142763Y-88428627D01*
X160211253Y-88378866D01*
X160220322Y-88368794D01*
X160334621Y-88241852D01*
X160334622Y-88241851D01*
X160339040Y-88236944D01*
X160434527Y-88071556D01*
X160493542Y-87889928D01*
X160503193Y-87798109D01*
X160512814Y-87706565D01*
X160513504Y-87700000D01*
X160508298Y-87650466D01*
X160494232Y-87516635D01*
X160494232Y-87516633D01*
X160493542Y-87510072D01*
X160481797Y-87473925D01*
X160479769Y-87402958D01*
X160516432Y-87342160D01*
X160580144Y-87310834D01*
X160601630Y-87308989D01*
X164573990Y-87308989D01*
X164642111Y-87328991D01*
X164688604Y-87382647D01*
X164699299Y-87421817D01*
X164706458Y-87489928D01*
X164765473Y-87671556D01*
X164860960Y-87836944D01*
X164865378Y-87841851D01*
X164865379Y-87841852D01*
X164908667Y-87889928D01*
X164988747Y-87978866D01*
X165143248Y-88091118D01*
X165149276Y-88093802D01*
X165149278Y-88093803D01*
X165311681Y-88166109D01*
X165317712Y-88168794D01*
X165411112Y-88188647D01*
X165498056Y-88207128D01*
X165498061Y-88207128D01*
X165504513Y-88208500D01*
X165695487Y-88208500D01*
X165701939Y-88207128D01*
X165701944Y-88207128D01*
X165788887Y-88188647D01*
X165882288Y-88168794D01*
X165888319Y-88166109D01*
X166050722Y-88093803D01*
X166050724Y-88093802D01*
X166056752Y-88091118D01*
X166211253Y-87978866D01*
X166291333Y-87889928D01*
X166334621Y-87841852D01*
X166334622Y-87841851D01*
X166339040Y-87836944D01*
X166434527Y-87671556D01*
X166493542Y-87489928D01*
X166500701Y-87421819D01*
X166512814Y-87306565D01*
X166513504Y-87300000D01*
X166493542Y-87110072D01*
X166434527Y-86928444D01*
X166391812Y-86854459D01*
X166359481Y-86798460D01*
X166342743Y-86729464D01*
X166365964Y-86662373D01*
X166421771Y-86618486D01*
X166468600Y-86609460D01*
X166494527Y-86609460D01*
X166500979Y-86608088D01*
X166500984Y-86608088D01*
X166599077Y-86587237D01*
X166681328Y-86569754D01*
X166687359Y-86567069D01*
X166849762Y-86494763D01*
X166849764Y-86494762D01*
X166855792Y-86492078D01*
X167010293Y-86379826D01*
X167138080Y-86237904D01*
X167233567Y-86072516D01*
X167292582Y-85890888D01*
X167312544Y-85700960D01*
X167303681Y-85616635D01*
X167293272Y-85517595D01*
X167293272Y-85517593D01*
X167292582Y-85511032D01*
X167233567Y-85329404D01*
X167138160Y-85164154D01*
X167121422Y-85095160D01*
X167141404Y-85038309D01*
X167139040Y-85036944D01*
X167231223Y-84877279D01*
X167231224Y-84877278D01*
X167234527Y-84871556D01*
X167293542Y-84689928D01*
X167297371Y-84653502D01*
X167312814Y-84506565D01*
X167313504Y-84500000D01*
X167310907Y-84475292D01*
X167294232Y-84316634D01*
X167294231Y-84316631D01*
X167293542Y-84310072D01*
X167234527Y-84128444D01*
X167139040Y-83963056D01*
X167018135Y-83828778D01*
X166987420Y-83764773D01*
X166996184Y-83694319D01*
X167018137Y-83660159D01*
X167034621Y-83641852D01*
X167034622Y-83641851D01*
X167039040Y-83636944D01*
X167134527Y-83471556D01*
X167193542Y-83289928D01*
X167194872Y-83277279D01*
X167212814Y-83106565D01*
X167213504Y-83100000D01*
X167193542Y-82910072D01*
X167134527Y-82728444D01*
X167039040Y-82563056D01*
X167013157Y-82534310D01*
X166982439Y-82470303D01*
X166991204Y-82399849D01*
X167013157Y-82365690D01*
X167034621Y-82341852D01*
X167034622Y-82341851D01*
X167039040Y-82336944D01*
X167108145Y-82217251D01*
X167131223Y-82177279D01*
X167131224Y-82177278D01*
X167134527Y-82171556D01*
X167193542Y-81989928D01*
X167196422Y-81962532D01*
X167212814Y-81806565D01*
X167213504Y-81800000D01*
X167193542Y-81610072D01*
X167134527Y-81428444D01*
X167039040Y-81263056D01*
X167012783Y-81233894D01*
X166915675Y-81126045D01*
X166915674Y-81126044D01*
X166911253Y-81121134D01*
X166783677Y-81028444D01*
X166762094Y-81012763D01*
X166762093Y-81012762D01*
X166756752Y-81008882D01*
X166750724Y-81006198D01*
X166750722Y-81006197D01*
X166588319Y-80933891D01*
X166588318Y-80933891D01*
X166582288Y-80931206D01*
X166488888Y-80911353D01*
X166401944Y-80892872D01*
X166401939Y-80892872D01*
X166395487Y-80891500D01*
X166204513Y-80891500D01*
X166198061Y-80892872D01*
X166198056Y-80892872D01*
X166111112Y-80911353D01*
X166017712Y-80931206D01*
X166011682Y-80933891D01*
X166011681Y-80933891D01*
X165849278Y-81006197D01*
X165849276Y-81006198D01*
X165843248Y-81008882D01*
X165837907Y-81012762D01*
X165837906Y-81012763D01*
X165816323Y-81028444D01*
X165688747Y-81121134D01*
X165684326Y-81126044D01*
X165684325Y-81126045D01*
X165587218Y-81233894D01*
X165560960Y-81263056D01*
X165465473Y-81428444D01*
X165406458Y-81610072D01*
X165405768Y-81616633D01*
X165405768Y-81616635D01*
X165389093Y-81775292D01*
X165362080Y-81840949D01*
X165352878Y-81851217D01*
X165224020Y-81980075D01*
X165161708Y-82014101D01*
X165134925Y-82016980D01*
X159243050Y-82016980D01*
X159231867Y-82016453D01*
X159224374Y-82014778D01*
X159216448Y-82015027D01*
X159216447Y-82015027D01*
X159156284Y-82016918D01*
X159152326Y-82016980D01*
X159124427Y-82016980D01*
X159120437Y-82017484D01*
X159108603Y-82018416D01*
X159064394Y-82019806D01*
X159056780Y-82022018D01*
X159056775Y-82022019D01*
X159044942Y-82025457D01*
X159025579Y-82029468D01*
X159005486Y-82032006D01*
X158998119Y-82034923D01*
X158998114Y-82034924D01*
X158964375Y-82048282D01*
X158953148Y-82052126D01*
X158910690Y-82064462D01*
X158903864Y-82068499D01*
X158893255Y-82074773D01*
X158875507Y-82083468D01*
X158856666Y-82090928D01*
X158850250Y-82095590D01*
X158850249Y-82095590D01*
X158820896Y-82116916D01*
X158810975Y-82123432D01*
X158772921Y-82145938D01*
X158772050Y-82144465D01*
X158714857Y-82166920D01*
X158645235Y-82153019D01*
X158594180Y-82103684D01*
X158583884Y-82080349D01*
X158583713Y-82079821D01*
X158534527Y-81928444D01*
X158439040Y-81763056D01*
X158311253Y-81621134D01*
X158156752Y-81508882D01*
X158150724Y-81506198D01*
X158150722Y-81506197D01*
X157988319Y-81433891D01*
X157988318Y-81433891D01*
X157982288Y-81431206D01*
X157975833Y-81429834D01*
X157975824Y-81429831D01*
X157948721Y-81424070D01*
X157885824Y-81389919D01*
X156547122Y-80051217D01*
X156513096Y-79988905D01*
X156510907Y-79975292D01*
X156494232Y-79816635D01*
X156494232Y-79816633D01*
X156493542Y-79810072D01*
X156434527Y-79628444D01*
X156339040Y-79463056D01*
X156323804Y-79446134D01*
X156215675Y-79326045D01*
X156215674Y-79326044D01*
X156211253Y-79321134D01*
X156112157Y-79249136D01*
X156062094Y-79212763D01*
X156062093Y-79212762D01*
X156056752Y-79208882D01*
X156050724Y-79206198D01*
X156050722Y-79206197D01*
X155888319Y-79133891D01*
X155888318Y-79133891D01*
X155882288Y-79131206D01*
X155788888Y-79111353D01*
X155701944Y-79092872D01*
X155701939Y-79092872D01*
X155695487Y-79091500D01*
X155504513Y-79091500D01*
X155498061Y-79092872D01*
X155498056Y-79092872D01*
X155411112Y-79111353D01*
X155317712Y-79131206D01*
X155311682Y-79133891D01*
X155311681Y-79133891D01*
X155149278Y-79206197D01*
X155149276Y-79206198D01*
X155143248Y-79208882D01*
X155137907Y-79212762D01*
X155137906Y-79212763D01*
X155087843Y-79249136D01*
X154988747Y-79321134D01*
X154984326Y-79326044D01*
X154984325Y-79326045D01*
X154876197Y-79446134D01*
X154860960Y-79463056D01*
X154765473Y-79628444D01*
X154706458Y-79810072D01*
X154686496Y-80000000D01*
X154706458Y-80189928D01*
X154765473Y-80371556D01*
X154860960Y-80536944D01*
X154865378Y-80541851D01*
X154865379Y-80541852D01*
X154984325Y-80673955D01*
X154988747Y-80678866D01*
X155143248Y-80791118D01*
X155149276Y-80793802D01*
X155149278Y-80793803D01*
X155304824Y-80863056D01*
X155317712Y-80868794D01*
X155411112Y-80888647D01*
X155498056Y-80907128D01*
X155498061Y-80907128D01*
X155504513Y-80908500D01*
X155560406Y-80908500D01*
X155628527Y-80928502D01*
X155649501Y-80945405D01*
X156764694Y-82060598D01*
X156798720Y-82122910D01*
X156800909Y-82162863D01*
X156799394Y-82177279D01*
X156786496Y-82300000D01*
X156787186Y-82306565D01*
X156787186Y-82306568D01*
X156789469Y-82328291D01*
X156776696Y-82398129D01*
X156728194Y-82449975D01*
X156664159Y-82467460D01*
X152551272Y-82467460D01*
X152483151Y-82447458D01*
X152462177Y-82430555D01*
X151941067Y-81909444D01*
X151389850Y-81358227D01*
X151382310Y-81349941D01*
X151378198Y-81343462D01*
X151328546Y-81296836D01*
X151325705Y-81294082D01*
X151305968Y-81274345D01*
X151302771Y-81271865D01*
X151293749Y-81264160D01*
X151261519Y-81233894D01*
X151254573Y-81230075D01*
X151254570Y-81230073D01*
X151243764Y-81224132D01*
X151227245Y-81213281D01*
X151223108Y-81210072D01*
X151211239Y-81200866D01*
X151203970Y-81197721D01*
X151203966Y-81197718D01*
X151170661Y-81183306D01*
X151160011Y-81178089D01*
X151121258Y-81156785D01*
X151101635Y-81151747D01*
X151082932Y-81145343D01*
X151071618Y-81140447D01*
X151071617Y-81140447D01*
X151064343Y-81137299D01*
X151056520Y-81136060D01*
X151056510Y-81136057D01*
X151020674Y-81130381D01*
X151009054Y-81127975D01*
X150973909Y-81118952D01*
X150973908Y-81118952D01*
X150966228Y-81116980D01*
X150945974Y-81116980D01*
X150926263Y-81115429D01*
X150914084Y-81113500D01*
X150906255Y-81112260D01*
X150898363Y-81113006D01*
X150862237Y-81116421D01*
X150850379Y-81116980D01*
X143553334Y-81116980D01*
X143485213Y-81096978D01*
X143438720Y-81043322D01*
X143428616Y-80973048D01*
X143444215Y-80927980D01*
X143449514Y-80918803D01*
X143534527Y-80771556D01*
X143593542Y-80589928D01*
X143613504Y-80400000D01*
X143593542Y-80210072D01*
X143534527Y-80028444D01*
X143439040Y-79863056D01*
X143397243Y-79816635D01*
X143315675Y-79726045D01*
X143315674Y-79726044D01*
X143311253Y-79721134D01*
X143156752Y-79608882D01*
X143150724Y-79606198D01*
X143150722Y-79606197D01*
X142988319Y-79533891D01*
X142988318Y-79533891D01*
X142982288Y-79531206D01*
X142888887Y-79511353D01*
X142801944Y-79492872D01*
X142801939Y-79492872D01*
X142795487Y-79491500D01*
X142608630Y-79491500D01*
X142579324Y-79487329D01*
X142578145Y-79486819D01*
X142570317Y-79485579D01*
X142570310Y-79485577D01*
X142534476Y-79479901D01*
X142522856Y-79477495D01*
X142487711Y-79468472D01*
X142487710Y-79468472D01*
X142480030Y-79466500D01*
X142459776Y-79466500D01*
X142440065Y-79464949D01*
X142427886Y-79463020D01*
X142420057Y-79461780D01*
X142412165Y-79462526D01*
X142376039Y-79465941D01*
X142364181Y-79466500D01*
X140631018Y-79466500D01*
X140562897Y-79446498D01*
X140516404Y-79392842D01*
X140506300Y-79322568D01*
X140535794Y-79257988D01*
X140579769Y-79225393D01*
X140650722Y-79193803D01*
X140650724Y-79193802D01*
X140656752Y-79191118D01*
X140811253Y-79078866D01*
X140939040Y-78936944D01*
X141034527Y-78771556D01*
X141093542Y-78589928D01*
X141113504Y-78400000D01*
X141093542Y-78210072D01*
X141034527Y-78028444D01*
X140939040Y-77863056D01*
X140865863Y-77781785D01*
X140835147Y-77717779D01*
X140833500Y-77697476D01*
X140833500Y-73602524D01*
X140853502Y-73534403D01*
X140865858Y-73518221D01*
X140939040Y-73436944D01*
X141034527Y-73271556D01*
X141093542Y-73089928D01*
X141113504Y-72900000D01*
X141093542Y-72710072D01*
X141034527Y-72528444D01*
X141025346Y-72512541D01*
X140954896Y-72390520D01*
X140939040Y-72363056D01*
X140811253Y-72221134D01*
X140712157Y-72149136D01*
X140662094Y-72112763D01*
X140662093Y-72112762D01*
X140656752Y-72108882D01*
X140650724Y-72106198D01*
X140650722Y-72106197D01*
X140488319Y-72033891D01*
X140488318Y-72033891D01*
X140482288Y-72031206D01*
X140388888Y-72011353D01*
X140301944Y-71992872D01*
X140301939Y-71992872D01*
X140295487Y-71991500D01*
X140104513Y-71991500D01*
X140098061Y-71992872D01*
X140098056Y-71992872D01*
X140011112Y-72011353D01*
X139917712Y-72031206D01*
X139911682Y-72033891D01*
X139911681Y-72033891D01*
X139749278Y-72106197D01*
X139749276Y-72106198D01*
X139743248Y-72108882D01*
X139737907Y-72112762D01*
X139737906Y-72112763D01*
X139687843Y-72149136D01*
X139588747Y-72221134D01*
X139460960Y-72363056D01*
X139445104Y-72390520D01*
X139374655Y-72512541D01*
X139365473Y-72528444D01*
X139306458Y-72710072D01*
X139286496Y-72900000D01*
X139306458Y-73089928D01*
X139365473Y-73271556D01*
X139460960Y-73436944D01*
X139534137Y-73518215D01*
X139564853Y-73582221D01*
X139566500Y-73602524D01*
X139566500Y-77697476D01*
X139546498Y-77765597D01*
X139534142Y-77781779D01*
X139460960Y-77863056D01*
X139365473Y-78028444D01*
X139306458Y-78210072D01*
X139286496Y-78400000D01*
X139306458Y-78589928D01*
X139365473Y-78771556D01*
X139460960Y-78936944D01*
X139588747Y-79078866D01*
X139743248Y-79191118D01*
X139749276Y-79193802D01*
X139749278Y-79193803D01*
X139820231Y-79225393D01*
X139874327Y-79271373D01*
X139894976Y-79339300D01*
X139875624Y-79407609D01*
X139822413Y-79454610D01*
X139768982Y-79466500D01*
X138455224Y-79466500D01*
X138387103Y-79446498D01*
X138381163Y-79442436D01*
X138380909Y-79442251D01*
X138231752Y-79333882D01*
X138225724Y-79331198D01*
X138225722Y-79331197D01*
X138063319Y-79258891D01*
X138063318Y-79258891D01*
X138057288Y-79256206D01*
X137963888Y-79236353D01*
X137876944Y-79217872D01*
X137876939Y-79217872D01*
X137870487Y-79216500D01*
X137679513Y-79216500D01*
X137673061Y-79217872D01*
X137673056Y-79217872D01*
X137586112Y-79236353D01*
X137492712Y-79256206D01*
X137486682Y-79258891D01*
X137486681Y-79258891D01*
X137324278Y-79331197D01*
X137324276Y-79331198D01*
X137318248Y-79333882D01*
X137163747Y-79446134D01*
X137159326Y-79451044D01*
X137159325Y-79451045D01*
X137148988Y-79462526D01*
X137035960Y-79588056D01*
X136940473Y-79753444D01*
X136881458Y-79935072D01*
X136861496Y-80125000D01*
X136881458Y-80314928D01*
X136940473Y-80496556D01*
X137035960Y-80661944D01*
X137040378Y-80666851D01*
X137040379Y-80666852D01*
X137054693Y-80682749D01*
X137163747Y-80803866D01*
X137318248Y-80916118D01*
X137324276Y-80918802D01*
X137324278Y-80918803D01*
X137446115Y-80973048D01*
X137492712Y-80993794D01*
X137581954Y-81012763D01*
X137673056Y-81032128D01*
X137673061Y-81032128D01*
X137679513Y-81033500D01*
X137870487Y-81033500D01*
X137876939Y-81032128D01*
X137876944Y-81032128D01*
X137968046Y-81012763D01*
X138057288Y-80993794D01*
X138125793Y-80963294D01*
X138172225Y-80942621D01*
X138242592Y-80933187D01*
X138306889Y-80963294D01*
X138344703Y-81023382D01*
X138343307Y-81096663D01*
X138306458Y-81210072D01*
X138305768Y-81216633D01*
X138305768Y-81216635D01*
X138299957Y-81271921D01*
X138286496Y-81400000D01*
X138306458Y-81589928D01*
X138365473Y-81771556D01*
X138368776Y-81777278D01*
X138368777Y-81777279D01*
X138426640Y-81877500D01*
X138443378Y-81946495D01*
X138420158Y-82013587D01*
X138364351Y-82057474D01*
X138317521Y-82066500D01*
X131708200Y-82066500D01*
X131640079Y-82046498D01*
X131620853Y-82030157D01*
X131620580Y-82030460D01*
X131615668Y-82026037D01*
X131611253Y-82021134D01*
X131572354Y-81992872D01*
X131462094Y-81912763D01*
X131462093Y-81912762D01*
X131456752Y-81908882D01*
X131450724Y-81906198D01*
X131450722Y-81906197D01*
X131288319Y-81833891D01*
X131288318Y-81833891D01*
X131282288Y-81831206D01*
X131166362Y-81806565D01*
X131101944Y-81792872D01*
X131101939Y-81792872D01*
X131095487Y-81791500D01*
X130904513Y-81791500D01*
X130898061Y-81792872D01*
X130898056Y-81792872D01*
X130833638Y-81806565D01*
X130717712Y-81831206D01*
X130711682Y-81833891D01*
X130711681Y-81833891D01*
X130549278Y-81906197D01*
X130549276Y-81906198D01*
X130543248Y-81908882D01*
X130537907Y-81912762D01*
X130537906Y-81912763D01*
X130521079Y-81924989D01*
X130388747Y-82021134D01*
X130384326Y-82026044D01*
X130384325Y-82026045D01*
X130269615Y-82153444D01*
X130260960Y-82163056D01*
X130165473Y-82328444D01*
X130128175Y-82443234D01*
X130088103Y-82501839D01*
X130022706Y-82529476D01*
X129952749Y-82517369D01*
X129899224Y-82467297D01*
X129842342Y-82368774D01*
X129842339Y-82368769D01*
X129839040Y-82363056D01*
X129819754Y-82341636D01*
X129715675Y-82226045D01*
X129715674Y-82226044D01*
X129711253Y-82221134D01*
X129556752Y-82108882D01*
X129550724Y-82106198D01*
X129550722Y-82106197D01*
X129388319Y-82033891D01*
X129388318Y-82033891D01*
X129382288Y-82031206D01*
X129288888Y-82011353D01*
X129201944Y-81992872D01*
X129201939Y-81992872D01*
X129195487Y-81991500D01*
X129004513Y-81991500D01*
X128998061Y-81992872D01*
X128998056Y-81992872D01*
X128911112Y-82011353D01*
X128817712Y-82031206D01*
X128811682Y-82033891D01*
X128811681Y-82033891D01*
X128649278Y-82106197D01*
X128649276Y-82106198D01*
X128643248Y-82108882D01*
X128488747Y-82221134D01*
X128484326Y-82226044D01*
X128484325Y-82226045D01*
X128380247Y-82341636D01*
X128360960Y-82363056D01*
X128265473Y-82528444D01*
X128206458Y-82710072D01*
X128205768Y-82716633D01*
X128205768Y-82716635D01*
X128204527Y-82728444D01*
X128186496Y-82900000D01*
X128187186Y-82906565D01*
X128203996Y-83066500D01*
X128206458Y-83089928D01*
X128265473Y-83271556D01*
X128360960Y-83436944D01*
X128488747Y-83578866D01*
X128643248Y-83691118D01*
X128649276Y-83693802D01*
X128649278Y-83693803D01*
X128811681Y-83766109D01*
X128817712Y-83768794D01*
X128911113Y-83788647D01*
X128998056Y-83807128D01*
X128998061Y-83807128D01*
X129004513Y-83808500D01*
X129060405Y-83808500D01*
X129128526Y-83828502D01*
X129149500Y-83845405D01*
X129396348Y-84092253D01*
X129403888Y-84100539D01*
X129408000Y-84107018D01*
X129413777Y-84112443D01*
X129457651Y-84153643D01*
X129460493Y-84156398D01*
X129480230Y-84176135D01*
X129483427Y-84178615D01*
X129492447Y-84186318D01*
X129524679Y-84216586D01*
X129531625Y-84220405D01*
X129531628Y-84220407D01*
X129542434Y-84226348D01*
X129558953Y-84237199D01*
X129574959Y-84249614D01*
X129582228Y-84252759D01*
X129582232Y-84252762D01*
X129615537Y-84267174D01*
X129626187Y-84272391D01*
X129664940Y-84293695D01*
X129672615Y-84295666D01*
X129672616Y-84295666D01*
X129684562Y-84298733D01*
X129703267Y-84305137D01*
X129721855Y-84313181D01*
X129729678Y-84314420D01*
X129729688Y-84314423D01*
X129765524Y-84320099D01*
X129777144Y-84322505D01*
X129808959Y-84330673D01*
X129819970Y-84333500D01*
X129840224Y-84333500D01*
X129859934Y-84335051D01*
X129879943Y-84338220D01*
X129887835Y-84337474D01*
X129906580Y-84335702D01*
X129923962Y-84334059D01*
X129935819Y-84333500D01*
X131521233Y-84333500D01*
X131532416Y-84334027D01*
X131539909Y-84335702D01*
X131547835Y-84335453D01*
X131547836Y-84335453D01*
X131607986Y-84333562D01*
X131611945Y-84333500D01*
X131639856Y-84333500D01*
X131643791Y-84333003D01*
X131643856Y-84332995D01*
X131655693Y-84332062D01*
X131687951Y-84331048D01*
X131691970Y-84330922D01*
X131699889Y-84330673D01*
X131719343Y-84325021D01*
X131738700Y-84321013D01*
X131750930Y-84319468D01*
X131750931Y-84319468D01*
X131758797Y-84318474D01*
X131766168Y-84315555D01*
X131766170Y-84315555D01*
X131799912Y-84302196D01*
X131811142Y-84298351D01*
X131845983Y-84288229D01*
X131845984Y-84288229D01*
X131853593Y-84286018D01*
X131860412Y-84281985D01*
X131860417Y-84281983D01*
X131871028Y-84275707D01*
X131888776Y-84267012D01*
X131907617Y-84259552D01*
X131943387Y-84233564D01*
X131953307Y-84227048D01*
X131984535Y-84208580D01*
X131984538Y-84208578D01*
X131991362Y-84204542D01*
X132005683Y-84190221D01*
X132020717Y-84177380D01*
X132030694Y-84170131D01*
X132037107Y-84165472D01*
X132065298Y-84131395D01*
X132073288Y-84122616D01*
X132375979Y-83819925D01*
X132438291Y-83785899D01*
X132465074Y-83783020D01*
X137588250Y-83783020D01*
X137656371Y-83803022D01*
X137702864Y-83856678D01*
X137712968Y-83926952D01*
X137683474Y-83991532D01*
X137627186Y-84028853D01*
X137624167Y-84029834D01*
X137617712Y-84031206D01*
X137611685Y-84033889D01*
X137611683Y-84033890D01*
X137449278Y-84106197D01*
X137449276Y-84106198D01*
X137443248Y-84108882D01*
X137437907Y-84112762D01*
X137437906Y-84112763D01*
X137429593Y-84118803D01*
X137288747Y-84221134D01*
X137284326Y-84226044D01*
X137284325Y-84226045D01*
X137185590Y-84335702D01*
X137160960Y-84363056D01*
X137114834Y-84442949D01*
X137069449Y-84521558D01*
X137065473Y-84528444D01*
X137006458Y-84710072D01*
X137005768Y-84716633D01*
X137005768Y-84716635D01*
X136994006Y-84828544D01*
X136966993Y-84894201D01*
X136916705Y-84928945D01*
X136917712Y-84931206D01*
X136749278Y-85006197D01*
X136749276Y-85006198D01*
X136743248Y-85008882D01*
X136737907Y-85012762D01*
X136737906Y-85012763D01*
X136687843Y-85049136D01*
X136588747Y-85121134D01*
X136584326Y-85126044D01*
X136584325Y-85126045D01*
X136543636Y-85171235D01*
X136483190Y-85208475D01*
X136412207Y-85207123D01*
X136356364Y-85171235D01*
X136315675Y-85126045D01*
X136315674Y-85126044D01*
X136311253Y-85121134D01*
X136212157Y-85049136D01*
X136162094Y-85012763D01*
X136162093Y-85012762D01*
X136156752Y-85008882D01*
X136150724Y-85006198D01*
X136150722Y-85006197D01*
X135988319Y-84933891D01*
X135988318Y-84933891D01*
X135982288Y-84931206D01*
X135888888Y-84911353D01*
X135801944Y-84892872D01*
X135801939Y-84892872D01*
X135795487Y-84891500D01*
X135604513Y-84891500D01*
X135598061Y-84892872D01*
X135598056Y-84892872D01*
X135511112Y-84911353D01*
X135417712Y-84931206D01*
X135411682Y-84933891D01*
X135411681Y-84933891D01*
X135249278Y-85006197D01*
X135249276Y-85006198D01*
X135243248Y-85008882D01*
X135237907Y-85012762D01*
X135237906Y-85012763D01*
X135187843Y-85049136D01*
X135088747Y-85121134D01*
X135084326Y-85126044D01*
X135084325Y-85126045D01*
X135023316Y-85193803D01*
X134960960Y-85263056D01*
X134865473Y-85428444D01*
X134806458Y-85610072D01*
X134786496Y-85800000D01*
X134787186Y-85806565D01*
X134796049Y-85890888D01*
X134806458Y-85989928D01*
X134865473Y-86171556D01*
X134960960Y-86336944D01*
X135088747Y-86478866D01*
X135187843Y-86550864D01*
X135210148Y-86567069D01*
X135243248Y-86591118D01*
X135249276Y-86593802D01*
X135249278Y-86593803D01*
X135376074Y-86650256D01*
X135430170Y-86696236D01*
X135450819Y-86764164D01*
X135431467Y-86832472D01*
X135413922Y-86854456D01*
X135338782Y-86929596D01*
X135276469Y-86963621D01*
X135249687Y-86966500D01*
X131320298Y-86966500D01*
X131252177Y-86946498D01*
X131205684Y-86892842D01*
X131200465Y-86879437D01*
X131161568Y-86759726D01*
X131159527Y-86753444D01*
X131064040Y-86588056D01*
X130936253Y-86446134D01*
X130781752Y-86333882D01*
X130775724Y-86331198D01*
X130775722Y-86331197D01*
X130613319Y-86258891D01*
X130613318Y-86258891D01*
X130607288Y-86256206D01*
X130513888Y-86236353D01*
X130426944Y-86217872D01*
X130426939Y-86217872D01*
X130420487Y-86216500D01*
X130229513Y-86216500D01*
X130223061Y-86217872D01*
X130223056Y-86217872D01*
X130136112Y-86236353D01*
X130042712Y-86256206D01*
X130036682Y-86258891D01*
X130036681Y-86258891D01*
X129874278Y-86331197D01*
X129874276Y-86331198D01*
X129868248Y-86333882D01*
X129713747Y-86446134D01*
X129585960Y-86588056D01*
X129490473Y-86753444D01*
X129431458Y-86935072D01*
X129411496Y-87125000D01*
X129431458Y-87314928D01*
X129440306Y-87342160D01*
X129484136Y-87477053D01*
X129486164Y-87548020D01*
X129449501Y-87608818D01*
X129385789Y-87640144D01*
X129364303Y-87641989D01*
X126703279Y-87641989D01*
X126692096Y-87641462D01*
X126684603Y-87639787D01*
X126676677Y-87640036D01*
X126676676Y-87640036D01*
X126616513Y-87641927D01*
X126612555Y-87641989D01*
X126584655Y-87641989D01*
X126580665Y-87642493D01*
X126568831Y-87643425D01*
X126524622Y-87644815D01*
X126517008Y-87647027D01*
X126517003Y-87647028D01*
X126505170Y-87650466D01*
X126485807Y-87654477D01*
X126465714Y-87657015D01*
X126458347Y-87659932D01*
X126458342Y-87659933D01*
X126424603Y-87673291D01*
X126413376Y-87677135D01*
X126406072Y-87679257D01*
X126370918Y-87689471D01*
X126364092Y-87693508D01*
X126353483Y-87699782D01*
X126335735Y-87708477D01*
X126316894Y-87715937D01*
X126310478Y-87720599D01*
X126310477Y-87720599D01*
X126281124Y-87741925D01*
X126271204Y-87748441D01*
X126239976Y-87766909D01*
X126239973Y-87766911D01*
X126233149Y-87770947D01*
X126218828Y-87785268D01*
X126203795Y-87798108D01*
X126187404Y-87810017D01*
X126165128Y-87836944D01*
X126159213Y-87844094D01*
X126151223Y-87852873D01*
X124807747Y-89196348D01*
X124799461Y-89203888D01*
X124792982Y-89208000D01*
X124787557Y-89213777D01*
X124746357Y-89257651D01*
X124743602Y-89260493D01*
X124723865Y-89280230D01*
X124721385Y-89283427D01*
X124713682Y-89292447D01*
X124683414Y-89324679D01*
X124679595Y-89331625D01*
X124679593Y-89331628D01*
X124673652Y-89342434D01*
X124662801Y-89358953D01*
X124650386Y-89374959D01*
X124647241Y-89382228D01*
X124647238Y-89382232D01*
X124632826Y-89415537D01*
X124627609Y-89426187D01*
X124606305Y-89464940D01*
X124604334Y-89472615D01*
X124604334Y-89472616D01*
X124601267Y-89484562D01*
X124594863Y-89503266D01*
X124591075Y-89512021D01*
X124586819Y-89521855D01*
X124585580Y-89529678D01*
X124585577Y-89529688D01*
X124579901Y-89565524D01*
X124577495Y-89577144D01*
X124566500Y-89619970D01*
X124566500Y-89640224D01*
X124564949Y-89659934D01*
X124561780Y-89679943D01*
X124562526Y-89687835D01*
X124565941Y-89723961D01*
X124566500Y-89735819D01*
X124566500Y-91885406D01*
X124546498Y-91953527D01*
X124529595Y-91974501D01*
X123249500Y-93254595D01*
X123187188Y-93288621D01*
X123160405Y-93291500D01*
X123104513Y-93291500D01*
X123098061Y-93292872D01*
X123098056Y-93292872D01*
X123033638Y-93306565D01*
X122917712Y-93331206D01*
X122911682Y-93333891D01*
X122911681Y-93333891D01*
X122749278Y-93406197D01*
X122749276Y-93406198D01*
X122743248Y-93408882D01*
X122588747Y-93521134D01*
X122460960Y-93663056D01*
X122365473Y-93828444D01*
X122306458Y-94010072D01*
X122305768Y-94016633D01*
X122305768Y-94016635D01*
X122287186Y-94193435D01*
X122286496Y-94200000D01*
X122306458Y-94389928D01*
X122365473Y-94571556D01*
X122368776Y-94577278D01*
X122368777Y-94577279D01*
X122377780Y-94592872D01*
X122460960Y-94736944D01*
X122465378Y-94741851D01*
X122465379Y-94741852D01*
X122513455Y-94795246D01*
X122588747Y-94878866D01*
X122641885Y-94917473D01*
X122670692Y-94938403D01*
X122714046Y-94994626D01*
X122720121Y-95065362D01*
X122716464Y-95079274D01*
X122708501Y-95103782D01*
X122708500Y-95103789D01*
X122706458Y-95110072D01*
X122705768Y-95116638D01*
X122705767Y-95116642D01*
X122690058Y-95266109D01*
X122686496Y-95300000D01*
X122687186Y-95306565D01*
X122703854Y-95465149D01*
X122706458Y-95489928D01*
X122765473Y-95671556D01*
X122768776Y-95677278D01*
X122768777Y-95677279D01*
X122772291Y-95683365D01*
X122860960Y-95836944D01*
X122865378Y-95841851D01*
X122865379Y-95841852D01*
X122969958Y-95957999D01*
X122988747Y-95978866D01*
X123009806Y-95994166D01*
X123135247Y-96085305D01*
X123178601Y-96141528D01*
X123187186Y-96187241D01*
X123187186Y-96193435D01*
X123186496Y-96200000D01*
X123187186Y-96206565D01*
X123203450Y-96361305D01*
X123206458Y-96389928D01*
X123265473Y-96571556D01*
X123268776Y-96577278D01*
X123268777Y-96577279D01*
X123275965Y-96589729D01*
X123360960Y-96736944D01*
X123365378Y-96741851D01*
X123365379Y-96741852D01*
X123392196Y-96771635D01*
X123488747Y-96878866D01*
X123503751Y-96889767D01*
X123603584Y-96962300D01*
X123643248Y-96991118D01*
X123649276Y-96993802D01*
X123649278Y-96993803D01*
X123811681Y-97066109D01*
X123817712Y-97068794D01*
X123911113Y-97088647D01*
X123998056Y-97107128D01*
X123998061Y-97107128D01*
X124004513Y-97108500D01*
X124195487Y-97108500D01*
X124201939Y-97107128D01*
X124201944Y-97107128D01*
X124288887Y-97088647D01*
X124382288Y-97068794D01*
X124388319Y-97066109D01*
X124550722Y-96993803D01*
X124550724Y-96993802D01*
X124556752Y-96991118D01*
X124596417Y-96962300D01*
X124696249Y-96889767D01*
X124711253Y-96878866D01*
X124807804Y-96771635D01*
X124834621Y-96741852D01*
X124834622Y-96741851D01*
X124839040Y-96736944D01*
X124924035Y-96589729D01*
X124931223Y-96577279D01*
X124931224Y-96577278D01*
X124934527Y-96571556D01*
X124993542Y-96389928D01*
X124996551Y-96361305D01*
X125010907Y-96224707D01*
X125037920Y-96159050D01*
X125047122Y-96148782D01*
X126406937Y-94788968D01*
X127792253Y-93403652D01*
X127800539Y-93396112D01*
X127807018Y-93392000D01*
X127853644Y-93342348D01*
X127856398Y-93339507D01*
X127876135Y-93319770D01*
X127878615Y-93316573D01*
X127886320Y-93307551D01*
X127899576Y-93293435D01*
X127916586Y-93275321D01*
X127920405Y-93268375D01*
X127920407Y-93268372D01*
X127926348Y-93257566D01*
X127937199Y-93241047D01*
X127944758Y-93231301D01*
X127949614Y-93225041D01*
X127952759Y-93217772D01*
X127952762Y-93217768D01*
X127960035Y-93200960D01*
X128005445Y-93146386D01*
X128073152Y-93125025D01*
X128141659Y-93143661D01*
X128189216Y-93196376D01*
X128200982Y-93237829D01*
X128204192Y-93268372D01*
X128206458Y-93289928D01*
X128265473Y-93471556D01*
X128360960Y-93636944D01*
X128488747Y-93778866D01*
X128643248Y-93891118D01*
X128649276Y-93893802D01*
X128649278Y-93893803D01*
X128811681Y-93966109D01*
X128817712Y-93968794D01*
X128911113Y-93988647D01*
X128998056Y-94007128D01*
X128998061Y-94007128D01*
X129004513Y-94008500D01*
X129091405Y-94008500D01*
X129159526Y-94028502D01*
X129206019Y-94082158D01*
X129216123Y-94152432D01*
X129186629Y-94217012D01*
X129180500Y-94223595D01*
X128664500Y-94739595D01*
X128602188Y-94773621D01*
X128575405Y-94776500D01*
X128519513Y-94776500D01*
X128513061Y-94777872D01*
X128513056Y-94777872D01*
X128431320Y-94795246D01*
X128332712Y-94816206D01*
X128326682Y-94818891D01*
X128326681Y-94818891D01*
X128164278Y-94891197D01*
X128164276Y-94891198D01*
X128158248Y-94893882D01*
X128003747Y-95006134D01*
X127999326Y-95011044D01*
X127999325Y-95011045D01*
X127886830Y-95135984D01*
X127875960Y-95148056D01*
X127872659Y-95153774D01*
X127784120Y-95307128D01*
X127780473Y-95313444D01*
X127721458Y-95495072D01*
X127720768Y-95501633D01*
X127720768Y-95501635D01*
X127702186Y-95678435D01*
X127701496Y-95685000D01*
X127702186Y-95691565D01*
X127717982Y-95841852D01*
X127721458Y-95874928D01*
X127780473Y-96056556D01*
X127783776Y-96062278D01*
X127783777Y-96062279D01*
X127847191Y-96172114D01*
X127875960Y-96221944D01*
X127880378Y-96226851D01*
X127880379Y-96226852D01*
X127903617Y-96252660D01*
X127934334Y-96316668D01*
X127925571Y-96387121D01*
X127911916Y-96411034D01*
X127910384Y-96413143D01*
X127905960Y-96418056D01*
X127896412Y-96434593D01*
X127817337Y-96571556D01*
X127810473Y-96583444D01*
X127751458Y-96765072D01*
X127731496Y-96955000D01*
X127732186Y-96961565D01*
X127747849Y-97110586D01*
X127751458Y-97144928D01*
X127810473Y-97326556D01*
X127905960Y-97491944D01*
X127962439Y-97554670D01*
X127993156Y-97618678D01*
X127984391Y-97689131D01*
X127977921Y-97701979D01*
X127890473Y-97853444D01*
X127831458Y-98035072D01*
X127811496Y-98225000D01*
X127831458Y-98414928D01*
X127833498Y-98421206D01*
X127880422Y-98565624D01*
X127882449Y-98636592D01*
X127845787Y-98697389D01*
X127834650Y-98706496D01*
X127683747Y-98816134D01*
X127555960Y-98958056D01*
X127552659Y-98963774D01*
X127470431Y-99106197D01*
X127460473Y-99123444D01*
X127401458Y-99305072D01*
X127400768Y-99311633D01*
X127400768Y-99311635D01*
X127388743Y-99426045D01*
X127381496Y-99495000D01*
X127382186Y-99501565D01*
X127396894Y-99641500D01*
X127401458Y-99684928D01*
X127460473Y-99866556D01*
X127463776Y-99872278D01*
X127463777Y-99872279D01*
X127524527Y-99977500D01*
X127541265Y-100046495D01*
X127518045Y-100113587D01*
X127462238Y-100157474D01*
X127415408Y-100166500D01*
X122078767Y-100166500D01*
X122067584Y-100165973D01*
X122060091Y-100164298D01*
X122052165Y-100164547D01*
X122052164Y-100164547D01*
X121992014Y-100166438D01*
X121988055Y-100166500D01*
X121960144Y-100166500D01*
X121956210Y-100166997D01*
X121956209Y-100166997D01*
X121956144Y-100167005D01*
X121944307Y-100167938D01*
X121912490Y-100168938D01*
X121908029Y-100169078D01*
X121900110Y-100169327D01*
X121882454Y-100174456D01*
X121880658Y-100174978D01*
X121861306Y-100178986D01*
X121854235Y-100179880D01*
X121841203Y-100181526D01*
X121833834Y-100184443D01*
X121833832Y-100184444D01*
X121800097Y-100197800D01*
X121788869Y-100201645D01*
X121746407Y-100213982D01*
X121739584Y-100218017D01*
X121739582Y-100218018D01*
X121728972Y-100224293D01*
X121711224Y-100232988D01*
X121692383Y-100240448D01*
X121685967Y-100245110D01*
X121685966Y-100245110D01*
X121656613Y-100266436D01*
X121646693Y-100272952D01*
X121615465Y-100291420D01*
X121615462Y-100291422D01*
X121608638Y-100295458D01*
X121594317Y-100309779D01*
X121579284Y-100322619D01*
X121562893Y-100334528D01*
X121557840Y-100340636D01*
X121534708Y-100368598D01*
X121526718Y-100377378D01*
X121449501Y-100454595D01*
X121387189Y-100488621D01*
X121360406Y-100491500D01*
X121304513Y-100491500D01*
X121298061Y-100492872D01*
X121298056Y-100492872D01*
X121211112Y-100511353D01*
X121117712Y-100531206D01*
X121111682Y-100533891D01*
X121111681Y-100533891D01*
X120949278Y-100606197D01*
X120949276Y-100606198D01*
X120943248Y-100608882D01*
X120788747Y-100721134D01*
X120784326Y-100726044D01*
X120784325Y-100726045D01*
X120733017Y-100783029D01*
X120660960Y-100863056D01*
X120565473Y-101028444D01*
X120506458Y-101210072D01*
X120505768Y-101216633D01*
X120505768Y-101216635D01*
X120487186Y-101393435D01*
X120486496Y-101400000D01*
X119510776Y-101400000D01*
X119513370Y-82900000D01*
X121286496Y-82900000D01*
X121287186Y-82906565D01*
X121303996Y-83066500D01*
X121306458Y-83089928D01*
X121365473Y-83271556D01*
X121460960Y-83436944D01*
X121588747Y-83578866D01*
X121607744Y-83592668D01*
X121613428Y-83596798D01*
X121656782Y-83653021D01*
X121662857Y-83723757D01*
X121633003Y-83783044D01*
X121592073Y-83828502D01*
X121560960Y-83863056D01*
X121506056Y-83958153D01*
X121477424Y-84007745D01*
X121465473Y-84028444D01*
X121406458Y-84210072D01*
X121405768Y-84216633D01*
X121405768Y-84216635D01*
X121396466Y-84305137D01*
X121386496Y-84400000D01*
X121387186Y-84406565D01*
X121402199Y-84549402D01*
X121406458Y-84589928D01*
X121465473Y-84771556D01*
X121560960Y-84936944D01*
X121565378Y-84941851D01*
X121565379Y-84941852D01*
X121672137Y-85060419D01*
X121688747Y-85078866D01*
X121726156Y-85106045D01*
X121815882Y-85171235D01*
X121843248Y-85191118D01*
X121849276Y-85193802D01*
X121849278Y-85193803D01*
X122004824Y-85263056D01*
X122017712Y-85268794D01*
X122111113Y-85288647D01*
X122198056Y-85307128D01*
X122198061Y-85307128D01*
X122204513Y-85308500D01*
X122395487Y-85308500D01*
X122401939Y-85307128D01*
X122401944Y-85307128D01*
X122488887Y-85288647D01*
X122582288Y-85268794D01*
X122595176Y-85263056D01*
X122750722Y-85193803D01*
X122750724Y-85193802D01*
X122756752Y-85191118D01*
X122784119Y-85171235D01*
X122873844Y-85106045D01*
X122911253Y-85078866D01*
X122927863Y-85060419D01*
X123034621Y-84941852D01*
X123034622Y-84941851D01*
X123039040Y-84936944D01*
X123134527Y-84771556D01*
X123193542Y-84589928D01*
X123197802Y-84549402D01*
X123202385Y-84505791D01*
X123210907Y-84424706D01*
X123237920Y-84359050D01*
X123247122Y-84348782D01*
X123600499Y-83995405D01*
X123662811Y-83961379D01*
X123689594Y-83958500D01*
X124616800Y-83958500D01*
X124684921Y-83978502D01*
X124704147Y-83994843D01*
X124704420Y-83994540D01*
X124709332Y-83998963D01*
X124713747Y-84003866D01*
X124723695Y-84011094D01*
X124858289Y-84108882D01*
X124868248Y-84116118D01*
X124874276Y-84118802D01*
X124874278Y-84118803D01*
X125034687Y-84190221D01*
X125042712Y-84193794D01*
X125136113Y-84213647D01*
X125223056Y-84232128D01*
X125223061Y-84232128D01*
X125229513Y-84233500D01*
X125420487Y-84233500D01*
X125426939Y-84232128D01*
X125426944Y-84232128D01*
X125513887Y-84213647D01*
X125607288Y-84193794D01*
X125615313Y-84190221D01*
X125775722Y-84118803D01*
X125775724Y-84118802D01*
X125781752Y-84116118D01*
X125791712Y-84108882D01*
X125893774Y-84034729D01*
X125936253Y-84003866D01*
X125947359Y-83991532D01*
X126059621Y-83866852D01*
X126059622Y-83866851D01*
X126064040Y-83861944D01*
X126138197Y-83733500D01*
X126156223Y-83702279D01*
X126156224Y-83702278D01*
X126159527Y-83696556D01*
X126218542Y-83514928D01*
X126238504Y-83325000D01*
X126218542Y-83135072D01*
X126159527Y-82953444D01*
X126064040Y-82788056D01*
X125936253Y-82646134D01*
X125781752Y-82533882D01*
X125775724Y-82531198D01*
X125775722Y-82531197D01*
X125646453Y-82473643D01*
X125592357Y-82427663D01*
X125572392Y-82371705D01*
X125569232Y-82341636D01*
X125569232Y-82341635D01*
X125568542Y-82335072D01*
X125509527Y-82153444D01*
X125505194Y-82145938D01*
X125455922Y-82060598D01*
X125414040Y-81988056D01*
X125376619Y-81946495D01*
X125290675Y-81851045D01*
X125290674Y-81851044D01*
X125286253Y-81846134D01*
X125131752Y-81733882D01*
X125125724Y-81731198D01*
X125125722Y-81731197D01*
X124963319Y-81658891D01*
X124963318Y-81658891D01*
X124957288Y-81656206D01*
X124863887Y-81636353D01*
X124776944Y-81617872D01*
X124776939Y-81617872D01*
X124770487Y-81616500D01*
X124579513Y-81616500D01*
X124573061Y-81617872D01*
X124573056Y-81617872D01*
X124486113Y-81636353D01*
X124392712Y-81656206D01*
X124386682Y-81658891D01*
X124386681Y-81658891D01*
X124224278Y-81731197D01*
X124224276Y-81731198D01*
X124218248Y-81733882D01*
X124212907Y-81737762D01*
X124212906Y-81737763D01*
X124136281Y-81793435D01*
X124063747Y-81846134D01*
X124059332Y-81851037D01*
X124054420Y-81855460D01*
X124053295Y-81854211D01*
X123999986Y-81887051D01*
X123966800Y-81891500D01*
X122653767Y-81891500D01*
X122642584Y-81890973D01*
X122635091Y-81889298D01*
X122627165Y-81889547D01*
X122627164Y-81889547D01*
X122567014Y-81891438D01*
X122563055Y-81891500D01*
X122535144Y-81891500D01*
X122531210Y-81891997D01*
X122531209Y-81891997D01*
X122531144Y-81892005D01*
X122519307Y-81892938D01*
X122487490Y-81893938D01*
X122483029Y-81894078D01*
X122475110Y-81894327D01*
X122457454Y-81899456D01*
X122455658Y-81899978D01*
X122436306Y-81903986D01*
X122429235Y-81904880D01*
X122416203Y-81906526D01*
X122408834Y-81909443D01*
X122408832Y-81909444D01*
X122375097Y-81922800D01*
X122363869Y-81926645D01*
X122321407Y-81938982D01*
X122314584Y-81943017D01*
X122314582Y-81943018D01*
X122303972Y-81949293D01*
X122286224Y-81957988D01*
X122267383Y-81965448D01*
X122260971Y-81970107D01*
X122254018Y-81973929D01*
X122252776Y-81971670D01*
X122197784Y-81991294D01*
X122190585Y-81991500D01*
X122104513Y-81991500D01*
X122098061Y-81992872D01*
X122098056Y-81992872D01*
X122011112Y-82011353D01*
X121917712Y-82031206D01*
X121911682Y-82033891D01*
X121911681Y-82033891D01*
X121749278Y-82106197D01*
X121749276Y-82106198D01*
X121743248Y-82108882D01*
X121588747Y-82221134D01*
X121584326Y-82226044D01*
X121584325Y-82226045D01*
X121480247Y-82341636D01*
X121460960Y-82363056D01*
X121365473Y-82528444D01*
X121306458Y-82710072D01*
X121305768Y-82716633D01*
X121305768Y-82716635D01*
X121304527Y-82728444D01*
X121286496Y-82900000D01*
X119513370Y-82900000D01*
X119515100Y-70556463D01*
X119516600Y-70537097D01*
X119518912Y-70522251D01*
X119518912Y-70522245D01*
X119520293Y-70513376D01*
X119519129Y-70504474D01*
X119519129Y-70504470D01*
X119519116Y-70504374D01*
X119518845Y-70473937D01*
X119525853Y-70411732D01*
X119532132Y-70384222D01*
X119540536Y-70360207D01*
X119559141Y-70307035D01*
X119571383Y-70281616D01*
X119614894Y-70212369D01*
X119632486Y-70190310D01*
X119690310Y-70132486D01*
X119712369Y-70114894D01*
X119781616Y-70071383D01*
X119807037Y-70059141D01*
X119884224Y-70032132D01*
X119911731Y-70025853D01*
X119935679Y-70023155D01*
X119967363Y-70019585D01*
X119983004Y-70018802D01*
X119991962Y-70018911D01*
X120000836Y-70020293D01*
X120032358Y-70016171D01*
X120048695Y-70015107D01*
X164943566Y-70015107D01*
X164962950Y-70016607D01*
G37*
%TD.AperFunction*%
%TA.AperFunction,Conductor*%
G36*
X159359921Y-84653502D02*
G01*
X159379147Y-84669843D01*
X159379420Y-84669540D01*
X159384332Y-84673963D01*
X159388747Y-84678866D01*
X159543248Y-84791118D01*
X159549276Y-84793802D01*
X159549278Y-84793803D01*
X159672346Y-84848596D01*
X159717712Y-84868794D01*
X159823093Y-84891194D01*
X159834894Y-84893702D01*
X159897367Y-84927431D01*
X159931689Y-84989580D01*
X159926961Y-85060419D01*
X159884685Y-85117457D01*
X159818284Y-85142584D01*
X159808697Y-85142949D01*
X153462479Y-85142949D01*
X153394358Y-85122947D01*
X153373384Y-85106045D01*
X153115934Y-84848595D01*
X153081909Y-84786283D01*
X153086973Y-84715468D01*
X153129520Y-84658632D01*
X153196040Y-84633821D01*
X153205029Y-84633500D01*
X159291800Y-84633500D01*
X159359921Y-84653502D01*
G37*
%TD.AperFunction*%
%TA.AperFunction,Conductor*%
G36*
X165652773Y-83753502D02*
G01*
X165699266Y-83807158D01*
X165709370Y-83877432D01*
X165678289Y-83943810D01*
X165660960Y-83963056D01*
X165565473Y-84128444D01*
X165506458Y-84310072D01*
X165505769Y-84316631D01*
X165505768Y-84316634D01*
X165493573Y-84432670D01*
X165492698Y-84440996D01*
X165489093Y-84475292D01*
X165462080Y-84540949D01*
X165452878Y-84551217D01*
X164898051Y-85106044D01*
X164835739Y-85140070D01*
X164808956Y-85142949D01*
X160191303Y-85142949D01*
X160123182Y-85122947D01*
X160076689Y-85069291D01*
X160066585Y-84999017D01*
X160096079Y-84934437D01*
X160155805Y-84896053D01*
X160165106Y-84893702D01*
X160176907Y-84891194D01*
X160282288Y-84868794D01*
X160327654Y-84848596D01*
X160450722Y-84793803D01*
X160450724Y-84793802D01*
X160456752Y-84791118D01*
X160611253Y-84678866D01*
X160666880Y-84617086D01*
X160734621Y-84541852D01*
X160734622Y-84541851D01*
X160739040Y-84536944D01*
X160803840Y-84424707D01*
X160831223Y-84377279D01*
X160831224Y-84377278D01*
X160834527Y-84371556D01*
X160893542Y-84189928D01*
X160894249Y-84183207D01*
X160912814Y-84006565D01*
X160913504Y-84000000D01*
X160900121Y-83872670D01*
X160912893Y-83802832D01*
X160961395Y-83750986D01*
X161025431Y-83733500D01*
X165584652Y-83733500D01*
X165652773Y-83753502D01*
G37*
%TD.AperFunction*%
%TD*%
M02*
