%TF.GenerationSoftware,KiCad,Pcbnew,(6.0.2)*%
%TF.CreationDate,2022-04-24T17:27:10+01:00*%
%TF.ProjectId,Gameboy MBC5 Cart + FRAM,47616d65-626f-4792-904d-424335204361,rev?*%
%TF.SameCoordinates,Original*%
%TF.FileFunction,Profile,NP*%
%FSLAX46Y46*%
G04 Gerber Fmt 4.6, Leading zero omitted, Abs format (unit mm)*
G04 Created by KiCad (PCBNEW (6.0.2)) date 2022-04-24 17:27:10*
%MOMM*%
%LPD*%
G01*
G04 APERTURE LIST*
%TA.AperFunction,Profile*%
%ADD10C,0.100000*%
%TD*%
G04 APERTURE END LIST*
D10*
X169999999Y-72500001D02*
G75*
G03*
X168999999Y-71500001I-999999J1D01*
G01*
X120007107Y-69507107D02*
G75*
G03*
X119007107Y-70507107I-1J-999999D01*
G01*
X168000000Y-130500000D02*
G75*
G03*
X169200000Y-129300000I0J1200000D01*
G01*
X119800000Y-121800000D02*
X119800000Y-129200000D01*
X169400000Y-121600000D02*
G75*
G03*
X169200000Y-121800000I1J-200001D01*
G01*
X169500000Y-121600000D02*
G75*
G03*
X170000000Y-121100000I-1J500001D01*
G01*
X145500000Y-89500000D02*
G75*
G03*
X145500000Y-89500000I-1000000J0D01*
G01*
X170000000Y-121100000D02*
X169999999Y-72500001D01*
X121100000Y-130500000D02*
X168000000Y-130500000D01*
X119400000Y-121600000D02*
X119600000Y-121600000D01*
X168996446Y-71501777D02*
X167003554Y-71498223D01*
X169200000Y-121800000D02*
X169200000Y-129300000D01*
X169500000Y-121600000D02*
X169400000Y-121600000D01*
X148000000Y-114900000D02*
G75*
G03*
X148000000Y-114900000I-3500000J0D01*
G01*
X165992893Y-70507107D02*
G75*
G03*
X164992893Y-69507107I-999999J1D01*
G01*
X119000000Y-121200000D02*
X119007107Y-70507107D01*
X119800000Y-129200000D02*
G75*
G03*
X121100000Y-130500000I1299999J-1D01*
G01*
X119800000Y-121800000D02*
G75*
G03*
X119600000Y-121600000I-200001J-1D01*
G01*
X119000000Y-121200000D02*
G75*
G03*
X119400000Y-121600000I399999J-1D01*
G01*
X166003554Y-70498223D02*
G75*
G03*
X167003554Y-71498223I999999J-1D01*
G01*
X120007107Y-69507107D02*
X164992893Y-69507107D01*
M02*
