%TF.GenerationSoftware,KiCad,Pcbnew,(6.0.2)*%
%TF.CreationDate,2022-04-24T17:27:09+01:00*%
%TF.ProjectId,Gameboy MBC5 Cart + FRAM,47616d65-626f-4792-904d-424335204361,rev?*%
%TF.SameCoordinates,Original*%
%TF.FileFunction,Legend,Top*%
%TF.FilePolarity,Positive*%
%FSLAX46Y46*%
G04 Gerber Fmt 4.6, Leading zero omitted, Abs format (unit mm)*
G04 Created by KiCad (PCBNEW (6.0.2)) date 2022-04-24 17:27:09*
%MOMM*%
%LPD*%
G01*
G04 APERTURE LIST*
%ADD10C,0.250000*%
%ADD11C,0.300000*%
%ADD12C,0.120000*%
%ADD13C,0.100000*%
%ADD14C,0.010000*%
%ADD15C,0.500000*%
G04 APERTURE END LIST*
D10*
X162552380Y-103019047D02*
X163266666Y-103019047D01*
X163409523Y-103066666D01*
X163504761Y-103161904D01*
X163552380Y-103304761D01*
X163552380Y-103400000D01*
X163552380Y-102066666D02*
X163552380Y-102542857D01*
X162552380Y-102542857D01*
X163457142Y-101161904D02*
X163504761Y-101209523D01*
X163552380Y-101352380D01*
X163552380Y-101447619D01*
X163504761Y-101590476D01*
X163409523Y-101685714D01*
X163314285Y-101733333D01*
X163123809Y-101780952D01*
X162980952Y-101780952D01*
X162790476Y-101733333D01*
X162695238Y-101685714D01*
X162600000Y-101590476D01*
X162552380Y-101447619D01*
X162552380Y-101352380D01*
X162600000Y-101209523D01*
X162647619Y-101161904D01*
X162552380Y-100447619D02*
X163266666Y-100447619D01*
X163409523Y-100495238D01*
X163504761Y-100590476D01*
X163552380Y-100733333D01*
X163552380Y-100828571D01*
X163552380Y-99495238D02*
X163552380Y-99971428D01*
X162552380Y-99971428D01*
X163457142Y-98590476D02*
X163504761Y-98638095D01*
X163552380Y-98780952D01*
X163552380Y-98876190D01*
X163504761Y-99019047D01*
X163409523Y-99114285D01*
X163314285Y-99161904D01*
X163123809Y-99209523D01*
X162980952Y-99209523D01*
X162790476Y-99161904D01*
X162695238Y-99114285D01*
X162600000Y-99019047D01*
X162552380Y-98876190D01*
X162552380Y-98780952D01*
X162600000Y-98638095D01*
X162647619Y-98590476D01*
X162552380Y-97876190D02*
X163266666Y-97876190D01*
X163409523Y-97923809D01*
X163504761Y-98019047D01*
X163552380Y-98161904D01*
X163552380Y-98257142D01*
X163552380Y-96923809D02*
X163552380Y-97400000D01*
X162552380Y-97400000D01*
X163457142Y-96019047D02*
X163504761Y-96066666D01*
X163552380Y-96209523D01*
X163552380Y-96304761D01*
X163504761Y-96447619D01*
X163409523Y-96542857D01*
X163314285Y-96590476D01*
X163123809Y-96638095D01*
X162980952Y-96638095D01*
X162790476Y-96590476D01*
X162695238Y-96542857D01*
X162600000Y-96447619D01*
X162552380Y-96304761D01*
X162552380Y-96209523D01*
X162600000Y-96066666D01*
X162647619Y-96019047D01*
X162552380Y-95304761D02*
X163266666Y-95304761D01*
X163409523Y-95352380D01*
X163504761Y-95447619D01*
X163552380Y-95590476D01*
X163552380Y-95685714D01*
X163552380Y-94352380D02*
X163552380Y-94828571D01*
X162552380Y-94828571D01*
X163457142Y-93447619D02*
X163504761Y-93495238D01*
X163552380Y-93638095D01*
X163552380Y-93733333D01*
X163504761Y-93876190D01*
X163409523Y-93971428D01*
X163314285Y-94019047D01*
X163123809Y-94066666D01*
X162980952Y-94066666D01*
X162790476Y-94019047D01*
X162695238Y-93971428D01*
X162600000Y-93876190D01*
X162552380Y-93733333D01*
X162552380Y-93638095D01*
X162600000Y-93495238D01*
X162647619Y-93447619D01*
D11*
%TO.C,LOGO*%
X151813142Y-68889428D02*
X151087428Y-68889428D01*
X151087428Y-67365428D01*
X152611428Y-67365428D02*
X152901714Y-67365428D01*
X153046857Y-67438000D01*
X153192000Y-67583142D01*
X153264571Y-67873428D01*
X153264571Y-68381428D01*
X153192000Y-68671714D01*
X153046857Y-68816857D01*
X152901714Y-68889428D01*
X152611428Y-68889428D01*
X152466285Y-68816857D01*
X152321142Y-68671714D01*
X152248571Y-68381428D01*
X152248571Y-67873428D01*
X152321142Y-67583142D01*
X152466285Y-67438000D01*
X152611428Y-67365428D01*
X154716000Y-67438000D02*
X154570857Y-67365428D01*
X154353142Y-67365428D01*
X154135428Y-67438000D01*
X153990285Y-67583142D01*
X153917714Y-67728285D01*
X153845142Y-68018571D01*
X153845142Y-68236285D01*
X153917714Y-68526571D01*
X153990285Y-68671714D01*
X154135428Y-68816857D01*
X154353142Y-68889428D01*
X154498285Y-68889428D01*
X154716000Y-68816857D01*
X154788571Y-68744285D01*
X154788571Y-68236285D01*
X154498285Y-68236285D01*
X155732000Y-67365428D02*
X156022285Y-67365428D01*
X156167428Y-67438000D01*
X156312571Y-67583142D01*
X156385142Y-67873428D01*
X156385142Y-68381428D01*
X156312571Y-68671714D01*
X156167428Y-68816857D01*
X156022285Y-68889428D01*
X155732000Y-68889428D01*
X155586857Y-68816857D01*
X155441714Y-68671714D01*
X155369142Y-68381428D01*
X155369142Y-67873428D01*
X155441714Y-67583142D01*
X155586857Y-67438000D01*
X155732000Y-67365428D01*
D12*
%TO.C,C3*%
X157746267Y-113890000D02*
X157453733Y-113890000D01*
X157746267Y-114910000D02*
X157453733Y-114910000D01*
%TO.C,U1*%
X131200000Y-92340000D02*
X135060000Y-92340000D01*
X131200000Y-110460000D02*
X127340000Y-110460000D01*
X131200000Y-92340000D02*
X127340000Y-92340000D01*
X127340000Y-92340000D02*
X127340000Y-92585000D01*
X135060000Y-92340000D02*
X135060000Y-92585000D01*
X135060000Y-110460000D02*
X135060000Y-110215000D01*
X131200000Y-110460000D02*
X135060000Y-110460000D01*
X127340000Y-92585000D02*
X125525000Y-92585000D01*
X127340000Y-110460000D02*
X127340000Y-110215000D01*
%TO.C,C2*%
X142010000Y-92446267D02*
X142010000Y-92153733D01*
X140990000Y-92446267D02*
X140990000Y-92153733D01*
%TO.C,C1*%
X128853733Y-74810000D02*
X129146267Y-74810000D01*
X128853733Y-73790000D02*
X129146267Y-73790000D01*
D13*
%TO.C,U3*%
X164820000Y-108500000D02*
X164820000Y-89100000D01*
D12*
X152580000Y-90100000D02*
X152580000Y-108500000D01*
%TO.C,R2*%
X163554724Y-115977500D02*
X163045276Y-115977500D01*
X163554724Y-117022500D02*
X163045276Y-117022500D01*
%TO.C,C4*%
X158146267Y-85190000D02*
X157853733Y-85190000D01*
X158146267Y-86210000D02*
X157853733Y-86210000D01*
%TO.C,R1*%
X140854724Y-96022500D02*
X140345276Y-96022500D01*
X140854724Y-94977500D02*
X140345276Y-94977500D01*
D14*
%TO.C,U2*%
X134700000Y-84500000D02*
X134700000Y-78150000D01*
X130100000Y-77830000D02*
X130550000Y-77830000D01*
X134880000Y-81500000D02*
X134700000Y-81500000D01*
X130550000Y-84680000D02*
X130550000Y-84500000D01*
X134880000Y-83100000D02*
X135020000Y-83100000D01*
X128170000Y-78750000D02*
X128030000Y-78750000D01*
X128030000Y-78750000D02*
X128030000Y-78300000D01*
X133750000Y-84680000D02*
X133750000Y-84500000D01*
X132500000Y-77970000D02*
X132500000Y-77830000D01*
X128350000Y-78149940D02*
X128350000Y-84500007D01*
X128950000Y-84680000D02*
X128950000Y-84500000D01*
X128170000Y-82750000D02*
X128350000Y-82750000D01*
X133750000Y-84820000D02*
X133300000Y-84820000D01*
X128030000Y-80350000D02*
X128030000Y-79900000D01*
X128030000Y-83900000D02*
X128030000Y-84350000D01*
X131700000Y-77970000D02*
X131700000Y-78150000D01*
X128030000Y-83550000D02*
X128030000Y-83100000D01*
X128030000Y-83100000D02*
X128350000Y-83100000D01*
X128950000Y-84820000D02*
X128500000Y-84820000D01*
X134880000Y-79100000D02*
X134700000Y-79100000D01*
X135020000Y-80350000D02*
X134700000Y-80350000D01*
X128170000Y-81150000D02*
X128030000Y-81150000D01*
X134880000Y-83900000D02*
X134700000Y-83900000D01*
X128950000Y-77830000D02*
X128950000Y-78150000D01*
X128170000Y-83550000D02*
X128030000Y-83550000D01*
X128170000Y-79550000D02*
X128030000Y-79550000D01*
X128170000Y-81950000D02*
X128030000Y-81950000D01*
X128950000Y-84680000D02*
X128950000Y-84820000D01*
X128170000Y-80350000D02*
X128350000Y-80350000D01*
X135020000Y-79100000D02*
X135020000Y-79550000D01*
X128500000Y-78150000D02*
X128500000Y-77830000D01*
X134880000Y-81500000D02*
X135020000Y-81500000D01*
X135020000Y-81950000D02*
X134700000Y-81950000D01*
X135020000Y-79550000D02*
X134700000Y-79550000D01*
X132150000Y-84820000D02*
X131700000Y-84820000D01*
X130900000Y-84820000D02*
X130900000Y-84500000D01*
X135020000Y-84350000D02*
X134700000Y-84350000D01*
X134100000Y-77830000D02*
X134550000Y-77830000D01*
X128170000Y-80350000D02*
X128030000Y-80350000D01*
X132500000Y-77970000D02*
X132500000Y-78150000D01*
X129300000Y-84820000D02*
X129300000Y-84500000D01*
X130900000Y-77970000D02*
X130900000Y-78150000D01*
X134880000Y-79100000D02*
X135020000Y-79100000D01*
X132500000Y-84820000D02*
X132500000Y-84500000D01*
X134100000Y-77970000D02*
X134100000Y-78150000D01*
X130900000Y-77830000D02*
X131350000Y-77830000D01*
X128170000Y-78750000D02*
X128350000Y-78750000D01*
X131350000Y-84820000D02*
X130900000Y-84820000D01*
X131350000Y-84680000D02*
X131350000Y-84500000D01*
X130550000Y-84820000D02*
X130100000Y-84820000D01*
X134880000Y-83100000D02*
X134700000Y-83100000D01*
X128030000Y-81150000D02*
X128030000Y-80700000D01*
X133300000Y-77970000D02*
X133300000Y-78150000D01*
X132950000Y-84680000D02*
X132950000Y-84820000D01*
X132950000Y-84680000D02*
X132950000Y-84500000D01*
X135020000Y-83900000D02*
X135020000Y-84350000D01*
X133300000Y-77830000D02*
X133750000Y-77830000D01*
X134880000Y-82300000D02*
X134700000Y-82300000D01*
X128030000Y-79100000D02*
X128350000Y-79100000D01*
X131700000Y-77830000D02*
X132150000Y-77830000D01*
X130100000Y-77970000D02*
X130100000Y-78150000D01*
X135020000Y-78750000D02*
X135020000Y-78300000D01*
X128030000Y-81500000D02*
X128350000Y-81500000D01*
X135020000Y-78750000D02*
X134700000Y-78750000D01*
X134700007Y-78150000D02*
X128350000Y-78150000D01*
X130550000Y-84680000D02*
X130550000Y-84820000D01*
X128170000Y-79550000D02*
X128350000Y-79550000D01*
X134880000Y-79900000D02*
X134700000Y-79900000D01*
X131700000Y-77970000D02*
X131700000Y-77830000D01*
X133300000Y-84820000D02*
X133300000Y-84500000D01*
X134880000Y-80700000D02*
X134700000Y-80700000D01*
X129300000Y-77830000D02*
X129750000Y-77830000D01*
X130100000Y-77970000D02*
X130100000Y-77830000D01*
X128350000Y-84350000D02*
X128030000Y-84350000D01*
X128030000Y-80700000D02*
X128350000Y-80700000D01*
X128030000Y-78300000D02*
X128350000Y-78300000D01*
X129750000Y-77830000D02*
X129750000Y-78150000D01*
X134880000Y-79900000D02*
X135020000Y-79900000D01*
X129750000Y-84680000D02*
X129750000Y-84820000D01*
X133300000Y-77970000D02*
X133300000Y-77830000D01*
X132500000Y-77830000D02*
X132950000Y-77830000D01*
X129300000Y-77970000D02*
X129300000Y-78150000D01*
X135020000Y-81500000D02*
X135020000Y-81950000D01*
X128030000Y-79550000D02*
X128030000Y-79100000D01*
X135020000Y-82300000D02*
X135020000Y-82750000D01*
X128030000Y-79900000D02*
X128350000Y-79900000D01*
X128500000Y-84820000D02*
X128500000Y-84500000D01*
X135020000Y-83550000D02*
X134700000Y-83550000D01*
X132150000Y-84680000D02*
X132150000Y-84500000D01*
X135020000Y-80700000D02*
X135020000Y-81150000D01*
X132950000Y-84820000D02*
X132500000Y-84820000D01*
X128030000Y-81950000D02*
X128030000Y-81500000D01*
X134100000Y-84820000D02*
X134100000Y-84500000D01*
X129750000Y-84680000D02*
X129750000Y-84500000D01*
X135020000Y-79900000D02*
X135020000Y-80350000D01*
X131350000Y-84680000D02*
X131350000Y-84820000D01*
X131700000Y-84820000D02*
X131700000Y-84500000D01*
X128030000Y-82300000D02*
X128350000Y-82300000D01*
X132150000Y-84680000D02*
X132150000Y-84820000D01*
X129750000Y-84820000D02*
X129300000Y-84820000D01*
X133750000Y-84680000D02*
X133750000Y-84820000D01*
X135020000Y-81150000D02*
X134700000Y-81150000D01*
X134100000Y-77970000D02*
X134100000Y-77830000D01*
X134550000Y-77830000D02*
X134550000Y-78150000D01*
X128030000Y-83900000D02*
X128350000Y-83900000D01*
X131350000Y-77830000D02*
X131350000Y-78150000D01*
X132950000Y-77830000D02*
X132950000Y-78150000D01*
X129300000Y-77970000D02*
X129300000Y-77830000D01*
X128030000Y-82750000D02*
X128030000Y-82300000D01*
X134100000Y-84820000D02*
X134550000Y-84820000D01*
X132150000Y-77830000D02*
X132150000Y-78150000D01*
X128950000Y-77830000D02*
X128500000Y-77830000D01*
X134880000Y-80700000D02*
X135020000Y-80700000D01*
X133750000Y-77830000D02*
X133750000Y-78150000D01*
X128170000Y-81950000D02*
X128350000Y-81950000D01*
X134700000Y-78300000D02*
X135020000Y-78300000D01*
X135020000Y-83100000D02*
X135020000Y-83550000D01*
X134880000Y-83900000D02*
X135020000Y-83900000D01*
X130100000Y-84820000D02*
X130100000Y-84500000D01*
X135020000Y-82750000D02*
X134700000Y-82750000D01*
X130900000Y-77970000D02*
X130900000Y-77830000D01*
X128170000Y-82750000D02*
X128030000Y-82750000D01*
X134880000Y-82300000D02*
X135020000Y-82300000D01*
X130550000Y-77830000D02*
X130550000Y-78150000D01*
X128170000Y-83550000D02*
X128350000Y-83550000D01*
X128350000Y-84500000D02*
X134700000Y-84500000D01*
X128170000Y-81150000D02*
X128350000Y-81150000D01*
X134550000Y-84500000D02*
X134550000Y-84820000D01*
D15*
X128905000Y-83950000D02*
G75*
G03*
X128905000Y-83950000I0J0D01*
G01*
%TD*%
M02*
