%TF.GenerationSoftware,KiCad,Pcbnew,(6.0.2)*%
%TF.CreationDate,2022-04-24T17:27:09+01:00*%
%TF.ProjectId,Gameboy MBC5 Cart + FRAM,47616d65-626f-4792-904d-424335204361,rev?*%
%TF.SameCoordinates,Original*%
%TF.FileFunction,Paste,Top*%
%TF.FilePolarity,Positive*%
%FSLAX46Y46*%
G04 Gerber Fmt 4.6, Leading zero omitted, Abs format (unit mm)*
G04 Created by KiCad (PCBNEW (6.0.2)) date 2022-04-24 17:27:09*
%MOMM*%
%LPD*%
G01*
G04 APERTURE LIST*
G04 Aperture macros list*
%AMRoundRect*
0 Rectangle with rounded corners*
0 $1 Rounding radius*
0 $2 $3 $4 $5 $6 $7 $8 $9 X,Y pos of 4 corners*
0 Add a 4 corners polygon primitive as box body*
4,1,4,$2,$3,$4,$5,$6,$7,$8,$9,$2,$3,0*
0 Add four circle primitives for the rounded corners*
1,1,$1+$1,$2,$3*
1,1,$1+$1,$4,$5*
1,1,$1+$1,$6,$7*
1,1,$1+$1,$8,$9*
0 Add four rect primitives between the rounded corners*
20,1,$1+$1,$2,$3,$4,$5,0*
20,1,$1+$1,$4,$5,$6,$7,0*
20,1,$1+$1,$6,$7,$8,$9,0*
20,1,$1+$1,$8,$9,$2,$3,0*%
G04 Aperture macros list end*
%ADD10RoundRect,0.237500X0.300000X0.237500X-0.300000X0.237500X-0.300000X-0.237500X0.300000X-0.237500X0*%
%ADD11RoundRect,0.150000X-0.875000X-0.150000X0.875000X-0.150000X0.875000X0.150000X-0.875000X0.150000X0*%
%ADD12RoundRect,0.237500X0.237500X-0.300000X0.237500X0.300000X-0.237500X0.300000X-0.237500X-0.300000X0*%
%ADD13RoundRect,0.237500X-0.300000X-0.237500X0.300000X-0.237500X0.300000X0.237500X-0.300000X0.237500X0*%
%ADD14R,0.750000X1.100000*%
%ADD15R,0.250000X1.100000*%
%ADD16RoundRect,0.237500X0.250000X0.237500X-0.250000X0.237500X-0.250000X-0.237500X0.250000X-0.237500X0*%
%ADD17R,0.450000X1.500000*%
%ADD18R,1.500000X0.450000*%
G04 APERTURE END LIST*
D10*
%TO.C,C3*%
X158462500Y-114400000D03*
X156737500Y-114400000D03*
%TD*%
D11*
%TO.C,U1*%
X126550000Y-93145000D03*
X126550000Y-94415000D03*
X126550000Y-95685000D03*
X126550000Y-96955000D03*
X126550000Y-98225000D03*
X126550000Y-99495000D03*
X126550000Y-100765000D03*
X126550000Y-102035000D03*
X126550000Y-103305000D03*
X126550000Y-104575000D03*
X126550000Y-105845000D03*
X126550000Y-107115000D03*
X126550000Y-108385000D03*
X126550000Y-109655000D03*
X135850000Y-109655000D03*
X135850000Y-108385000D03*
X135850000Y-107115000D03*
X135850000Y-105845000D03*
X135850000Y-104575000D03*
X135850000Y-103305000D03*
X135850000Y-102035000D03*
X135850000Y-100765000D03*
X135850000Y-99495000D03*
X135850000Y-98225000D03*
X135850000Y-96955000D03*
X135850000Y-95685000D03*
X135850000Y-94415000D03*
X135850000Y-93145000D03*
%TD*%
D12*
%TO.C,C2*%
X141500000Y-93162500D03*
X141500000Y-91437500D03*
%TD*%
D13*
%TO.C,C1*%
X128137500Y-74300000D03*
X129862500Y-74300000D03*
%TD*%
D14*
%TO.C,U3*%
X164200000Y-89550000D03*
D15*
X163450000Y-89550000D03*
X162950000Y-89550000D03*
X162450000Y-89550000D03*
X161950000Y-89550000D03*
X161450000Y-89550000D03*
X160950000Y-89550000D03*
X160450000Y-89550000D03*
X159950000Y-89550000D03*
X159450000Y-89550000D03*
X158950000Y-89550000D03*
X158450000Y-89550000D03*
X157950000Y-89550000D03*
X157450000Y-89550000D03*
X156950000Y-89550000D03*
X156450000Y-89550000D03*
X155950000Y-89550000D03*
X155450000Y-89550000D03*
X154950000Y-89550000D03*
X154450000Y-89550000D03*
X153950000Y-89550000D03*
D14*
X153200000Y-89550000D03*
X153200000Y-109050000D03*
D15*
X153950000Y-109050000D03*
X154450000Y-109050000D03*
X154950000Y-109050000D03*
X155450000Y-109050000D03*
X155950000Y-109050000D03*
X156450000Y-109050000D03*
X156950000Y-109050000D03*
X157450000Y-109050000D03*
X157950000Y-109050000D03*
X158450000Y-109050000D03*
X158950000Y-109050000D03*
X159450000Y-109050000D03*
X159950000Y-109050000D03*
X160450000Y-109050000D03*
X160950000Y-109050000D03*
X161450000Y-109050000D03*
X161950000Y-109050000D03*
X162450000Y-109050000D03*
X162950000Y-109050000D03*
X163450000Y-109050000D03*
D14*
X164200000Y-109050000D03*
%TD*%
D16*
%TO.C,R2*%
X164212500Y-116500000D03*
X162387500Y-116500000D03*
%TD*%
D10*
%TO.C,C4*%
X158862500Y-85700000D03*
X157137500Y-85700000D03*
%TD*%
D16*
%TO.C,R1*%
X141512500Y-95500000D03*
X139687500Y-95500000D03*
%TD*%
D17*
%TO.C,U2*%
X128725000Y-85570000D03*
X129525000Y-85570000D03*
X130325000Y-85570000D03*
X131125000Y-85570000D03*
X131925000Y-85570000D03*
X132725000Y-85570000D03*
X133525000Y-85570000D03*
X134325000Y-85570000D03*
D18*
X135770000Y-84125000D03*
X135770000Y-83325000D03*
X135770000Y-82525000D03*
X135770000Y-81725000D03*
X135770000Y-80925000D03*
X135770000Y-80125000D03*
X135770000Y-79325000D03*
X135770000Y-78525000D03*
D17*
X134325000Y-77080000D03*
X133525000Y-77080000D03*
X132725000Y-77080000D03*
X131925000Y-77080000D03*
X131125000Y-77080000D03*
X130325000Y-77080000D03*
X129525000Y-77080000D03*
X128725000Y-77080000D03*
D18*
X127280000Y-78525000D03*
X127280000Y-79325000D03*
X127280000Y-80125000D03*
X127280000Y-80925000D03*
X127280000Y-81725000D03*
X127280000Y-82525000D03*
X127280000Y-83325000D03*
X127280000Y-84125000D03*
%TD*%
M02*
