%TF.GenerationSoftware,KiCad,Pcbnew,(6.0.2)*%
%TF.CreationDate,2022-04-24T17:27:09+01:00*%
%TF.ProjectId,Gameboy MBC5 Cart + FRAM,47616d65-626f-4792-904d-424335204361,rev?*%
%TF.SameCoordinates,Original*%
%TF.FileFunction,Copper,L1,Top*%
%TF.FilePolarity,Positive*%
%FSLAX46Y46*%
G04 Gerber Fmt 4.6, Leading zero omitted, Abs format (unit mm)*
G04 Created by KiCad (PCBNEW (6.0.2)) date 2022-04-24 17:27:09*
%MOMM*%
%LPD*%
G01*
G04 APERTURE LIST*
G04 Aperture macros list*
%AMRoundRect*
0 Rectangle with rounded corners*
0 $1 Rounding radius*
0 $2 $3 $4 $5 $6 $7 $8 $9 X,Y pos of 4 corners*
0 Add a 4 corners polygon primitive as box body*
4,1,4,$2,$3,$4,$5,$6,$7,$8,$9,$2,$3,0*
0 Add four circle primitives for the rounded corners*
1,1,$1+$1,$2,$3*
1,1,$1+$1,$4,$5*
1,1,$1+$1,$6,$7*
1,1,$1+$1,$8,$9*
0 Add four rect primitives between the rounded corners*
20,1,$1+$1,$2,$3,$4,$5,0*
20,1,$1+$1,$4,$5,$6,$7,0*
20,1,$1+$1,$6,$7,$8,$9,0*
20,1,$1+$1,$8,$9,$2,$3,0*%
%AMFreePoly0*
4,1,10,0.750000,-6.800000,0.450000,-6.800000,0.450000,-7.500000,0.050000,-7.500000,0.050000,-6.800000,-0.250000,-6.800000,-0.750000,-6.300000,-0.750000,0.500000,0.750000,0.500000,0.750000,-6.800000,0.750000,-6.800000,$1*%
%AMFreePoly1*
4,1,9,0.500000,-6.800000,0.200000,-6.800000,0.200000,-7.500000,-0.200000,-7.500000,-0.200000,-6.800000,-0.500000,-6.800000,-0.500000,0.500000,0.500000,0.500000,0.500000,-6.800000,0.500000,-6.800000,$1*%
%AMFreePoly2*
4,1,10,0.750000,-6.300000,0.250000,-6.800000,-0.050000,-6.800000,-0.050000,-7.500000,-0.450000,-7.500000,-0.450000,-6.800000,-0.750000,-6.800000,-0.750000,0.500000,0.750000,0.500000,0.750000,-6.300000,0.750000,-6.300000,$1*%
G04 Aperture macros list end*
%TA.AperFunction,SMDPad,CuDef*%
%ADD10RoundRect,0.237500X0.300000X0.237500X-0.300000X0.237500X-0.300000X-0.237500X0.300000X-0.237500X0*%
%TD*%
%TA.AperFunction,SMDPad,CuDef*%
%ADD11RoundRect,0.150000X-0.875000X-0.150000X0.875000X-0.150000X0.875000X0.150000X-0.875000X0.150000X0*%
%TD*%
%TA.AperFunction,SMDPad,CuDef*%
%ADD12RoundRect,0.237500X0.237500X-0.300000X0.237500X0.300000X-0.237500X0.300000X-0.237500X-0.300000X0*%
%TD*%
%TA.AperFunction,SMDPad,CuDef*%
%ADD13RoundRect,0.237500X-0.300000X-0.237500X0.300000X-0.237500X0.300000X0.237500X-0.300000X0.237500X0*%
%TD*%
%TA.AperFunction,SMDPad,CuDef*%
%ADD14R,0.750000X1.100000*%
%TD*%
%TA.AperFunction,SMDPad,CuDef*%
%ADD15R,0.250000X1.100000*%
%TD*%
%TA.AperFunction,SMDPad,CuDef*%
%ADD16FreePoly0,0.000000*%
%TD*%
%TA.AperFunction,SMDPad,CuDef*%
%ADD17FreePoly1,0.000000*%
%TD*%
%TA.AperFunction,SMDPad,CuDef*%
%ADD18FreePoly2,0.000000*%
%TD*%
%TA.AperFunction,SMDPad,CuDef*%
%ADD19RoundRect,0.237500X0.250000X0.237500X-0.250000X0.237500X-0.250000X-0.237500X0.250000X-0.237500X0*%
%TD*%
%TA.AperFunction,SMDPad,CuDef*%
%ADD20R,0.450000X1.500000*%
%TD*%
%TA.AperFunction,SMDPad,CuDef*%
%ADD21R,1.500000X0.450000*%
%TD*%
%TA.AperFunction,ViaPad*%
%ADD22C,0.800000*%
%TD*%
%TA.AperFunction,Conductor*%
%ADD23C,0.250000*%
%TD*%
%TA.AperFunction,Conductor*%
%ADD24C,1.500000*%
%TD*%
G04 APERTURE END LIST*
%TO.C,U?1*%
G36*
X121450000Y-130487500D02*
G01*
X121050000Y-130487500D01*
X121050000Y-129787500D01*
X121450000Y-129787500D01*
X121450000Y-130487500D01*
G37*
%TD*%
D10*
%TO.P,C3,1*%
%TO.N,+5V*%
X158462500Y-114400000D03*
%TO.P,C3,2*%
%TO.N,GND*%
X156737500Y-114400000D03*
%TD*%
D11*
%TO.P,U1,1,A14*%
%TO.N,AA14*%
X126550000Y-93145000D03*
%TO.P,U1,2,A12*%
%TO.N,A12*%
X126550000Y-94415000D03*
%TO.P,U1,3,A7*%
%TO.N,A7*%
X126550000Y-95685000D03*
%TO.P,U1,4,A6*%
%TO.N,A6*%
X126550000Y-96955000D03*
%TO.P,U1,5,A5*%
%TO.N,A5*%
X126550000Y-98225000D03*
%TO.P,U1,6,A4*%
%TO.N,A4*%
X126550000Y-99495000D03*
%TO.P,U1,7,A3*%
%TO.N,A3*%
X126550000Y-100765000D03*
%TO.P,U1,8,A2*%
%TO.N,A2*%
X126550000Y-102035000D03*
%TO.P,U1,9,A1*%
%TO.N,A1*%
X126550000Y-103305000D03*
%TO.P,U1,10,A0*%
%TO.N,A0*%
X126550000Y-104575000D03*
%TO.P,U1,11,D0*%
%TO.N,D0*%
X126550000Y-105845000D03*
%TO.P,U1,12,D1*%
%TO.N,D1*%
X126550000Y-107115000D03*
%TO.P,U1,13,D2*%
%TO.N,D2*%
X126550000Y-108385000D03*
%TO.P,U1,14,GND*%
%TO.N,GND*%
X126550000Y-109655000D03*
%TO.P,U1,15,D3*%
%TO.N,D3*%
X135850000Y-109655000D03*
%TO.P,U1,16,D4*%
%TO.N,D4*%
X135850000Y-108385000D03*
%TO.P,U1,17,D5*%
%TO.N,D5*%
X135850000Y-107115000D03*
%TO.P,U1,18,D6*%
%TO.N,D6*%
X135850000Y-105845000D03*
%TO.P,U1,19,D7*%
%TO.N,D7*%
X135850000Y-104575000D03*
%TO.P,U1,20,/CS*%
%TO.N,RAM_CS*%
X135850000Y-103305000D03*
%TO.P,U1,21,A10*%
%TO.N,A10*%
X135850000Y-102035000D03*
%TO.P,U1,22,/OE*%
%TO.N,RD*%
X135850000Y-100765000D03*
%TO.P,U1,23,A11*%
%TO.N,A11*%
X135850000Y-99495000D03*
%TO.P,U1,24,A9*%
%TO.N,A9*%
X135850000Y-98225000D03*
%TO.P,U1,25,A8*%
%TO.N,A8*%
X135850000Y-96955000D03*
%TO.P,U1,26,A13*%
%TO.N,AA13*%
X135850000Y-95685000D03*
%TO.P,U1,27,/WR*%
%TO.N,WR*%
X135850000Y-94415000D03*
%TO.P,U1,28,Vcc*%
%TO.N,+5V*%
X135850000Y-93145000D03*
%TD*%
D12*
%TO.P,C2,1*%
%TO.N,+5V*%
X141500000Y-93162500D03*
%TO.P,C2,2*%
%TO.N,GND*%
X141500000Y-91437500D03*
%TD*%
D13*
%TO.P,C1,1*%
%TO.N,+5V*%
X128137500Y-74300000D03*
%TO.P,C1,2*%
%TO.N,GND*%
X129862500Y-74300000D03*
%TD*%
D14*
%TO.P,U3,1 | 2*%
%TO.N,N/C*%
X164200000Y-89550000D03*
D15*
%TO.P,U3,3,A19*%
%TO.N,RA19*%
X163450000Y-89550000D03*
%TO.P,U3,4,A18*%
%TO.N,RA18*%
X162950000Y-89550000D03*
%TO.P,U3,5,A17*%
%TO.N,RA17*%
X162450000Y-89550000D03*
%TO.P,U3,6,A16*%
%TO.N,RA16*%
X161950000Y-89550000D03*
%TO.P,U3,7,A15*%
%TO.N,RA15*%
X161450000Y-89550000D03*
%TO.P,U3,8,A14*%
%TO.N,RA14*%
X160950000Y-89550000D03*
%TO.P,U3,9,A13*%
%TO.N,A13*%
X160450000Y-89550000D03*
%TO.P,U3,10,A12*%
%TO.N,A12*%
X159950000Y-89550000D03*
%TO.P,U3,11,CE*%
%TO.N,A15*%
X159450000Y-89550000D03*
%TO.P,U3,12,VCC*%
%TO.N,+5V*%
X158950000Y-89550000D03*
%TO.P,U3,13,NC*%
%TO.N,unconnected-(U3-Pad13)*%
X158450000Y-89550000D03*
%TO.P,U3,14,RESET*%
%TO.N,RST*%
X157950000Y-89550000D03*
%TO.P,U3,15,A11*%
%TO.N,A11*%
X157450000Y-89550000D03*
%TO.P,U3,16,A10*%
%TO.N,A10*%
X156950000Y-89550000D03*
%TO.P,U3,17,A9*%
%TO.N,A9*%
X156450000Y-89550000D03*
%TO.P,U3,18,A8*%
%TO.N,A8*%
X155950000Y-89550000D03*
%TO.P,U3,19,A7*%
%TO.N,A7*%
X155450000Y-89550000D03*
%TO.P,U3,20,A6*%
%TO.N,A6*%
X154950000Y-89550000D03*
%TO.P,U3,21,A5*%
%TO.N,A5*%
X154450000Y-89550000D03*
%TO.P,U3,22,A4*%
%TO.N,A4*%
X153950000Y-89550000D03*
D14*
%TO.P,U3,23 | 24*%
%TO.N,N/C*%
X153200000Y-89550000D03*
%TO.P,U3,25 | 26*%
X153200000Y-109050000D03*
D15*
%TO.P,U3,27,A3*%
%TO.N,A3*%
X153950000Y-109050000D03*
%TO.P,U3,28,A2*%
%TO.N,A2*%
X154450000Y-109050000D03*
%TO.P,U3,29,A1*%
%TO.N,A1*%
X154950000Y-109050000D03*
%TO.P,U3,30,A0~{}*%
%TO.N,A0*%
X155450000Y-109050000D03*
%TO.P,U3,31,D0*%
%TO.N,D0*%
X155950000Y-109050000D03*
%TO.P,U3,32,D1*%
%TO.N,D1*%
X156450000Y-109050000D03*
%TO.P,U3,33,D2*%
%TO.N,D2*%
X156950000Y-109050000D03*
%TO.P,U3,34,D3*%
%TO.N,D3*%
X157450000Y-109050000D03*
%TO.P,U3,35,GND*%
%TO.N,GND*%
X157950000Y-109050000D03*
%TO.P,U3,36,GND*%
X158450000Y-109050000D03*
%TO.P,U3,37,VCC~{}*%
%TO.N,+5V*%
X158950000Y-109050000D03*
%TO.P,U3,38,D4*%
%TO.N,D4*%
X159450000Y-109050000D03*
%TO.P,U3,39,D5*%
%TO.N,D5*%
X159950000Y-109050000D03*
%TO.P,U3,40,D6*%
%TO.N,D6*%
X160450000Y-109050000D03*
%TO.P,U3,41,D7*%
%TO.N,D7*%
X160950000Y-109050000D03*
%TO.P,U3,42,RY/BY*%
%TO.N,unconnected-(U3-Pad42)*%
X161450000Y-109050000D03*
%TO.P,U3,43,OE~{}*%
%TO.N,RD*%
X161950000Y-109050000D03*
%TO.P,U3,44,WE*%
%TO.N,SND*%
X162450000Y-109050000D03*
%TO.P,U3,45,NC*%
%TO.N,unconnected-(U3-Pad45)*%
X162950000Y-109050000D03*
%TO.P,U3,46,A20*%
%TO.N,RA20*%
X163450000Y-109050000D03*
D14*
%TO.P,U3,47 | 48*%
%TO.N,N/C*%
X164200000Y-109050000D03*
%TD*%
D16*
%TO.P,U?1,1,VCC*%
%TO.N,+5V*%
X121000000Y-122987500D03*
D17*
%TO.P,U?1,2,CLK~{}*%
%TO.N,unconnected-(U?1-Pad2)*%
X122750000Y-122987500D03*
%TO.P,U?1,3,WR*%
%TO.N,WR*%
X124250000Y-122987500D03*
%TO.P,U?1,4,RD*%
%TO.N,RD*%
X125750000Y-122987500D03*
%TO.P,U?1,5,CS*%
%TO.N,CS*%
X127250000Y-122987500D03*
%TO.P,U?1,6,A0*%
%TO.N,A0*%
X128750000Y-122987500D03*
%TO.P,U?1,7,A1*%
%TO.N,A1*%
X130250000Y-122987500D03*
%TO.P,U?1,8,A2*%
%TO.N,A2*%
X131750000Y-122987500D03*
%TO.P,U?1,9,A3*%
%TO.N,A3*%
X133250000Y-122987500D03*
%TO.P,U?1,10,A4*%
%TO.N,A4*%
X134750000Y-122987500D03*
%TO.P,U?1,11,A5*%
%TO.N,A5*%
X136250000Y-122987500D03*
%TO.P,U?1,12,A6*%
%TO.N,A6*%
X137750000Y-122987500D03*
%TO.P,U?1,13,A7*%
%TO.N,A7*%
X139250000Y-122987500D03*
%TO.P,U?1,14,A8*%
%TO.N,A8*%
X140750000Y-122987500D03*
%TO.P,U?1,15,A9*%
%TO.N,A9*%
X142250000Y-122987500D03*
%TO.P,U?1,16,A10*%
%TO.N,A10*%
X143750000Y-122987500D03*
%TO.P,U?1,17,A11*%
%TO.N,A11*%
X145250000Y-122987500D03*
%TO.P,U?1,18,A12*%
%TO.N,A12*%
X146750000Y-122987500D03*
%TO.P,U?1,19,A13*%
%TO.N,A13*%
X148250000Y-122987500D03*
%TO.P,U?1,20,A14*%
%TO.N,A14*%
X149750000Y-122987500D03*
%TO.P,U?1,21,A15*%
%TO.N,A15*%
X151250000Y-122987500D03*
%TO.P,U?1,22,D0*%
%TO.N,D0*%
X152750000Y-122987500D03*
%TO.P,U?1,23,D1*%
%TO.N,D1*%
X154250000Y-122987500D03*
%TO.P,U?1,24,D2*%
%TO.N,D2*%
X155750000Y-122987500D03*
%TO.P,U?1,25,D3*%
%TO.N,D3*%
X157250000Y-122987500D03*
%TO.P,U?1,26,D4*%
%TO.N,D4*%
X158750000Y-122987500D03*
%TO.P,U?1,27,D5*%
%TO.N,D5*%
X160250000Y-122987500D03*
%TO.P,U?1,28,D6*%
%TO.N,D6*%
X161750000Y-122987500D03*
%TO.P,U?1,29,D7*%
%TO.N,D7*%
X163250000Y-122987500D03*
%TO.P,U?1,30,RST*%
%TO.N,RST*%
X164750000Y-122987500D03*
%TO.P,U?1,31,SND*%
%TO.N,SND*%
X166250000Y-122987500D03*
D18*
%TO.P,U?1,32,GND*%
%TO.N,GND*%
X168000000Y-122987500D03*
%TD*%
D19*
%TO.P,R2,1*%
%TO.N,+5V*%
X164212500Y-116500000D03*
%TO.P,R2,2*%
%TO.N,SND*%
X162387500Y-116500000D03*
%TD*%
D10*
%TO.P,C4,1*%
%TO.N,+5V*%
X158862500Y-85700000D03*
%TO.P,C4,2*%
%TO.N,GND*%
X157137500Y-85700000D03*
%TD*%
D19*
%TO.P,R1,1*%
%TO.N,+5V*%
X141512500Y-95500000D03*
%TO.P,R1,2*%
%TO.N,RAM_CS*%
X139687500Y-95500000D03*
%TD*%
D20*
%TO.P,U2,1,A13*%
%TO.N,A13*%
X128725000Y-85570000D03*
%TO.P,U2,2,A14*%
%TO.N,A14*%
X129525000Y-85570000D03*
%TO.P,U2,3,A15*%
%TO.N,A15*%
X130325000Y-85570000D03*
%TO.P,U2,4,GND*%
%TO.N,GND*%
X131125000Y-85570000D03*
%TO.P,U2,5,D0*%
%TO.N,D0*%
X131925000Y-85570000D03*
%TO.P,U2,6,D1*%
%TO.N,D1*%
X132725000Y-85570000D03*
%TO.P,U2,7,D2*%
%TO.N,D2*%
X133525000Y-85570000D03*
%TO.P,U2,8,D3*%
%TO.N,D3*%
X134325000Y-85570000D03*
D21*
%TO.P,U2,9,D4*%
%TO.N,D4*%
X135770000Y-84125000D03*
%TO.P,U2,10,D5*%
%TO.N,D5*%
X135770000Y-83325000D03*
%TO.P,U2,11,D6*%
%TO.N,D6*%
X135770000Y-82525000D03*
%TO.P,U2,12,D7*%
%TO.N,D7*%
X135770000Y-81725000D03*
%TO.P,U2,13,/RESET*%
%TO.N,RST*%
X135770000Y-80925000D03*
%TO.P,U2,14,/RAMCS*%
%TO.N,RAM_CS*%
X135770000Y-80125000D03*
%TO.P,U2,15,RA14*%
%TO.N,RA14*%
X135770000Y-79325000D03*
%TO.P,U2,16,RA15*%
%TO.N,RA15*%
X135770000Y-78525000D03*
D20*
%TO.P,U2,17,RA16*%
%TO.N,RA16*%
X134325000Y-77080000D03*
%TO.P,U2,18,RA17*%
%TO.N,RA17*%
X133525000Y-77080000D03*
%TO.P,U2,19,RA18*%
%TO.N,RA18*%
X132725000Y-77080000D03*
%TO.P,U2,20,RA19*%
%TO.N,RA19*%
X131925000Y-77080000D03*
%TO.P,U2,21,RA20*%
%TO.N,RA20*%
X131125000Y-77080000D03*
%TO.P,U2,22,RA21*%
%TO.N,unconnected-(U2-Pad22)*%
X130325000Y-77080000D03*
%TO.P,U2,23,GND*%
%TO.N,GND*%
X129525000Y-77080000D03*
%TO.P,U2,24,PWR*%
%TO.N,+5V*%
X128725000Y-77080000D03*
D21*
%TO.P,U2,25,RA22*%
%TO.N,unconnected-(U2-Pad25)*%
X127280000Y-78525000D03*
%TO.P,U2,26,AA16*%
%TO.N,unconnected-(U2-Pad26)*%
X127280000Y-79325000D03*
%TO.P,U2,27,AA15*%
%TO.N,unconnected-(U2-Pad27)*%
X127280000Y-80125000D03*
%TO.P,U2,28,AA14*%
%TO.N,AA14*%
X127280000Y-80925000D03*
%TO.P,U2,29,AA13*%
%TO.N,AA13*%
X127280000Y-81725000D03*
%TO.P,U2,30,/WR*%
%TO.N,WR*%
X127280000Y-82525000D03*
%TO.P,U2,31,/CS*%
%TO.N,CS*%
X127280000Y-83325000D03*
%TO.P,U2,32,A12*%
%TO.N,A12*%
X127280000Y-84125000D03*
%TD*%
D22*
%TO.N,+5V*%
X155600000Y-80000000D03*
X148400000Y-118000000D03*
X163800000Y-114900000D03*
X140200000Y-72900000D03*
X140200000Y-78400000D03*
X157700000Y-82300000D03*
X158700000Y-116800000D03*
%TO.N,GND*%
X126900000Y-111700000D03*
X156900000Y-115700000D03*
X155800000Y-85000000D03*
X168700000Y-112700000D03*
X141800000Y-79100000D03*
X165000000Y-84000000D03*
X130250000Y-79250000D03*
X166300000Y-78300000D03*
%TO.N,RAM_CS*%
X137775000Y-80125000D03*
X138295000Y-103305000D03*
X142700000Y-80400000D03*
X138100000Y-95500000D03*
%TO.N,A12*%
X159600000Y-87700000D03*
X148300000Y-87500000D03*
X129000000Y-90600000D03*
X129100000Y-93100000D03*
%TO.N,A7*%
X155200000Y-91900000D03*
X128615000Y-95685000D03*
%TO.N,A6*%
X155200000Y-93300000D03*
X128645000Y-96955000D03*
%TO.N,A5*%
X128725000Y-98225000D03*
X155200000Y-94599040D03*
%TO.N,A4*%
X153300000Y-94400000D03*
X128295000Y-99495000D03*
%TO.N,A3*%
X152300000Y-120100000D03*
X133250000Y-121150000D03*
%TO.N,A2*%
X131750000Y-120850000D03*
X153000000Y-119100000D03*
%TO.N,A1*%
X153500000Y-118000000D03*
X130250000Y-120150000D03*
%TO.N,A0*%
X129100000Y-119300000D03*
X153900000Y-116900000D03*
%TO.N,D0*%
X124100000Y-96200000D03*
X128645000Y-105845000D03*
X153600000Y-103600000D03*
X127400000Y-89900000D03*
%TO.N,D1*%
X128800000Y-89000000D03*
X123600000Y-95300000D03*
X154700000Y-104300000D03*
X128685000Y-107115000D03*
%TO.N,D2*%
X128785000Y-108385000D03*
X123200000Y-94200000D03*
X130900000Y-89300000D03*
X155800000Y-105100000D03*
%TO.N,D3*%
X157250000Y-121650000D03*
X135700000Y-85800000D03*
X138300000Y-109700000D03*
X157900000Y-107400000D03*
X165600000Y-87300000D03*
X165300000Y-115200000D03*
%TO.N,D4*%
X158600000Y-106600000D03*
X158750000Y-121650000D03*
X165900000Y-116300000D03*
X138300000Y-108400000D03*
X166399040Y-85700960D03*
X137200000Y-85800000D03*
%TO.N,D5*%
X166400000Y-84500000D03*
X160250000Y-121750000D03*
X138300000Y-107100000D03*
X137900000Y-84900000D03*
X159600000Y-106500000D03*
X166500000Y-117200000D03*
%TO.N,D6*%
X138300000Y-105900000D03*
X166800000Y-118300000D03*
X166300000Y-83100000D03*
X140300000Y-81900000D03*
X161750000Y-121650000D03*
X159500000Y-105100000D03*
%TO.N,D7*%
X139800000Y-109600000D03*
X139200000Y-81400000D03*
X163200000Y-121500000D03*
X161300000Y-107100000D03*
X167300000Y-119300000D03*
X166300000Y-81800000D03*
%TO.N,A10*%
X140435000Y-102035000D03*
X157700000Y-102200000D03*
%TO.N,RD*%
X138265000Y-100765000D03*
X133600000Y-100800000D03*
X160500000Y-104200000D03*
X121400000Y-101400000D03*
%TO.N,A11*%
X158250000Y-101050000D03*
X141250000Y-100550000D03*
%TO.N,A9*%
X138475000Y-98225000D03*
X156374031Y-102425969D03*
%TO.N,A8*%
X138455000Y-96955000D03*
X155200000Y-101600000D03*
%TO.N,WR*%
X124675000Y-82525000D03*
X122200000Y-82900000D03*
%TO.N,CS*%
X122300000Y-84400000D03*
X125325000Y-83325000D03*
%TO.N,RST*%
X161700000Y-111500000D03*
X164600000Y-91600000D03*
X163700000Y-105200000D03*
X158400000Y-91600000D03*
%TO.N,A15*%
X130325000Y-87125000D03*
X151700000Y-86700000D03*
X159400000Y-100100000D03*
X151700000Y-99900000D03*
%TO.N,A14*%
X131000000Y-82700000D03*
X150200000Y-83000000D03*
%TO.N,A13*%
X149100000Y-84000000D03*
X129100000Y-82900000D03*
X160000000Y-84000000D03*
%TD*%
D23*
%TO.N,GND*%
X141800000Y-80524614D02*
X141800000Y-79100000D01*
X142250480Y-80975094D02*
X141800000Y-80524614D01*
X142250480Y-89349520D02*
X142250480Y-80975094D01*
X141500000Y-90100000D02*
X142250480Y-89349520D01*
X141500000Y-91437500D02*
X141500000Y-90100000D01*
%TO.N,+5V*%
X141500000Y-95487500D02*
X141512500Y-95500000D01*
X158950000Y-109050000D02*
X158950000Y-112650000D01*
X158950000Y-88550000D02*
X158500000Y-88100000D01*
X158950000Y-89550000D02*
X158950000Y-88550000D01*
X141437500Y-93100000D02*
X141500000Y-93162500D01*
D24*
X121000000Y-122987500D02*
X121000000Y-120500000D01*
D23*
X158950000Y-112650000D02*
X158462500Y-113137500D01*
X158462500Y-113137500D02*
X158462500Y-114400000D01*
X135850000Y-93145000D02*
X135895000Y-93100000D01*
X158575489Y-85987011D02*
X158862500Y-85700000D01*
%TO.N,GND*%
X129525000Y-75475000D02*
X129862500Y-75137500D01*
X156737500Y-115537500D02*
X156900000Y-115700000D01*
X129525000Y-78525000D02*
X130250000Y-79250000D01*
X131900000Y-80900000D02*
X131900000Y-83000000D01*
X157950000Y-111535743D02*
X157950000Y-109050000D01*
X156500000Y-85700000D02*
X155800000Y-85000000D01*
X131100000Y-83800000D02*
X131125000Y-83825000D01*
X156737500Y-114400000D02*
X156737500Y-112748244D01*
X129525000Y-77080000D02*
X129525000Y-78525000D01*
X129862500Y-75137500D02*
X129862500Y-74300000D01*
X126550000Y-109655000D02*
X126550000Y-111350000D01*
X158450000Y-109050000D02*
X157950000Y-109050000D01*
X157137500Y-85700000D02*
X156500000Y-85700000D01*
X130250000Y-79250000D02*
X131900000Y-80900000D01*
X129525000Y-77080000D02*
X129525000Y-75475000D01*
X156737500Y-112748244D02*
X157950000Y-111535743D01*
X131900000Y-83000000D02*
X131100000Y-83800000D01*
D24*
X168000000Y-123287500D02*
X168000000Y-120900000D01*
D23*
X131125000Y-83825000D02*
X131125000Y-85570000D01*
X156737500Y-114400000D02*
X156737500Y-115537500D01*
X126550000Y-111350000D02*
X126900000Y-111700000D01*
%TO.N,RAM_CS*%
X139687500Y-96487500D02*
X139687500Y-95500000D01*
X139900000Y-96700000D02*
X139687500Y-96487500D01*
X142700000Y-96500000D02*
X142500000Y-96700000D01*
X142500000Y-96700000D02*
X139900000Y-96700000D01*
X135850000Y-103305000D02*
X138295000Y-103305000D01*
X138100000Y-95500000D02*
X139687500Y-95500000D01*
X142700000Y-80400000D02*
X142700000Y-96500000D01*
X135770000Y-80125000D02*
X137775000Y-80125000D01*
%TO.N,AA14*%
X123200000Y-81600000D02*
X123200000Y-92200000D01*
X124145000Y-93145000D02*
X126550000Y-93145000D01*
X123875000Y-80925000D02*
X123200000Y-81600000D01*
X127280000Y-80925000D02*
X123875000Y-80925000D01*
X123200000Y-92200000D02*
X124145000Y-93145000D01*
%TO.N,A12*%
X128300000Y-91300000D02*
X129000000Y-90600000D01*
X125275000Y-84125000D02*
X124548560Y-84851440D01*
X149900960Y-89000000D02*
X148400960Y-87500000D01*
X124871436Y-91300000D02*
X128300000Y-91300000D01*
X149901440Y-119827124D02*
X149900960Y-119826644D01*
X159950000Y-89550000D02*
X159950000Y-88050000D01*
X127280000Y-84125000D02*
X125275000Y-84125000D01*
X148528564Y-121200000D02*
X149901440Y-119827124D01*
X146750000Y-122150000D02*
X147700000Y-121200000D01*
X146750000Y-122987500D02*
X146750000Y-122150000D01*
X149900960Y-119826644D02*
X149900960Y-89000000D01*
X124548560Y-84851440D02*
X124548560Y-90977124D01*
X127785000Y-94415000D02*
X129100000Y-93100000D01*
X147700000Y-121200000D02*
X148528564Y-121200000D01*
X124548560Y-90977124D02*
X124871436Y-91300000D01*
X126550000Y-94415000D02*
X127785000Y-94415000D01*
X159950000Y-88050000D02*
X159600000Y-87700000D01*
%TO.N,A7*%
X133149520Y-103406648D02*
X130300000Y-100557128D01*
X139250000Y-122987500D02*
X139250000Y-121550000D01*
X136277630Y-120800000D02*
X133148560Y-117670930D01*
X130300000Y-100557128D02*
X130300000Y-96600000D01*
X155450000Y-91650000D02*
X155450000Y-89550000D01*
X130300000Y-96600000D02*
X129385000Y-95685000D01*
X133149520Y-117669970D02*
X133149520Y-103406648D01*
X133148560Y-117670930D02*
X133149520Y-117669970D01*
X138500000Y-120800000D02*
X136277630Y-120800000D01*
X129385000Y-95685000D02*
X128615000Y-95685000D01*
X155200000Y-91900000D02*
X155450000Y-91650000D01*
X128615000Y-95685000D02*
X126550000Y-95685000D01*
X139250000Y-121550000D02*
X138500000Y-120800000D01*
%TO.N,A6*%
X132699040Y-103593806D02*
X132700000Y-103592846D01*
X136141912Y-121300000D02*
X132699040Y-117857128D01*
X154300000Y-91700000D02*
X154950000Y-91050000D01*
X154950000Y-91050000D02*
X154950000Y-89550000D01*
X155200000Y-93300000D02*
X154300000Y-92400000D01*
X128645000Y-96955000D02*
X126550000Y-96955000D01*
X154300000Y-92400000D02*
X154300000Y-91700000D01*
X129405480Y-96955000D02*
X128645000Y-96955000D01*
X137750000Y-121650000D02*
X137400000Y-121300000D01*
X132699040Y-117857128D02*
X132699040Y-103593806D01*
X132700000Y-103592846D02*
X129850480Y-100743325D01*
X137400000Y-121300000D02*
X136141912Y-121300000D01*
X137750000Y-122987500D02*
X137750000Y-121650000D01*
X129850480Y-100743325D02*
X129850480Y-97400000D01*
X129850480Y-97400000D02*
X129405480Y-96955000D01*
%TO.N,A5*%
X153850480Y-93249520D02*
X153850480Y-91449520D01*
X128725000Y-98225000D02*
X126550000Y-98225000D01*
X153850480Y-91449520D02*
X154450000Y-90850000D01*
X155200000Y-94599040D02*
X153850480Y-93249520D01*
X136250000Y-122043806D02*
X132247600Y-118041406D01*
X132247600Y-118041406D02*
X132247600Y-105000000D01*
X129400960Y-100929522D02*
X129400960Y-98900960D01*
X132249520Y-103778084D02*
X129400960Y-100929522D01*
X136250000Y-122987500D02*
X136250000Y-122043806D01*
X154450000Y-90850000D02*
X154450000Y-89550000D01*
X129400960Y-98900960D02*
X128725000Y-98225000D01*
X132249520Y-104998080D02*
X132249520Y-103778084D01*
X132247600Y-105000000D02*
X132249520Y-104998080D01*
%TO.N,A4*%
X131800000Y-103964282D02*
X128951440Y-101115719D01*
X153300000Y-94400000D02*
X153300000Y-91364282D01*
X153300000Y-91364282D02*
X153950000Y-90714282D01*
X128951440Y-100151440D02*
X128295000Y-99495000D01*
X134750000Y-121179524D02*
X131798080Y-118227604D01*
X134750000Y-122987500D02*
X134750000Y-121179524D01*
X131798080Y-103966202D02*
X131800000Y-103964282D01*
X153950000Y-90714282D02*
X153950000Y-89550000D01*
X128951440Y-101115719D02*
X128951440Y-100151440D01*
X128295000Y-99495000D02*
X126550000Y-99495000D01*
X131798080Y-118227604D02*
X131798080Y-103966202D01*
%TO.N,A3*%
X153950000Y-110450000D02*
X153950000Y-109050000D01*
X151699520Y-119699520D02*
X151699520Y-112700480D01*
X131348560Y-104148560D02*
X131348560Y-118413802D01*
X133250000Y-121150000D02*
X133250000Y-122987500D01*
X126550000Y-100765000D02*
X127965000Y-100765000D01*
X151699520Y-112700480D02*
X153950000Y-110450000D01*
X151699520Y-119699520D02*
X152100000Y-120100000D01*
X152100000Y-120100000D02*
X152300000Y-120100000D01*
X127965000Y-100765000D02*
X131348560Y-104148560D01*
X133250000Y-120315242D02*
X133250000Y-121150000D01*
X131348560Y-118413802D02*
X133250000Y-120315242D01*
%TO.N,A2*%
X131750000Y-119450960D02*
X130899040Y-118600000D01*
X152149040Y-118249040D02*
X152149040Y-112886678D01*
X152149040Y-112886678D02*
X154450000Y-110585718D01*
X128599282Y-102035000D02*
X126550000Y-102035000D01*
X131750000Y-122987500D02*
X131750000Y-120850000D01*
X130899040Y-118600000D02*
X130899040Y-104334758D01*
X131750000Y-120850000D02*
X131750000Y-119450960D01*
X154450000Y-110585718D02*
X154450000Y-109050000D01*
X153000000Y-119100000D02*
X152149040Y-118249040D01*
X130899040Y-104334758D02*
X128599282Y-102035000D01*
%TO.N,A1*%
X152598560Y-113072876D02*
X154899520Y-110771915D01*
X153500000Y-118000000D02*
X152598560Y-117098560D01*
X130449520Y-104549520D02*
X130449520Y-118650480D01*
X130250000Y-118850000D02*
X130250000Y-120150000D01*
X154950000Y-109050000D02*
X154950000Y-110721435D01*
X130250000Y-120150000D02*
X130250000Y-122987500D01*
X129205000Y-103305000D02*
X130449520Y-104549520D01*
X130449520Y-118650480D02*
X130250000Y-118850000D01*
X152598560Y-117098560D02*
X152598560Y-113072876D01*
X126550000Y-103305000D02*
X129205000Y-103305000D01*
X154950000Y-110721435D02*
X154835718Y-110835718D01*
%TO.N,A0*%
X130000000Y-105200000D02*
X129375000Y-104575000D01*
X129375000Y-104575000D02*
X126550000Y-104575000D01*
X155450000Y-110857154D02*
X155450000Y-109050000D01*
X153048080Y-116048080D02*
X153048080Y-113259074D01*
X153900000Y-116900000D02*
X153048080Y-116048080D01*
X128750000Y-122987500D02*
X128750000Y-119650000D01*
X130000000Y-118400000D02*
X130000000Y-105200000D01*
X153048080Y-113259074D02*
X155450000Y-110857154D01*
X129100000Y-119300000D02*
X130000000Y-118400000D01*
X128750000Y-119650000D02*
X129100000Y-119300000D01*
%TO.N,D0*%
X155950000Y-109050000D02*
X155950000Y-110992871D01*
X123649520Y-105249520D02*
X123649520Y-96650480D01*
X154700000Y-116600000D02*
X154700000Y-118900000D01*
X152700000Y-122937500D02*
X152750000Y-122987500D01*
X131925000Y-87275000D02*
X131925000Y-85570000D01*
X128775386Y-88000000D02*
X131200000Y-88000000D01*
X127400000Y-89900000D02*
X127400000Y-89375386D01*
X152750000Y-120850000D02*
X152750000Y-122987500D01*
X127400000Y-89375386D02*
X128775386Y-88000000D01*
X126550000Y-105845000D02*
X128645000Y-105845000D01*
X155950000Y-106974614D02*
X155950000Y-109050000D01*
X153600000Y-103600000D02*
X153600000Y-104624614D01*
X126550000Y-105845000D02*
X124245000Y-105845000D01*
X153497600Y-113445272D02*
X153497600Y-115397600D01*
X155950000Y-110992871D02*
X153497600Y-113445272D01*
X124245000Y-105845000D02*
X123649520Y-105249520D01*
X131200000Y-88000000D02*
X131925000Y-87275000D01*
X154700000Y-118900000D02*
X152750000Y-120850000D01*
X153600000Y-104624614D02*
X155950000Y-106974614D01*
X153497600Y-115397600D02*
X154700000Y-116600000D01*
X123649520Y-96650480D02*
X124100000Y-96200000D01*
%TO.N,D1*%
X154700000Y-104300000D02*
X154700000Y-105088896D01*
X156450000Y-111128589D02*
X156450000Y-109050000D01*
X129350480Y-88449520D02*
X131386198Y-88449520D01*
X132725000Y-87110718D02*
X132725000Y-85570000D01*
X155149520Y-116413802D02*
X153947120Y-115211402D01*
X123200000Y-95700000D02*
X123600000Y-95300000D01*
X153947120Y-115211402D02*
X153947120Y-113631470D01*
X123850718Y-107115000D02*
X123200000Y-106464282D01*
X154700000Y-105088896D02*
X156450000Y-106838896D01*
X154250000Y-122987500D02*
X154250000Y-119985718D01*
X126550000Y-107115000D02*
X128685000Y-107115000D01*
X131386198Y-88449520D02*
X132725000Y-87110718D01*
X156450000Y-106838896D02*
X156450000Y-109050000D01*
X154250000Y-119985718D02*
X155149520Y-119086198D01*
X155149520Y-119086198D02*
X155149520Y-116413802D01*
X123200000Y-106464282D02*
X123200000Y-95700000D01*
X128800000Y-89000000D02*
X129350480Y-88449520D01*
X126550000Y-107115000D02*
X123850718Y-107115000D01*
X153947120Y-113631470D02*
X156450000Y-111128589D01*
%TO.N,D2*%
X154396640Y-113817668D02*
X156950000Y-111264308D01*
X122749520Y-94650480D02*
X123200000Y-94200000D01*
X155800000Y-105100000D02*
X156950000Y-106250000D01*
X156950000Y-111264308D02*
X156950000Y-109050000D01*
X130900000Y-89300000D02*
X131171436Y-89300000D01*
X131171436Y-89300000D02*
X133525000Y-86946436D01*
X126550000Y-108385000D02*
X128785000Y-108385000D01*
X126550000Y-108385000D02*
X124485000Y-108385000D01*
X155750000Y-122987500D02*
X155750000Y-116378564D01*
X124485000Y-108385000D02*
X122749520Y-106649520D01*
X154396640Y-115025204D02*
X154396640Y-113817668D01*
X155750000Y-116378564D02*
X154396640Y-115025204D01*
X133525000Y-86946436D02*
X133525000Y-85570000D01*
X156950000Y-106250000D02*
X156950000Y-109050000D01*
X122749520Y-106649520D02*
X122749520Y-94650480D01*
%TO.N,D3*%
X135850000Y-109655000D02*
X138255000Y-109655000D01*
X154846160Y-114839006D02*
X156199520Y-116192366D01*
X157450000Y-109050000D02*
X157450000Y-111400026D01*
X157450000Y-111400026D02*
X154846160Y-114003866D01*
X157250000Y-119150000D02*
X157250000Y-121650000D01*
X134325000Y-85570000D02*
X135470000Y-85570000D01*
X165949520Y-87649520D02*
X165600000Y-87300000D01*
X157450000Y-109050000D02*
X157450000Y-107850000D01*
X165300000Y-105535718D02*
X165949520Y-104886198D01*
X165300000Y-115200000D02*
X165300000Y-105535718D01*
X154846160Y-114003866D02*
X154846160Y-114839006D01*
X165949520Y-104886198D02*
X165949520Y-87649520D01*
X138255000Y-109655000D02*
X138300000Y-109700000D01*
X157250000Y-122987500D02*
X157250000Y-121650000D01*
X135470000Y-85570000D02*
X135700000Y-85800000D01*
X157450000Y-107850000D02*
X157900000Y-107400000D01*
X156199520Y-116192366D02*
X156199520Y-118099520D01*
X156199520Y-118099520D02*
X157250000Y-119150000D01*
%TO.N,D4*%
X135770000Y-84125000D02*
X135770000Y-84370000D01*
X158750000Y-122987500D02*
X158750000Y-121650000D01*
X158750000Y-121650000D02*
X159777400Y-120622600D01*
X159777400Y-113113118D02*
X159450000Y-112785718D01*
X166100000Y-116100000D02*
X166100000Y-114350480D01*
X166050480Y-114350480D02*
X165749520Y-114049520D01*
X165900000Y-116300000D02*
X166100000Y-116100000D01*
X159450000Y-107450000D02*
X159450000Y-109050000D01*
X158600000Y-106600000D02*
X159450000Y-107450000D01*
X159450000Y-112785718D02*
X159450000Y-109050000D01*
X166399040Y-105072395D02*
X166399040Y-85700960D01*
X135850000Y-108385000D02*
X137785000Y-108385000D01*
X159777400Y-120622600D02*
X159777400Y-113113118D01*
X165749520Y-114049520D02*
X165749520Y-105721916D01*
X135770000Y-84370000D02*
X137200000Y-85800000D01*
X166100000Y-114350480D02*
X166050480Y-114350480D01*
X165749520Y-105721916D02*
X166399040Y-105072395D01*
%TO.N,D5*%
X167123551Y-86076449D02*
X167123551Y-85223551D01*
X166500000Y-117200000D02*
X166624511Y-117075489D01*
X159950000Y-112650000D02*
X160226920Y-112926920D01*
X137900000Y-84900000D02*
X137900000Y-84200000D01*
X159950000Y-106850000D02*
X159950000Y-109050000D01*
X160226920Y-121726920D02*
X160250000Y-121750000D01*
X135850000Y-107115000D02*
X138315000Y-107115000D01*
X137900000Y-84200000D02*
X137025000Y-83325000D01*
X166848560Y-105258593D02*
X166848560Y-86351440D01*
X137025000Y-83325000D02*
X135770000Y-83325000D01*
X160250000Y-121750000D02*
X160250000Y-122987500D01*
X166199040Y-105908113D02*
X166848560Y-105258593D01*
X166848560Y-86351440D02*
X167123551Y-86076449D01*
X167123551Y-85223551D02*
X166400000Y-84500000D01*
X159950000Y-109050000D02*
X159950000Y-112650000D01*
X166624511Y-117075489D02*
X166624511Y-114239274D01*
X166199040Y-113813803D02*
X166199040Y-105908113D01*
X160226920Y-112926920D02*
X160226920Y-121726920D01*
X159600000Y-106500000D02*
X159950000Y-106850000D01*
X166624511Y-114239274D02*
X166199040Y-113813803D01*
%TO.N,D6*%
X166400000Y-83100000D02*
X166300000Y-83100000D01*
X135850000Y-105845000D02*
X138245000Y-105845000D01*
X166648560Y-106094311D02*
X167298080Y-105444790D01*
X160450000Y-112459758D02*
X160676440Y-112686198D01*
X160676440Y-112686198D02*
X160676440Y-117483594D01*
X167573071Y-84273071D02*
X166400000Y-83100000D01*
X167224511Y-117875489D02*
X167224511Y-114203556D01*
X161750000Y-118557154D02*
X161750000Y-121650000D01*
X139675000Y-82525000D02*
X140300000Y-81900000D01*
X166800000Y-118300000D02*
X167224511Y-117875489D01*
X160450000Y-109050000D02*
X160450000Y-112459758D01*
X161750000Y-122987500D02*
X161750000Y-121650000D01*
X135770000Y-82525000D02*
X139675000Y-82525000D01*
X160676440Y-117483594D02*
X161750000Y-118557154D01*
X166648560Y-113627605D02*
X166648560Y-106094311D01*
X159500000Y-105100000D02*
X160450000Y-106050000D01*
X167573071Y-86262647D02*
X167573071Y-84273071D01*
X167298080Y-105444790D02*
X167298080Y-86537638D01*
X160450000Y-106050000D02*
X160450000Y-109050000D01*
X167224511Y-114203556D02*
X166648560Y-113627605D01*
X167298080Y-86537638D02*
X167573071Y-86262647D01*
X138245000Y-105845000D02*
X138300000Y-105900000D01*
%TO.N,D7*%
X138875000Y-81725000D02*
X139200000Y-81400000D01*
X167749520Y-105629067D02*
X167749520Y-86800000D01*
X135850000Y-104575000D02*
X139375000Y-104575000D01*
X168022591Y-83522591D02*
X166300000Y-81800000D01*
X160950000Y-112324040D02*
X161125960Y-112500000D01*
X167674031Y-114017358D02*
X167098080Y-113441407D01*
X167300000Y-119300000D02*
X167674031Y-118925969D01*
X161125960Y-117297396D02*
X163200000Y-119371436D01*
X163250000Y-122987500D02*
X163250000Y-121550000D01*
X167674031Y-118925969D02*
X167674031Y-114017358D01*
X161125960Y-112500000D02*
X161125960Y-117297396D01*
X167098080Y-113441407D02*
X167098080Y-106280507D01*
X139800000Y-105000000D02*
X139800000Y-109600000D01*
X163250000Y-121550000D02*
X163200000Y-121500000D01*
X160950000Y-109050000D02*
X160950000Y-112324040D01*
X167749520Y-86800000D02*
X168022591Y-86526929D01*
X167098080Y-106280507D02*
X167749520Y-105629067D01*
X139375000Y-104575000D02*
X139800000Y-105000000D01*
X160950000Y-107450000D02*
X161300000Y-107100000D01*
X135770000Y-81725000D02*
X138875000Y-81725000D01*
X160950000Y-109050000D02*
X160950000Y-107450000D01*
X163200000Y-119371436D02*
X163200000Y-121500000D01*
X168022591Y-86526929D02*
X168022591Y-83522591D01*
%TO.N,A10*%
X143750000Y-121150000D02*
X142000960Y-119400960D01*
X143750000Y-122987500D02*
X143750000Y-121150000D01*
X140965242Y-119400960D02*
X139750480Y-118186198D01*
X140435000Y-102035000D02*
X135850000Y-102035000D01*
X142000960Y-119400960D02*
X140965242Y-119400960D01*
X156950000Y-89550000D02*
X156950000Y-101450000D01*
X140950480Y-111013802D02*
X140950480Y-102550480D01*
X156950000Y-101450000D02*
X157700000Y-102200000D01*
X139750480Y-112213802D02*
X140950480Y-111013802D01*
X140950480Y-102550480D02*
X140435000Y-102035000D01*
X139750480Y-118186198D02*
X139750480Y-112213802D01*
%TO.N,RD*%
X121400000Y-101400000D02*
X121850480Y-101850480D01*
X135815000Y-100800000D02*
X135850000Y-100765000D01*
X121850480Y-112886198D02*
X125750000Y-116785718D01*
X162300000Y-106000000D02*
X160500000Y-104200000D01*
X161950000Y-108050000D02*
X162300000Y-107700000D01*
X133600000Y-100800000D02*
X135815000Y-100800000D01*
X162300000Y-107700000D02*
X162300000Y-106000000D01*
X135850000Y-100765000D02*
X138265000Y-100765000D01*
X121850480Y-101850480D02*
X121850480Y-112886198D01*
X161950000Y-109050000D02*
X161950000Y-108050000D01*
X125750000Y-116785718D02*
X125750000Y-122987500D01*
%TO.N,A11*%
X145250000Y-121050000D02*
X145250000Y-122987500D01*
X144900000Y-120700000D02*
X145250000Y-121050000D01*
X158250000Y-101050000D02*
X158300000Y-101100000D01*
X141151440Y-118951440D02*
X142187158Y-118951440D01*
X142187158Y-118951440D02*
X143935718Y-120700000D01*
X141250000Y-100550000D02*
X140195000Y-99495000D01*
X140195000Y-99495000D02*
X135850000Y-99495000D01*
X141400000Y-100700000D02*
X141400000Y-111200000D01*
X141250000Y-100550000D02*
X141400000Y-100700000D01*
X157450000Y-100250000D02*
X158250000Y-101050000D01*
X157450000Y-89550000D02*
X157450000Y-100250000D01*
X140200000Y-118000000D02*
X141151440Y-118951440D01*
X143935718Y-120700000D02*
X144900000Y-120700000D01*
X141400000Y-111200000D02*
X140200000Y-112400000D01*
X140200000Y-112400000D02*
X140200000Y-118000000D01*
%TO.N,A9*%
X131249520Y-100235212D02*
X131249520Y-98486198D01*
X135850000Y-98225000D02*
X138475000Y-98225000D01*
X142250000Y-120750000D02*
X141350480Y-119850480D01*
X131510718Y-98225000D02*
X135850000Y-98225000D01*
X134049520Y-117300454D02*
X134049520Y-103035212D01*
X136599546Y-119850480D02*
X134049520Y-117300454D01*
X131249520Y-98486198D02*
X131510718Y-98225000D01*
X141350480Y-119850480D02*
X136599546Y-119850480D01*
X134049520Y-103035212D02*
X131249520Y-100235212D01*
X156450000Y-102350000D02*
X156374031Y-102425969D01*
X156450000Y-89550000D02*
X156450000Y-102350000D01*
X142250000Y-122987500D02*
X142250000Y-120750000D01*
%TO.N,A8*%
X133600000Y-103221410D02*
X133600000Y-117486652D01*
X136413348Y-120300000D02*
X139600000Y-120300000D01*
X140750000Y-121450000D02*
X140750000Y-122987500D01*
X155950000Y-100850000D02*
X155950000Y-89550000D01*
X135850000Y-96955000D02*
X138455000Y-96955000D01*
X139600000Y-120300000D02*
X140750000Y-121450000D01*
X135850000Y-96955000D02*
X135805000Y-97000000D01*
X130800000Y-98300000D02*
X130800000Y-100421410D01*
X133600000Y-117486652D02*
X136413348Y-120300000D01*
X135805000Y-97000000D02*
X132100000Y-97000000D01*
X155200000Y-101600000D02*
X155950000Y-100850000D01*
X130800000Y-100421410D02*
X133600000Y-103221410D01*
X132100000Y-97000000D02*
X130800000Y-98300000D01*
%TO.N,AA13*%
X123649520Y-82200000D02*
X123649520Y-91349520D01*
X123649520Y-91349520D02*
X124500000Y-92200000D01*
X124124520Y-81725000D02*
X123649520Y-82200000D01*
X131100000Y-92200000D02*
X134585000Y-95685000D01*
X127280000Y-81725000D02*
X124124520Y-81725000D01*
X124500000Y-92200000D02*
X131100000Y-92200000D01*
X134585000Y-95685000D02*
X135850000Y-95685000D01*
%TO.N,WR*%
X133950718Y-94415000D02*
X135850000Y-94415000D01*
X121400000Y-102900000D02*
X120600000Y-102100000D01*
X120600000Y-101100000D02*
X121850480Y-99849520D01*
X124250000Y-122987500D02*
X124250000Y-115950000D01*
X135850000Y-94415000D02*
X135835000Y-94400000D01*
X124575000Y-82525000D02*
X124099040Y-83000960D01*
X127280000Y-82525000D02*
X124675000Y-82525000D01*
X124250000Y-115950000D02*
X121400000Y-113100000D01*
X121400000Y-113100000D02*
X121400000Y-102900000D01*
X121850480Y-85650480D02*
X121200000Y-85000000D01*
X124675000Y-82525000D02*
X124575000Y-82525000D01*
X121850480Y-99849520D02*
X121850480Y-85650480D01*
X121200000Y-83900000D02*
X122200000Y-82900000D01*
X121200000Y-85000000D02*
X121200000Y-83900000D01*
X120600000Y-102100000D02*
X120600000Y-101100000D01*
X124686198Y-91750480D02*
X131286198Y-91750480D01*
X124099040Y-91163322D02*
X124686198Y-91750480D01*
X124099040Y-83000960D02*
X124099040Y-91163322D01*
X131286198Y-91750480D02*
X133950718Y-94415000D01*
%TO.N,CS*%
X127250000Y-117650000D02*
X127250000Y-122987500D01*
X122300000Y-112700000D02*
X127250000Y-117650000D01*
X127280000Y-83325000D02*
X125325000Y-83325000D01*
X122300000Y-84400000D02*
X122300000Y-112700000D01*
%TO.N,RA20*%
X163900000Y-87100000D02*
X165500000Y-88700000D01*
X158086198Y-74050480D02*
X163900000Y-79864282D01*
X165500000Y-88700000D02*
X165500000Y-104700000D01*
X163450000Y-106750000D02*
X163450000Y-109050000D01*
X163900000Y-79864282D02*
X163900000Y-87100000D01*
X132913803Y-74050480D02*
X158086198Y-74050480D01*
X131125000Y-77080000D02*
X131125000Y-75839282D01*
X131125000Y-75839282D02*
X132913803Y-74050480D01*
X165500000Y-104700000D02*
X163450000Y-106750000D01*
%TO.N,RA19*%
X157900000Y-74500000D02*
X163450000Y-80050000D01*
X131925000Y-75675000D02*
X133100000Y-74500000D01*
X133100000Y-74500000D02*
X157900000Y-74500000D01*
X163450000Y-89550000D02*
X163450000Y-80050000D01*
X131925000Y-77080000D02*
X131925000Y-75675000D01*
%TO.N,RA18*%
X157715722Y-74951440D02*
X133648560Y-74951440D01*
X163000480Y-88675498D02*
X163000480Y-80236198D01*
X163000480Y-80236198D02*
X157715722Y-74951440D01*
X132725000Y-75875000D02*
X132725000Y-77080000D01*
X162950000Y-89550000D02*
X162950000Y-88725978D01*
X133648560Y-74951440D02*
X132725000Y-75875000D01*
X162950000Y-88725978D02*
X163000480Y-88675498D01*
%TO.N,RA17*%
X133525000Y-77080000D02*
X133525000Y-76080000D01*
X133525000Y-76080000D02*
X134204040Y-75400960D01*
X162450000Y-80321436D02*
X162450000Y-89550000D01*
X157529524Y-75400960D02*
X162450000Y-80321436D01*
X134204040Y-75400960D02*
X157529524Y-75400960D01*
%TO.N,RA16*%
X134325000Y-77080000D02*
X134325000Y-75975000D01*
X134449520Y-75850480D02*
X157343326Y-75850480D01*
X161950000Y-80457154D02*
X161950000Y-89550000D01*
X157343326Y-75850480D02*
X161950000Y-80457154D01*
X134325000Y-75975000D02*
X134449520Y-75850480D01*
%TO.N,RA15*%
X137900960Y-77627605D02*
X139228565Y-76300000D01*
X137900960Y-78299040D02*
X137900960Y-77627605D01*
X135770000Y-78525000D02*
X137675000Y-78525000D01*
X137675000Y-78525000D02*
X137900960Y-78299040D01*
X161450000Y-80592872D02*
X161450000Y-89550000D01*
X139228565Y-76300000D02*
X157157128Y-76300000D01*
X157157128Y-76300000D02*
X161450000Y-80592872D01*
%TO.N,RA14*%
X138350480Y-79149520D02*
X138350480Y-77813803D01*
X138175000Y-79325000D02*
X138350480Y-79149520D01*
X138350480Y-77813803D02*
X139413803Y-76750480D01*
X139413803Y-76750480D02*
X156971890Y-76750480D01*
X160950000Y-88725978D02*
X160950000Y-89550000D01*
X161000000Y-80778590D02*
X161000000Y-88675978D01*
X135770000Y-79325000D02*
X138175000Y-79325000D01*
X161000000Y-88675978D02*
X160950000Y-88725978D01*
X156971890Y-76750480D02*
X161000000Y-80778590D01*
%TO.N,RST*%
X157950000Y-91150000D02*
X157950000Y-89550000D01*
X164750000Y-120285718D02*
X161575480Y-117111198D01*
X164364282Y-105200000D02*
X165050480Y-104513802D01*
X165050480Y-92050480D02*
X164600000Y-91600000D01*
X161575480Y-117111198D02*
X161575480Y-111624520D01*
X156924022Y-87700000D02*
X154600000Y-87700000D01*
X138800000Y-80650000D02*
X138525000Y-80925000D01*
X163700000Y-105200000D02*
X164364282Y-105200000D01*
X154000000Y-87100000D02*
X154000000Y-84000000D01*
X164750000Y-122987500D02*
X164750000Y-120285718D01*
X165050480Y-104513802D02*
X165050480Y-92050480D01*
X157999520Y-78413828D02*
X156785692Y-77200000D01*
X138800000Y-78000000D02*
X138800000Y-80650000D01*
X156785692Y-77200000D02*
X139600000Y-77200000D01*
X158400000Y-91600000D02*
X157950000Y-91150000D01*
X139600000Y-77200000D02*
X138800000Y-78000000D01*
X157999520Y-80000480D02*
X157999520Y-78413828D01*
X154600000Y-87700000D02*
X154000000Y-87100000D01*
X157950000Y-89550000D02*
X157950000Y-88725978D01*
X154000000Y-84000000D02*
X157999520Y-80000480D01*
X138525000Y-80925000D02*
X135770000Y-80925000D01*
X157950000Y-88725978D02*
X156924022Y-87700000D01*
X161575480Y-111624520D02*
X161700000Y-111500000D01*
%TO.N,A15*%
X151249520Y-87150480D02*
X151249520Y-99500000D01*
X151700000Y-99950480D02*
X151700000Y-100700000D01*
X159450000Y-100050000D02*
X159450000Y-89550000D01*
X151249520Y-99500000D02*
X151700000Y-99950480D01*
X159400000Y-100100000D02*
X159450000Y-100050000D01*
X130325000Y-85570000D02*
X130325000Y-87125000D01*
X151250000Y-101150000D02*
X151700000Y-100700000D01*
X151700000Y-86700000D02*
X151249520Y-87150480D01*
X151250000Y-122987500D02*
X151250000Y-101150000D01*
%TO.N,A14*%
X150800000Y-99800000D02*
X150800000Y-83600000D01*
X130500000Y-82700000D02*
X129525000Y-83675000D01*
X149750000Y-121250000D02*
X150800480Y-120199520D01*
X129525000Y-83675000D02*
X129525000Y-85570000D01*
X131000000Y-82700000D02*
X130500000Y-82700000D01*
X150800480Y-99800480D02*
X150800000Y-99800000D01*
X150800480Y-120199520D02*
X150800480Y-99800480D01*
X150800000Y-83600000D02*
X150200000Y-83000000D01*
X149750000Y-122987500D02*
X149750000Y-121250000D01*
%TO.N,A13*%
X150350480Y-84450480D02*
X149900000Y-84000000D01*
X128725000Y-83275000D02*
X129100000Y-82900000D01*
X150350960Y-120013322D02*
X150350960Y-102050960D01*
X128725000Y-83275000D02*
X128725000Y-85570000D01*
X160450000Y-84450000D02*
X160000000Y-84000000D01*
X149900000Y-84000000D02*
X149100000Y-84000000D01*
X148250000Y-122114282D02*
X150350960Y-120013322D01*
X150350480Y-102050480D02*
X150350480Y-84450480D01*
X160450000Y-89550000D02*
X160450000Y-84450000D01*
X150350960Y-102050960D02*
X150350480Y-102050480D01*
X148250000Y-122987500D02*
X148250000Y-122114282D01*
%TO.N,SND*%
X166250000Y-121150000D02*
X162450000Y-117350000D01*
X166250000Y-122987500D02*
X166250000Y-121150000D01*
X162450000Y-117350000D02*
X162450000Y-109050000D01*
%TD*%
%TA.AperFunction,Conductor*%
%TO.N,GND*%
G36*
X166361000Y-80891500D02*
G01*
X166300000Y-80891500D01*
X166300000Y-80800000D01*
X166361000Y-80891500D01*
G37*
%TD.AperFunction*%
%TD*%
%TA.AperFunction,Conductor*%
%TO.N,+5V*%
G36*
X158841532Y-79516481D02*
G01*
X158848115Y-79522610D01*
X160225505Y-80900000D01*
X157995904Y-80900000D01*
X158391767Y-80504137D01*
X158400057Y-80496593D01*
X158406538Y-80492480D01*
X158453179Y-80442812D01*
X158455933Y-80439971D01*
X158475654Y-80420250D01*
X158478132Y-80417055D01*
X158485838Y-80408033D01*
X158488295Y-80405417D01*
X158516106Y-80375801D01*
X158525866Y-80358048D01*
X158536719Y-80341525D01*
X158544273Y-80331786D01*
X158549133Y-80325521D01*
X158566696Y-80284937D01*
X158571903Y-80274307D01*
X158593215Y-80235540D01*
X158595186Y-80227863D01*
X158595188Y-80227858D01*
X158598252Y-80215922D01*
X158604658Y-80197210D01*
X158609554Y-80185897D01*
X158612701Y-80178625D01*
X158619617Y-80134961D01*
X158622024Y-80123340D01*
X158631048Y-80088191D01*
X158631048Y-80088190D01*
X158633020Y-80080510D01*
X158633020Y-80060249D01*
X158634571Y-80040538D01*
X158636487Y-80028444D01*
X158637739Y-80020537D01*
X158633579Y-79976526D01*
X158633020Y-79964669D01*
X158633020Y-79611705D01*
X158653022Y-79543584D01*
X158706678Y-79497091D01*
X158776952Y-79486987D01*
X158841532Y-79516481D01*
G37*
%TD.AperFunction*%
%TA.AperFunction,Conductor*%
G36*
X156539218Y-77853502D02*
G01*
X156560193Y-77870405D01*
X157329116Y-78639329D01*
X157363141Y-78701641D01*
X157366020Y-78728424D01*
X157366020Y-79685885D01*
X157346018Y-79754006D01*
X157329115Y-79774980D01*
X156204095Y-80900000D01*
X143460370Y-80900000D01*
X143534527Y-80771556D01*
X143593542Y-80589928D01*
X143596635Y-80560506D01*
X143612814Y-80406565D01*
X143613504Y-80400000D01*
X143610230Y-80368852D01*
X143594232Y-80216635D01*
X143594232Y-80216633D01*
X143593542Y-80210072D01*
X143534527Y-80028444D01*
X143525406Y-80012645D01*
X143442341Y-79868774D01*
X143439040Y-79863056D01*
X143419709Y-79841586D01*
X143315675Y-79726045D01*
X143315674Y-79726044D01*
X143311253Y-79721134D01*
X143156752Y-79608882D01*
X143150724Y-79606198D01*
X143150722Y-79606197D01*
X142988319Y-79533891D01*
X142988318Y-79533891D01*
X142982288Y-79531206D01*
X142795487Y-79491500D01*
X142788884Y-79491500D01*
X142788104Y-79491418D01*
X142722447Y-79464405D01*
X142681817Y-79406184D01*
X142679114Y-79335239D01*
X142681441Y-79327173D01*
X142691502Y-79296209D01*
X142691504Y-79296202D01*
X142693542Y-79289928D01*
X142713504Y-79100000D01*
X142693542Y-78910072D01*
X142634527Y-78728444D01*
X142539040Y-78563056D01*
X142411253Y-78421134D01*
X142312157Y-78349136D01*
X142262094Y-78312763D01*
X142262093Y-78312762D01*
X142256752Y-78308882D01*
X142250724Y-78306198D01*
X142250722Y-78306197D01*
X142088319Y-78233891D01*
X142088318Y-78233891D01*
X142082288Y-78231206D01*
X141988888Y-78211353D01*
X141901944Y-78192872D01*
X141901939Y-78192872D01*
X141895487Y-78191500D01*
X141704513Y-78191500D01*
X141698061Y-78192872D01*
X141698056Y-78192872D01*
X141611112Y-78211353D01*
X141517712Y-78231206D01*
X141511682Y-78233891D01*
X141511681Y-78233891D01*
X141349278Y-78306197D01*
X141349276Y-78306198D01*
X141343248Y-78308882D01*
X141337907Y-78312762D01*
X141337906Y-78312763D01*
X141287843Y-78349136D01*
X141188747Y-78421134D01*
X141060960Y-78563056D01*
X140965473Y-78728444D01*
X140906458Y-78910072D01*
X140886496Y-79100000D01*
X140906458Y-79289928D01*
X140965473Y-79471556D01*
X140968776Y-79477278D01*
X140968777Y-79477279D01*
X140994949Y-79522610D01*
X141060960Y-79636944D01*
X141134137Y-79718215D01*
X141164853Y-79782221D01*
X141166500Y-79802524D01*
X141166500Y-80445847D01*
X141165973Y-80457030D01*
X141164298Y-80464523D01*
X141164547Y-80472449D01*
X141164547Y-80472450D01*
X141166438Y-80532600D01*
X141166500Y-80536559D01*
X141166500Y-80564470D01*
X141166997Y-80568404D01*
X141166997Y-80568405D01*
X141167005Y-80568470D01*
X141167938Y-80580307D01*
X141169327Y-80624503D01*
X141174978Y-80643953D01*
X141178987Y-80663314D01*
X141180231Y-80673157D01*
X141181526Y-80683411D01*
X141184445Y-80690782D01*
X141184445Y-80690784D01*
X141197804Y-80724526D01*
X141201649Y-80735756D01*
X141213982Y-80778207D01*
X141218015Y-80785026D01*
X141218017Y-80785031D01*
X141224293Y-80795642D01*
X141232988Y-80813390D01*
X141240448Y-80832231D01*
X141245110Y-80838647D01*
X141245110Y-80838648D01*
X141266436Y-80868001D01*
X141272952Y-80877921D01*
X141286009Y-80900000D01*
X139960370Y-80900000D01*
X139939040Y-80863056D01*
X139894331Y-80813401D01*
X139815675Y-80726045D01*
X139815674Y-80726044D01*
X139811253Y-80721134D01*
X139688724Y-80632111D01*
X139662094Y-80612763D01*
X139662093Y-80612762D01*
X139656752Y-80608882D01*
X139650724Y-80606198D01*
X139650722Y-80606197D01*
X139508251Y-80542765D01*
X139454155Y-80496785D01*
X139433500Y-80427658D01*
X139433500Y-78314595D01*
X139453502Y-78246474D01*
X139470405Y-78225499D01*
X139825501Y-77870404D01*
X139887813Y-77836379D01*
X139914596Y-77833500D01*
X156471097Y-77833500D01*
X156539218Y-77853502D01*
G37*
%TD.AperFunction*%
%TD*%
%TA.AperFunction,Conductor*%
%TO.N,+5V*%
G36*
X141442121Y-70035109D02*
G01*
X141488614Y-70088765D01*
X141500000Y-70141107D01*
X141500000Y-73290980D01*
X141479998Y-73359101D01*
X141426342Y-73405594D01*
X141374000Y-73416980D01*
X132992571Y-73416980D01*
X132981388Y-73416453D01*
X132973895Y-73414778D01*
X132965969Y-73415027D01*
X132965968Y-73415027D01*
X132905805Y-73416918D01*
X132901847Y-73416980D01*
X132873947Y-73416980D01*
X132869957Y-73417484D01*
X132858123Y-73418416D01*
X132813914Y-73419806D01*
X132806298Y-73422019D01*
X132806296Y-73422019D01*
X132794455Y-73425459D01*
X132775096Y-73429468D01*
X132773786Y-73429634D01*
X132755006Y-73432006D01*
X132747640Y-73434922D01*
X132747634Y-73434924D01*
X132713901Y-73448280D01*
X132702671Y-73452125D01*
X132686631Y-73456785D01*
X132660210Y-73464461D01*
X132653387Y-73468496D01*
X132642769Y-73474775D01*
X132625016Y-73483472D01*
X132617371Y-73486499D01*
X132606186Y-73490928D01*
X132599771Y-73495589D01*
X132570415Y-73516917D01*
X132560498Y-73523431D01*
X132522441Y-73545938D01*
X132508120Y-73560259D01*
X132493087Y-73573099D01*
X132476696Y-73585008D01*
X132466778Y-73596997D01*
X132448505Y-73619085D01*
X132440515Y-73627864D01*
X131009541Y-75058837D01*
X130947229Y-75092863D01*
X130876413Y-75087798D01*
X130819578Y-75045251D01*
X130794767Y-74978731D01*
X130813186Y-74903626D01*
X130839369Y-74861150D01*
X130839370Y-74861148D01*
X130843209Y-74854920D01*
X130897974Y-74689809D01*
X130908500Y-74587072D01*
X130908500Y-74012928D01*
X130899982Y-73930830D01*
X130898419Y-73915765D01*
X130898418Y-73915761D01*
X130897707Y-73908907D01*
X130842654Y-73743893D01*
X130751116Y-73595969D01*
X130715344Y-73560259D01*
X130633184Y-73478242D01*
X130633179Y-73478238D01*
X130628003Y-73473071D01*
X130610448Y-73462250D01*
X130486150Y-73385631D01*
X130486148Y-73385630D01*
X130479920Y-73381791D01*
X130314809Y-73327026D01*
X130307973Y-73326326D01*
X130307970Y-73326325D01*
X130256474Y-73321049D01*
X130212072Y-73316500D01*
X129512928Y-73316500D01*
X129509682Y-73316837D01*
X129509678Y-73316837D01*
X129415765Y-73326581D01*
X129415761Y-73326582D01*
X129408907Y-73327293D01*
X129402371Y-73329474D01*
X129402369Y-73329474D01*
X129313567Y-73359101D01*
X129243893Y-73382346D01*
X129095969Y-73473884D01*
X129090797Y-73479065D01*
X129088727Y-73481139D01*
X129086962Y-73482105D01*
X129085059Y-73483613D01*
X129084801Y-73483287D01*
X129026446Y-73515219D01*
X128955625Y-73510218D01*
X128910530Y-73481292D01*
X128907869Y-73478636D01*
X128896460Y-73469625D01*
X128760937Y-73386088D01*
X128747759Y-73379944D01*
X128596234Y-73329685D01*
X128582868Y-73326819D01*
X128490230Y-73317328D01*
X128483815Y-73317000D01*
X128409615Y-73317000D01*
X128394376Y-73321475D01*
X128393171Y-73322865D01*
X128391500Y-73330548D01*
X128391500Y-75264885D01*
X128395975Y-75280124D01*
X128397365Y-75281329D01*
X128405048Y-75283000D01*
X128483766Y-75283000D01*
X128490282Y-75282663D01*
X128584132Y-75272925D01*
X128597528Y-75270032D01*
X128734675Y-75224276D01*
X128805624Y-75221692D01*
X128866708Y-75257875D01*
X128898533Y-75321340D01*
X128896593Y-75375133D01*
X128891500Y-75394970D01*
X128891500Y-75415224D01*
X128889949Y-75434934D01*
X128886780Y-75454943D01*
X128887526Y-75462835D01*
X128890941Y-75498961D01*
X128891500Y-75510819D01*
X128891500Y-75985126D01*
X128871498Y-76053247D01*
X128866339Y-76060673D01*
X128849385Y-76083295D01*
X128798255Y-76219684D01*
X128791500Y-76281866D01*
X128791500Y-77179000D01*
X128771498Y-77247121D01*
X128717842Y-77293614D01*
X128665500Y-77305000D01*
X128010116Y-77305000D01*
X127994877Y-77309475D01*
X127993672Y-77310865D01*
X127992001Y-77318548D01*
X127992001Y-77665500D01*
X127971999Y-77733621D01*
X127918343Y-77780114D01*
X127866001Y-77791500D01*
X126481866Y-77791500D01*
X126419684Y-77798255D01*
X126283295Y-77849385D01*
X126276110Y-77854770D01*
X126276108Y-77854771D01*
X126249349Y-77874826D01*
X126182842Y-77899674D01*
X126173784Y-77900000D01*
X126100000Y-77900000D01*
X126100000Y-77986056D01*
X126084568Y-78046379D01*
X126079385Y-78053295D01*
X126028255Y-78189684D01*
X126021500Y-78251866D01*
X126021500Y-78798134D01*
X126028255Y-78860316D01*
X126033082Y-78873192D01*
X126035923Y-78880770D01*
X126041106Y-78951577D01*
X126035923Y-78969229D01*
X126028255Y-78989684D01*
X126021500Y-79051866D01*
X126021500Y-79598134D01*
X126028255Y-79660316D01*
X126035923Y-79680770D01*
X126041106Y-79751577D01*
X126035923Y-79769229D01*
X126028255Y-79789684D01*
X126021500Y-79851866D01*
X126021500Y-80165500D01*
X126001498Y-80233621D01*
X125947842Y-80280114D01*
X125895500Y-80291500D01*
X123953767Y-80291500D01*
X123942584Y-80290973D01*
X123935091Y-80289298D01*
X123927165Y-80289547D01*
X123927164Y-80289547D01*
X123867014Y-80291438D01*
X123863055Y-80291500D01*
X123835144Y-80291500D01*
X123831210Y-80291997D01*
X123831209Y-80291997D01*
X123831144Y-80292005D01*
X123819307Y-80292938D01*
X123787490Y-80293938D01*
X123783029Y-80294078D01*
X123775110Y-80294327D01*
X123757454Y-80299456D01*
X123755658Y-80299978D01*
X123736306Y-80303986D01*
X123729235Y-80304880D01*
X123716203Y-80306526D01*
X123708834Y-80309443D01*
X123708832Y-80309444D01*
X123675097Y-80322800D01*
X123663869Y-80326645D01*
X123621407Y-80338982D01*
X123614584Y-80343017D01*
X123614582Y-80343018D01*
X123603972Y-80349293D01*
X123586224Y-80357988D01*
X123567383Y-80365448D01*
X123560964Y-80370111D01*
X123560965Y-80370111D01*
X123538626Y-80386341D01*
X123510846Y-80400000D01*
X123500000Y-80400000D01*
X123454339Y-80445661D01*
X123450008Y-80449360D01*
X123450085Y-80449442D01*
X123444307Y-80454868D01*
X123437893Y-80459528D01*
X123432840Y-80465636D01*
X123429325Y-80469885D01*
X123421335Y-80478665D01*
X122700000Y-81200000D01*
X122700000Y-81205034D01*
X122693720Y-81213703D01*
X122688844Y-81218895D01*
X122688839Y-81218902D01*
X122683414Y-81224679D01*
X122679595Y-81231626D01*
X122679594Y-81231627D01*
X122673652Y-81242434D01*
X122662801Y-81258953D01*
X122650386Y-81274959D01*
X122647241Y-81282228D01*
X122647238Y-81282232D01*
X122632826Y-81315537D01*
X122627609Y-81326187D01*
X122606305Y-81364940D01*
X122604334Y-81372615D01*
X122604334Y-81372616D01*
X122601267Y-81384562D01*
X122594863Y-81403266D01*
X122586819Y-81421855D01*
X122585580Y-81429678D01*
X122585577Y-81429688D01*
X122579901Y-81465524D01*
X122577495Y-81477144D01*
X122566500Y-81519970D01*
X122566500Y-81540224D01*
X122564949Y-81559934D01*
X122561780Y-81579943D01*
X122562526Y-81587835D01*
X122565941Y-81623961D01*
X122566500Y-81635819D01*
X122566500Y-81893508D01*
X122546498Y-81961629D01*
X122492842Y-82008122D01*
X122422568Y-82018226D01*
X122414303Y-82016755D01*
X122301944Y-81992872D01*
X122301939Y-81992872D01*
X122295487Y-81991500D01*
X122104513Y-81991500D01*
X122098061Y-81992872D01*
X122098056Y-81992872D01*
X122026313Y-82008122D01*
X121917712Y-82031206D01*
X121911682Y-82033891D01*
X121911681Y-82033891D01*
X121749278Y-82106197D01*
X121749276Y-82106198D01*
X121743248Y-82108882D01*
X121737907Y-82112762D01*
X121737906Y-82112763D01*
X121715089Y-82129341D01*
X121588747Y-82221134D01*
X121460960Y-82363056D01*
X121381895Y-82500000D01*
X121000000Y-82500000D01*
X121000000Y-76836885D01*
X127992000Y-76836885D01*
X127996475Y-76852124D01*
X127997865Y-76853329D01*
X128005548Y-76855000D01*
X128481885Y-76855000D01*
X128497124Y-76850525D01*
X128498329Y-76849135D01*
X128500000Y-76841452D01*
X128500000Y-75840116D01*
X128495525Y-75824877D01*
X128494135Y-75823672D01*
X128486452Y-75822001D01*
X128455331Y-75822001D01*
X128448510Y-75822371D01*
X128397648Y-75827895D01*
X128382396Y-75831521D01*
X128261946Y-75876676D01*
X128246351Y-75885214D01*
X128144276Y-75961715D01*
X128131715Y-75974276D01*
X128055214Y-76076351D01*
X128046676Y-76091946D01*
X128001522Y-76212394D01*
X127997895Y-76227649D01*
X127992369Y-76278514D01*
X127992000Y-76285328D01*
X127992000Y-76836885D01*
X121000000Y-76836885D01*
X121000000Y-74583766D01*
X127092000Y-74583766D01*
X127092337Y-74590282D01*
X127102075Y-74684132D01*
X127104968Y-74697528D01*
X127155488Y-74848953D01*
X127161653Y-74862115D01*
X127245426Y-74997492D01*
X127254460Y-75008890D01*
X127367129Y-75121363D01*
X127378540Y-75130375D01*
X127514063Y-75213912D01*
X127527241Y-75220056D01*
X127678766Y-75270315D01*
X127692132Y-75273181D01*
X127784770Y-75282672D01*
X127791185Y-75283000D01*
X127865385Y-75283000D01*
X127880624Y-75278525D01*
X127881829Y-75277135D01*
X127883500Y-75269452D01*
X127883500Y-74572115D01*
X127879025Y-74556876D01*
X127877635Y-74555671D01*
X127869952Y-74554000D01*
X127110115Y-74554000D01*
X127094876Y-74558475D01*
X127093671Y-74559865D01*
X127092000Y-74567548D01*
X127092000Y-74583766D01*
X121000000Y-74583766D01*
X121000000Y-74027885D01*
X127092000Y-74027885D01*
X127096475Y-74043124D01*
X127097865Y-74044329D01*
X127105548Y-74046000D01*
X127865385Y-74046000D01*
X127880624Y-74041525D01*
X127881829Y-74040135D01*
X127883500Y-74032452D01*
X127883500Y-73335115D01*
X127879025Y-73319876D01*
X127877635Y-73318671D01*
X127869952Y-73317000D01*
X127791234Y-73317000D01*
X127784718Y-73317337D01*
X127690868Y-73327075D01*
X127677472Y-73329968D01*
X127526047Y-73380488D01*
X127512885Y-73386653D01*
X127377508Y-73470426D01*
X127366110Y-73479460D01*
X127253637Y-73592129D01*
X127244625Y-73603540D01*
X127161088Y-73739063D01*
X127154944Y-73752241D01*
X127104685Y-73903766D01*
X127101819Y-73917132D01*
X127092328Y-74009770D01*
X127092000Y-74016185D01*
X127092000Y-74027885D01*
X121000000Y-74027885D01*
X121000000Y-70015107D01*
X141374000Y-70015107D01*
X141442121Y-70035109D01*
G37*
%TD.AperFunction*%
%TD*%
%TA.AperFunction,Conductor*%
%TO.N,+5V*%
G36*
X149267460Y-96600000D02*
G01*
X143328373Y-96600000D01*
X143331528Y-96587711D01*
X143331528Y-96587710D01*
X143333500Y-96580030D01*
X143333500Y-96559776D01*
X143335051Y-96540065D01*
X143336980Y-96527886D01*
X143338220Y-96520057D01*
X143334059Y-96476038D01*
X143333500Y-96464181D01*
X143333500Y-90760181D01*
X143353502Y-90692060D01*
X143407158Y-90645567D01*
X143477432Y-90635463D01*
X143541330Y-90664370D01*
X143610879Y-90723770D01*
X143813265Y-90847793D01*
X143817835Y-90849686D01*
X143817837Y-90849687D01*
X144027988Y-90936734D01*
X144032561Y-90938628D01*
X144113660Y-90958098D01*
X144258554Y-90992885D01*
X144258560Y-90992886D01*
X144263367Y-90994040D01*
X144500000Y-91012663D01*
X144736633Y-90994040D01*
X144741440Y-90992886D01*
X144741446Y-90992885D01*
X144886340Y-90958098D01*
X144967439Y-90938628D01*
X144972012Y-90936734D01*
X145182163Y-90849687D01*
X145182165Y-90849686D01*
X145186735Y-90847793D01*
X145389121Y-90723770D01*
X145569614Y-90569614D01*
X145723770Y-90389121D01*
X145839664Y-90200000D01*
X149267460Y-90200000D01*
X149267460Y-96600000D01*
G37*
%TD.AperFunction*%
%TD*%
%TA.AperFunction,Conductor*%
%TO.N,GND*%
G36*
X158016980Y-73416980D02*
G01*
X157000000Y-73416980D01*
X157000000Y-72400000D01*
X158016980Y-73416980D01*
G37*
%TD.AperFunction*%
%TD*%
%TA.AperFunction,Conductor*%
%TO.N,GND*%
G36*
X169300000Y-114700000D02*
G01*
X169300000Y-119300000D01*
X168213504Y-119300000D01*
X168213452Y-119299509D01*
X168226399Y-119252203D01*
X168223645Y-119251011D01*
X168241205Y-119210432D01*
X168246422Y-119199782D01*
X168267726Y-119161029D01*
X168272764Y-119141406D01*
X168279168Y-119122703D01*
X168284064Y-119111389D01*
X168284064Y-119111388D01*
X168287212Y-119104114D01*
X168288451Y-119096291D01*
X168288454Y-119096281D01*
X168294130Y-119060445D01*
X168296536Y-119048825D01*
X168305559Y-119013680D01*
X168305559Y-119013679D01*
X168307531Y-119005999D01*
X168307531Y-118985745D01*
X168309082Y-118966034D01*
X168311011Y-118953855D01*
X168312251Y-118946026D01*
X168308090Y-118902007D01*
X168307531Y-118890150D01*
X168307531Y-114096126D01*
X168308058Y-114084943D01*
X168309733Y-114077450D01*
X168307593Y-114009359D01*
X168307531Y-114005402D01*
X168307531Y-113977502D01*
X168307027Y-113973511D01*
X168306094Y-113961669D01*
X168304954Y-113925394D01*
X168304705Y-113917469D01*
X168302493Y-113909855D01*
X168302492Y-113909850D01*
X168299054Y-113898017D01*
X168295043Y-113878653D01*
X168293498Y-113866422D01*
X168292505Y-113858561D01*
X168289588Y-113851194D01*
X168289587Y-113851189D01*
X168276229Y-113817450D01*
X168272385Y-113806223D01*
X168262261Y-113771380D01*
X168260049Y-113763765D01*
X168249738Y-113746330D01*
X168241043Y-113728582D01*
X168233583Y-113709741D01*
X168207595Y-113673971D01*
X168201079Y-113664051D01*
X168182611Y-113632823D01*
X168182609Y-113632820D01*
X168178573Y-113625996D01*
X168164252Y-113611675D01*
X168151411Y-113596641D01*
X168144163Y-113586665D01*
X168139503Y-113580251D01*
X168105432Y-113552065D01*
X168096653Y-113544076D01*
X168000000Y-113447423D01*
X168000000Y-113400000D01*
X169300000Y-114700000D01*
G37*
%TD.AperFunction*%
%TD*%
%TA.AperFunction,Conductor*%
%TO.N,GND*%
G36*
X164962950Y-70016607D02*
G01*
X164977751Y-70018912D01*
X164977755Y-70018912D01*
X164986624Y-70020293D01*
X164995526Y-70019129D01*
X164995530Y-70019129D01*
X164995626Y-70019116D01*
X165026063Y-70018845D01*
X165088268Y-70025853D01*
X165115775Y-70032131D01*
X165192964Y-70059141D01*
X165218384Y-70071383D01*
X165287631Y-70114894D01*
X165309690Y-70132486D01*
X165367514Y-70190310D01*
X165385106Y-70212369D01*
X165428617Y-70281616D01*
X165440859Y-70307037D01*
X165467868Y-70384224D01*
X165474147Y-70411731D01*
X165480415Y-70467358D01*
X165481198Y-70483004D01*
X165481089Y-70491962D01*
X165479707Y-70500836D01*
X165498575Y-70645123D01*
X165500566Y-70649648D01*
X165503910Y-70668917D01*
X165507090Y-70713382D01*
X165552942Y-70924161D01*
X165554509Y-70928363D01*
X165554511Y-70928369D01*
X165577726Y-70990610D01*
X165628325Y-71126269D01*
X165731703Y-71315592D01*
X165860972Y-71488276D01*
X166013501Y-71640805D01*
X166186185Y-71770074D01*
X166375508Y-71873452D01*
X166379720Y-71875023D01*
X166573408Y-71947266D01*
X166573414Y-71947268D01*
X166577616Y-71948835D01*
X166582002Y-71949789D01*
X166582005Y-71949790D01*
X166706175Y-71976801D01*
X166788395Y-71994687D01*
X166792883Y-71995008D01*
X166963151Y-72007186D01*
X166975060Y-72008610D01*
X166991016Y-72011294D01*
X166997371Y-72011372D01*
X166998696Y-72011388D01*
X166998700Y-72011388D01*
X167003555Y-72011447D01*
X167008364Y-72010758D01*
X167008367Y-72010758D01*
X167016992Y-72009522D01*
X167030577Y-72007577D01*
X167048660Y-72006304D01*
X168056982Y-72008102D01*
X168961910Y-72009716D01*
X168981068Y-72011216D01*
X168984854Y-72011806D01*
X168984861Y-72011806D01*
X168993730Y-72013187D01*
X169002632Y-72012023D01*
X169002636Y-72012023D01*
X169002732Y-72012010D01*
X169033169Y-72011739D01*
X169095374Y-72018747D01*
X169122881Y-72025025D01*
X169200070Y-72052035D01*
X169225490Y-72064277D01*
X169294737Y-72107788D01*
X169316796Y-72125380D01*
X169374620Y-72183204D01*
X169392212Y-72205263D01*
X169435723Y-72274510D01*
X169447965Y-72299931D01*
X169447989Y-72300000D01*
X157000000Y-72300000D01*
X157000000Y-70015107D01*
X164943566Y-70015107D01*
X164962950Y-70016607D01*
G37*
%TD.AperFunction*%
%TD*%
%TA.AperFunction,Conductor*%
%TO.N,GND*%
G36*
X169491999Y-86600000D02*
G01*
X168656091Y-86600000D01*
X168656091Y-86586705D01*
X168657642Y-86566994D01*
X168659571Y-86554815D01*
X168660811Y-86546986D01*
X168656650Y-86502967D01*
X168656091Y-86491110D01*
X168656091Y-83601359D01*
X168656618Y-83590176D01*
X168658293Y-83582683D01*
X168656153Y-83514592D01*
X168656091Y-83510635D01*
X168656091Y-83482735D01*
X168655587Y-83478744D01*
X168654654Y-83466902D01*
X168653514Y-83430627D01*
X168653265Y-83422702D01*
X168647612Y-83403243D01*
X168643603Y-83383884D01*
X168643437Y-83382574D01*
X168641065Y-83363794D01*
X168638149Y-83356428D01*
X168638147Y-83356422D01*
X168624791Y-83322689D01*
X168620946Y-83311459D01*
X168610821Y-83276608D01*
X168610821Y-83276607D01*
X168608610Y-83268998D01*
X168598296Y-83251557D01*
X168589599Y-83233804D01*
X168585063Y-83222349D01*
X168582143Y-83214974D01*
X168556154Y-83179203D01*
X168549638Y-83169283D01*
X168531169Y-83138054D01*
X168527133Y-83131229D01*
X168512812Y-83116908D01*
X168499971Y-83101874D01*
X168488063Y-83085484D01*
X168453986Y-83057293D01*
X168445207Y-83049303D01*
X167247122Y-81851217D01*
X167213096Y-81788905D01*
X167210907Y-81775292D01*
X167194232Y-81616635D01*
X167194232Y-81616633D01*
X167193542Y-81610072D01*
X167134527Y-81428444D01*
X167039040Y-81263056D01*
X166911253Y-81121134D01*
X166800000Y-81040304D01*
X166800000Y-80800000D01*
X164533500Y-80800000D01*
X164533500Y-79943050D01*
X164534027Y-79931867D01*
X164535702Y-79924374D01*
X164533562Y-79856283D01*
X164533500Y-79852326D01*
X164533500Y-79824426D01*
X164532996Y-79820435D01*
X164532063Y-79808593D01*
X164530923Y-79772318D01*
X164530674Y-79764393D01*
X164525021Y-79744934D01*
X164521012Y-79725575D01*
X164520846Y-79724265D01*
X164518474Y-79705485D01*
X164516302Y-79700000D01*
X169491999Y-79700000D01*
X169491999Y-86600000D01*
G37*
%TD.AperFunction*%
%TD*%
%TA.AperFunction,Conductor*%
%TO.N,+5V*%
G36*
X158658621Y-114166002D02*
G01*
X158705114Y-114219658D01*
X158716500Y-114272000D01*
X158716500Y-115364885D01*
X158720975Y-115380124D01*
X158722365Y-115381329D01*
X158730048Y-115383000D01*
X158808766Y-115383000D01*
X158815282Y-115382663D01*
X158909132Y-115372925D01*
X158922528Y-115370032D01*
X158978024Y-115351517D01*
X159048974Y-115348933D01*
X159110058Y-115385117D01*
X159141882Y-115448581D01*
X159143900Y-115471041D01*
X159143900Y-120308005D01*
X159123898Y-120376126D01*
X159106995Y-120397101D01*
X158799499Y-120704596D01*
X158737187Y-120738621D01*
X158710404Y-120741500D01*
X158654513Y-120741500D01*
X158648061Y-120742872D01*
X158648056Y-120742872D01*
X158561113Y-120761353D01*
X158467712Y-120781206D01*
X158461682Y-120783891D01*
X158461681Y-120783891D01*
X158299278Y-120856197D01*
X158299276Y-120856198D01*
X158293248Y-120858882D01*
X158287907Y-120862762D01*
X158287906Y-120862763D01*
X158200398Y-120926342D01*
X158143366Y-120967778D01*
X158143364Y-120967779D01*
X158138747Y-120971134D01*
X158138134Y-120970290D01*
X158079658Y-120998353D01*
X158059353Y-121000000D01*
X158009500Y-121000000D01*
X157941379Y-120979998D01*
X157894886Y-120926342D01*
X157883500Y-120874000D01*
X157883500Y-119228767D01*
X157884027Y-119217584D01*
X157885702Y-119210091D01*
X157884738Y-119179405D01*
X157883562Y-119142014D01*
X157883500Y-119138055D01*
X157883500Y-119110144D01*
X157882995Y-119106144D01*
X157882062Y-119094301D01*
X157880922Y-119058030D01*
X157880673Y-119050111D01*
X157875021Y-119030657D01*
X157871013Y-119011300D01*
X157869468Y-118999070D01*
X157869468Y-118999069D01*
X157868474Y-118991203D01*
X157865555Y-118983830D01*
X157852196Y-118950088D01*
X157848351Y-118938858D01*
X157838229Y-118904017D01*
X157838229Y-118904016D01*
X157836018Y-118896407D01*
X157831985Y-118889588D01*
X157831983Y-118889583D01*
X157825707Y-118878972D01*
X157817012Y-118861224D01*
X157809552Y-118842383D01*
X157783564Y-118806613D01*
X157777048Y-118796693D01*
X157758580Y-118765465D01*
X157758578Y-118765462D01*
X157754542Y-118758638D01*
X157740221Y-118744317D01*
X157727380Y-118729283D01*
X157720131Y-118719306D01*
X157715472Y-118712893D01*
X157709368Y-118707843D01*
X157709363Y-118707838D01*
X157681402Y-118684707D01*
X157672621Y-118676717D01*
X156869924Y-117874019D01*
X156835899Y-117811707D01*
X156833020Y-117784924D01*
X156833020Y-116734500D01*
X156853022Y-116666379D01*
X156906678Y-116619886D01*
X156959020Y-116608500D01*
X156995487Y-116608500D01*
X157001939Y-116607128D01*
X157001944Y-116607128D01*
X157088887Y-116588647D01*
X157182288Y-116568794D01*
X157188319Y-116566109D01*
X157350722Y-116493803D01*
X157350724Y-116493802D01*
X157356752Y-116491118D01*
X157511253Y-116378866D01*
X157639040Y-116236944D01*
X157734527Y-116071556D01*
X157793542Y-115889928D01*
X157813504Y-115700000D01*
X157793542Y-115510072D01*
X157791500Y-115503788D01*
X157790574Y-115499431D01*
X157795974Y-115428640D01*
X157838790Y-115372006D01*
X157905427Y-115347511D01*
X157953488Y-115353638D01*
X158003769Y-115370316D01*
X158017132Y-115373181D01*
X158109770Y-115382672D01*
X158116185Y-115383000D01*
X158190385Y-115383000D01*
X158205624Y-115378525D01*
X158206829Y-115377135D01*
X158208500Y-115369452D01*
X158208500Y-114272000D01*
X158228502Y-114203879D01*
X158282158Y-114157386D01*
X158334500Y-114146000D01*
X158590500Y-114146000D01*
X158658621Y-114166002D01*
G37*
%TD.AperFunction*%
%TD*%
%TA.AperFunction,Conductor*%
%TO.N,GND*%
G36*
X169492000Y-114700000D02*
G01*
X169300000Y-114700000D01*
X168000000Y-113400000D01*
X168000000Y-106274491D01*
X168141767Y-106132724D01*
X168150057Y-106125180D01*
X168156538Y-106121067D01*
X168203179Y-106071399D01*
X168205933Y-106068558D01*
X168225654Y-106048837D01*
X168228132Y-106045642D01*
X168235838Y-106036620D01*
X168260678Y-106010168D01*
X168266106Y-106004388D01*
X168275866Y-105986635D01*
X168286719Y-105970112D01*
X168294273Y-105960373D01*
X168299133Y-105954108D01*
X168316696Y-105913524D01*
X168321903Y-105902894D01*
X168343215Y-105864127D01*
X168345186Y-105856450D01*
X168345188Y-105856445D01*
X168348252Y-105844509D01*
X168354658Y-105825797D01*
X168359553Y-105814486D01*
X168362701Y-105807212D01*
X168363941Y-105799384D01*
X168363943Y-105799377D01*
X168369619Y-105763543D01*
X168372025Y-105751923D01*
X168381048Y-105716778D01*
X168381048Y-105716777D01*
X168383020Y-105709097D01*
X168383020Y-105688843D01*
X168384571Y-105669132D01*
X168386500Y-105656953D01*
X168387740Y-105649124D01*
X168383579Y-105605105D01*
X168383020Y-105593248D01*
X168383020Y-87115473D01*
X168403022Y-87047352D01*
X168426442Y-87020939D01*
X168429609Y-87018929D01*
X168476250Y-86969261D01*
X168479004Y-86966420D01*
X168498726Y-86946698D01*
X168501210Y-86943496D01*
X168508908Y-86934484D01*
X168533752Y-86908027D01*
X168539177Y-86902250D01*
X168548938Y-86884495D01*
X168559789Y-86867976D01*
X168572205Y-86851970D01*
X168575355Y-86844691D01*
X168589765Y-86811392D01*
X168594982Y-86800742D01*
X168616286Y-86761989D01*
X168621324Y-86742366D01*
X168627728Y-86723663D01*
X168632624Y-86712349D01*
X168632624Y-86712348D01*
X168635772Y-86705074D01*
X168637011Y-86697251D01*
X168637014Y-86697241D01*
X168642690Y-86661405D01*
X168645096Y-86649785D01*
X168654119Y-86614640D01*
X168654119Y-86614639D01*
X168656091Y-86606959D01*
X168656091Y-86600000D01*
X169491999Y-86600000D01*
X169492000Y-114700000D01*
G37*
%TD.AperFunction*%
%TD*%
%TA.AperFunction,Conductor*%
%TO.N,+5V*%
G36*
X163776866Y-110108500D02*
G01*
X164540500Y-110108500D01*
X164608621Y-110128502D01*
X164655114Y-110182158D01*
X164666500Y-110234500D01*
X164666500Y-114497476D01*
X164646498Y-114565597D01*
X164634142Y-114581779D01*
X164560960Y-114663056D01*
X164465473Y-114828444D01*
X164406458Y-115010072D01*
X164386496Y-115200000D01*
X164406458Y-115389928D01*
X164408498Y-115396206D01*
X164460333Y-115555737D01*
X164466500Y-115594673D01*
X164466500Y-116628000D01*
X164446498Y-116696121D01*
X164392842Y-116742614D01*
X164340500Y-116754000D01*
X164084500Y-116754000D01*
X164016379Y-116733998D01*
X163969886Y-116680342D01*
X163958500Y-116628000D01*
X163958500Y-115535115D01*
X163954025Y-115519876D01*
X163952635Y-115518671D01*
X163944952Y-115517000D01*
X163916234Y-115517000D01*
X163909718Y-115517337D01*
X163815868Y-115527075D01*
X163802472Y-115529968D01*
X163651047Y-115580488D01*
X163637885Y-115586653D01*
X163502508Y-115670426D01*
X163491110Y-115679460D01*
X163389607Y-115781140D01*
X163327324Y-115815219D01*
X163256504Y-115810216D01*
X163211416Y-115781295D01*
X163120482Y-115690519D01*
X163086403Y-115628236D01*
X163083500Y-115601346D01*
X163083500Y-110227923D01*
X163103502Y-110159802D01*
X163157158Y-110113309D01*
X163223108Y-110102660D01*
X163276866Y-110108500D01*
X163623134Y-110108500D01*
X163685316Y-110101745D01*
X163685580Y-110104174D01*
X163714420Y-110104174D01*
X163714684Y-110101745D01*
X163776866Y-110108500D01*
G37*
%TD.AperFunction*%
%TD*%
%TA.AperFunction,Conductor*%
%TO.N,GND*%
G36*
X165400062Y-117059741D02*
G01*
X165443248Y-117091118D01*
X165515066Y-117123093D01*
X165569162Y-117169073D01*
X165589127Y-117225029D01*
X165606458Y-117389928D01*
X165665473Y-117571556D01*
X165760960Y-117736944D01*
X165888747Y-117878866D01*
X165894091Y-117882749D01*
X165898998Y-117887167D01*
X165897176Y-117889191D01*
X165933159Y-117935883D01*
X165939213Y-118006621D01*
X165935565Y-118020492D01*
X165906458Y-118110072D01*
X165905768Y-118116633D01*
X165905768Y-118116635D01*
X165894445Y-118224367D01*
X165886496Y-118300000D01*
X165906458Y-118489928D01*
X165965473Y-118671556D01*
X166060960Y-118836944D01*
X166188747Y-118978866D01*
X166343248Y-119091118D01*
X166341768Y-119093156D01*
X166382935Y-119136338D01*
X166396246Y-119207233D01*
X166386496Y-119300000D01*
X166406458Y-119489928D01*
X166465473Y-119671556D01*
X166560960Y-119836944D01*
X166688747Y-119978866D01*
X166824349Y-120077387D01*
X166663408Y-120667504D01*
X163711000Y-117715095D01*
X163676974Y-117652783D01*
X163682039Y-117581967D01*
X163724586Y-117525132D01*
X163791106Y-117500321D01*
X163800095Y-117500000D01*
X165000000Y-117500000D01*
X165200000Y-117300000D01*
X165200000Y-117161677D01*
X165220002Y-117093556D01*
X165273658Y-117047063D01*
X165343932Y-117036959D01*
X165400062Y-117059741D01*
G37*
%TD.AperFunction*%
%TD*%
%TA.AperFunction,Conductor*%
%TO.N,GND*%
G36*
X157200000Y-73416980D02*
G01*
X142026000Y-73416980D01*
X141957879Y-73396978D01*
X141911386Y-73343322D01*
X141900000Y-73290980D01*
X141900000Y-70141107D01*
X141920002Y-70072986D01*
X141973658Y-70026493D01*
X142026000Y-70015107D01*
X157200000Y-70015107D01*
X157200000Y-73416980D01*
G37*
%TD.AperFunction*%
%TD*%
%TA.AperFunction,Conductor*%
%TO.N,+5V*%
G36*
X121365473Y-82528444D02*
G01*
X121306458Y-82710072D01*
X121305768Y-82716633D01*
X121305768Y-82716635D01*
X121289093Y-82875292D01*
X121262080Y-82940949D01*
X121252878Y-82951218D01*
X121114168Y-83089928D01*
X121000000Y-83204095D01*
X121000000Y-82500000D01*
X121381895Y-82500000D01*
X121365473Y-82528444D01*
G37*
%TD.AperFunction*%
%TD*%
%TA.AperFunction,Conductor*%
%TO.N,GND*%
G36*
X166800000Y-81040304D02*
G01*
X166762094Y-81012763D01*
X166762093Y-81012762D01*
X166756752Y-81008882D01*
X166750724Y-81006198D01*
X166750722Y-81006197D01*
X166588319Y-80933891D01*
X166588318Y-80933891D01*
X166582288Y-80931206D01*
X166488888Y-80911353D01*
X166401944Y-80892872D01*
X166401939Y-80892872D01*
X166395487Y-80891500D01*
X166361000Y-80891500D01*
X166300000Y-80800000D01*
X166800000Y-80800000D01*
X166800000Y-81040304D01*
G37*
%TD.AperFunction*%
%TD*%
%TA.AperFunction,Conductor*%
%TO.N,+5V*%
G36*
X140580488Y-93773953D02*
G01*
X140586653Y-93787115D01*
X140670426Y-93922492D01*
X140679460Y-93933890D01*
X140792129Y-94046363D01*
X140803540Y-94055375D01*
X140939063Y-94138912D01*
X140952241Y-94145056D01*
X141103766Y-94195315D01*
X141117132Y-94198181D01*
X141209770Y-94207672D01*
X141216185Y-94208000D01*
X141227885Y-94208000D01*
X141243124Y-94203525D01*
X141244329Y-94202135D01*
X141246000Y-94194452D01*
X141246000Y-93700000D01*
X141754000Y-93700000D01*
X141754000Y-94189885D01*
X141758475Y-94205124D01*
X141759865Y-94206329D01*
X141767548Y-94208000D01*
X141783766Y-94208000D01*
X141790282Y-94207663D01*
X141884132Y-94197925D01*
X141897535Y-94195030D01*
X141900626Y-94193999D01*
X141902652Y-94193925D01*
X141904269Y-94193576D01*
X141904331Y-94193864D01*
X141971575Y-94191415D01*
X142032659Y-94227600D01*
X142064482Y-94291064D01*
X142066500Y-94313523D01*
X142066500Y-94404952D01*
X142046498Y-94473073D01*
X141992842Y-94519566D01*
X141922568Y-94529670D01*
X141914090Y-94528153D01*
X141907868Y-94526819D01*
X141815230Y-94517328D01*
X141808815Y-94517000D01*
X141784615Y-94517000D01*
X141769376Y-94521475D01*
X141768171Y-94522865D01*
X141766500Y-94530548D01*
X141766500Y-95628000D01*
X141746498Y-95696121D01*
X141692842Y-95742614D01*
X141640500Y-95754000D01*
X141384500Y-95754000D01*
X141316379Y-95733998D01*
X141269886Y-95680342D01*
X141258500Y-95628000D01*
X141258500Y-94535115D01*
X141254025Y-94519876D01*
X141252635Y-94518671D01*
X141244952Y-94517000D01*
X141216234Y-94517000D01*
X141209718Y-94517337D01*
X141115868Y-94527075D01*
X141102472Y-94529968D01*
X140951047Y-94580488D01*
X140937885Y-94586653D01*
X140802508Y-94670426D01*
X140791110Y-94679460D01*
X140689607Y-94781140D01*
X140627324Y-94815219D01*
X140556504Y-94810216D01*
X140511416Y-94781295D01*
X140408183Y-94678242D01*
X140403003Y-94673071D01*
X140254920Y-94581791D01*
X140089809Y-94527026D01*
X140082973Y-94526326D01*
X140082970Y-94526325D01*
X140031474Y-94521049D01*
X139987072Y-94516500D01*
X139387928Y-94516500D01*
X139384682Y-94516837D01*
X139384678Y-94516837D01*
X139290765Y-94526581D01*
X139290761Y-94526582D01*
X139283907Y-94527293D01*
X139277371Y-94529474D01*
X139277369Y-94529474D01*
X139144605Y-94573768D01*
X139118893Y-94582346D01*
X138970969Y-94673884D01*
X138965796Y-94679066D01*
X138852684Y-94792375D01*
X138790401Y-94826454D01*
X138719581Y-94821451D01*
X138689450Y-94805293D01*
X138562094Y-94712763D01*
X138562093Y-94712762D01*
X138556752Y-94708882D01*
X138550724Y-94706198D01*
X138550722Y-94706197D01*
X138388319Y-94633891D01*
X138388318Y-94633891D01*
X138382288Y-94631206D01*
X138288888Y-94611353D01*
X138201944Y-94592872D01*
X138201939Y-94592872D01*
X138195487Y-94591500D01*
X138004513Y-94591500D01*
X137998061Y-94592872D01*
X137998056Y-94592872D01*
X137911113Y-94611353D01*
X137817712Y-94631206D01*
X137730512Y-94670030D01*
X137677249Y-94693744D01*
X137606882Y-94703178D01*
X137542585Y-94673072D01*
X137504771Y-94612983D01*
X137500000Y-94578637D01*
X137500000Y-93700000D01*
X140555815Y-93700000D01*
X140580488Y-93773953D01*
G37*
%TD.AperFunction*%
%TD*%
%TA.AperFunction,Conductor*%
%TO.N,+5V*%
G36*
X121000000Y-83151905D02*
G01*
X120979998Y-83220026D01*
X120963095Y-83241000D01*
X120807747Y-83396348D01*
X120799461Y-83403888D01*
X120792982Y-83408000D01*
X120787557Y-83413777D01*
X120746357Y-83457651D01*
X120743602Y-83460493D01*
X120723865Y-83480230D01*
X120721385Y-83483427D01*
X120713682Y-83492447D01*
X120683414Y-83524679D01*
X120679595Y-83531625D01*
X120679593Y-83531628D01*
X120673652Y-83542434D01*
X120662801Y-83558953D01*
X120650386Y-83574959D01*
X120647241Y-83582228D01*
X120647238Y-83582232D01*
X120632826Y-83615537D01*
X120627609Y-83626187D01*
X120606305Y-83664940D01*
X120604334Y-83672615D01*
X120604334Y-83672616D01*
X120601267Y-83684562D01*
X120594863Y-83703266D01*
X120586819Y-83721855D01*
X120585580Y-83729678D01*
X120585577Y-83729688D01*
X120579901Y-83765524D01*
X120577495Y-83777144D01*
X120566500Y-83819970D01*
X120566500Y-83840224D01*
X120564949Y-83859934D01*
X120561780Y-83879943D01*
X120562526Y-83887835D01*
X120565941Y-83923961D01*
X120566500Y-83935819D01*
X120566500Y-84921233D01*
X120565973Y-84932416D01*
X120564298Y-84939909D01*
X120564547Y-84947835D01*
X120564547Y-84947836D01*
X120566438Y-85007986D01*
X120566500Y-85011945D01*
X120566500Y-85039856D01*
X120566997Y-85043790D01*
X120566997Y-85043791D01*
X120567005Y-85043856D01*
X120567938Y-85055693D01*
X120569327Y-85099889D01*
X120574978Y-85119339D01*
X120578987Y-85138700D01*
X120581526Y-85158797D01*
X120584445Y-85166168D01*
X120584445Y-85166170D01*
X120597804Y-85199912D01*
X120601649Y-85211142D01*
X120613982Y-85253593D01*
X120618015Y-85260412D01*
X120618017Y-85260417D01*
X120624293Y-85271028D01*
X120632988Y-85288776D01*
X120640448Y-85307617D01*
X120645110Y-85314033D01*
X120645110Y-85314034D01*
X120666436Y-85343387D01*
X120672952Y-85353307D01*
X120683364Y-85370912D01*
X120695458Y-85391362D01*
X120709779Y-85405683D01*
X120722619Y-85420716D01*
X120734528Y-85437107D01*
X120768605Y-85465298D01*
X120777384Y-85473288D01*
X121180075Y-85875979D01*
X121214101Y-85938291D01*
X121216980Y-85965074D01*
X121216980Y-99534926D01*
X121196978Y-99603047D01*
X121180079Y-99624017D01*
X120207736Y-100596359D01*
X120199462Y-100603888D01*
X120192982Y-100608000D01*
X120187557Y-100613777D01*
X120146357Y-100657651D01*
X120143602Y-100660493D01*
X120123865Y-100680230D01*
X120121385Y-100683427D01*
X120113682Y-100692447D01*
X120083414Y-100724679D01*
X120079595Y-100731625D01*
X120079593Y-100731628D01*
X120073652Y-100742434D01*
X120062801Y-100758953D01*
X120050386Y-100774959D01*
X120047241Y-100782228D01*
X120047238Y-100782232D01*
X120032826Y-100815537D01*
X120027609Y-100826187D01*
X120006305Y-100864940D01*
X120004334Y-100872615D01*
X120004334Y-100872616D01*
X120001267Y-100884562D01*
X119994863Y-100903266D01*
X119986819Y-100921855D01*
X119985580Y-100929678D01*
X119985577Y-100929688D01*
X119979901Y-100965524D01*
X119977495Y-100977144D01*
X119966500Y-101019970D01*
X119966500Y-101040224D01*
X119964949Y-101059934D01*
X119961780Y-101079943D01*
X119962526Y-101087835D01*
X119965941Y-101123961D01*
X119966500Y-101135819D01*
X119966500Y-102021233D01*
X119965973Y-102032416D01*
X119964298Y-102039909D01*
X119964547Y-102047835D01*
X119964547Y-102047836D01*
X119966438Y-102107986D01*
X119966500Y-102111945D01*
X119966500Y-102139856D01*
X119966997Y-102143790D01*
X119966997Y-102143791D01*
X119967005Y-102143856D01*
X119967938Y-102155693D01*
X119969327Y-102199889D01*
X119974978Y-102219339D01*
X119978987Y-102238700D01*
X119981526Y-102258797D01*
X119984445Y-102266168D01*
X119984445Y-102266170D01*
X119997804Y-102299912D01*
X120001649Y-102311142D01*
X120013982Y-102353593D01*
X120018015Y-102360412D01*
X120018017Y-102360417D01*
X120024293Y-102371028D01*
X120032988Y-102388776D01*
X120040448Y-102407617D01*
X120045110Y-102414033D01*
X120045110Y-102414034D01*
X120066436Y-102443387D01*
X120072952Y-102453307D01*
X120095458Y-102491362D01*
X120109779Y-102505683D01*
X120122619Y-102520716D01*
X120134528Y-102537107D01*
X120140633Y-102542158D01*
X120140638Y-102542163D01*
X120168604Y-102565299D01*
X120177382Y-102573287D01*
X120604095Y-103000000D01*
X119510552Y-103000000D01*
X119515100Y-70556463D01*
X119516600Y-70537097D01*
X119518912Y-70522251D01*
X119518912Y-70522245D01*
X119520293Y-70513376D01*
X119519129Y-70504474D01*
X119519129Y-70504470D01*
X119519116Y-70504374D01*
X119518845Y-70473937D01*
X119525853Y-70411732D01*
X119532132Y-70384222D01*
X119559141Y-70307036D01*
X119571383Y-70281616D01*
X119614894Y-70212369D01*
X119632486Y-70190310D01*
X119690310Y-70132486D01*
X119712369Y-70114894D01*
X119781616Y-70071383D01*
X119807037Y-70059141D01*
X119884224Y-70032132D01*
X119911731Y-70025853D01*
X119935679Y-70023155D01*
X119967363Y-70019585D01*
X119983004Y-70018802D01*
X119991962Y-70018911D01*
X120000836Y-70020293D01*
X120032358Y-70016171D01*
X120048695Y-70015107D01*
X121000000Y-70015107D01*
X121000000Y-83151905D01*
G37*
%TD.AperFunction*%
%TD*%
%TA.AperFunction,Conductor*%
%TO.N,GND*%
G36*
X169492000Y-119200000D02*
G01*
X169300000Y-119200000D01*
X169300000Y-114700000D01*
X169492000Y-114700000D01*
X169492000Y-119200000D01*
G37*
%TD.AperFunction*%
%TD*%
%TA.AperFunction,Conductor*%
%TO.N,+5V*%
G36*
X120840448Y-113407617D02*
G01*
X120845110Y-113414033D01*
X120845110Y-113414034D01*
X120866436Y-113443387D01*
X120872952Y-113453307D01*
X120895458Y-113491362D01*
X120909779Y-113505683D01*
X120922619Y-113520716D01*
X120934528Y-113537107D01*
X120940634Y-113542158D01*
X120968605Y-113565298D01*
X120977384Y-113573288D01*
X123579595Y-116175499D01*
X123613621Y-116237811D01*
X123616500Y-116264594D01*
X123616500Y-121874000D01*
X123596498Y-121942121D01*
X123542842Y-121988614D01*
X123490500Y-122000000D01*
X123426753Y-122000000D01*
X123397341Y-121995772D01*
X123394734Y-121994581D01*
X123250000Y-121973771D01*
X122250000Y-121973771D01*
X122241024Y-121974413D01*
X122183627Y-121978518D01*
X122183626Y-121978518D01*
X122176889Y-121979000D01*
X122122751Y-121994896D01*
X122087255Y-122000000D01*
X121926753Y-122000000D01*
X121897341Y-121995772D01*
X121894734Y-121994581D01*
X121750000Y-121973771D01*
X120434914Y-121973771D01*
X120366793Y-121953769D01*
X120320300Y-121900113D01*
X120310660Y-121826868D01*
X120312264Y-121817333D01*
X120313071Y-121812536D01*
X120313224Y-121799997D01*
X120307859Y-121762533D01*
X120307196Y-121757042D01*
X120298363Y-121667369D01*
X120297756Y-121661206D01*
X120257271Y-121527748D01*
X120254357Y-121522297D01*
X120254354Y-121522289D01*
X120207738Y-121435078D01*
X120200000Y-121416159D01*
X120200000Y-121400000D01*
X120192206Y-121400000D01*
X120184449Y-121393278D01*
X120169562Y-121377987D01*
X120106976Y-121301725D01*
X120103054Y-121296946D01*
X120007564Y-121218580D01*
X120000034Y-121212400D01*
X120000030Y-121212398D01*
X119995247Y-121208472D01*
X119917755Y-121167051D01*
X119877706Y-121145644D01*
X119877704Y-121145643D01*
X119872252Y-121142729D01*
X119830016Y-121129916D01*
X119744719Y-121104041D01*
X119744715Y-121104040D01*
X119738794Y-121102244D01*
X119732631Y-121101637D01*
X119658127Y-121094299D01*
X119649570Y-121093159D01*
X119613126Y-121087027D01*
X119549269Y-121056000D01*
X119512323Y-120995373D01*
X119508033Y-120962756D01*
X119508410Y-118273157D01*
X119509093Y-113400000D01*
X120837432Y-113400000D01*
X120840448Y-113407617D01*
G37*
%TD.AperFunction*%
%TD*%
%TA.AperFunction,Conductor*%
%TO.N,GND*%
G36*
X168000000Y-121300000D02*
G01*
X166883500Y-121300000D01*
X166883500Y-121228768D01*
X166884027Y-121217585D01*
X166885702Y-121210092D01*
X166883562Y-121142001D01*
X166883500Y-121138044D01*
X166883500Y-121110144D01*
X166882996Y-121106153D01*
X166882063Y-121094311D01*
X166880923Y-121058036D01*
X166880674Y-121050111D01*
X166875021Y-121030652D01*
X166871012Y-121011293D01*
X166870846Y-121009983D01*
X166868474Y-120991203D01*
X166865558Y-120983837D01*
X166865556Y-120983831D01*
X166852200Y-120950098D01*
X166848355Y-120938868D01*
X166838230Y-120904017D01*
X166838230Y-120904016D01*
X166836019Y-120896407D01*
X166825705Y-120878966D01*
X166817008Y-120861213D01*
X166812472Y-120849758D01*
X166809552Y-120842383D01*
X166783563Y-120806612D01*
X166777047Y-120796692D01*
X166758578Y-120765463D01*
X166754542Y-120758638D01*
X166740221Y-120744317D01*
X166727380Y-120729283D01*
X166720131Y-120719306D01*
X166715472Y-120712893D01*
X166681395Y-120684702D01*
X166672616Y-120676712D01*
X166600000Y-120604096D01*
X166600000Y-119880302D01*
X166688747Y-119978866D01*
X166843248Y-120091118D01*
X166849276Y-120093802D01*
X166849278Y-120093803D01*
X167011681Y-120166109D01*
X167017712Y-120168794D01*
X167111112Y-120188647D01*
X167198056Y-120207128D01*
X167198061Y-120207128D01*
X167204513Y-120208500D01*
X167395487Y-120208500D01*
X167401939Y-120207128D01*
X167401944Y-120207128D01*
X167488888Y-120188647D01*
X167582288Y-120168794D01*
X167588319Y-120166109D01*
X167750722Y-120093803D01*
X167750724Y-120093802D01*
X167756752Y-120091118D01*
X167911253Y-119978866D01*
X168000000Y-119880302D01*
X168000000Y-121300000D01*
G37*
%TD.AperFunction*%
%TD*%
%TA.AperFunction,Conductor*%
%TO.N,GND*%
G36*
X169492000Y-120964360D02*
G01*
X169471998Y-121032481D01*
X169418342Y-121078974D01*
X169383863Y-121089087D01*
X169363519Y-121092000D01*
X169362548Y-121092139D01*
X169357042Y-121092804D01*
X169283978Y-121100001D01*
X169261206Y-121102244D01*
X169127748Y-121142729D01*
X169004753Y-121208472D01*
X168999970Y-121212398D01*
X168999966Y-121212400D01*
X168922826Y-121275707D01*
X168896946Y-121296946D01*
X168894440Y-121300000D01*
X168000000Y-121300000D01*
X168000000Y-119880303D01*
X168034621Y-119841852D01*
X168034622Y-119841851D01*
X168039040Y-119836944D01*
X168134527Y-119671556D01*
X168193542Y-119489928D01*
X168213504Y-119300000D01*
X168213452Y-119299509D01*
X168226399Y-119252203D01*
X168223645Y-119251011D01*
X168241205Y-119210432D01*
X168246422Y-119199782D01*
X168267726Y-119161029D01*
X168272764Y-119141406D01*
X168279168Y-119122703D01*
X168284064Y-119111389D01*
X168284064Y-119111388D01*
X168287212Y-119104114D01*
X168287864Y-119100000D01*
X169492000Y-119100000D01*
X169492000Y-120964360D01*
G37*
%TD.AperFunction*%
%TD*%
%TA.AperFunction,Conductor*%
%TO.N,GND*%
G36*
X168893024Y-121301725D02*
G01*
X168812400Y-121399966D01*
X168812398Y-121399970D01*
X168808472Y-121404753D01*
X168742729Y-121527748D01*
X168702244Y-121661206D01*
X168701637Y-121667369D01*
X168694299Y-121741873D01*
X168693162Y-121750412D01*
X168686929Y-121787458D01*
X168686776Y-121799997D01*
X168687466Y-121804814D01*
X168690728Y-121827595D01*
X168692000Y-121845456D01*
X168692000Y-121847771D01*
X168671998Y-121915892D01*
X168618342Y-121962385D01*
X168566000Y-121973771D01*
X167250000Y-121973771D01*
X167218014Y-121976059D01*
X167183627Y-121978518D01*
X167183626Y-121978518D01*
X167176889Y-121979000D01*
X167122751Y-121994896D01*
X167087255Y-122000000D01*
X167009500Y-122000000D01*
X166941379Y-121979998D01*
X166894886Y-121926342D01*
X166883500Y-121874000D01*
X166883500Y-121300000D01*
X168894440Y-121300000D01*
X168893024Y-121301725D01*
G37*
%TD.AperFunction*%
%TD*%
%TA.AperFunction,Conductor*%
%TO.N,+5V*%
G36*
X120729596Y-103125501D02*
G01*
X120763621Y-103187813D01*
X120766500Y-103214596D01*
X120766500Y-113021233D01*
X120765973Y-113032416D01*
X120764298Y-113039909D01*
X120764547Y-113047835D01*
X120764547Y-113047836D01*
X120766438Y-113107986D01*
X120766500Y-113111945D01*
X120766500Y-113139856D01*
X120766997Y-113143790D01*
X120766997Y-113143791D01*
X120767005Y-113143856D01*
X120767938Y-113155693D01*
X120769327Y-113199889D01*
X120774978Y-113219339D01*
X120778987Y-113238700D01*
X120781526Y-113258797D01*
X120784445Y-113266168D01*
X120784445Y-113266170D01*
X120797804Y-113299912D01*
X120801649Y-113311142D01*
X120813982Y-113353593D01*
X120818015Y-113360412D01*
X120818017Y-113360417D01*
X120824293Y-113371028D01*
X120832988Y-113388776D01*
X120837432Y-113400000D01*
X119509094Y-113400000D01*
X119510528Y-103162405D01*
X119510551Y-103000000D01*
X120604095Y-103000000D01*
X120729596Y-103125501D01*
G37*
%TD.AperFunction*%
%TD*%
%TA.AperFunction,Conductor*%
%TO.N,+5V*%
G36*
X153607747Y-83496348D02*
G01*
X153599461Y-83503888D01*
X153592982Y-83508000D01*
X153587557Y-83513777D01*
X153546357Y-83557651D01*
X153543602Y-83560493D01*
X153523865Y-83580230D01*
X153521385Y-83583427D01*
X153513682Y-83592447D01*
X153483414Y-83624679D01*
X153479595Y-83631625D01*
X153479593Y-83631628D01*
X153473652Y-83642434D01*
X153462801Y-83658953D01*
X153450386Y-83674959D01*
X153447241Y-83682228D01*
X153447238Y-83682232D01*
X153432826Y-83715537D01*
X153427609Y-83726187D01*
X153406305Y-83764940D01*
X153404334Y-83772615D01*
X153404334Y-83772616D01*
X153401267Y-83784562D01*
X153394863Y-83803266D01*
X153386819Y-83821855D01*
X153385580Y-83829678D01*
X153385577Y-83829688D01*
X153379901Y-83865524D01*
X153377495Y-83877144D01*
X153366500Y-83919970D01*
X153366500Y-83940224D01*
X153364949Y-83959934D01*
X153361780Y-83979943D01*
X153362526Y-83987835D01*
X153365941Y-84023961D01*
X153366500Y-84035819D01*
X153366500Y-87021233D01*
X153365973Y-87032416D01*
X153364298Y-87039909D01*
X153364547Y-87047835D01*
X153364547Y-87047836D01*
X153366438Y-87107986D01*
X153366500Y-87111945D01*
X153366500Y-87139856D01*
X153366997Y-87143790D01*
X153366997Y-87143791D01*
X153367005Y-87143856D01*
X153367938Y-87155693D01*
X153369327Y-87199889D01*
X153373334Y-87213680D01*
X153374978Y-87219339D01*
X153378987Y-87238700D01*
X153381526Y-87258797D01*
X153384445Y-87266168D01*
X153384445Y-87266170D01*
X153397804Y-87299912D01*
X153401649Y-87311142D01*
X153411771Y-87345983D01*
X153413982Y-87353593D01*
X153418015Y-87360412D01*
X153418017Y-87360417D01*
X153424293Y-87371028D01*
X153432988Y-87388776D01*
X153440448Y-87407617D01*
X153445110Y-87414033D01*
X153445110Y-87414034D01*
X153466436Y-87443387D01*
X153472952Y-87453307D01*
X153495458Y-87491362D01*
X153509779Y-87505683D01*
X153522619Y-87520716D01*
X153534528Y-87537107D01*
X153540634Y-87542158D01*
X153568605Y-87565298D01*
X153577384Y-87573288D01*
X154096343Y-88092247D01*
X154103887Y-88100537D01*
X154108000Y-88107018D01*
X154113777Y-88112443D01*
X154157667Y-88153658D01*
X154160509Y-88156413D01*
X154180230Y-88176134D01*
X154183425Y-88178612D01*
X154192447Y-88186318D01*
X154224679Y-88216586D01*
X154231628Y-88220406D01*
X154242432Y-88226346D01*
X154258956Y-88237199D01*
X154274959Y-88249613D01*
X154284479Y-88253733D01*
X154285955Y-88254961D01*
X154289056Y-88256795D01*
X154288760Y-88257295D01*
X154339051Y-88299144D01*
X154360410Y-88366851D01*
X154341772Y-88435358D01*
X154289056Y-88482913D01*
X154248043Y-88494631D01*
X154214684Y-88498255D01*
X154214420Y-88495826D01*
X154185580Y-88495826D01*
X154185316Y-88498255D01*
X154126531Y-88491869D01*
X154123134Y-88491500D01*
X153776866Y-88491500D01*
X153714684Y-88498255D01*
X153714420Y-88495826D01*
X153685580Y-88495826D01*
X153685316Y-88498255D01*
X153626531Y-88491869D01*
X153623134Y-88491500D01*
X152776866Y-88491500D01*
X152714684Y-88498255D01*
X152578295Y-88549385D01*
X152461739Y-88636739D01*
X152374385Y-88753295D01*
X152323255Y-88889684D01*
X152316500Y-88951866D01*
X152316500Y-90148134D01*
X152317831Y-90160391D01*
X152305306Y-90230271D01*
X152256986Y-90282288D01*
X152192569Y-90300000D01*
X152009020Y-90300000D01*
X151940899Y-90279998D01*
X151894406Y-90226342D01*
X151883020Y-90174000D01*
X151883020Y-87691867D01*
X151903022Y-87623746D01*
X151956678Y-87577253D01*
X151970084Y-87572034D01*
X151975834Y-87570166D01*
X151982288Y-87568794D01*
X151988315Y-87566111D01*
X151988317Y-87566110D01*
X152150722Y-87493803D01*
X152150724Y-87493802D01*
X152156752Y-87491118D01*
X152311253Y-87378866D01*
X152380912Y-87301502D01*
X152434621Y-87241852D01*
X152434622Y-87241851D01*
X152439040Y-87236944D01*
X152511208Y-87111945D01*
X152531223Y-87077279D01*
X152531224Y-87077278D01*
X152534527Y-87071556D01*
X152593542Y-86889928D01*
X152599043Y-86837595D01*
X152612814Y-86706565D01*
X152613504Y-86700000D01*
X152610685Y-86673181D01*
X152594232Y-86516635D01*
X152594232Y-86516633D01*
X152593542Y-86510072D01*
X152534527Y-86328444D01*
X152439040Y-86163056D01*
X152431786Y-86154999D01*
X152315675Y-86026045D01*
X152315674Y-86026044D01*
X152311253Y-86021134D01*
X152156752Y-85908882D01*
X152150724Y-85906198D01*
X152150722Y-85906197D01*
X151988319Y-85833891D01*
X151988318Y-85833891D01*
X151982288Y-85831206D01*
X151888888Y-85811353D01*
X151801944Y-85792872D01*
X151801939Y-85792872D01*
X151795487Y-85791500D01*
X151604513Y-85791500D01*
X151598058Y-85792872D01*
X151598049Y-85792873D01*
X151585694Y-85795499D01*
X151514903Y-85790096D01*
X151458272Y-85747278D01*
X151433779Y-85680639D01*
X151433500Y-85672252D01*
X151433500Y-83678767D01*
X151434027Y-83667584D01*
X151435702Y-83660091D01*
X151433562Y-83592014D01*
X151433500Y-83588055D01*
X151433500Y-83560144D01*
X151432995Y-83556144D01*
X151432062Y-83544301D01*
X151430922Y-83508029D01*
X151430673Y-83500110D01*
X151425022Y-83480658D01*
X151421014Y-83461306D01*
X151419467Y-83449063D01*
X151418474Y-83441203D01*
X151415556Y-83433832D01*
X151402200Y-83400097D01*
X151398355Y-83388870D01*
X151397721Y-83386687D01*
X151386018Y-83346407D01*
X151375707Y-83328972D01*
X151367012Y-83311224D01*
X151359552Y-83292383D01*
X151333564Y-83256613D01*
X151327048Y-83246693D01*
X151308580Y-83215465D01*
X151308578Y-83215462D01*
X151304542Y-83208638D01*
X151290221Y-83194317D01*
X151277380Y-83179283D01*
X151270132Y-83169307D01*
X151265472Y-83162893D01*
X151231401Y-83134707D01*
X151222622Y-83126718D01*
X151147122Y-83051218D01*
X151113096Y-82988906D01*
X151110907Y-82975293D01*
X151094232Y-82816635D01*
X151094232Y-82816633D01*
X151093542Y-82810072D01*
X151034527Y-82628444D01*
X150939040Y-82463056D01*
X150811253Y-82321134D01*
X150656752Y-82208882D01*
X150650724Y-82206198D01*
X150650722Y-82206197D01*
X150488319Y-82133891D01*
X150488318Y-82133891D01*
X150482288Y-82131206D01*
X150388888Y-82111353D01*
X150301944Y-82092872D01*
X150301939Y-82092872D01*
X150295487Y-82091500D01*
X150104513Y-82091500D01*
X150098061Y-82092872D01*
X150098056Y-82092872D01*
X150011112Y-82111353D01*
X149917712Y-82131206D01*
X149911682Y-82133891D01*
X149911681Y-82133891D01*
X149749278Y-82206197D01*
X149749276Y-82206198D01*
X149743248Y-82208882D01*
X149588747Y-82321134D01*
X149460960Y-82463056D01*
X149365473Y-82628444D01*
X149306458Y-82810072D01*
X149305768Y-82816633D01*
X149305768Y-82816635D01*
X149288738Y-82978670D01*
X149261725Y-83044327D01*
X149203503Y-83084957D01*
X149163428Y-83091500D01*
X149004513Y-83091500D01*
X148998061Y-83092872D01*
X148998056Y-83092872D01*
X148926313Y-83108122D01*
X148817712Y-83131206D01*
X148811682Y-83133891D01*
X148811681Y-83133891D01*
X148649278Y-83206197D01*
X148649276Y-83206198D01*
X148643248Y-83208882D01*
X148488747Y-83321134D01*
X148484326Y-83326044D01*
X148484325Y-83326045D01*
X148380637Y-83441203D01*
X148360960Y-83463056D01*
X148265473Y-83628444D01*
X148206458Y-83810072D01*
X148205768Y-83816633D01*
X148205768Y-83816635D01*
X148195715Y-83912289D01*
X148186496Y-84000000D01*
X148206458Y-84189928D01*
X148265473Y-84371556D01*
X148360960Y-84536944D01*
X148365378Y-84541851D01*
X148365379Y-84541852D01*
X148469127Y-84657076D01*
X148488747Y-84678866D01*
X148566167Y-84735115D01*
X148630411Y-84781791D01*
X148643248Y-84791118D01*
X148649276Y-84793802D01*
X148649278Y-84793803D01*
X148811681Y-84866109D01*
X148817712Y-84868794D01*
X148911112Y-84888647D01*
X148998056Y-84907128D01*
X148998061Y-84907128D01*
X149004513Y-84908500D01*
X149195487Y-84908500D01*
X149201939Y-84907128D01*
X149201944Y-84907128D01*
X149288887Y-84888647D01*
X149382288Y-84868794D01*
X149539732Y-84798696D01*
X149610098Y-84789262D01*
X149674395Y-84819368D01*
X149712209Y-84879457D01*
X149716980Y-84913803D01*
X149716980Y-87615925D01*
X149696978Y-87684046D01*
X149643322Y-87730539D01*
X149573048Y-87740643D01*
X149508468Y-87711149D01*
X149501885Y-87705020D01*
X149235264Y-87438399D01*
X149201238Y-87376087D01*
X149199049Y-87362473D01*
X149194232Y-87316636D01*
X149194232Y-87316635D01*
X149193542Y-87310072D01*
X149134527Y-87128444D01*
X149039040Y-86963056D01*
X148911253Y-86821134D01*
X148790802Y-86733621D01*
X148762094Y-86712763D01*
X148762093Y-86712762D01*
X148756752Y-86708882D01*
X148750724Y-86706198D01*
X148750722Y-86706197D01*
X148588319Y-86633891D01*
X148588318Y-86633891D01*
X148582288Y-86631206D01*
X148488887Y-86611353D01*
X148401944Y-86592872D01*
X148401939Y-86592872D01*
X148395487Y-86591500D01*
X148204513Y-86591500D01*
X148198061Y-86592872D01*
X148198056Y-86592872D01*
X148111113Y-86611353D01*
X148017712Y-86631206D01*
X148011682Y-86633891D01*
X148011681Y-86633891D01*
X147849278Y-86706197D01*
X147849276Y-86706198D01*
X147843248Y-86708882D01*
X147837907Y-86712762D01*
X147837906Y-86712763D01*
X147809198Y-86733621D01*
X147688747Y-86821134D01*
X147560960Y-86963056D01*
X147465473Y-87128444D01*
X147406458Y-87310072D01*
X147405768Y-87316633D01*
X147405768Y-87316635D01*
X147396206Y-87407617D01*
X147386496Y-87500000D01*
X147387186Y-87506565D01*
X147394616Y-87577253D01*
X147406458Y-87689928D01*
X147465473Y-87871556D01*
X147560960Y-88036944D01*
X147565378Y-88041851D01*
X147565379Y-88041852D01*
X147663038Y-88150313D01*
X147688747Y-88178866D01*
X147787843Y-88250864D01*
X147833198Y-88283816D01*
X147843248Y-88291118D01*
X147849276Y-88293802D01*
X147849278Y-88293803D01*
X148008429Y-88364661D01*
X148017712Y-88368794D01*
X148111113Y-88388647D01*
X148198056Y-88407128D01*
X148198061Y-88407128D01*
X148204513Y-88408500D01*
X148361366Y-88408500D01*
X148429487Y-88428502D01*
X148450461Y-88445405D01*
X149230555Y-89225499D01*
X149264581Y-89287811D01*
X149267460Y-89314594D01*
X149267460Y-90300000D01*
X145778384Y-90300000D01*
X145847793Y-90186735D01*
X145865198Y-90144717D01*
X145936734Y-89972012D01*
X145936735Y-89972010D01*
X145938628Y-89967439D01*
X145962796Y-89866774D01*
X145992885Y-89741446D01*
X145992886Y-89741440D01*
X145994040Y-89736633D01*
X146012663Y-89500000D01*
X145994040Y-89263367D01*
X145992886Y-89258560D01*
X145992885Y-89258554D01*
X145958098Y-89113660D01*
X145938628Y-89032561D01*
X145847793Y-88813265D01*
X145723770Y-88610879D01*
X145637210Y-88509531D01*
X145572822Y-88434142D01*
X145569614Y-88430386D01*
X145542383Y-88407128D01*
X145392883Y-88279443D01*
X145389121Y-88276230D01*
X145186735Y-88152207D01*
X145182165Y-88150314D01*
X145182163Y-88150313D01*
X144972012Y-88063266D01*
X144972010Y-88063265D01*
X144967439Y-88061372D01*
X144841873Y-88031226D01*
X144741446Y-88007115D01*
X144741440Y-88007114D01*
X144736633Y-88005960D01*
X144500000Y-87987337D01*
X144263367Y-88005960D01*
X144258560Y-88007114D01*
X144258554Y-88007115D01*
X144158127Y-88031226D01*
X144032561Y-88061372D01*
X144027990Y-88063265D01*
X144027988Y-88063266D01*
X143817837Y-88150313D01*
X143817835Y-88150314D01*
X143813265Y-88152207D01*
X143610879Y-88276230D01*
X143607117Y-88279443D01*
X143541331Y-88335630D01*
X143476541Y-88364661D01*
X143406341Y-88354056D01*
X143353019Y-88307182D01*
X143333500Y-88239819D01*
X143333500Y-81102524D01*
X143353502Y-81034403D01*
X143365858Y-81018221D01*
X143439040Y-80936944D01*
X143460370Y-80900000D01*
X156204095Y-80900000D01*
X153607747Y-83496348D01*
G37*
%TD.AperFunction*%
%TA.AperFunction,Conductor*%
G36*
X160329595Y-81004090D02*
G01*
X160363621Y-81066402D01*
X160366500Y-81093185D01*
X160366500Y-82993508D01*
X160346498Y-83061629D01*
X160292842Y-83108122D01*
X160222568Y-83118226D01*
X160214303Y-83116755D01*
X160101944Y-83092872D01*
X160101939Y-83092872D01*
X160095487Y-83091500D01*
X159904513Y-83091500D01*
X159898061Y-83092872D01*
X159898056Y-83092872D01*
X159826313Y-83108122D01*
X159717712Y-83131206D01*
X159711682Y-83133891D01*
X159711681Y-83133891D01*
X159549278Y-83206197D01*
X159549276Y-83206198D01*
X159543248Y-83208882D01*
X159388747Y-83321134D01*
X159384326Y-83326044D01*
X159384325Y-83326045D01*
X159280637Y-83441203D01*
X159260960Y-83463056D01*
X159165473Y-83628444D01*
X159106458Y-83810072D01*
X159105768Y-83816633D01*
X159105768Y-83816635D01*
X159095715Y-83912289D01*
X159086496Y-84000000D01*
X159106458Y-84189928D01*
X159165473Y-84371556D01*
X159168776Y-84377278D01*
X159168777Y-84377279D01*
X159255796Y-84528000D01*
X159272534Y-84596995D01*
X159249314Y-84664087D01*
X159193506Y-84707974D01*
X159146677Y-84717000D01*
X159134615Y-84717000D01*
X159119376Y-84721475D01*
X159118171Y-84722865D01*
X159116500Y-84730548D01*
X159116500Y-86664885D01*
X159120975Y-86680124D01*
X159138800Y-86695570D01*
X159168643Y-86711864D01*
X159202671Y-86774175D01*
X159197608Y-86844991D01*
X159155063Y-86901828D01*
X159146699Y-86907345D01*
X159143248Y-86908882D01*
X158988747Y-87021134D01*
X158984326Y-87026044D01*
X158984325Y-87026045D01*
X158875203Y-87147238D01*
X158860960Y-87163056D01*
X158835302Y-87207497D01*
X158778760Y-87305431D01*
X158765473Y-87328444D01*
X158706458Y-87510072D01*
X158705768Y-87516633D01*
X158705768Y-87516635D01*
X158688244Y-87683365D01*
X158686496Y-87700000D01*
X158687186Y-87706565D01*
X158705129Y-87877279D01*
X158706458Y-87889928D01*
X158765473Y-88071556D01*
X158768776Y-88077278D01*
X158768777Y-88077279D01*
X158785947Y-88107018D01*
X158860960Y-88236944D01*
X158901252Y-88281693D01*
X158931968Y-88345699D01*
X158923203Y-88416152D01*
X158877740Y-88470683D01*
X158807614Y-88492001D01*
X158780331Y-88492001D01*
X158773510Y-88492371D01*
X158714793Y-88498748D01*
X158714495Y-88496002D01*
X158685554Y-88496060D01*
X158685316Y-88498255D01*
X158626515Y-88491867D01*
X158626510Y-88491867D01*
X158623134Y-88491500D01*
X158619739Y-88491500D01*
X158616324Y-88491315D01*
X158549386Y-88467656D01*
X158512728Y-88426200D01*
X158512469Y-88425729D01*
X158509552Y-88418361D01*
X158483564Y-88382591D01*
X158477048Y-88372671D01*
X158458580Y-88341443D01*
X158458578Y-88341440D01*
X158454542Y-88334616D01*
X158440221Y-88320295D01*
X158427380Y-88305261D01*
X158420131Y-88295284D01*
X158415472Y-88288871D01*
X158409368Y-88283821D01*
X158409363Y-88283816D01*
X158381402Y-88260685D01*
X158372621Y-88252695D01*
X157427669Y-87307742D01*
X157420135Y-87299463D01*
X157416022Y-87292982D01*
X157366370Y-87246356D01*
X157363529Y-87243602D01*
X157343792Y-87223865D01*
X157340595Y-87221385D01*
X157331573Y-87213680D01*
X157305122Y-87188841D01*
X157299343Y-87183414D01*
X157292397Y-87179595D01*
X157292394Y-87179593D01*
X157281588Y-87173652D01*
X157265069Y-87162801D01*
X157259070Y-87158148D01*
X157249063Y-87150386D01*
X157241794Y-87147241D01*
X157241790Y-87147238D01*
X157208485Y-87132826D01*
X157197835Y-87127609D01*
X157159082Y-87106305D01*
X157139459Y-87101267D01*
X157120756Y-87094863D01*
X157109442Y-87089967D01*
X157109441Y-87089967D01*
X157102167Y-87086819D01*
X157094344Y-87085580D01*
X157094334Y-87085577D01*
X157058498Y-87079901D01*
X157046878Y-87077495D01*
X157011733Y-87068472D01*
X157011732Y-87068472D01*
X157004052Y-87066500D01*
X156983798Y-87066500D01*
X156964087Y-87064949D01*
X156951908Y-87063020D01*
X156944079Y-87061780D01*
X156907149Y-87065271D01*
X156900061Y-87065941D01*
X156888203Y-87066500D01*
X154914595Y-87066500D01*
X154846474Y-87046498D01*
X154825499Y-87029595D01*
X154670404Y-86874499D01*
X154636379Y-86812187D01*
X154633500Y-86785404D01*
X154633500Y-85000000D01*
X154886496Y-85000000D01*
X154887186Y-85006565D01*
X154901620Y-85143893D01*
X154906458Y-85189928D01*
X154965473Y-85371556D01*
X155060960Y-85536944D01*
X155188747Y-85678866D01*
X155343248Y-85791118D01*
X155349276Y-85793802D01*
X155349278Y-85793803D01*
X155439318Y-85833891D01*
X155517712Y-85868794D01*
X155611113Y-85888647D01*
X155698056Y-85907128D01*
X155698061Y-85907128D01*
X155704513Y-85908500D01*
X155760406Y-85908500D01*
X155828527Y-85928502D01*
X155849501Y-85945405D01*
X155996343Y-86092247D01*
X156003887Y-86100537D01*
X156008000Y-86107018D01*
X156013777Y-86112443D01*
X156057667Y-86153658D01*
X156060509Y-86156413D01*
X156080230Y-86176134D01*
X156083425Y-86178612D01*
X156092447Y-86186318D01*
X156124679Y-86216586D01*
X156124311Y-86216978D01*
X156156869Y-86256402D01*
X156157346Y-86256107D01*
X156159502Y-86259592D01*
X156159504Y-86259595D01*
X156161195Y-86262328D01*
X156161197Y-86262331D01*
X156245030Y-86397803D01*
X156248884Y-86404031D01*
X156254066Y-86409204D01*
X156366816Y-86521758D01*
X156366821Y-86521762D01*
X156371997Y-86526929D01*
X156520080Y-86618209D01*
X156685191Y-86672974D01*
X156692027Y-86673674D01*
X156692030Y-86673675D01*
X156739370Y-86678525D01*
X156787928Y-86683500D01*
X157487072Y-86683500D01*
X157490318Y-86683163D01*
X157490322Y-86683163D01*
X157584235Y-86673419D01*
X157584239Y-86673418D01*
X157591093Y-86672707D01*
X157597629Y-86670526D01*
X157597631Y-86670526D01*
X157730395Y-86626232D01*
X157756107Y-86617654D01*
X157904031Y-86526116D01*
X157911274Y-86518861D01*
X157913038Y-86517895D01*
X157914941Y-86516387D01*
X157915199Y-86516713D01*
X157973554Y-86484781D01*
X158044375Y-86489782D01*
X158089470Y-86518708D01*
X158092131Y-86521364D01*
X158103540Y-86530375D01*
X158239063Y-86613912D01*
X158252241Y-86620056D01*
X158403766Y-86670315D01*
X158417132Y-86673181D01*
X158509770Y-86682672D01*
X158516185Y-86683000D01*
X158590385Y-86683000D01*
X158605624Y-86678525D01*
X158606829Y-86677135D01*
X158608500Y-86669452D01*
X158608500Y-84735115D01*
X158604025Y-84719876D01*
X158602635Y-84718671D01*
X158594952Y-84717000D01*
X158516234Y-84717000D01*
X158509718Y-84717337D01*
X158415868Y-84727075D01*
X158402472Y-84729968D01*
X158251047Y-84780488D01*
X158237885Y-84786653D01*
X158102508Y-84870426D01*
X158091106Y-84879464D01*
X158089433Y-84881139D01*
X158088007Y-84881919D01*
X158085373Y-84884007D01*
X158085016Y-84883556D01*
X158027151Y-84915219D01*
X157956331Y-84910216D01*
X157911246Y-84881299D01*
X157908185Y-84878244D01*
X157903003Y-84873071D01*
X157896772Y-84869230D01*
X157761150Y-84785631D01*
X157761148Y-84785630D01*
X157754920Y-84781791D01*
X157589809Y-84727026D01*
X157582973Y-84726326D01*
X157582970Y-84726325D01*
X157531474Y-84721049D01*
X157487072Y-84716500D01*
X156787928Y-84716500D01*
X156768558Y-84718510D01*
X156698738Y-84705646D01*
X156646955Y-84657076D01*
X156639550Y-84640625D01*
X156639253Y-84640757D01*
X156636569Y-84634728D01*
X156634527Y-84628444D01*
X156539040Y-84463056D01*
X156411253Y-84321134D01*
X156256752Y-84208882D01*
X156250724Y-84206198D01*
X156250722Y-84206197D01*
X156088319Y-84133891D01*
X156088318Y-84133891D01*
X156082288Y-84131206D01*
X155988888Y-84111353D01*
X155901944Y-84092872D01*
X155901939Y-84092872D01*
X155895487Y-84091500D01*
X155704513Y-84091500D01*
X155698061Y-84092872D01*
X155698056Y-84092872D01*
X155611112Y-84111353D01*
X155517712Y-84131206D01*
X155511682Y-84133891D01*
X155511681Y-84133891D01*
X155349278Y-84206197D01*
X155349276Y-84206198D01*
X155343248Y-84208882D01*
X155188747Y-84321134D01*
X155060960Y-84463056D01*
X154965473Y-84628444D01*
X154906458Y-84810072D01*
X154905768Y-84816633D01*
X154905768Y-84816635D01*
X154895407Y-84915219D01*
X154886496Y-85000000D01*
X154633500Y-85000000D01*
X154633500Y-84314594D01*
X154653502Y-84246473D01*
X154670405Y-84225499D01*
X157995904Y-80900000D01*
X160225505Y-80900000D01*
X160329595Y-81004090D01*
G37*
%TD.AperFunction*%
%TD*%
%TA.AperFunction,Conductor*%
%TO.N,GND*%
G36*
X168000000Y-113447423D02*
G01*
X167768484Y-113215906D01*
X167734459Y-113153594D01*
X167731580Y-113126811D01*
X167731580Y-106595101D01*
X167751582Y-106526980D01*
X167768485Y-106506006D01*
X168000000Y-106274491D01*
X168000000Y-113447423D01*
G37*
%TD.AperFunction*%
%TD*%
%TA.AperFunction,Conductor*%
%TO.N,GND*%
G36*
X166300000Y-80891500D02*
G01*
X166204513Y-80891500D01*
X166198061Y-80892872D01*
X166198056Y-80892872D01*
X166111112Y-80911353D01*
X166017712Y-80931206D01*
X166011682Y-80933891D01*
X166011681Y-80933891D01*
X165849278Y-81006197D01*
X165849276Y-81006198D01*
X165843248Y-81008882D01*
X165688747Y-81121134D01*
X165560960Y-81263056D01*
X165465473Y-81428444D01*
X165406458Y-81610072D01*
X165386496Y-81800000D01*
X165406458Y-81989928D01*
X165408498Y-81996206D01*
X165456392Y-82143608D01*
X165300000Y-82300000D01*
X164533500Y-82300000D01*
X164533500Y-80800000D01*
X166300000Y-80800000D01*
X166300000Y-80891500D01*
G37*
%TD.AperFunction*%
%TD*%
%TA.AperFunction,Conductor*%
%TO.N,GND*%
G36*
X169474974Y-72377118D02*
G01*
X169481253Y-72404625D01*
X169487521Y-72460252D01*
X169488304Y-72475898D01*
X169488195Y-72484856D01*
X169486813Y-72493730D01*
X169489273Y-72512541D01*
X169490935Y-72525251D01*
X169491999Y-72541589D01*
X169491999Y-79700000D01*
X164516302Y-79700000D01*
X164515558Y-79698119D01*
X164515556Y-79698113D01*
X164502200Y-79664380D01*
X164498355Y-79653150D01*
X164488230Y-79618299D01*
X164488230Y-79618298D01*
X164486019Y-79610689D01*
X164475705Y-79593248D01*
X164467008Y-79575495D01*
X164462472Y-79564040D01*
X164459552Y-79556665D01*
X164433563Y-79520894D01*
X164427047Y-79510974D01*
X164408578Y-79479745D01*
X164404542Y-79472920D01*
X164390221Y-79458599D01*
X164377380Y-79443565D01*
X164370131Y-79433588D01*
X164365472Y-79427175D01*
X164331395Y-79398984D01*
X164322616Y-79390994D01*
X158589850Y-73658227D01*
X158582310Y-73649941D01*
X158578198Y-73643462D01*
X158528546Y-73596836D01*
X158525705Y-73594082D01*
X158505968Y-73574345D01*
X158502771Y-73571865D01*
X158493749Y-73564160D01*
X158467298Y-73539321D01*
X158461519Y-73533894D01*
X158454573Y-73530075D01*
X158454570Y-73530073D01*
X158443764Y-73524132D01*
X158427245Y-73513281D01*
X158426781Y-73512921D01*
X158411239Y-73500866D01*
X158403970Y-73497721D01*
X158403966Y-73497718D01*
X158370661Y-73483306D01*
X158360011Y-73478089D01*
X158321258Y-73456785D01*
X158301635Y-73451747D01*
X158282932Y-73445343D01*
X158271618Y-73440447D01*
X158271617Y-73440447D01*
X158264343Y-73437299D01*
X158256520Y-73436060D01*
X158256510Y-73436057D01*
X158220674Y-73430381D01*
X158209054Y-73427975D01*
X158173909Y-73418952D01*
X158173908Y-73418952D01*
X158166228Y-73416980D01*
X158145974Y-73416980D01*
X158126263Y-73415429D01*
X158114084Y-73413500D01*
X158106255Y-73412260D01*
X158098363Y-73413006D01*
X158062237Y-73416421D01*
X158050379Y-73416980D01*
X157929716Y-73416980D01*
X157000000Y-72500000D01*
X157000000Y-72300000D01*
X169447989Y-72300000D01*
X169474974Y-72377118D01*
G37*
%TD.AperFunction*%
%TD*%
%TA.AperFunction,Conductor*%
%TO.N,+5V*%
G36*
X141197804Y-80724526D02*
G01*
X141201649Y-80735756D01*
X141211771Y-80770597D01*
X141213982Y-80778207D01*
X141218015Y-80785026D01*
X141218017Y-80785031D01*
X141224293Y-80795642D01*
X141232988Y-80813390D01*
X141240448Y-80832231D01*
X141245110Y-80838647D01*
X141245110Y-80838648D01*
X141266436Y-80868001D01*
X141272952Y-80877921D01*
X141295458Y-80915976D01*
X141309779Y-80930297D01*
X141322619Y-80945330D01*
X141334528Y-80961721D01*
X141344461Y-80969938D01*
X141368593Y-80989902D01*
X141377374Y-80997892D01*
X141580076Y-81200595D01*
X141614101Y-81262907D01*
X141616980Y-81289690D01*
X141616980Y-89034925D01*
X141596978Y-89103046D01*
X141580075Y-89124021D01*
X141107742Y-89596353D01*
X141099463Y-89603887D01*
X141092982Y-89608000D01*
X141060178Y-89642933D01*
X141046357Y-89657651D01*
X141043602Y-89660493D01*
X141023865Y-89680230D01*
X141021385Y-89683427D01*
X141013682Y-89692447D01*
X140983414Y-89724679D01*
X140979595Y-89731625D01*
X140979593Y-89731628D01*
X140973652Y-89742434D01*
X140962801Y-89758953D01*
X140950386Y-89774959D01*
X140947241Y-89782228D01*
X140947238Y-89782232D01*
X140932826Y-89815537D01*
X140927609Y-89826187D01*
X140906305Y-89864940D01*
X140904334Y-89872615D01*
X140904334Y-89872616D01*
X140901267Y-89884562D01*
X140894863Y-89903266D01*
X140886819Y-89921855D01*
X140885580Y-89929678D01*
X140885577Y-89929688D01*
X140879901Y-89965524D01*
X140877495Y-89977144D01*
X140866500Y-90019970D01*
X140866500Y-90040224D01*
X140864949Y-90059934D01*
X140861780Y-90079943D01*
X140862526Y-90087835D01*
X140865941Y-90123961D01*
X140866500Y-90135819D01*
X140866500Y-90226241D01*
X140846498Y-90294362D01*
X140819212Y-90324630D01*
X140614145Y-90488684D01*
X140600000Y-90500000D01*
X140600000Y-90755104D01*
X140588194Y-90808355D01*
X140585632Y-90813849D01*
X140581791Y-90820080D01*
X140527026Y-90985191D01*
X140516500Y-91087928D01*
X140516500Y-91787072D01*
X140527293Y-91891093D01*
X140582346Y-92056107D01*
X140586197Y-92062330D01*
X140588101Y-92066395D01*
X140600000Y-92119845D01*
X140600000Y-92481296D01*
X140588195Y-92534545D01*
X140579944Y-92552241D01*
X140529685Y-92703766D01*
X140526819Y-92717132D01*
X140517328Y-92809770D01*
X140517000Y-92816185D01*
X140517000Y-92890385D01*
X140521475Y-92905624D01*
X140522865Y-92906829D01*
X140530548Y-92908500D01*
X140600000Y-92908500D01*
X140600000Y-93416500D01*
X140535115Y-93416500D01*
X140519876Y-93420975D01*
X140518671Y-93422365D01*
X140517000Y-93430048D01*
X140517000Y-93508766D01*
X140517337Y-93515282D01*
X140527075Y-93609132D01*
X140529968Y-93622528D01*
X140555815Y-93700000D01*
X137460360Y-93700000D01*
X137392239Y-93679998D01*
X137345746Y-93626342D01*
X137335642Y-93556068D01*
X137339363Y-93538846D01*
X137374939Y-93416395D01*
X137374899Y-93402294D01*
X137367630Y-93399000D01*
X134338122Y-93399000D01*
X134324591Y-93402973D01*
X134323456Y-93410871D01*
X134360637Y-93538846D01*
X134360434Y-93609843D01*
X134321881Y-93669459D01*
X134257216Y-93698768D01*
X134239640Y-93700000D01*
X134183813Y-93700000D01*
X134115692Y-93679998D01*
X134094718Y-93663095D01*
X133305228Y-92873605D01*
X134325061Y-92873605D01*
X134325101Y-92887706D01*
X134332370Y-92891000D01*
X135577885Y-92891000D01*
X135593124Y-92886525D01*
X135594329Y-92885135D01*
X135596000Y-92877452D01*
X135596000Y-92872885D01*
X136104000Y-92872885D01*
X136108475Y-92888124D01*
X136109865Y-92889329D01*
X136117548Y-92891000D01*
X137361878Y-92891000D01*
X137375409Y-92887027D01*
X137376544Y-92879129D01*
X137335893Y-92739210D01*
X137329648Y-92724779D01*
X137253089Y-92595322D01*
X137243449Y-92582896D01*
X137137104Y-92476551D01*
X137124678Y-92466911D01*
X136995221Y-92390352D01*
X136980790Y-92384107D01*
X136834935Y-92341731D01*
X136822333Y-92339430D01*
X136793916Y-92337193D01*
X136788986Y-92337000D01*
X136122115Y-92337000D01*
X136106876Y-92341475D01*
X136105671Y-92342865D01*
X136104000Y-92350548D01*
X136104000Y-92872885D01*
X135596000Y-92872885D01*
X135596000Y-92355116D01*
X135591525Y-92339877D01*
X135590135Y-92338672D01*
X135582452Y-92337001D01*
X134911017Y-92337001D01*
X134906080Y-92337195D01*
X134877664Y-92339430D01*
X134865069Y-92341730D01*
X134719210Y-92384107D01*
X134704779Y-92390352D01*
X134575322Y-92466911D01*
X134562896Y-92476551D01*
X134456551Y-92582896D01*
X134446911Y-92595322D01*
X134370352Y-92724779D01*
X134364107Y-92739210D01*
X134325061Y-92873605D01*
X133305228Y-92873605D01*
X131789850Y-91358227D01*
X131782310Y-91349941D01*
X131778198Y-91343462D01*
X131728546Y-91296836D01*
X131725705Y-91294082D01*
X131705968Y-91274345D01*
X131702771Y-91271865D01*
X131693749Y-91264160D01*
X131667298Y-91239321D01*
X131661519Y-91233894D01*
X131654573Y-91230075D01*
X131651937Y-91228160D01*
X131608584Y-91171936D01*
X131600000Y-91126225D01*
X131600000Y-89928669D01*
X131620002Y-89860548D01*
X131632366Y-89844356D01*
X131634621Y-89841852D01*
X131634622Y-89841851D01*
X131639040Y-89836944D01*
X131678441Y-89768699D01*
X131731223Y-89677279D01*
X131731224Y-89677278D01*
X131734527Y-89671556D01*
X131743827Y-89642933D01*
X131774565Y-89592775D01*
X133917253Y-87450088D01*
X133925539Y-87442548D01*
X133932018Y-87438436D01*
X133978644Y-87388784D01*
X133981398Y-87385943D01*
X134001135Y-87366206D01*
X134003615Y-87363009D01*
X134011320Y-87353987D01*
X134036159Y-87327536D01*
X134041586Y-87321757D01*
X134045405Y-87314811D01*
X134045407Y-87314808D01*
X134051348Y-87304002D01*
X134062199Y-87287483D01*
X134069758Y-87277737D01*
X134074614Y-87271477D01*
X134077759Y-87264208D01*
X134077762Y-87264204D01*
X134092174Y-87230899D01*
X134097391Y-87220249D01*
X134118695Y-87181496D01*
X134123733Y-87161873D01*
X134130137Y-87143170D01*
X134135033Y-87131856D01*
X134135033Y-87131855D01*
X134138181Y-87124581D01*
X134139420Y-87116758D01*
X134139423Y-87116748D01*
X134145099Y-87080912D01*
X134147505Y-87069292D01*
X134156528Y-87034147D01*
X134156528Y-87034146D01*
X134158500Y-87026466D01*
X134158500Y-87006212D01*
X134160051Y-86986501D01*
X134161980Y-86974322D01*
X134163220Y-86966493D01*
X134162474Y-86958601D01*
X134162723Y-86950678D01*
X134166258Y-86950789D01*
X134176609Y-86896853D01*
X134225561Y-86845431D01*
X134288648Y-86828500D01*
X134598134Y-86828500D01*
X134660316Y-86821745D01*
X134796705Y-86770615D01*
X134878532Y-86709289D01*
X134897075Y-86700001D01*
X134897076Y-86700000D01*
X134900000Y-86700000D01*
X134906745Y-86691007D01*
X134906750Y-86691002D01*
X134910463Y-86686051D01*
X134912180Y-86684071D01*
X134913261Y-86683261D01*
X134923076Y-86670166D01*
X134985227Y-86587237D01*
X134999857Y-86567716D01*
X135056715Y-86525202D01*
X135127533Y-86520176D01*
X135174743Y-86541346D01*
X135209647Y-86566705D01*
X135243248Y-86591118D01*
X135249276Y-86593802D01*
X135249278Y-86593803D01*
X135411681Y-86666109D01*
X135417712Y-86668794D01*
X135511112Y-86688647D01*
X135598056Y-86707128D01*
X135598061Y-86707128D01*
X135604513Y-86708500D01*
X135795487Y-86708500D01*
X135801939Y-86707128D01*
X135801944Y-86707128D01*
X135888888Y-86688647D01*
X135982288Y-86668794D01*
X135988319Y-86666109D01*
X136150722Y-86593803D01*
X136150724Y-86593802D01*
X136156752Y-86591118D01*
X136190354Y-86566705D01*
X136254395Y-86520176D01*
X136311253Y-86478866D01*
X136356364Y-86428765D01*
X136416810Y-86391525D01*
X136487793Y-86392877D01*
X136543636Y-86428765D01*
X136588747Y-86478866D01*
X136645605Y-86520176D01*
X136709647Y-86566705D01*
X136743248Y-86591118D01*
X136749276Y-86593802D01*
X136749278Y-86593803D01*
X136911681Y-86666109D01*
X136917712Y-86668794D01*
X137011112Y-86688647D01*
X137098056Y-86707128D01*
X137098061Y-86707128D01*
X137104513Y-86708500D01*
X137295487Y-86708500D01*
X137301939Y-86707128D01*
X137301944Y-86707128D01*
X137388888Y-86688647D01*
X137482288Y-86668794D01*
X137488319Y-86666109D01*
X137650722Y-86593803D01*
X137650724Y-86593802D01*
X137656752Y-86591118D01*
X137690354Y-86566705D01*
X137754395Y-86520176D01*
X137811253Y-86478866D01*
X137889895Y-86391525D01*
X137934621Y-86341852D01*
X137934622Y-86341851D01*
X137939040Y-86336944D01*
X138034527Y-86171556D01*
X138093542Y-85989928D01*
X138105994Y-85871456D01*
X138133007Y-85805799D01*
X138183295Y-85771055D01*
X138182288Y-85768794D01*
X138350722Y-85693803D01*
X138350724Y-85693802D01*
X138356752Y-85691118D01*
X138511253Y-85578866D01*
X138639040Y-85436944D01*
X138734527Y-85271556D01*
X138793542Y-85089928D01*
X138813504Y-84900000D01*
X138793542Y-84710072D01*
X138734527Y-84528444D01*
X138695193Y-84460316D01*
X138642344Y-84368778D01*
X138642342Y-84368775D01*
X138639040Y-84363056D01*
X138566170Y-84282125D01*
X138535453Y-84218117D01*
X138533869Y-84201771D01*
X138533562Y-84191997D01*
X138533500Y-84188041D01*
X138533500Y-84160144D01*
X138532996Y-84156153D01*
X138532063Y-84144311D01*
X138530923Y-84108036D01*
X138530674Y-84100111D01*
X138528462Y-84092497D01*
X138528461Y-84092492D01*
X138525023Y-84080659D01*
X138521012Y-84061295D01*
X138519467Y-84049064D01*
X138518474Y-84041203D01*
X138515557Y-84033836D01*
X138515556Y-84033831D01*
X138502198Y-84000092D01*
X138498354Y-83988865D01*
X138488230Y-83954022D01*
X138486018Y-83946407D01*
X138475707Y-83928972D01*
X138467012Y-83911224D01*
X138459552Y-83892383D01*
X138433564Y-83856613D01*
X138427048Y-83846693D01*
X138408580Y-83815465D01*
X138408578Y-83815462D01*
X138404542Y-83808638D01*
X138390221Y-83794317D01*
X138377374Y-83779275D01*
X138373776Y-83774322D01*
X138350561Y-83714822D01*
X138302215Y-83299053D01*
X138314215Y-83229078D01*
X138362142Y-83176699D01*
X138427372Y-83158500D01*
X139596233Y-83158500D01*
X139607416Y-83159027D01*
X139614909Y-83160702D01*
X139622835Y-83160453D01*
X139622836Y-83160453D01*
X139682986Y-83158562D01*
X139686945Y-83158500D01*
X139714856Y-83158500D01*
X139718791Y-83158003D01*
X139718856Y-83157995D01*
X139730693Y-83157062D01*
X139762951Y-83156048D01*
X139766970Y-83155922D01*
X139774889Y-83155673D01*
X139794343Y-83150021D01*
X139813700Y-83146013D01*
X139825930Y-83144468D01*
X139825931Y-83144468D01*
X139833797Y-83143474D01*
X139841168Y-83140555D01*
X139841170Y-83140555D01*
X139874912Y-83127196D01*
X139886142Y-83123351D01*
X139920983Y-83113229D01*
X139920984Y-83113229D01*
X139928593Y-83111018D01*
X139935412Y-83106985D01*
X139935417Y-83106983D01*
X139946028Y-83100707D01*
X139963776Y-83092012D01*
X139982617Y-83084552D01*
X140018387Y-83058564D01*
X140028307Y-83052048D01*
X140059535Y-83033580D01*
X140059538Y-83033578D01*
X140066362Y-83029542D01*
X140080683Y-83015221D01*
X140095717Y-83002380D01*
X140105694Y-82995131D01*
X140112107Y-82990472D01*
X140140298Y-82956395D01*
X140148288Y-82947616D01*
X140250499Y-82845405D01*
X140312811Y-82811379D01*
X140339594Y-82808500D01*
X140395487Y-82808500D01*
X140401939Y-82807128D01*
X140401944Y-82807128D01*
X140488888Y-82788647D01*
X140582288Y-82768794D01*
X140588319Y-82766109D01*
X140750722Y-82693803D01*
X140750724Y-82693802D01*
X140756752Y-82691118D01*
X140799712Y-82659906D01*
X140812157Y-82650864D01*
X140911253Y-82578866D01*
X141039040Y-82436944D01*
X141134527Y-82271556D01*
X141193542Y-82089928D01*
X141200773Y-82021134D01*
X141212814Y-81906565D01*
X141213504Y-81900000D01*
X141193542Y-81710072D01*
X141134527Y-81528444D01*
X141039040Y-81363056D01*
X140911253Y-81221134D01*
X140756752Y-81108882D01*
X140750724Y-81106198D01*
X140750722Y-81106197D01*
X140588319Y-81033891D01*
X140588318Y-81033891D01*
X140582288Y-81031206D01*
X140476345Y-81008687D01*
X140401944Y-80992872D01*
X140401939Y-80992872D01*
X140395487Y-80991500D01*
X140204513Y-80991500D01*
X140198058Y-80992872D01*
X140198049Y-80992873D01*
X140123654Y-81008687D01*
X140052863Y-81003286D01*
X139996230Y-80960470D01*
X139988337Y-80948441D01*
X139942341Y-80868774D01*
X139939040Y-80863056D01*
X139894331Y-80813401D01*
X139815675Y-80726045D01*
X139815674Y-80726044D01*
X139811253Y-80721134D01*
X139782165Y-80700000D01*
X141188094Y-80700000D01*
X141197804Y-80724526D01*
G37*
%TD.AperFunction*%
%TD*%
%TA.AperFunction,Conductor*%
%TO.N,GND*%
G36*
X165406458Y-81989928D02*
G01*
X165465473Y-82171556D01*
X165560960Y-82336944D01*
X165565378Y-82341851D01*
X165565379Y-82341852D01*
X165586843Y-82365690D01*
X165617561Y-82429697D01*
X165608796Y-82500151D01*
X165586843Y-82534310D01*
X165560960Y-82563056D01*
X165465473Y-82728444D01*
X165406458Y-82910072D01*
X165386496Y-83100000D01*
X165406458Y-83289928D01*
X165465473Y-83471556D01*
X165560960Y-83636944D01*
X165681865Y-83771222D01*
X165712580Y-83835227D01*
X165703816Y-83905681D01*
X165681863Y-83939841D01*
X165660960Y-83963056D01*
X165565473Y-84128444D01*
X165506458Y-84310072D01*
X165486496Y-84500000D01*
X165487186Y-84506565D01*
X165500368Y-84631981D01*
X165506458Y-84689928D01*
X165565473Y-84871556D01*
X165568776Y-84877278D01*
X165568777Y-84877279D01*
X165660880Y-85036805D01*
X165677618Y-85105800D01*
X165657636Y-85162651D01*
X165660000Y-85164016D01*
X165564513Y-85329404D01*
X165505498Y-85511032D01*
X165504808Y-85517593D01*
X165504808Y-85517595D01*
X165486226Y-85694395D01*
X165485536Y-85700960D01*
X165505498Y-85890888D01*
X165564513Y-86072516D01*
X165567816Y-86078238D01*
X165567817Y-86078239D01*
X165639559Y-86202500D01*
X165656297Y-86271496D01*
X165633076Y-86338587D01*
X165577269Y-86382474D01*
X165530440Y-86391500D01*
X165504513Y-86391500D01*
X165498061Y-86392872D01*
X165498056Y-86392872D01*
X165434461Y-86406390D01*
X165317712Y-86431206D01*
X165311682Y-86433891D01*
X165311681Y-86433891D01*
X165149278Y-86506197D01*
X165149276Y-86506198D01*
X165143248Y-86508882D01*
X164988747Y-86621134D01*
X164860960Y-86763056D01*
X164857659Y-86768774D01*
X164795921Y-86875707D01*
X164744539Y-86924700D01*
X164674825Y-86938136D01*
X164608914Y-86911750D01*
X164597707Y-86901802D01*
X164570405Y-86874500D01*
X164536379Y-86812188D01*
X164533500Y-86785405D01*
X164533500Y-82233286D01*
X165405840Y-81984046D01*
X165406458Y-81989928D01*
G37*
%TD.AperFunction*%
%TD*%
%TA.AperFunction,Conductor*%
%TO.N,+5V*%
G36*
X149267460Y-119513010D02*
G01*
X149247458Y-119581131D01*
X149230559Y-119602101D01*
X148303062Y-120529597D01*
X148240752Y-120563621D01*
X148213969Y-120566500D01*
X147778767Y-120566500D01*
X147767584Y-120565973D01*
X147760091Y-120564298D01*
X147752165Y-120564547D01*
X147752164Y-120564547D01*
X147692001Y-120566438D01*
X147688043Y-120566500D01*
X147660144Y-120566500D01*
X147656154Y-120567004D01*
X147644320Y-120567936D01*
X147600111Y-120569326D01*
X147592497Y-120571538D01*
X147592492Y-120571539D01*
X147580659Y-120574977D01*
X147561296Y-120578988D01*
X147541203Y-120581526D01*
X147533836Y-120584443D01*
X147533831Y-120584444D01*
X147500092Y-120597802D01*
X147488865Y-120601646D01*
X147481561Y-120603768D01*
X147446407Y-120613982D01*
X147439581Y-120618019D01*
X147428972Y-120624293D01*
X147411224Y-120632988D01*
X147392383Y-120640448D01*
X147385967Y-120645110D01*
X147385966Y-120645110D01*
X147356613Y-120666436D01*
X147346693Y-120672952D01*
X147315465Y-120691420D01*
X147315462Y-120691422D01*
X147308638Y-120695458D01*
X147294317Y-120709779D01*
X147279284Y-120722619D01*
X147262893Y-120734528D01*
X147257842Y-120740633D01*
X147257837Y-120740638D01*
X147234701Y-120768604D01*
X147226713Y-120777382D01*
X146357747Y-121646348D01*
X146349464Y-121653886D01*
X146342982Y-121658000D01*
X146337553Y-121663781D01*
X146331448Y-121668832D01*
X146329753Y-121666784D01*
X146279647Y-121696220D01*
X146249016Y-121700000D01*
X146009500Y-121700000D01*
X145941379Y-121679998D01*
X145894886Y-121626342D01*
X145883500Y-121574000D01*
X145883500Y-121128768D01*
X145884027Y-121117585D01*
X145885702Y-121110092D01*
X145883562Y-121042001D01*
X145883500Y-121038044D01*
X145883500Y-121010144D01*
X145882996Y-121006153D01*
X145882063Y-120994311D01*
X145881643Y-120980923D01*
X145880674Y-120950111D01*
X145878462Y-120942497D01*
X145878461Y-120942492D01*
X145875023Y-120930659D01*
X145871012Y-120911295D01*
X145869467Y-120899064D01*
X145868474Y-120891203D01*
X145865557Y-120883836D01*
X145865556Y-120883831D01*
X145852198Y-120850092D01*
X145848354Y-120838865D01*
X145838230Y-120804022D01*
X145836018Y-120796407D01*
X145825707Y-120778972D01*
X145817012Y-120761224D01*
X145809552Y-120742383D01*
X145783564Y-120706613D01*
X145777048Y-120696693D01*
X145761218Y-120669927D01*
X145754542Y-120658638D01*
X145748936Y-120653031D01*
X145740220Y-120644315D01*
X145727379Y-120629281D01*
X145720131Y-120619305D01*
X145720130Y-120619304D01*
X145715472Y-120612893D01*
X145681407Y-120584712D01*
X145672626Y-120576722D01*
X145403647Y-120307742D01*
X145396113Y-120299463D01*
X145392000Y-120292982D01*
X145342347Y-120246355D01*
X145339506Y-120243601D01*
X145319770Y-120223865D01*
X145316573Y-120221385D01*
X145307551Y-120213680D01*
X145281100Y-120188841D01*
X145275321Y-120183414D01*
X145268375Y-120179595D01*
X145268372Y-120179593D01*
X145257566Y-120173652D01*
X145241047Y-120162801D01*
X145240583Y-120162441D01*
X145225041Y-120150386D01*
X145217772Y-120147241D01*
X145217768Y-120147238D01*
X145184463Y-120132826D01*
X145173813Y-120127609D01*
X145135060Y-120106305D01*
X145115437Y-120101267D01*
X145096734Y-120094863D01*
X145085420Y-120089967D01*
X145085419Y-120089967D01*
X145078145Y-120086819D01*
X145070322Y-120085580D01*
X145070312Y-120085577D01*
X145034476Y-120079901D01*
X145022856Y-120077495D01*
X144987711Y-120068472D01*
X144987710Y-120068472D01*
X144980030Y-120066500D01*
X144959776Y-120066500D01*
X144940065Y-120064949D01*
X144927886Y-120063020D01*
X144920057Y-120061780D01*
X144912165Y-120062526D01*
X144876039Y-120065941D01*
X144864181Y-120066500D01*
X144250313Y-120066500D01*
X144182192Y-120046498D01*
X144161218Y-120029595D01*
X143011331Y-118879708D01*
X142977305Y-118817396D01*
X142982370Y-118746581D01*
X143024917Y-118689745D01*
X143091437Y-118664934D01*
X143145169Y-118672825D01*
X143189712Y-118689745D01*
X143259966Y-118716432D01*
X143638303Y-118819224D01*
X143936160Y-118869603D01*
X144021843Y-118884095D01*
X144021846Y-118884095D01*
X144024865Y-118884606D01*
X144178918Y-118895378D01*
X144412896Y-118911740D01*
X144412904Y-118911740D01*
X144415962Y-118911954D01*
X144668875Y-118904889D01*
X144804787Y-118901093D01*
X144804790Y-118901093D01*
X144807861Y-118901007D01*
X144810914Y-118900621D01*
X144810918Y-118900621D01*
X144976460Y-118879708D01*
X145196821Y-118851870D01*
X145199825Y-118851188D01*
X145199828Y-118851187D01*
X145576135Y-118765692D01*
X145576141Y-118765690D01*
X145579131Y-118765011D01*
X145725166Y-118716432D01*
X145948215Y-118642234D01*
X145948221Y-118642232D01*
X145951139Y-118641261D01*
X146094996Y-118577212D01*
X146306497Y-118483046D01*
X146306503Y-118483043D01*
X146309297Y-118481799D01*
X146311966Y-118480283D01*
X146647516Y-118289664D01*
X146647521Y-118289661D01*
X146650184Y-118288148D01*
X146970547Y-118062156D01*
X147267329Y-117805981D01*
X147269450Y-117803754D01*
X147269456Y-117803748D01*
X147535568Y-117524302D01*
X147535572Y-117524297D01*
X147537695Y-117522068D01*
X147539588Y-117519645D01*
X147539595Y-117519637D01*
X147777168Y-117215558D01*
X147777171Y-117215554D01*
X147779067Y-117213127D01*
X147989139Y-116882107D01*
X148165906Y-116532167D01*
X148307682Y-116166647D01*
X148413112Y-115789037D01*
X148481192Y-115402941D01*
X148511269Y-115012045D01*
X148512834Y-114900000D01*
X148508238Y-114806019D01*
X148502508Y-114688864D01*
X148493682Y-114508416D01*
X148436410Y-114120570D01*
X148341564Y-113740163D01*
X148210050Y-113370828D01*
X148043122Y-113016089D01*
X147842375Y-112679332D01*
X147609724Y-112363771D01*
X147607673Y-112361493D01*
X147607668Y-112361487D01*
X147349451Y-112074709D01*
X147347390Y-112072420D01*
X147057877Y-111808058D01*
X146743948Y-111573210D01*
X146741313Y-111571614D01*
X146411235Y-111371711D01*
X146411232Y-111371709D01*
X146408601Y-111370116D01*
X146405831Y-111368789D01*
X146405822Y-111368784D01*
X146057808Y-111202044D01*
X146057806Y-111202043D01*
X146055036Y-111200716D01*
X146052147Y-111199664D01*
X146052141Y-111199662D01*
X145689526Y-111067682D01*
X145689523Y-111067681D01*
X145686627Y-111066627D01*
X145410598Y-110995754D01*
X145309876Y-110969893D01*
X145309873Y-110969892D01*
X145306892Y-110969127D01*
X144919455Y-110909149D01*
X144916398Y-110908978D01*
X144916397Y-110908978D01*
X144886332Y-110907297D01*
X144528015Y-110887264D01*
X144524936Y-110887393D01*
X144524933Y-110887393D01*
X144269423Y-110898102D01*
X144136307Y-110903681D01*
X144133263Y-110904109D01*
X144133261Y-110904109D01*
X143922350Y-110933751D01*
X143748070Y-110958244D01*
X143367011Y-111050432D01*
X142996766Y-111179365D01*
X142993968Y-111180658D01*
X142643667Y-111342519D01*
X142643657Y-111342524D01*
X142640870Y-111343812D01*
X142302720Y-111542204D01*
X142149466Y-111653549D01*
X142082599Y-111677408D01*
X142013448Y-111661327D01*
X141963967Y-111610413D01*
X141949868Y-111540831D01*
X141959768Y-111501575D01*
X141960122Y-111500757D01*
X141967172Y-111484465D01*
X141972383Y-111473827D01*
X141993695Y-111435060D01*
X141995666Y-111427383D01*
X141995668Y-111427378D01*
X141998732Y-111415442D01*
X142005138Y-111396730D01*
X142010033Y-111385419D01*
X142013181Y-111378145D01*
X142014421Y-111370317D01*
X142014423Y-111370310D01*
X142020099Y-111334476D01*
X142022505Y-111322856D01*
X142031528Y-111287711D01*
X142031528Y-111287710D01*
X142033500Y-111280030D01*
X142033500Y-111259776D01*
X142035051Y-111240065D01*
X142036980Y-111227886D01*
X142038220Y-111220057D01*
X142034059Y-111176038D01*
X142033500Y-111164181D01*
X142033500Y-101043698D01*
X142050381Y-100980698D01*
X142081223Y-100927279D01*
X142081224Y-100927278D01*
X142084527Y-100921556D01*
X142143542Y-100739928D01*
X142163504Y-100550000D01*
X142150141Y-100422856D01*
X142144232Y-100366635D01*
X142144232Y-100366633D01*
X142143542Y-100360072D01*
X142084527Y-100178444D01*
X141989040Y-100013056D01*
X141861253Y-99871134D01*
X141762157Y-99799136D01*
X141712094Y-99762763D01*
X141712093Y-99762762D01*
X141706752Y-99758882D01*
X141700724Y-99756198D01*
X141700722Y-99756197D01*
X141538319Y-99683891D01*
X141538318Y-99683891D01*
X141532288Y-99681206D01*
X141438888Y-99661353D01*
X141351944Y-99642872D01*
X141351939Y-99642872D01*
X141345487Y-99641500D01*
X141289595Y-99641500D01*
X141221474Y-99621498D01*
X141200500Y-99604595D01*
X140698652Y-99102747D01*
X140691112Y-99094461D01*
X140687000Y-99087982D01*
X140637348Y-99041356D01*
X140634507Y-99038602D01*
X140614770Y-99018865D01*
X140611573Y-99016385D01*
X140602551Y-99008680D01*
X140576100Y-98983841D01*
X140570321Y-98978414D01*
X140563375Y-98974595D01*
X140563372Y-98974593D01*
X140552566Y-98968652D01*
X140536047Y-98957801D01*
X140535583Y-98957441D01*
X140520041Y-98945386D01*
X140512772Y-98942241D01*
X140512768Y-98942238D01*
X140479463Y-98927826D01*
X140468813Y-98922609D01*
X140430060Y-98901305D01*
X140410437Y-98896267D01*
X140391734Y-98889863D01*
X140380420Y-98884967D01*
X140380419Y-98884967D01*
X140373145Y-98881819D01*
X140365322Y-98880580D01*
X140365312Y-98880577D01*
X140329476Y-98874901D01*
X140317856Y-98872495D01*
X140282711Y-98863472D01*
X140282710Y-98863472D01*
X140275030Y-98861500D01*
X140254776Y-98861500D01*
X140235065Y-98859949D01*
X140222886Y-98858020D01*
X140215057Y-98856780D01*
X140207165Y-98857526D01*
X140171039Y-98860941D01*
X140159181Y-98861500D01*
X139374800Y-98861500D01*
X139306679Y-98841498D01*
X139260186Y-98787842D01*
X139250082Y-98717568D01*
X139265681Y-98672500D01*
X139306223Y-98602279D01*
X139306224Y-98602278D01*
X139309527Y-98596556D01*
X139368542Y-98414928D01*
X139375929Y-98344650D01*
X139387814Y-98231565D01*
X139388504Y-98225000D01*
X139368542Y-98035072D01*
X139309527Y-97853444D01*
X139255305Y-97759528D01*
X139217343Y-97693777D01*
X139214040Y-97688056D01*
X139191663Y-97663204D01*
X139160946Y-97599196D01*
X139169709Y-97528743D01*
X139186446Y-97502704D01*
X139185741Y-97502192D01*
X139189620Y-97496852D01*
X139194040Y-97491944D01*
X139269053Y-97362018D01*
X139286223Y-97332279D01*
X139286224Y-97332278D01*
X139289527Y-97326556D01*
X139310527Y-97261925D01*
X139350601Y-97203319D01*
X139415997Y-97175682D01*
X139485954Y-97187789D01*
X139516615Y-97209013D01*
X139524679Y-97216586D01*
X139531628Y-97220406D01*
X139542432Y-97226346D01*
X139558956Y-97237199D01*
X139574959Y-97249613D01*
X139615543Y-97267176D01*
X139626173Y-97272383D01*
X139664940Y-97293695D01*
X139672617Y-97295666D01*
X139672622Y-97295668D01*
X139684558Y-97298732D01*
X139703266Y-97305137D01*
X139721855Y-97313181D01*
X139729680Y-97314420D01*
X139729682Y-97314421D01*
X139765519Y-97320097D01*
X139777140Y-97322504D01*
X139808959Y-97330673D01*
X139819970Y-97333500D01*
X139840231Y-97333500D01*
X139859940Y-97335051D01*
X139879943Y-97338219D01*
X139887835Y-97337473D01*
X139893062Y-97336979D01*
X139923954Y-97334059D01*
X139935811Y-97333500D01*
X142421233Y-97333500D01*
X142432416Y-97334027D01*
X142439909Y-97335702D01*
X142447835Y-97335453D01*
X142447836Y-97335453D01*
X142507986Y-97333562D01*
X142511945Y-97333500D01*
X142539856Y-97333500D01*
X142543791Y-97333003D01*
X142543856Y-97332995D01*
X142555693Y-97332062D01*
X142587951Y-97331048D01*
X142591970Y-97330922D01*
X142599889Y-97330673D01*
X142619343Y-97325021D01*
X142638700Y-97321013D01*
X142650930Y-97319468D01*
X142650931Y-97319468D01*
X142658797Y-97318474D01*
X142666168Y-97315555D01*
X142666170Y-97315555D01*
X142699912Y-97302196D01*
X142711142Y-97298351D01*
X142745983Y-97288229D01*
X142745984Y-97288229D01*
X142753593Y-97286018D01*
X142760412Y-97281985D01*
X142760417Y-97281983D01*
X142771028Y-97275707D01*
X142788776Y-97267012D01*
X142807617Y-97259552D01*
X142827987Y-97244753D01*
X142843387Y-97233564D01*
X142853307Y-97227048D01*
X142884535Y-97208580D01*
X142884538Y-97208578D01*
X142891362Y-97204542D01*
X142905683Y-97190221D01*
X142920717Y-97177380D01*
X142930694Y-97170131D01*
X142937107Y-97165472D01*
X142965298Y-97131395D01*
X142973288Y-97122616D01*
X143092247Y-97003657D01*
X143100537Y-96996113D01*
X143107018Y-96992000D01*
X143153659Y-96942332D01*
X143156413Y-96939491D01*
X143176135Y-96919769D01*
X143178619Y-96916567D01*
X143186317Y-96907555D01*
X143211161Y-96881098D01*
X143216586Y-96875321D01*
X143226347Y-96857566D01*
X143237198Y-96841047D01*
X143249614Y-96825041D01*
X143267174Y-96784463D01*
X143272391Y-96773813D01*
X143293695Y-96735060D01*
X143298733Y-96715437D01*
X143305137Y-96696734D01*
X143310033Y-96685420D01*
X143310033Y-96685419D01*
X143313181Y-96678145D01*
X143314420Y-96670322D01*
X143314423Y-96670312D01*
X143320099Y-96634476D01*
X143322505Y-96622856D01*
X143331528Y-96587711D01*
X143331528Y-96587710D01*
X143333500Y-96580030D01*
X143333500Y-96559776D01*
X143335051Y-96540065D01*
X143336980Y-96527886D01*
X143338220Y-96520057D01*
X143334059Y-96476038D01*
X143333500Y-96464181D01*
X143333500Y-96148783D01*
X145900000Y-96000000D01*
X149267460Y-95817975D01*
X149267460Y-119513010D01*
G37*
%TD.AperFunction*%
%TD*%
M02*
