M48
; DRILL file {KiCad (6.0.2)} date Sun Apr 24 17:27:06 2022
; FORMAT={-:-/ absolute / inch / decimal}
; #@! TF.CreationDate,2022-04-24T17:27:06+01:00
; #@! TF.GenerationSoftware,Kicad,Pcbnew,(6.0.2)
; #@! TF.FileFunction,Plated,1,2,PTH
FMAT,2
INCH
; #@! TA.AperFunction,Plated,PTH,ViaDrill
T1C0.0157
%
G90
G05
T1
X4.7795Y-3.9921
X4.811Y-3.2638
X4.815Y-3.3228
X4.8504Y-3.7087
X4.8661Y-3.752
X4.8858Y-3.7874
X4.9085Y-3.249
X4.9341Y-3.2805
X4.9961Y-4.3976
X5.0157Y-3.5394
X5.051Y-3.9171
X5.0636Y-3.7671
X5.0648Y-3.8171
X5.0648Y-4.1671
X5.0663Y-4.2171
X5.0679Y-3.8671
X5.0703Y-4.2671
X5.0709Y-3.5039
X5.0787Y-3.5669
X5.0827Y-3.2638
X5.0827Y-3.6654
X5.0827Y-4.6969
X5.128Y-3.1201
X5.128Y-4.7303
X5.1309Y-3.4301
X5.1535Y-3.5157
X5.1575Y-3.2559
X5.187Y-4.7579
X5.2461Y-4.7697
X5.2598Y-3.9685
X5.3425Y-3.378
X5.4016Y-3.378
X5.4242Y-3.1545
X5.4291Y-3.3425
X5.437Y-3.7598
X5.4435Y-3.9671
X5.4447Y-4.0671
X5.4449Y-4.1693
X5.4449Y-4.2165
X5.4449Y-4.2677
X5.4449Y-4.3189
X5.451Y-3.8171
X5.4518Y-3.8671
X5.4803Y-3.2047
X5.5039Y-4.315
X5.5197Y-2.8701
X5.5197Y-3.0866
X5.5236Y-3.2244
X5.5289Y-4.0171
X5.561Y-3.9587
X5.5827Y-3.1142
X5.6181Y-3.1654
X5.8386Y-3.4449
X5.8425Y-4.6457
X5.8701Y-3.3071
X5.9134Y-3.2677
X5.9724Y-3.4134
X5.9724Y-3.9331
X5.9961Y-4.7283
X6.0236Y-4.689
X6.0354Y-3.7165
X6.0433Y-4.6457
X6.0472Y-4.0787
X6.0591Y-4.6024
X6.0906Y-4.1063
X6.1102Y-3.6181
X6.1102Y-3.6732
X6.1102Y-3.7244
X6.1102Y-4.0
X6.126Y-3.1496
X6.1339Y-3.3465
X6.1339Y-4.1378
X6.1565Y-4.0325
X6.1772Y-4.5551
X6.1909Y-4.7894
X6.2087Y-3.2402
X6.2087Y-4.0236
X6.2165Y-4.2283
X6.2303Y-3.9783
X6.2362Y-3.6063
X6.2441Y-4.1969
X6.248Y-4.5984
X6.25Y-4.7894
X6.2756Y-3.9409
X6.2795Y-4.1378
X6.2835Y-3.4528
X6.2835Y-4.1929
X6.2992Y-3.3071
X6.3091Y-4.7933
X6.3189Y-4.1024
X6.3504Y-4.2165
X6.3661Y-4.3898
X6.3681Y-4.7894
X6.4252Y-4.7835
X6.4449Y-4.1417
X6.4488Y-4.5236
X6.4803Y-3.6063
X6.4961Y-3.3071
X6.5079Y-4.5354
X6.5197Y-3.437
X6.5315Y-4.5787
X6.5472Y-3.0827
X6.5472Y-3.2205
X6.5472Y-3.2717
X6.5511Y-3.3741
X6.5512Y-3.3268
X6.5551Y-4.6142
X6.5669Y-4.6575
X6.5866Y-4.6969
X6.6417Y-4.437
T0
M30
